<svg width="68" height="46" viewBox="0 0 68 46" fill="none" xmlns="http://www.w3.org/2000/svg">
<path fill-rule="evenodd" clip-rule="evenodd" d="M19.3659 29.7717H22.1137L19.3659 25.1922L17.0454 21.3358L7.18478 27.2582L8.6908 29.7717H19.3659ZM44.9287 29.7717H58.3516L49.9963 15.8507L40.7567 0.484375L36.9504 2.77412L30.9058 6.40685L36.9504 16.4714L44.9287 29.7717ZM40.2379 34.3617C39.2912 33.7515 38.1817 33.3951 36.9808 33.3951H36.9505C33.6333 33.4153 30.9365 36.1222 30.9365 39.4397C30.9365 42.7576 33.6333 45.4641 36.9505 45.4847H36.9808C38.1817 45.4847 39.2912 45.1287 40.2379 44.5181V45.1489H43.0157V29.7725H40.2379V34.3617ZM40.2379 40.0705C39.9429 41.5972 38.5891 42.767 36.9808 42.767H36.9504C35.1288 42.7467 33.6535 41.261 33.6535 39.4394C33.6535 37.6181 35.1288 36.1323 36.9504 36.1219H36.9808C38.5891 36.1219 39.9426 37.2823 40.2379 38.8085V40.0705ZM53.2837 34.3614C52.3153 33.7294 51.1837 33.3935 50.0273 33.3947H49.9963C46.6791 33.4149 43.9827 36.1219 43.9827 39.4394C43.9827 42.7572 46.6791 45.4638 49.9963 45.4844H50.0273C51.2283 45.4844 52.3475 45.1283 53.2837 44.5177V45.1485H56.0622V33.6998H53.2837V34.3614ZM53.2837 40.0705C52.9888 41.5972 51.6349 42.767 50.0273 42.767H49.9963C48.1754 42.7467 46.6997 41.261 46.6997 39.4394C46.6997 37.6181 48.1754 36.1323 49.9963 36.1219H50.0273C51.6349 36.1219 52.9884 37.2823 53.2837 38.8085V40.0705ZM65.9431 38.6867C65.8415 38.6353 65.6987 38.5847 65.5357 38.5236C64.915 38.31 63.9075 38.0454 62.5031 37.7402C61.2718 37.4651 60.6511 37.1094 60.6511 36.6615C60.6511 36.3459 60.7628 36.0914 60.9764 35.9085C61.2617 35.6641 61.7699 35.542 62.5031 35.542C63.2459 35.542 63.7853 35.705 64.1009 36.0202C64.2943 36.2136 64.4364 36.5592 64.5282 37.048H67.4795C67.4795 35.6031 66.8891 34.5652 65.7291 33.9344C65.668 33.8945 65.6032 33.8604 65.5357 33.8328C64.7313 33.4561 63.6631 33.2627 62.3303 33.2627C60.7118 33.2627 59.491 33.6903 58.6773 34.5551C58.0262 35.247 57.7106 36.0914 57.7106 37.0888C57.7106 38.3309 58.3208 39.226 59.5626 39.8062C60.0307 40.03 61.1702 40.3456 62.982 40.7324C64.1931 40.997 64.8029 41.3737 64.8029 41.852C64.8029 42.1372 64.6815 42.3812 64.4168 42.605C64.0806 42.8898 63.5716 43.0326 62.8902 43.0326C61.9843 43.0326 61.3434 42.8801 60.967 42.5851C60.59 42.3002 60.3966 41.883 60.3966 41.3538H57.3032C57.3032 42.7582 57.8936 43.8062 59.084 44.4978C60.0307 45.0371 61.2721 45.3122 62.8092 45.3122C63.8366 45.3122 64.7523 45.1391 65.536 44.8036C65.6991 44.7324 65.8419 44.6608 65.9944 44.5795C67.2055 43.9082 67.816 42.8396 67.816 41.3744C67.8157 40.1724 67.1943 39.2766 65.9431 38.6867ZM9.48465 34.3614C8.51192 33.7306 7.37744 33.3949 6.21813 33.3947H6.1874C2.88039 33.4149 0.183594 36.1219 0.183594 39.4394C0.183594 42.7572 2.88039 45.4638 6.1874 45.4844H6.21813C7.41904 45.4844 8.53824 45.1283 9.48465 44.5177V45.1485H12.2628V33.6998H9.48465V34.3614ZM9.48465 40.0705C9.18967 41.5972 7.83585 42.767 6.21813 42.767H6.1874C4.37628 42.7467 2.90064 41.261 2.90064 39.4394C2.90064 37.6181 4.37628 36.1323 6.1874 36.1219H6.21813C7.83621 36.1219 9.18967 37.2823 9.48465 38.8085V40.0705ZM26.8251 32.4891H29.8476V29.8328H26.8251V32.4891ZM26.8251 45.1482H29.8476V33.3947H26.8251V45.1482ZM22.6631 34.3617C21.6903 33.731 20.5557 33.3952 19.3962 33.3951H19.3659C16.0484 33.4153 13.3516 36.1222 13.3516 39.4397C13.3516 42.7576 16.048 45.4641 19.3659 45.4847H19.3962C20.5557 45.4847 21.6903 45.149 22.6631 44.5181V45.1489H25.4412V29.7725H22.6631V34.3617ZM22.6632 40.0705C22.3682 41.5972 21.0144 42.767 19.3963 42.767H19.3659C17.5443 42.7467 16.0687 41.261 16.0687 39.4394C16.0687 37.6181 17.5443 36.1323 19.3659 36.1219H19.3963C21.0144 36.1219 22.3678 37.2823 22.6632 38.8085V40.0705ZM40.2271 29.772L36.9505 24.2974L28.9013 10.9053L19.366 16.6448L19.0403 16.8379L19.366 17.3772L26.8147 29.772H40.2271Z" fill="#1D191F"/>
</svg>
