<svg width="32" height="33" viewBox="0 0 32 33" fill="none" xmlns="http://www.w3.org/2000/svg">
<g clip-path="url(#clip0_301_10081-629564)">
<path d="M25.4375 0.529297H6.5625C2.94394 0.529297 0 3.47323 0 7.0918V25.9668C0 29.5854 2.94394 32.5293 6.5625 32.5293H25.4375C29.0561 32.5293 32 29.5854 32 25.9668V7.0918C32 3.47323 29.0561 0.529297 25.4375 0.529297ZM30.125 25.9668C30.125 28.5515 28.0222 30.6543 25.4375 30.6543H6.5625C3.97781 30.6543 1.875 28.5515 1.875 25.9668V7.0918C1.875 4.50711 3.97781 2.4043 6.5625 2.4043H25.4375C28.0222 2.4043 30.125 4.50711 30.125 7.0918V25.9668Z" fill="#1D191F"/>
<path d="M19.1029 8.24958C18.9948 7.84646 18.7363 7.50946 18.3749 7.30083C17.6289 6.87008 16.6714 7.12652 16.2405 7.87277L16 8.28927L15.7595 7.87271C15.3287 7.12664 14.3713 6.87008 13.6251 7.30077H13.6251C12.8789 7.73158 12.6224 8.68902 13.0532 9.43521L14.1958 11.4142L9.97988 18.7164H6.90625C6.04469 18.7164 5.34375 19.4173 5.34375 20.2789C5.34375 21.1405 6.04469 21.8414 6.90625 21.8414H18.7725L16.9683 18.7164H13.5883L18.9468 9.43527C19.1554 9.07383 19.2109 8.65271 19.1029 8.24958Z" fill="#1D191F"/>
<path d="M25.0937 18.7162H22.0201L18.5259 12.6641L16.7217 15.7891L22.1469 25.1858C22.3556 25.5473 22.6925 25.8059 23.0957 25.9139C23.2304 25.95 23.3669 25.9679 23.5027 25.9679C23.7734 25.9679 24.0407 25.8969 24.2815 25.7578C25.0276 25.327 25.2841 24.3695 24.8533 23.6234L23.8242 21.8412H25.0937C25.9552 21.8412 26.6562 21.1403 26.6562 20.2787C26.6562 19.4171 25.9552 18.7162 25.0937 18.7162Z" fill="#1D191F"/>
<path d="M7.45382 23.0918L7.14651 23.624C6.71576 24.3702 6.97232 25.3277 7.71844 25.7584C7.96388 25.9001 8.23213 25.9675 8.49707 25.9674C9.03744 25.9674 9.56376 25.6872 9.85288 25.1865L11.0623 23.0918H7.45382Z" fill="#1D191F"/>
</g>
<defs>
<clipPath id="clip0_301_10081-629564">
<rect width="32" height="32" fill="white" transform="translate(0 0.529297)"/>
</clipPath>
</defs>
</svg>
