<svg width="44" height="45" viewBox="0 0 44 45" fill="none" xmlns="http://www.w3.org/2000/svg">
<path d="M13.4062 30.7277H4.8125C4.33787 30.7277 3.95312 31.1125 3.95312 31.587V42.7589C3.95312 43.2335 4.33787 43.6183 4.8125 43.6183H13.4062C13.8809 43.6183 14.2656 43.2335 14.2656 42.7589V31.587C14.2656 31.1125 13.8809 30.7277 13.4062 30.7277ZM12.5469 41.8995H5.67188V32.4464H12.5469V41.8995Z" fill="#1D191F"/>
<path d="M26.2969 24.712H17.7031C17.2285 24.712 16.8438 25.0969 16.8438 25.5714V42.7589C16.8438 43.2335 17.2285 43.6183 17.7031 43.6183H26.2969C26.7714 43.6183 27.1562 43.2335 27.1562 42.7589V25.5714C27.1562 25.0969 26.7714 24.712 26.2969 24.712ZM25.4375 41.8995H18.5625V26.4308H25.4375V41.8995Z" fill="#1D191F"/>
<path d="M39.1875 15.2589H30.5938C30.1192 15.2589 29.7344 15.6437 29.7344 16.1183V42.7589C29.7344 43.2335 30.1192 43.6183 30.5938 43.6183H39.1875C39.662 43.6183 40.0469 43.2335 40.0469 42.7589V16.1183C40.0469 15.6437 39.662 15.2589 39.1875 15.2589ZM38.3281 41.8995H31.4531V16.9777H38.3281V41.8995Z" fill="#1D191F"/>
<path d="M35.75 37.6027C36.2245 37.6027 36.6094 37.2178 36.6094 36.7433V22.1339C36.6094 21.6593 36.2245 21.2745 35.75 21.2745C35.2755 21.2745 34.8906 21.6593 34.8906 22.1339V36.7433C34.8906 37.2178 35.2755 37.6027 35.75 37.6027Z" fill="#1D191F"/>
<path d="M4.50386 22.3503L6.47931 23.8479L5.76147 26.2207C5.65551 26.5708 5.78287 26.9497 6.07884 27.1647C6.37481 27.3798 6.7745 27.3838 7.07486 27.1748L9.1096 25.759L11.1443 27.175C11.292 27.2777 11.4636 27.329 11.6351 27.329C12.211 27.329 12.6244 26.7716 12.4577 26.2208L11.7399 23.848L13.7153 22.3504C14.0069 22.1294 14.1265 21.748 14.0134 21.4C13.9004 21.052 13.5794 20.8138 13.2136 20.8063L10.7352 20.7559L9.92128 18.4144C9.80122 18.0686 9.47543 17.837 9.1096 17.837C8.74376 17.837 8.41797 18.0686 8.29783 18.4143L7.48392 20.7558L5.00548 20.8063C4.63973 20.8137 4.31875 21.052 4.20566 21.3999C4.09265 21.7479 4.21228 22.1293 4.50386 22.3503V22.3503ZM8.11685 22.462C8.47624 22.4547 8.79309 22.2245 8.91108 21.885L9.1096 21.3138L9.30811 21.885C9.42619 22.2245 9.74304 22.4546 10.1023 22.462L10.7068 22.4743L10.225 22.8396C9.93855 23.0568 9.81755 23.4292 9.92162 23.7733L10.0967 24.352L9.60039 24.0066C9.30571 23.8016 8.91435 23.8008 8.61864 24.0066L8.12235 24.352L8.2974 23.7733C8.40147 23.4292 8.28047 23.0568 7.99404 22.8396L7.51219 22.4743L8.11685 22.462Z" fill="#1D191F"/>
<path d="M17.3945 16.3347L19.3699 17.8323L18.6521 20.205C18.5461 20.5552 18.6735 20.9341 18.9695 21.1492C19.2654 21.3643 19.6652 21.3683 19.9655 21.1593L22.0002 19.7434L24.0351 21.1594C24.1827 21.2621 24.3544 21.3134 24.5259 21.3134C25.1017 21.3134 25.5152 20.756 25.3484 20.2051L24.6306 17.8324L26.6059 16.3348C26.8975 16.1137 27.0171 15.7323 26.9041 15.3844C26.7911 15.0364 26.47 14.7982 26.1043 14.7907L23.6258 14.7403L22.8118 12.3987C22.6918 12.053 22.3661 11.8214 22.0002 11.8214C21.6344 11.8214 21.3086 12.053 21.1885 12.3987L20.3745 14.7402L17.8961 14.7906C17.5304 14.7981 17.2094 15.0363 17.0963 15.3843C16.9833 15.7323 17.1029 16.1136 17.3945 16.3347V16.3347ZM21.0075 16.4464C21.3669 16.4391 21.6837 16.2089 21.8017 15.8693L22.0003 15.2982L22.1989 15.8693C22.3169 16.2089 22.6338 16.439 22.9931 16.4464L23.5975 16.4587L23.1159 16.8239C22.8294 17.0411 22.7084 17.4135 22.8125 17.7576L22.9876 18.3363L22.4913 17.991C22.1962 17.7857 21.8046 17.7856 21.5095 17.991L21.0132 18.3363L21.1883 17.7576C21.2924 17.4136 21.1714 17.0411 20.8849 16.8239L20.4032 16.4587L21.0075 16.4464Z" fill="#1D191F"/>
<path d="M30.2846 6.88155L32.2599 8.37918L31.5421 10.7519C31.4361 11.1021 31.5635 11.4809 31.8595 11.696C32.1554 11.911 32.5552 11.9151 32.8555 11.7062L34.8904 10.2903L36.9252 11.7063C37.0729 11.809 37.2446 11.8603 37.4161 11.8603C37.9919 11.8603 38.4054 11.3029 38.2386 10.752L37.5208 8.37927L39.496 6.88164C39.7876 6.66061 39.9072 6.27922 39.7942 5.93125C39.6812 5.58329 39.3602 5.34508 38.9944 5.3376L36.516 5.28715L35.702 2.94561C35.582 2.59989 35.2562 2.36829 34.8904 2.36829C34.5245 2.36829 34.1988 2.59989 34.0787 2.94553L33.2647 5.28707L30.7863 5.33751C30.4205 5.34499 30.0995 5.58321 29.9864 5.93117C29.8734 6.27913 29.9931 6.66052 30.2846 6.88155V6.88155ZM33.8976 6.99327C34.257 6.98597 34.5738 6.75574 34.6918 6.4162L34.8904 5.84506L35.089 6.4162C35.207 6.75574 35.5238 6.98588 35.8831 6.99327L36.4876 7.00556L36.0059 7.37079C35.7195 7.58796 35.5985 7.96041 35.7026 8.3045L35.8776 8.88321L35.3813 8.53783C35.0862 8.33252 34.6947 8.33252 34.3996 8.53783L33.9033 8.88321L34.0784 8.3045C34.1824 7.9605 34.0614 7.58796 33.775 7.37079L33.2933 7.00556L33.8976 6.99327Z" fill="#1D191F"/>
</svg>
