<svg width="28" height="29" viewBox="0 0 28 29" fill="none" xmlns="http://www.w3.org/2000/svg">
<path d="M25.8735 9.77122C25.9608 9.30354 26.0049 8.82883 26.0055 8.35307C26.0002 3.93443 22.4139 0.356734 17.9952 0.362067C14.6316 0.36611 11.6297 2.47362 10.4832 5.6359C8.43057 4.8188 6.10414 5.82037 5.28698 7.87303C5.21625 8.0507 5.15835 8.23318 5.11376 8.41911C1.83621 8.90929 -0.423362 11.9636 0.0668167 15.2412C0.506425 18.1807 3.03168 20.3554 6.00382 20.3542H11.0042C11.5566 20.3542 12.0043 19.9064 12.0043 19.3541C12.0043 18.8017 11.5566 18.354 11.0042 18.354H6.00382C3.79446 18.354 2.00345 16.5629 2.00345 14.3536C2.00345 12.1442 3.79446 10.3532 6.00382 10.3532C6.55617 10.3532 7.00392 9.90547 7.00392 9.35312C7.00574 8.24847 7.90271 7.35443 9.00736 7.35625C9.52977 7.35712 10.0311 7.56234 10.4042 7.92799C10.7976 8.31568 11.4308 8.31106 11.8185 7.91768C11.964 7.76995 12.0601 7.58068 12.0933 7.37593C12.6361 4.11005 15.7237 1.90263 18.9896 2.44549C22.2555 2.98835 24.4629 6.07592 23.9201 9.34181C23.8877 9.53653 23.8457 9.72956 23.7943 9.92012C23.6793 10.3376 23.846 10.7816 24.2074 11.0202C26.0483 12.2417 26.5504 14.7243 25.3289 16.5653C24.5895 17.6795 23.3424 18.3507 22.0052 18.3538H19.0049C18.4525 18.3538 18.0048 18.8016 18.0048 19.3539C18.0048 19.9063 18.4525 20.354 19.0049 20.354H22.0052C25.3192 20.3509 28.0032 17.6618 28 14.3478C27.9984 12.584 27.2206 10.9101 25.8735 9.77122Z" fill="#FAFAFA"/>
<path d="M20.6893 21.6471C20.3017 21.2728 19.6873 21.2728 19.2998 21.6471L16.0045 24.9404V10.3531C16.0045 9.80078 15.5567 9.35303 15.0044 9.35303C14.452 9.35303 14.0043 9.80078 14.0043 10.3531V24.9404L10.711 21.6471C10.3137 21.2634 9.68057 21.2744 9.29686 21.6716C8.92253 22.0592 8.92253 22.6736 9.29686 23.0612L14.2973 28.0616C14.6873 28.4526 15.3206 28.4534 15.7116 28.0633C15.7122 28.0628 15.7128 28.0622 15.7134 28.0616L20.7138 23.0612C21.0976 22.6639 21.0866 22.0308 20.6893 21.6471Z" fill="#FAFAFA"/>
</svg>
