<svg width="694" height="600" viewBox="0 0 694 600" fill="none" xmlns="http://www.w3.org/2000/svg">
<path d="M-0.00012207 535.295V599.097H694C694 599.097 664.554 546.679 597.93 506.741C597.93 506.741 585.633 507.971 586.403 499.709C587.173 491.45 591.783 481.462 586.403 486.072C581.023 490.683 581.023 502.734 578.718 497.477C576.413 492.218 579.485 480.667 575.643 484.907C571.8 489.147 567.958 497.388 564.883 492.884C561.808 488.38 501.861 471.478 497.251 470.708C492.639 469.941 495.064 460.088 493.774 459.842C487.259 458.609 493.731 469.171 486.651 466.098C479.573 463.025 458.821 462.834 449.599 457.167C440.376 451.502 270.525 435.368 146.018 462.641C21.5135 489.913 -0.00012207 535.295 -0.00012207 535.295Z" fill="#FEFA9C"/>
<path d="M380.679 299.408C381.053 299.408 381.425 299.234 381.661 298.905C384.916 294.343 390.902 280.99 391.515 274.828C392.131 268.672 388.626 253.964 388.478 253.344C388.326 252.697 387.688 252.306 387.026 252.451C386.379 252.607 385.98 253.258 386.134 253.903C386.169 254.053 389.693 268.837 389.119 274.589C388.545 280.31 382.742 293.242 379.697 297.503C379.312 298.046 379.437 298.797 379.978 299.186C380.192 299.336 380.435 299.408 380.679 299.408Z" fill="#1D191F"/>
<path d="M363.562 435.414L371.488 434.842C362.892 432.541 357.56 418.702 354.233 409.19C353.609 407.412 353.012 405.706 352.413 404.141C349.448 396.419 349.188 372.396 349.344 363.163C350.586 358.813 353.894 348.228 356.212 344.776C357.219 343.283 357.564 341.614 357.217 339.952C356.482 336.459 352.921 334.206 349.775 332.217C348.772 331.582 347.318 330.661 346.713 330.101C346.01 325.645 340.819 324.253 336.976 323.225C335.774 322.903 334.631 322.597 333.72 322.258C329.994 318.836 313.698 287.667 310.114 270.936C307.085 256.798 312.213 251.821 312.267 251.771L307.563 246.283C306.683 247.016 299.088 253.981 303.045 272.451C306.121 286.81 323.945 326.117 330.733 328.853C332.094 329.398 333.625 329.81 335.108 330.205C336.51 330.582 338.767 331.187 339.622 331.722C340.072 334.63 342.912 336.428 345.907 338.323C347.079 339.064 349.122 340.358 349.91 341.211C346.5 346.732 342.693 360.103 342.258 361.651L342.125 362.556C342.059 365.961 341.595 396.132 345.664 406.729C346.24 408.231 346.813 409.868 347.41 411.574C351.136 422.226 351.273 432.123 363.562 435.414ZM346.785 330.817C346.785 330.819 346.785 330.821 346.785 330.823C346.785 330.823 346.785 330.819 346.785 330.817Z" fill="#FEF86B"/>
<path d="M229.468 363.267C235.168 360.466 249.956 357.568 258.808 355.694C262.594 354.891 265.865 354.198 268.316 353.572C273.562 352.234 277.199 353.715 280.409 355.024C281.582 355.503 282.691 355.954 283.813 356.237C288.313 357.354 291.365 352.942 293.587 349.711C293.82 349.369 294.107 348.953 294.381 348.566C294.404 348.579 294.429 348.591 294.45 348.604C297.265 350.25 301.122 352.496 304.764 351.427C306.497 350.919 307.877 349.746 308.755 348.034C309.866 345.862 310.394 343.615 310.86 341.63C311.543 338.738 312.031 336.906 313.456 335.768C318.368 331.838 318.35 329.99 318.462 329.427L314.769 323.412C314.763 323.443 311.803 327.833 308.942 330.124C305.499 332.878 304.611 336.648 303.826 339.974C303.446 341.591 303.086 343.122 302.462 344.449C301.317 344.243 299.021 342.901 298.097 342.36C296.77 341.587 295.81 341.027 294.797 340.777C291.543 339.956 289.54 342.837 287.628 345.614C286.944 346.613 285.743 348.358 284.972 349.043C284.447 348.862 283.825 348.61 283.141 348.329C279.533 346.858 274.089 344.634 266.528 346.569C264.223 347.158 261.02 347.834 257.31 348.621C247.57 350.686 238.185 353.414 231.679 356.609L229.468 363.267Z" fill="#FEF86B"/>
<path d="M188.502 402.423C188.729 402.423 188.955 402.359 189.161 402.228C202.598 393.465 232.873 390.998 233.177 390.973C233.84 390.921 234.335 390.342 234.281 389.679C234.229 389.015 233.634 388.474 232.987 388.572C231.72 388.67 201.798 391.108 187.842 400.21C187.285 400.574 187.129 401.321 187.491 401.878C187.724 402.23 188.109 402.423 188.502 402.423Z" fill="#1D191F"/>
<path d="M199.317 378.74C200.093 378.74 201.012 378.586 202.087 378.278C206.379 377.053 229.075 364.843 230.04 364.327C230.627 364.011 230.845 363.281 230.529 362.694C230.211 362.109 229.478 361.893 228.896 362.205C220.809 366.562 204.661 375.039 201.424 375.965C199.612 376.481 198.907 376.321 198.713 376.25C198.59 375.713 198.11 375.316 197.54 375.316C196.874 375.316 196.335 375.855 196.335 376.521C196.335 376.989 196.564 377.663 197.203 378.145C197.729 378.541 198.432 378.74 199.317 378.74ZM198.744 376.516V376.518V376.516Z" fill="#1D191F"/>
<path d="M186.696 362.661C186.696 362.661 198.143 373.806 198.143 375.01C198.143 376.215 190.01 383.445 189.407 385.854C188.806 388.263 183.382 385.25 181.876 385.854C180.37 386.457 180.671 390.674 184.888 391.577C189.105 392.48 188.804 403.325 187.297 404.831C185.791 406.337 172.839 412.964 165.609 420.495C158.38 428.026 154.464 435.555 151.452 436.759C148.439 437.964 145.427 438.867 144.524 432.844C143.621 426.819 142.716 413.869 150.549 404.53C158.382 395.193 161.694 394.288 164.103 394.288C166.512 394.288 170.429 394.589 168.923 391.275C167.417 387.961 164.103 384.949 165.309 382.238C166.514 379.529 175.851 361.758 186.696 362.661Z" fill="#1D191F"/>
<path d="M144.834 441.176C147.316 441.176 148.756 439.734 149.218 438.806C149.513 438.211 149.274 437.489 148.679 437.189C148.084 436.898 147.374 437.131 147.071 437.71C146.977 437.878 146.151 439.232 143.611 438.604C140.151 437.741 137.444 436.75 136.671 432.625C135.803 427.988 136.454 415.613 141.936 406.668C144.718 402.126 148.458 398.614 151.464 395.791C154.716 392.737 157.29 390.324 157.473 387.748C157.539 386.816 157.562 385.87 157.585 384.9C157.668 381.532 157.754 378.049 159.757 374.045C162.48 368.598 168.963 361.468 175.1 358.957C180.736 356.654 183.282 357.667 185.581 363.131C185.841 363.74 186.544 364.027 187.16 363.774C187.772 363.514 188.061 362.808 187.803 362.194C184.986 355.506 181.04 353.925 174.187 356.727C167.275 359.557 160.481 367.206 157.602 372.967C155.359 377.454 155.263 381.38 155.178 384.842C155.155 385.772 155.13 386.681 155.068 387.578C154.951 389.211 152.571 391.447 149.815 394.035C146.704 396.956 142.833 400.591 139.879 405.407C133.712 415.472 133.467 428.618 134.301 433.066C135.333 438.579 139.177 439.979 143.024 440.942C143.684 441.105 144.283 441.176 144.834 441.176Z" fill="#1D191F"/>
<path d="M359.262 252.447C365.177 252.447 375.887 251.669 381.496 246.476C384.514 243.68 386 241.443 387.31 239.469C388.442 237.763 389.42 236.292 391.207 234.622C395.834 230.299 393.93 225.279 393.845 225.066C393.601 224.444 392.9 224.145 392.282 224.386C391.667 224.63 391.363 225.324 391.6 225.942C391.658 226.094 392.963 229.681 389.559 232.862C387.568 234.724 386.468 236.382 385.303 238.136C384.007 240.087 382.665 242.107 379.858 244.708C374.073 250.067 361.234 250.131 357.419 250.008C356.751 249.979 356.198 250.512 356.179 251.178C356.16 251.843 356.682 252.397 357.348 252.418C357.906 252.434 358.551 252.447 359.262 252.447Z" fill="#1D191F"/>
<path d="M350.408 263.172C362.232 263.172 373.774 260.966 379.913 258.559C392.672 253.556 392.294 248.199 391.875 246.676C391.709 246.07 391.503 245.55 391.314 245.072C390.823 243.832 390.638 243.37 391.389 242.243C393.111 239.659 391.715 234.067 391.551 233.436C391.384 232.795 390.729 232.402 390.082 232.577C389.437 232.745 389.052 233.403 389.221 234.046C389.774 236.166 390.19 239.696 389.383 240.905C387.931 243.083 388.511 244.546 389.073 245.96C389.235 246.368 389.412 246.805 389.551 247.317C390.111 249.347 387.694 252.921 379.035 256.314C368.608 260.409 342.093 263.916 326.382 256.352C300.899 244.082 299.097 239.536 299.151 238.435C299.203 237.391 299.326 236.268 299.449 235.111C299.804 231.78 300.208 228.006 299.07 225.075C297.649 221.411 296.237 217.775 297.693 213.227C298.723 209.998 298.954 205.174 299.178 200.509C299.316 197.672 299.442 194.992 299.742 192.953C300.595 187.209 302.403 183.067 303.137 182.458C303.647 182.031 303.715 181.272 303.291 180.76C302.862 180.25 302.103 180.186 301.594 180.604C299.838 182.066 298.061 187.852 297.36 192.598C297.04 194.755 296.908 197.493 296.769 200.391C296.555 204.899 296.332 209.561 295.394 212.488C293.677 217.848 295.319 222.071 296.765 225.797C297.747 228.329 297.393 231.645 297.05 234.853C296.921 236.055 296.798 237.227 296.744 238.313C296.611 241.013 299.428 246.045 325.335 258.52C332.371 261.909 341.469 263.172 350.408 263.172Z" fill="#1D191F"/>
<path d="M242.003 265.247C248.147 265.247 254.952 263.876 258.05 263.165C262.889 262.058 263.856 255.702 264.561 251.065C264.819 249.363 265.213 246.792 265.689 246.386C268.566 244.468 269.028 242.787 269.028 238.374C269.028 236.092 270.337 234.351 271.849 232.333C272.783 231.089 273.749 229.805 274.522 228.255C276.208 224.887 282.047 208.422 280.624 203.675C279.634 200.355 283.674 192.88 290.334 190.283C297.567 187.464 312.024 178.516 312.636 178.136C313.2 177.786 313.374 177.044 313.025 176.478C312.671 175.912 311.924 175.743 311.367 176.089C311.219 176.18 296.49 185.301 289.46 188.039C281.866 190.999 276.905 199.635 278.317 204.368C279.347 207.803 274.485 222.948 272.369 227.179C271.693 228.532 270.794 229.73 269.925 230.887C268.302 233.05 266.621 235.289 266.621 238.374C266.621 242.483 266.22 243.138 264.345 244.387C263.009 245.279 262.66 247.553 262.184 250.703C261.549 254.878 260.756 260.075 257.517 260.818C246.37 263.372 233.771 264.049 232.434 259.507C231.316 255.708 231.799 249.673 232.221 244.349C232.529 240.48 232.82 236.826 232.471 234.378C231.947 230.697 238.785 205.09 242.873 189.79C244.858 182.359 246.424 176.49 246.915 174.152C248.363 167.284 290.44 136.837 301.214 132.446C310.497 128.666 324.34 123.718 337.671 124.099C338.027 124.134 338.373 123.962 338.608 123.697C340.988 121.028 344.023 118.045 345.209 117.358C345.398 117.558 345.681 117.864 345.943 118.145C348.821 121.253 355.542 128.534 365.172 127.305C373.477 126.246 378.292 124.315 380.566 123.344C380.605 124.301 380.774 125.493 381.639 126.358C381.697 126.417 381.764 126.471 381.833 126.516C382.036 126.65 386.971 129.735 400.473 128.514C413.571 127.324 420.786 126.666 433.346 114.109C436.855 110.599 440.948 106.307 445.279 101.762C455.375 91.1722 466.815 79.1703 471.188 76.9838C476.179 74.4873 485.173 73.4825 488.408 73.1912C488.768 76.9901 490.62 88.1077 500.034 91.8317C500.011 93.3233 499.366 97.7421 493.588 105.296C492.742 106.405 491.666 107.824 490.414 109.48C480.692 122.331 457.924 152.426 450.696 155.526C448.362 156.526 444.491 157.916 440.007 159.524C427.829 163.893 412.673 169.331 408.15 173.854C404.33 177.674 401.031 192.206 398.12 205.027C396.418 212.525 394.658 220.277 393.618 221.525C392.062 223.393 388.858 225.024 386.283 226.335C383.665 227.666 382.153 228.467 381.491 229.462C381.123 230.015 381.273 230.762 381.826 231.132C382.378 231.496 383.126 231.353 383.497 230.797C383.84 230.281 385.8 229.283 387.375 228.482C390.148 227.071 393.597 225.315 395.468 223.069C396.814 221.452 398.176 215.66 400.471 205.56C403.026 194.303 406.525 178.883 409.854 175.556C413.996 171.414 429.501 165.851 440.823 161.79C445.341 160.169 449.244 158.769 451.647 157.739C459.461 154.39 481.668 125.039 492.338 110.934C493.588 109.284 494.658 107.868 495.505 106.761C503.458 96.3587 502.48 91.2263 502.343 90.6771C502.241 90.2797 501.948 89.9593 501.563 89.8282C491.258 86.3331 490.738 72.0054 490.732 71.8597C490.722 71.5331 490.58 71.2232 490.339 71.0026C490.098 70.7821 489.783 70.676 489.45 70.6885C488.932 70.7218 476.681 71.5456 470.113 74.8285C465.363 77.2023 454.269 88.8421 443.538 100.099C439.215 104.635 435.133 108.916 431.644 112.405C419.702 124.347 413.203 124.937 400.259 126.113C388.86 127.155 384.077 124.983 383.268 124.559C382.985 124.149 382.97 123.308 382.962 122.738C382.952 122.064 382.929 120.485 381.491 120.485C381.113 120.485 380.786 120.625 380.002 120.964C378.009 121.823 373.345 123.835 364.871 124.912C356.487 125.969 350.341 119.339 347.716 116.505C346.854 115.578 346.49 115.193 346.085 114.991C345.384 114.641 344.1 113.999 337.189 121.677C323.616 121.43 309.667 126.402 300.311 130.215C289.456 134.636 246.352 165.164 244.562 173.655C244.084 175.931 242.526 181.772 240.547 189.166C234.502 211.807 229.542 230.864 230.089 234.717C230.403 236.901 230.122 240.426 229.823 244.156C229.382 249.688 228.884 255.96 230.126 260.185C231.266 264.088 236.357 265.247 242.003 265.247Z" fill="#1D191F"/>
<path d="M365.325 137.456C369.225 137.456 372.949 136.821 376.253 135.683C388.28 131.537 388.147 127.478 387.999 126.706C387.87 126.049 387.232 125.627 386.587 125.752C385.965 125.87 385.548 126.446 385.617 127.064C385.596 127.272 385.136 130.073 375.467 133.405C364.723 137.109 349.175 135.059 338.639 122.136C338.217 121.618 337.458 121.545 336.942 121.963C336.426 122.383 336.349 123.143 336.769 123.659C344.814 133.52 355.611 137.454 365.325 137.456Z" fill="#1D191F"/>
<path d="M470.642 42.1696L619.643 16.0645L481.886 20.8828L470.642 42.1696Z" fill="#FEF86B"/>
<path d="M495.165 20.4189V13.6533L619.643 16.0645L495.165 20.4189Z" fill="#A9A547"/>
<path d="M487.096 13.4977L512.812 0L619.643 16.065L487.096 13.4977Z" fill="#FEF86B"/>
<path d="M501.164 92.1721C501.503 92.1721 501.84 92.0286 502.077 91.754C502.26 91.5397 520.541 70.3069 526.004 66.0108C527.115 65.1391 528.28 64.1883 529.491 63.2001C534.399 59.1974 539.966 54.6601 545.61 52.2655C553.1 49.0908 562.674 33.6999 563.077 33.0467C563.427 32.4808 563.252 31.738 562.686 31.3884C562.124 31.0369 561.38 31.2117 561.028 31.7797C560.932 31.9315 551.456 47.1664 544.67 50.0457C538.709 52.5734 533.003 57.2272 527.968 61.3319C526.768 62.3097 525.615 63.2501 524.517 64.1155C518.866 68.5551 501.008 89.3011 500.251 90.1811C499.816 90.6866 499.874 91.4481 500.378 91.8808C500.606 92.0764 500.887 92.1721 501.164 92.1721Z" fill="#1D191F"/>
<path d="M537.665 30.2467L616.43 16.0645L534.798 40.6071L537.665 30.2467Z" fill="#A9A547"/>
<path d="M522.794 44.215L493.535 53.0131L491.527 38.5541L526.312 32.29C526.312 32.29 525.542 36.7942 525.103 38.5792C524.662 40.3621 522.794 44.215 522.794 44.215Z" fill="#A9A547"/>
<path d="M375.86 125.009C375.97 125.009 376.08 124.995 376.195 124.962C376.835 124.776 377.202 124.109 377.018 123.47C376.996 123.389 374.755 115.454 376.979 109.956C377.228 109.34 376.929 108.637 376.313 108.387C375.699 108.133 374.996 108.435 374.745 109.053C372.206 115.329 374.601 123.782 374.705 124.14C374.855 124.666 375.337 125.009 375.86 125.009Z" fill="#1D191F"/>
<path d="M349.035 120.81C349.408 120.81 349.774 120.638 350.009 120.313C353.304 115.78 358.797 107.843 358.584 105.613C358.52 104.947 357.892 104.448 357.272 104.529C356.608 104.592 356.123 105.18 356.184 105.842C356.1 107.092 351.902 113.606 348.06 118.899C347.668 119.437 347.787 120.191 348.326 120.582C348.542 120.736 348.79 120.81 349.035 120.81Z" fill="#1D191F"/>
<path d="M214.411 308.209C214.686 308.209 214.977 308.178 215.271 308.114C218.597 307.375 231.614 294.037 234.046 290.792C236.314 287.769 239.661 285.916 240.897 285.352C241.65 286.182 243.107 289.063 243.315 291.672C243.56 294.753 244.032 297.772 245.83 298.997C246.404 299.393 247.39 299.771 248.77 299.355C252.464 298.238 251.896 294.801 251.11 290.045L250.84 288.375C250.222 284.457 248.008 280.298 246.687 277.812C246.356 277.186 245.988 276.497 245.809 276.1C246.762 274.482 250.688 268.045 253.357 263.682C253.702 263.114 253.523 262.373 252.957 262.026C252.398 261.683 251.649 261.858 251.301 262.425C250.045 264.479 243.762 274.756 243.454 275.374C243.071 276.142 243.417 276.791 244.563 278.946C245.815 281.297 247.906 285.231 248.462 288.753L248.736 290.44C249.552 295.39 249.591 296.592 248.075 297.05C247.502 297.223 247.282 297.073 247.191 297.01C246.098 296.264 245.811 292.664 245.718 291.481C245.445 288.046 243.473 284.116 242.021 283.155C241.363 282.722 240.812 282.814 240.535 282.903C239.26 283.33 234.897 285.645 232.12 289.348C228.929 293.603 216.775 305.313 214.751 305.763C214.524 305.811 214.135 305.865 214.026 305.65C213.814 305.245 213.975 303.788 215.822 302.109C218.204 299.948 226.085 289.71 225.396 287.222C225.248 286.679 224.832 286.288 224.285 286.18C223.158 285.957 222.026 286.773 215.604 292.45C212.304 295.369 207.315 299.779 206.042 300.035C205.347 300.175 204.887 300.233 204.586 300.254C204.731 299.967 204.989 299.538 205.445 298.912C206.45 297.531 208.434 295.354 210.352 293.247C213.13 290.197 215.753 287.316 216.679 285.603C216.993 285.017 216.775 284.287 216.19 283.97C215.61 283.662 214.875 283.873 214.557 284.459C213.773 285.913 211.01 288.947 208.572 291.622C206.52 293.877 204.581 296.003 203.497 297.493C202.405 298.995 201.502 300.549 202.272 301.752C203.054 302.971 204.8 302.738 206.516 302.395C208.299 302.037 211.744 299.08 217.206 294.252C218.66 292.964 220.418 291.412 221.828 290.245C219.947 293.409 216.352 298.373 214.208 300.322C211.909 302.411 210.979 304.999 211.892 306.759C212.368 307.693 213.296 308.209 214.411 308.209Z" fill="#1D191F"/>
<path d="M202.223 298.139C203.906 298.139 206.022 297.371 207.102 296.764C207.68 296.437 207.886 295.703 207.557 295.122C207.231 294.544 206.494 294.338 205.914 294.667C204.368 295.54 202.269 295.859 201.807 295.694C201.757 295.638 201.72 295.59 201.711 295.574C201.728 295.576 201.763 294.858 204.008 292.757C207.278 289.692 212.411 282.991 214.468 280.249C214.803 279.802 214.822 279.028 214.464 278.6C213.02 276.862 200.738 282.606 200.615 282.667C200.486 282.733 200.403 282.735 200.378 282.733C200.355 282.654 200.338 281.754 201.917 280.459C203.821 278.901 214.548 274.965 230.61 269.924L230.897 269.833C234.301 268.765 235.743 263.928 235.897 263.379C236.075 262.738 235.703 262.075 235.065 261.894C234.407 261.719 233.758 262.089 233.577 262.726C233.254 263.868 232.015 266.955 230.18 267.534L229.89 267.623C217.988 271.358 203.205 276.292 200.394 278.593C197.721 280.78 197.65 282.91 198.401 284.071C199.094 285.136 200.448 285.442 201.697 284.82C202.937 284.198 207.553 282.365 210.636 281.304C208.304 284.321 204.745 288.769 202.365 290.995C200.182 293.04 199.275 294.452 199.325 295.717C199.367 296.805 200.12 297.407 200.405 297.635C200.85 297.995 201.495 298.139 202.223 298.139Z" fill="#1D191F"/>
<path d="M393.097 20.4193C393.097 20.4193 407.988 24.2619 409.998 32.4129C412.006 40.564 409.998 48.998 403.572 48.195C397.145 47.3919 388.711 41.7686 383.09 42.1701C377.467 42.5716 378.671 44.6852 380.681 48.2469C382.688 51.8086 379.075 57.8336 369.035 55.0208C358.995 52.2102 358.593 46.9883 351.364 48.996C344.134 51.0036 350.731 67.4701 349.04 69.8813C347.348 72.2904 347.04 75.5046 343.177 69.8813C339.314 64.2579 333.692 56.6269 327.668 58.6366C321.643 60.6442 333.291 72.2924 339.314 74.7015C345.339 77.1106 345.339 77.1107 345.339 77.1107C345.339 77.1107 347.748 93.9703 351.364 96.3836C351.364 96.3836 327.266 93.1757 318.029 84.7417C308.792 76.3077 316.824 76.3077 315.218 71.891C313.612 67.4721 304.375 67.1538 304.375 61.6906C304.375 56.2275 305.58 57.0305 314.014 53.0153C322.448 49.0001 320.039 46.9904 318.834 44.9828C317.63 42.9752 316.425 39.3594 323.253 37.3518C330.081 35.3442 346.24 30.5239 343.179 26.1072C340.121 21.6904 338.683 12.8528 349.042 13.6579C359.4 14.4631 369.309 21.162 375.199 20.4235C381.08 19.6787 386.574 18.0331 393.097 20.4193Z" fill="#1D191F"/>
<path d="M373.449 111.249C373.54 111.249 373.634 111.239 373.73 111.216C374.414 111.051 375.338 110.85 376.442 110.608C383.455 109.079 398.043 105.896 405.812 100.383C415.319 93.6382 413.597 76.8701 411.893 71.5235C410.268 66.4181 406.332 48.1104 406.294 47.9252C406.226 47.6069 406.03 47.3302 405.756 47.1575C405.475 46.9849 405.142 46.9329 404.828 47.0099C404.434 47.1056 404.22 47.1139 404.112 47.116C403.989 47.0557 403.858 47.0141 403.719 46.9974C400.981 46.6541 397.717 45.3309 394.559 44.0473C390.346 42.3393 386.356 40.7207 383.004 40.9662C381.161 41.0973 378.941 41.4468 378.113 42.9843C377.243 44.6049 378.29 46.4606 379.615 48.8136C380.247 49.9349 380.091 51.3537 379.228 52.4522C377.553 54.595 373.863 55.1193 369.356 53.8586C365.254 52.7102 362.801 51.1228 360.829 49.8454C357.97 47.998 355.713 46.5356 351.041 47.8317C345.261 49.4377 346.584 57.7115 347.552 63.753C347.878 65.8001 348.328 68.6025 348.036 69.2121C347.731 69.6448 347.456 70.1295 347.196 70.5831C346.944 71.0283 346.564 71.7003 346.366 71.821C346.42 71.7794 345.792 71.5546 344.171 69.1954C340.788 64.2669 334.485 55.0819 327.286 57.4911C325.716 58.0132 324.827 59.1387 324.784 60.6574C324.644 65.4195 333.594 73.7058 338.87 75.8153L344.321 77.9956C345.047 80.8957 348.18 93.0974 350.312 96.9607C350.425 97.1646 350.56 97.4309 350.722 97.7471C352.064 100.381 354.856 105.861 360.244 108.696C360.829 109.006 361.557 108.78 361.871 108.191C362.181 107.602 361.956 106.874 361.366 106.564C356.66 104.086 354.099 99.0661 352.871 96.6528C352.694 96.3095 352.547 96.0204 352.424 95.7957C350.202 91.7701 346.553 76.9658 346.515 76.8181C346.424 76.4394 346.154 76.1315 345.794 75.9859L339.769 73.5768C335.136 71.7232 327.101 63.9881 327.199 60.7281C327.209 60.4015 327.284 60.0312 328.056 59.7732C332.864 58.1713 337.693 64.0089 342.193 70.558C344.036 73.2397 345.336 74.2404 346.574 74.203C347.953 74.1447 348.669 72.8819 349.301 71.7689C349.522 71.3778 349.757 70.9596 350.034 70.5664C350.857 69.3931 350.568 67.2897 349.94 63.3681C349.118 58.2253 347.989 51.1811 351.696 50.1513C355.324 49.1402 356.82 50.1096 359.533 51.8655C361.642 53.2303 364.266 54.9279 368.72 56.174C376.601 58.3834 380.033 55.344 381.138 53.9335C382.605 52.0632 382.84 49.5958 381.741 47.6464C381.003 46.3337 380.006 44.5695 380.25 44.118C380.281 44.0598 380.628 43.546 383.189 43.3629C385.989 43.1569 389.896 44.7443 393.666 46.2734C396.88 47.5778 400.203 48.926 403.194 49.3483C403.467 49.4648 403.744 49.523 404.187 49.5168C405.071 53.6007 408.165 67.7059 409.608 72.2453C411.108 76.9471 412.739 92.5107 404.43 98.4086C397.061 103.637 382.796 106.749 375.941 108.245C374.813 108.49 373.875 108.696 373.18 108.863C372.533 109.019 372.134 109.668 372.288 110.317C372.409 110.879 372.904 111.249 373.449 111.249ZM404.459 47.3823C404.459 47.3844 404.459 47.3843 404.461 47.3843C404.459 47.3822 404.459 47.3823 404.459 47.3823ZM404.457 47.3781C404.457 47.3781 404.457 47.3801 404.459 47.3801C404.457 47.3801 404.457 47.3781 404.457 47.3781ZM404.405 47.326C404.422 47.3427 404.439 47.3594 404.457 47.3781C404.441 47.3594 404.422 47.3427 404.405 47.326Z" fill="#1D191F"/>
<path d="M408.858 65.927C409.05 65.927 409.241 65.8812 409.42 65.7875C415.659 62.4942 419.237 55.9742 420.506 50.9708C420.889 49.4562 421.405 46.7205 420.538 45.4181C419.911 44.4757 418.84 43.9972 417.611 44.1221C415.634 44.3072 412.834 46.1296 410.901 50.6857C408.602 56.1073 406.676 58.6163 406.653 58.6413C406.245 59.1656 406.341 59.9228 406.863 60.3327C407.389 60.7404 408.145 60.6468 408.552 60.1267C408.638 60.0164 410.681 57.3805 413.117 51.6282C414.744 47.7939 416.847 46.6124 417.835 46.5208C418.318 46.473 418.484 46.6851 418.532 46.7559C419.219 48.2704 416.768 59.1822 408.296 63.6572C407.708 63.9672 407.483 64.6953 407.793 65.2841C408.009 65.6939 408.428 65.927 408.858 65.927Z" fill="#1D191F"/>
<path d="M359.73 62.6035C359.945 62.6035 360.157 62.5828 360.363 62.537C361.393 62.3185 362.125 61.58 362.373 60.5107C362.697 59.1043 365.712 57.0843 367.746 56.0982C368.343 55.809 368.595 55.087 368.306 54.4878C368.015 53.8887 367.295 53.639 366.696 53.9282C365.705 54.4067 360.719 56.949 360.022 59.9697C359.98 60.1549 359.93 60.1653 359.859 60.1799C359.508 60.261 358.867 60.0009 358.507 59.5204C358.205 59.1188 358.185 58.6841 358.449 58.191C360.011 55.2597 361.11 53.6036 362.445 53.2583C363.09 53.0918 363.475 52.4345 363.309 51.7895C363.142 51.1467 362.489 50.7514 361.838 50.9262C359.421 51.5545 357.968 53.9698 356.323 57.0593C355.618 58.3866 355.711 59.8117 356.585 60.9705C357.35 61.9878 358.574 62.6035 359.73 62.6035Z" fill="#1D191F"/>
<path d="M402.967 54.2197C403.096 54.2197 403.223 54.1988 403.348 54.1572C404.856 53.6537 405.772 52.834 406.069 51.7148C406.523 50.0026 405.22 48.486 405.068 48.3174C404.623 47.8244 403.862 47.7828 403.367 48.2259C402.873 48.669 402.83 49.4243 403.267 49.9194C403.479 50.1607 403.83 50.7557 403.737 51.1011C403.683 51.3029 403.423 51.515 403.019 51.7002C401.914 51.1905 399.16 50.0754 395.985 49.9527C395.27 49.9236 394.739 49.5179 394.406 48.744C394.023 47.8452 394.1 46.8757 394.254 46.4804C394.797 46.5533 395.355 46.2392 395.55 45.7087C395.771 45.097 395.505 44.4312 394.901 44.1899C394.082 43.8612 393.241 44.0297 392.636 44.6288C391.504 45.7502 391.527 47.9867 392.124 49.5199C392.8 51.2571 394.173 52.2931 395.894 52.3597C399.393 52.4991 402.372 54.0614 402.403 54.0781C402.576 54.1717 402.772 54.2197 402.967 54.2197Z" fill="#1D191F"/>
<path d="M399.955 61.4C401.611 60.7738 402.62 60.3952 403.686 60.1622C404.21 60.0291 404.747 59.9104 405.381 59.8084C406.016 59.6899 406.712 59.6213 407.605 59.3841C406.723 57.8383 404.832 57.1788 403.047 57.5928C401.277 58.0338 399.841 59.5859 399.955 61.4Z" fill="#1D191F"/>
<path d="M378.067 64.7206C377.323 63.7096 376.208 63.0625 375.018 62.713C373.821 62.3448 372.511 62.3137 371.265 62.5841C370.039 62.9087 368.837 63.4141 367.928 64.2733C366.979 65.0659 366.278 66.1042 365.885 67.2713C367.077 66.8656 368.038 66.3891 369.014 66.0334C369.968 65.6443 370.905 65.3843 371.839 65.17C372.769 64.9183 373.732 64.8392 374.747 64.7539C375.771 64.6957 376.832 64.6957 378.067 64.7206Z" fill="#1D191F"/>
<path d="M392.921 79.0675C392.998 79.0675 393.073 79.0613 393.152 79.0447C393.317 79.0135 397.196 78.25 399.456 77.1848C400.24 76.8145 400.771 76.1987 400.989 75.404C401.478 73.6273 400.201 71.603 399.939 71.2161L393.993 59.5075C393.939 59.4014 393.868 59.3015 393.787 59.2162C392.541 57.9284 391.344 57.7745 390.564 57.8619C388.692 58.0866 387.587 59.8799 387.466 60.0837C387.327 60.323 387.273 60.6018 387.317 60.8743C387.331 60.9638 388.663 69.7369 388.808 73.3922C388.991 77.9858 392.453 78.9843 392.601 79.0239C392.707 79.053 392.815 79.0675 392.921 79.0675ZM391.935 60.7703L397.869 72.4352C398.337 73.155 398.809 74.2535 398.665 74.7653C398.649 74.8256 398.626 74.9109 398.426 75.0045C396.791 75.7784 393.978 76.4088 393.021 76.6106C392.505 76.3652 391.311 75.5538 391.221 73.2945C391.086 69.97 390.061 62.9194 389.774 60.9929C390.027 60.685 390.437 60.3001 390.86 60.2522C391.195 60.219 391.536 60.3896 391.935 60.7703Z" fill="#1D191F"/>
<path d="M407.603 64.6492C406.426 64.2788 405.912 64.5056 404.757 64.9591C401.632 66.1845 400.546 70.8633 401.212 72.5609C401.878 74.2606 404.046 72.3363 407.17 71.111C408.184 70.7136 408.292 71.034 409.143 70.7864L407.603 64.6492Z" fill="#FEF86B"/>
<path d="M382.944 76.2938C383.293 78.4657 379.453 77.8644 374.951 78.5904C370.449 79.3165 366.991 81.0974 366.642 78.9234C366.292 76.7514 369.18 71.4484 373.682 70.7223C378.184 69.9963 382.592 74.1197 382.944 76.2938Z" fill="#FEF86B"/>
<path d="M394.204 88.1553C391.487 87.3211 389.182 86.8924 386.964 86.208C385.841 85.9209 384.813 85.4757 383.719 85.0471C382.612 84.6061 381.603 83.9799 380.278 83.335C380.529 84.733 381.247 86.0853 382.327 87.0568C383.377 88.0638 384.692 88.7919 386.065 89.2059C387.451 89.5804 388.876 89.7385 390.268 89.5638C391.651 89.4036 393.022 89.0083 394.204 88.1553Z" fill="#1D191F"/>
<path d="M341.32 188.805C341.32 200.314 346.14 209.645 363.426 209.645C375.634 209.645 382.965 200.314 382.965 188.805C382.965 177.297 378.068 167.966 363.426 167.966C348.978 167.966 341.32 177.297 341.32 188.805Z" fill="#FEF86B"/>
<path d="M365.558 191.382C365.698 191.382 365.824 191.379 365.945 191.373C366.628 191.338 367.899 191.271 368.254 190.225C368.589 189.241 367.782 188.552 367.193 188.051C366.975 187.864 366.548 187.5 366.396 187.271C366.432 187.25 366.49 187.2 366.575 187.142C368.142 186.045 378.59 186.389 387.785 187.352C388.443 187.42 389.04 186.942 389.108 186.28C389.179 185.619 388.699 185.026 388.035 184.957C384.764 184.614 368.285 183.012 365.196 185.167C364.405 185.721 363.983 186.384 363.95 187.142C363.914 187.853 364.235 188.446 364.645 188.937C363.644 188.864 362.279 188.702 360.686 188.511C353.723 187.678 342.072 186.284 331.778 189.008C331.135 189.178 330.753 189.838 330.921 190.481C331.092 191.124 331.745 191.509 332.394 191.338C342.241 188.731 353.606 190.09 360.401 190.903C362.691 191.176 364.418 191.382 365.558 191.382Z" fill="#1D191F"/>
<path d="M533.696 50.6042C534.162 50.6042 534.607 50.3318 534.804 49.8741C535.986 47.1154 536.009 41.8373 536.003 40.7701L538.853 30.7529C538.969 30.3534 538.868 29.9249 538.589 29.617C538.314 29.3091 537.902 29.1634 537.488 29.2362L527.407 31.0025C526.926 31.0878 524.511 31.7827 524.063 37.2521C523.861 39.7112 523.104 41.3797 521.773 43.5995C521.43 44.1696 521.615 44.9101 522.187 45.2513C522.755 45.5904 523.495 45.4095 523.838 44.8373C525.322 42.3658 526.225 40.3644 526.462 37.4497C526.76 33.8589 527.914 33.3555 527.925 33.3514L536.007 31.9409L533.635 40.2812C533.602 40.3956 533.585 40.5122 533.587 40.6328C533.617 42.2264 533.49 46.82 532.585 48.9274C532.325 49.5391 532.605 50.2464 533.217 50.5086C533.375 50.5731 533.535 50.6042 533.696 50.6042Z" fill="#1D191F"/>
<path d="M489.518 73.0951C489.73 73.0951 489.94 73.041 490.134 72.9266C492.88 71.2893 517.054 56.7658 520.295 50.7763C520.506 50.3914 520.489 49.9234 520.25 49.5552C520.243 49.5427 519.268 47.9615 519.064 45.5961C519.006 44.9325 518.4 44.4353 517.759 44.4998C517.096 44.5559 516.607 45.1406 516.663 45.8042C516.836 47.7827 517.439 49.3201 517.843 50.1544C514.31 55.0829 495.94 66.6604 488.9 70.8566C488.328 71.1978 488.141 71.9363 488.482 72.5085C488.708 72.885 489.108 73.0951 489.518 73.0951Z" fill="#1D191F"/>
<path d="M367.137 485.519C367.137 485.519 368.277 467.939 369.286 467.076C370.295 466.212 382.183 467.85 384.636 466.628C387.086 465.407 388.447 472.11 390.032 472.94C391.615 473.771 394.936 470.498 392.67 466.314C390.404 462.131 399.71 454.614 402.053 454.797C404.395 454.98 419.231 461.088 430.723 461.752C442.215 462.416 451.332 460.302 454.5 461.964C457.668 463.626 460.583 465.503 456.181 470.577C451.779 475.651 441.57 485.689 428.131 485.816C414.693 485.943 411.56 483.813 409.833 481.793C408.107 479.773 405.554 476.275 403.854 479.912C402.155 483.549 402.005 488.483 398.87 489.417C395.737 490.347 374.148 495.255 367.137 485.519Z" fill="#1D191F"/>
<path d="M387.238 503.425C390.685 503.425 393.955 503.052 396.587 502.399C401.93 501.07 405.277 498.346 408.231 495.946C409.026 495.297 409.808 494.66 410.605 494.073C412.101 492.973 415.706 493.37 419.869 493.826C424.54 494.339 430.354 494.976 436.485 494.005C449.311 491.968 460.47 482.783 463.593 478.905C467.427 474.147 465.863 469.963 463.928 466.085C462.139 462.497 459.17 462.172 457.845 462.493C457.198 462.653 456.805 463.306 456.965 463.951C457.125 464.59 457.76 464.989 458.407 464.835C458.623 464.793 460.447 464.5 461.771 467.161C463.545 470.719 464.669 473.733 461.715 477.395C458.444 481.458 447.574 489.806 436.109 491.625C430.298 492.55 424.662 491.928 420.133 491.431C415.273 490.898 411.429 490.474 409.174 492.134C408.346 492.746 407.536 493.403 406.71 494.075C403.817 496.428 400.825 498.86 396.005 500.061C389.474 501.685 378.81 501.357 372.279 498.001C366.227 494.887 365.239 491.984 368.21 486.055C368.508 485.462 368.266 484.738 367.671 484.439C367.087 484.141 366.357 484.376 366.055 484.978C362.508 492.051 363.991 496.447 371.179 500.142C375.681 502.457 381.685 503.425 387.238 503.425Z" fill="#1D191F"/>
<path d="M397.65 463.025C398.091 463.025 398.516 462.782 398.728 462.362C399.019 461.777 398.795 461.072 398.227 460.762C398.052 460.651 392.624 456.944 386.705 432.553C386.547 431.908 385.9 431.526 385.249 431.667C384.602 431.825 384.207 432.476 384.361 433.123C390.639 458.995 396.467 462.574 397.107 462.898C397.282 462.986 397.465 463.025 397.65 463.025Z" fill="#1D191F"/>
<path d="M373.21 471.421C373.84 471.421 374.371 470.93 374.41 470.291C374.978 461.227 362.999 436.102 362.489 435.037C362.202 434.431 361.478 434.184 360.881 434.469C360.282 434.756 360.026 435.476 360.313 436.077C360.436 436.333 372.531 461.699 372.005 470.14C371.964 470.803 372.469 471.375 373.133 471.417C373.158 471.421 373.183 471.421 373.21 471.421Z" fill="#1D191F"/>
<path d="M363.814 436.945C371.718 436.945 385.918 432.741 392.732 428.765C399.836 424.621 397.687 409.257 395.794 395.701C395.561 394.03 395.332 392.395 395.128 390.82C394.288 384.381 394.506 371.976 394.721 359.976C394.972 345.798 395.209 332.408 393.899 326.843C391.479 316.562 370.575 278.168 369.687 276.541C369.373 275.954 368.636 275.738 368.054 276.06C367.469 276.378 367.253 277.109 367.573 277.693C367.788 278.091 389.21 317.427 391.554 327.394C392.794 332.666 392.547 346.528 392.31 359.932C392.095 372.021 391.875 384.519 392.736 391.132C392.944 392.713 393.173 394.359 393.406 396.036C395.108 408.206 397.226 423.354 391.517 426.684C384.429 430.816 367.754 435.501 361.617 434.369C358.615 433.824 348.371 430.874 342.646 415.85C337.996 403.638 336.702 363.246 336.702 359.048C336.702 357.935 338.687 354.592 340.137 352.151C343.022 347.289 344.354 344.891 343.137 343.534C342.151 342.434 340.459 343.206 339.818 343.495C337.02 344.766 334.438 346.844 332.556 348.361C332.102 348.725 331.592 349.135 331.145 349.474C331.174 349.366 331.201 349.251 331.237 349.126C331.755 347.223 332.337 345.538 332.803 344.185C333.819 341.254 334.376 339.638 333.428 338.552C332.914 337.963 332.115 337.776 331.043 337.99C327.883 338.62 326.163 338.373 324.902 337.114C323.277 335.375 294.728 289.15 292.697 279.287C290.417 268.202 290.615 255.897 293.142 251.852C296.09 247.134 299.675 242.347 299.712 242.297C300.11 241.764 300.001 241.009 299.469 240.612C298.938 240.214 298.183 240.319 297.782 240.853C297.746 240.901 294.103 245.769 291.099 250.577C287.791 255.87 288.239 269.569 290.34 279.772C292.441 289.986 321.413 337.031 323.198 338.816C325.528 341.146 328.547 340.938 331.468 340.36C331.339 341.048 330.912 342.282 330.525 343.397C330.047 344.783 329.45 346.511 328.911 348.49C328.486 350.048 328.164 351.627 329.269 352.349C330.475 353.133 331.746 352.103 334.064 350.237C335.947 348.721 338.293 346.832 340.813 345.685C340.863 345.665 340.907 345.644 340.952 345.625C340.42 346.942 339.045 349.266 338.06 350.922C335.714 354.873 334.291 357.39 334.291 359.048C334.291 359.464 335.227 403.142 340.395 416.707C346.567 432.911 357.868 436.138 361.182 436.743C361.946 436.881 362.83 436.945 363.814 436.945Z" fill="#1D191F"/>
<path d="M254.389 398.911C255.447 398.911 256.419 398.871 257.272 398.805C262.265 398.422 279.62 392.726 294.932 387.702C304.121 384.685 312.805 381.835 317.128 380.697C328.826 377.62 336.132 368.618 336.438 368.237C336.852 367.717 336.769 366.96 336.249 366.546C335.731 366.13 334.976 366.211 334.555 366.731C334.487 366.818 327.42 375.498 316.516 378.369C312.12 379.523 303.405 382.386 294.179 385.415C279.751 390.15 261.793 396.044 257.089 396.408C250.049 396.951 238.126 395.457 234.1 389.129C230.046 382.756 229.544 367.395 230.626 363.6L230.772 363.082C232.062 358.511 235.082 347.808 244.91 344.531C257.222 340.426 278.717 334.532 281.008 334.923C281.484 335.042 282.008 336.213 282.322 336.912C282.805 337.984 283.302 339.091 284.457 339.115C285.676 339.105 286.294 337.848 286.573 337.301C287.005 336.436 287.44 335.4 287.881 334.345C288.551 332.743 289.947 329.41 290.719 329.225C291.485 329.81 292.506 331.108 293.405 332.252C295.331 334.707 296.623 336.311 298.082 335.81C299.353 335.373 299.353 333.756 299.353 333.149C299.353 331.595 299.068 330.12 298.814 328.82C298.161 325.439 298.138 324.274 300.378 323.433C305.713 321.434 306.882 312.592 306.882 309.353C306.882 308.687 306.343 308.148 305.677 308.148C305.012 308.148 304.472 308.687 304.472 309.353C304.472 311.458 303.634 319.639 299.531 321.178C295.198 322.805 295.864 326.242 296.448 329.275C296.667 330.407 296.894 331.574 296.935 332.762C296.411 332.175 295.783 331.376 295.3 330.765C294.212 329.379 293.184 328.073 292.244 327.363C291.397 326.731 290.607 326.76 290.089 326.899C288.168 327.421 287.005 330.199 285.661 333.413C285.283 334.314 284.912 335.202 284.544 335.972C284.538 335.955 284.53 335.941 284.523 335.924C283.966 334.686 283.202 332.987 281.573 332.581C278.505 331.83 252.271 339.542 244.151 342.247C233.112 345.927 229.729 357.916 228.458 362.431L228.315 362.938C227.079 367.259 227.526 383.283 232.07 390.425C236.376 397.192 247.305 398.911 254.389 398.911Z" fill="#1D191F"/>
<path d="M93.5888 477.651C94.319 477.651 94.76 477.593 94.8599 477.576C95.5173 477.474 95.9687 476.861 95.8668 476.203C95.7649 475.546 95.1345 475.09 94.5 475.196C94.3398 475.215 80.0308 476.933 67.2778 452.68C56.3431 431.872 55.8314 425.612 55.9854 424.06C56.3973 424.34 56.9111 424.819 57.3834 425.258C58.4839 426.282 59.8549 427.555 61.6648 428.287C64.0657 429.252 89.8857 451.222 95.1699 474.273C95.3156 474.922 95.9563 475.334 96.6116 475.178C97.2607 475.03 97.6665 474.383 97.5168 473.736C91.9745 449.561 65.3951 427.191 62.5636 426.053C61.1656 425.489 60.0275 424.428 59.0227 423.494C57.9741 422.52 57.0692 421.677 55.977 421.463C55.2696 421.328 54.581 421.594 54.1358 422.193C51.2773 426.032 59.8049 443.647 65.1453 453.801C76.7 475.777 89.5445 477.651 93.5888 477.651Z" fill="#1D191F"/>
<path d="M91.7453 474.805C92.0886 474.805 92.4277 474.659 92.6669 474.376C93.0955 473.864 93.029 473.105 92.5214 472.676C92.357 472.539 76.0673 458.717 69.0105 443.721C68.7276 443.122 68.0077 442.864 67.4086 443.145C66.8053 443.428 66.5473 444.145 66.8323 444.747C74.118 460.227 90.2847 473.943 90.9692 474.52C91.196 474.713 91.4707 474.805 91.7453 474.805Z" fill="#1D191F"/>
<path d="M94.5995 445.76C94.6349 445.76 94.6683 445.758 94.7016 445.756C95.3652 445.701 95.8602 445.117 95.802 444.457C94.1585 424.67 84.5096 404.276 67.1173 383.83C66.387 382.973 65.8835 382.384 65.6776 382.088C65.3447 381.606 64.9537 380.861 64.5335 380.071C63.1251 377.42 61.9849 375.327 60.3351 375.795C58.9017 376.193 58.2526 377.913 58.6874 386.214C59.5612 402.918 70.9014 435.062 71.3799 436.423C71.6025 437.051 72.2976 437.382 72.9197 437.157C73.548 436.932 73.8744 436.244 73.6539 435.618C73.5353 435.289 61.9495 402.441 61.0924 386.087C60.8802 382.024 60.9737 379.95 61.1069 378.903C61.5541 379.604 62.0722 380.576 62.4071 381.204C62.8752 382.088 63.3225 382.923 63.697 383.462C63.9237 383.79 64.4752 384.446 65.2824 385.396C82.3418 405.447 91.8015 425.388 93.4013 444.657C93.4554 445.283 93.9816 445.76 94.5995 445.76Z" fill="#1D191F"/>
<path d="M93.9902 457.613C94.1005 457.613 94.2169 457.597 94.3292 457.564C94.9679 457.378 95.3343 456.709 95.1449 456.07C88.1277 432.07 71.786 401.906 71.6217 401.602C71.3013 401.022 70.5689 400.808 69.9864 401.12C69.4018 401.438 69.1853 402.168 69.5037 402.755C69.668 403.055 85.8869 432.996 92.8334 456.748C92.9895 457.272 93.468 457.613 93.9902 457.613Z" fill="#1D191F"/>
<path d="M101.216 475.213C101.518 475.213 101.82 475.1 102.053 474.876C102.883 474.075 122.364 455.008 120.094 431.258C118.116 410.551 113.066 390.887 109.072 388.318C108.298 387.821 107.624 387.889 107.198 388.037C104.807 388.861 104.31 392.385 103.679 396.852C103.209 400.199 102.673 403.992 101.308 407.193C97.95 415.084 89.8739 451.192 94.2074 470.752C94.3509 471.401 94.9751 471.811 95.645 471.668C96.2941 471.524 96.7038 470.879 96.5603 470.23C92.3308 451.151 100.239 415.856 103.524 408.14C105.013 404.643 105.573 400.682 106.066 397.189C106.457 394.414 106.942 390.993 107.847 390.384C110.079 391.805 115.486 408.369 117.695 431.489C119.855 454.092 100.578 472.951 100.382 473.139C99.9015 473.6 99.887 474.364 100.349 474.842C100.586 475.09 100.9 475.213 101.216 475.213Z" fill="#1D191F"/>
<path d="M99.639 472.361C100.099 472.361 100.538 472.095 100.738 471.647C111.044 448.646 112.82 416.339 112.837 416.015C112.873 415.351 112.361 414.783 111.699 414.752C111.676 414.75 111.655 414.75 111.635 414.75C110.996 414.75 110.466 415.249 110.432 415.894C110.416 416.213 108.658 448.08 98.5386 470.665C98.2661 471.273 98.5386 471.986 99.1461 472.257C99.3083 472.328 99.4746 472.361 99.639 472.361Z" fill="#1D191F"/>
<path d="M101.056 412.82C101.691 412.82 102.221 412.327 102.259 411.686C104.108 379.949 90.9515 352.556 84.6292 339.389C83.1125 336.235 81.9184 333.745 81.5189 332.405C80.123 327.727 78.336 326.944 77.1148 327.102C75.3007 327.342 72.8395 329.528 72.4026 345.658C71.8576 366 77.7679 401.577 77.8261 401.935C77.9364 402.592 78.5522 403.036 79.2138 402.923C79.867 402.813 80.3124 402.191 80.2022 401.536C80.1439 401.182 74.2687 365.829 74.8117 345.724C75.2153 330.716 77.4475 329.493 77.4704 329.482C77.5765 329.566 78.4005 330.387 79.2077 333.092C79.6633 334.617 80.8346 337.057 82.4573 340.434C88.6902 353.414 101.666 380.43 99.8557 411.544C99.8161 412.208 100.324 412.78 100.988 412.818C101.01 412.82 101.033 412.82 101.056 412.82Z" fill="#1D191F"/>
<path d="M95.1721 440.613C95.7775 440.613 96.2998 440.158 96.3685 439.54C96.7658 435.93 95.4697 430.43 93.1168 420.446C91.931 415.419 90.4557 409.161 88.7914 401.426C83.9315 378.883 81.1502 347.652 81.1232 347.34C81.067 346.678 80.4698 346.198 79.8165 346.245C79.1529 346.304 78.664 346.888 78.7222 347.552C78.7514 347.864 81.5454 379.245 86.4344 401.936C88.105 409.692 89.582 415.962 90.772 420.999C93.0646 430.723 94.3276 436.078 93.9739 439.278C93.9011 439.939 94.3795 440.534 95.039 440.607C95.0827 440.611 95.1284 440.613 95.1721 440.613Z" fill="#1D191F"/>
<path d="M76.5135 483.68C77.0315 483.68 77.5101 483.343 77.6662 482.823C77.8597 482.189 77.4996 481.515 76.8609 481.321C76.0516 481.076 75.2279 480.822 74.4061 480.564C74.5268 480.497 74.637 480.418 74.7431 480.323C75.0115 480.077 75.4318 479.522 75.23 478.569C75.0011 477.512 74.1981 476.301 73.42 475.126C73.3389 475.005 73.2535 474.874 73.164 474.737C77.6744 476.428 83.9261 478.29 88.245 476.424C88.8567 476.16 89.1375 475.45 88.8733 474.841C88.607 474.229 87.8997 473.944 87.2901 474.212C83.1834 475.989 75.9122 473.208 73.5239 472.296C72.6813 471.972 71.1106 471.366 70.2742 472.417C69.4296 473.47 70.2618 474.722 71.4102 476.457C71.7972 477.038 72.2425 477.714 72.5441 478.282C71.8597 478.122 70.9256 477.832 70.1704 477.597C68.1732 476.973 65.9116 476.268 64.0122 476.268C64.0059 476.268 63.9976 476.268 63.9893 476.268C62.6391 476.27 62.2604 476.913 62.1814 477.45C62.017 478.575 61.9069 479.316 76.164 483.628C76.2805 483.664 76.399 483.68 76.5135 483.68Z" fill="#1D191F"/>
<path d="M105.267 474.497C105.452 474.497 105.643 474.453 105.822 474.359C106.024 474.253 110.834 471.711 114.691 467.55C116.649 465.436 118.107 464.916 118.75 465.104C119.012 465.179 119.174 465.405 119.239 465.769C119.405 466.706 119.988 467.057 120.319 467.178C121.463 467.611 122.593 466.699 123.897 465.645C123.999 465.565 124.109 465.476 124.226 465.382C124.211 465.528 124.201 465.674 124.188 465.809C123.976 468.235 123.653 471.902 126.262 473.099C126.859 473.375 127.583 473.115 127.86 472.508C128.139 471.902 127.875 471.187 127.269 470.91C126.204 470.421 126.446 467.665 126.589 466.017C126.747 464.219 126.849 463.032 125.857 462.466C124.773 461.852 123.664 462.738 122.387 463.766C122.104 463.995 121.71 464.309 121.375 464.55C121.007 463.685 120.317 463.048 119.432 462.79C118.361 462.476 116.112 462.468 112.921 465.911C109.357 469.762 104.751 472.198 104.705 472.223C104.114 472.533 103.885 473.261 104.197 473.85C104.412 474.262 104.83 474.497 105.267 474.497Z" fill="#1D191F"/>
<path d="M522.555 473.026C524.517 473.026 526.67 472.903 528.969 472.593C538.422 471.316 552.188 466.437 564.099 450.455C583.831 423.967 584.595 402.408 584.922 393.202C584.972 391.815 585.007 390.714 585.105 389.93C585.619 385.79 585.078 380.865 582.677 379.831C582.042 379.557 580.775 379.345 579.421 380.986C578.399 382.224 578.16 383.678 577.929 385.084C577.49 387.756 576.993 390.783 571.093 394.205C558.787 401.347 517.751 427.693 506.4 466.801C506.215 467.442 506.583 468.11 507.222 468.295C507.867 468.482 508.531 468.112 508.716 467.473C519.813 429.227 560.192 403.319 572.302 396.29C579.188 392.293 579.833 388.353 580.305 385.473C580.509 384.234 580.669 383.254 581.277 382.517C581.562 382.172 581.757 382.064 581.809 382.051C582.219 382.29 583.284 385.007 582.71 389.628C582.606 390.462 582.562 391.636 582.51 393.113C582.192 402.092 581.447 423.127 562.164 449.009C550.79 464.273 537.721 468.948 528.758 470.184C519.01 471.524 511.855 469.219 511.787 469.196C511.164 468.983 510.474 469.327 510.264 469.961C510.054 470.594 510.397 471.274 511.029 471.484C511.273 471.57 515.76 473.026 522.555 473.026Z" fill="#1D191F"/>
<path d="M511.144 468.791C511.213 468.791 511.282 468.787 511.348 468.774C512.122 468.643 530.519 465.348 550.339 447.664C570.18 429.96 576.111 405.889 576.17 405.65C576.324 405.003 575.924 404.354 575.277 404.198C574.626 404.057 573.979 404.444 573.825 405.091C573.769 405.324 567.994 428.685 548.733 445.867C529.464 463.059 511.125 466.367 510.94 466.398C510.283 466.511 509.844 467.135 509.956 467.788C510.06 468.377 510.57 468.791 511.144 468.791Z" fill="#1D191F"/>
<path d="M499.364 468.375C499.934 468.375 500.438 467.967 500.546 467.389C500.666 466.733 500.234 466.105 499.581 465.984C499.352 465.943 476.777 461.226 475.841 419.235C474.807 372.898 484.233 350.708 489.965 344.904C491.178 343.677 492.224 343.08 492.75 343.288C494.978 344.178 495.168 354.378 495.28 360.474C495.432 368.635 499.358 376.485 504.79 387.349C506.641 391.054 508.741 395.252 510.908 399.908C519.045 417.402 514.678 447.581 514.634 447.885C514.537 448.542 514.99 449.156 515.65 449.252C516.295 449.358 516.921 448.898 517.016 448.238C517.208 446.976 521.539 417.049 513.095 398.893C510.917 394.208 508.807 389.993 506.947 386.273C501.657 375.692 497.835 368.047 497.691 360.43C497.492 349.622 497.101 342.433 493.647 341.053C491.298 340.111 489.006 342.451 488.253 343.213C480.214 351.355 472.512 378.039 473.432 419.291C474.418 463.388 498.139 468.177 499.148 468.362C499.221 468.368 499.291 468.375 499.364 468.375Z" fill="#1D191F"/>
<path d="M527.473 479.103C527.487 479.103 527.502 479.103 527.514 479.103C534.615 478.857 534.858 477.597 534.991 476.921C535.158 476.055 534.615 475.337 533.375 474.788C531.09 473.771 529.453 473.866 527.884 473.948C526.603 474.018 525.388 474.085 523.672 473.552C520.484 472.566 519.989 471.366 519.985 471.355C519.839 470.706 519.182 470.344 518.556 470.484C517.907 470.629 517.509 471.314 517.655 471.963C517.747 472.369 518.429 474.453 522.96 475.853C525.092 476.513 526.653 476.425 528.016 476.355C528.958 476.301 529.769 476.259 530.693 476.438C529.726 476.561 528.565 476.654 527.431 476.692C526.767 476.715 526.247 477.272 526.268 477.938C526.293 478.589 526.826 479.103 527.473 479.103Z" fill="#1D191F"/>
<path d="M491.001 472.16C491.325 472.16 491.65 472.029 491.889 471.772C492.339 471.283 492.307 470.519 491.818 470.068C491.034 469.346 490.277 468.484 489.767 467.775C489.809 467.823 489.846 467.867 489.886 467.91C490.745 468.917 492.039 470.442 493.685 469.585C495.734 468.522 496.356 466.163 496.418 465.898C496.574 465.251 496.177 464.602 495.528 464.444C494.875 464.294 494.232 464.688 494.073 465.335C493.967 465.759 493.485 466.974 492.57 467.45C492.565 467.342 492.033 466.718 491.714 466.348C490.834 465.322 489.366 463.595 487.618 464.81C487.088 465.174 486.771 465.732 486.725 466.377C486.592 468.314 489.099 470.846 490.185 471.844C490.416 472.054 490.71 472.16 491.001 472.16Z" fill="#1D191F"/>
<path d="M499.508 463.095C499.674 463.095 499.843 463.059 500.005 462.989C500.611 462.714 500.881 462 500.609 461.393C500.421 460.979 481.922 419.24 487.816 369.201C487.897 368.54 487.423 367.943 486.761 367.866C486.117 367.76 485.503 368.261 485.426 368.921C479.447 419.647 498.22 461.965 498.412 462.388C498.611 462.831 499.048 463.095 499.508 463.095Z" fill="#1D191F"/>
<path d="M516.58 443.255C517.014 443.255 517.439 443.018 517.651 442.602C517.811 442.292 533.556 411.015 528.475 364.128C525.267 334.516 518.762 316.503 514.455 304.587C512.046 297.909 510.452 293.498 510.889 290.758C511.116 289.342 513.003 276.87 509.554 275.324C508.853 275.005 507.742 274.972 506.452 276.557C502.824 281.009 491.889 314.71 492.528 342.527C492.544 343.191 493.062 343.715 493.761 343.705C494.425 343.688 494.951 343.137 494.939 342.471C494.296 314.438 505.526 281.511 508.322 278.076C508.453 277.916 508.561 277.801 508.647 277.722C509.269 279.05 509.51 284.126 508.51 290.376C507.975 293.731 509.654 298.375 512.19 305.4C516.457 317.211 522.904 335.061 526.081 364.384C531.08 410.511 515.666 441.193 515.51 441.497C515.206 442.09 515.439 442.814 516.03 443.118C516.205 443.213 516.394 443.255 516.58 443.255Z" fill="#1D191F"/>
<path d="M516.186 416.205C516.835 416.205 517.372 415.689 517.391 415.036C517.403 414.615 517.651 404.467 513.727 382.558C509.833 360.826 505.404 308.703 505.36 308.179C505.304 307.515 504.709 307.049 504.06 307.081C503.396 307.137 502.905 307.719 502.961 308.381C503.005 308.905 507.445 361.14 511.358 382.981C515.232 404.598 514.986 414.863 514.984 414.963C514.965 415.628 515.487 416.182 516.153 416.203C516.163 416.205 516.176 416.205 516.186 416.205Z" fill="#1D191F"/>
<path d="M545.93 414.605C546.267 414.605 546.6 414.466 546.839 414.191C547.014 413.994 564.273 393.945 568.513 367.049C572.751 340.176 574.507 331.189 577.236 327.309C578.823 325.052 578.888 322.605 577.394 321.217C576.571 320.446 573.292 318.409 565.848 324.488C556.041 332.501 532.946 361.929 527.129 381.133C526.936 381.768 527.296 382.442 527.934 382.635C528.565 382.831 529.243 382.471 529.437 381.83C535.033 363.362 558.007 334.008 567.373 326.356C572.064 322.526 574.958 322.243 575.755 322.981C576.229 323.425 576.215 324.577 575.266 325.923C572.235 330.232 570.506 338.947 566.133 366.674C561.997 392.894 545.192 412.417 545.023 412.612C544.586 413.114 544.636 413.873 545.142 414.312C545.368 414.507 545.647 414.605 545.93 414.605Z" fill="#1D191F"/>
<path d="M519.386 436.623C519.731 436.623 520.076 436.475 520.313 436.188C520.411 436.068 530.483 423.903 543.824 404.503C557.274 384.945 564.456 349.836 564.755 348.351C564.887 347.7 564.464 347.063 563.813 346.932C563.16 346.801 562.525 347.223 562.394 347.874C562.321 348.232 555.009 383.99 541.84 403.139C528.564 422.441 518.56 434.528 518.46 434.649C518.033 435.158 518.104 435.92 518.618 436.346C518.841 436.529 519.111 436.623 519.386 436.623Z" fill="#1D191F"/>
<path d="M554.575 339.412C555.093 339.412 555.571 339.075 555.729 338.553C555.806 338.297 563.394 312.798 565.753 296.198C566.323 292.179 566.866 288.877 567.307 286.191C568.468 279.12 568.902 276.471 567.515 275.125C566.574 274.216 565.222 274.476 564.779 274.566C560.866 275.333 527.945 300.475 519.998 329.491C519.821 330.132 520.2 330.795 520.843 330.972C521.492 331.149 522.149 330.77 522.324 330.127C529.861 302.608 561.644 277.638 565.243 276.929C565.728 276.835 565.884 276.892 565.886 276.89C566.294 277.495 565.661 281.344 564.929 285.802C564.486 288.502 563.943 291.819 563.369 295.861C561.036 312.284 553.499 337.613 553.424 337.864C553.233 338.503 553.597 339.175 554.234 339.367C554.346 339.396 554.46 339.412 554.575 339.412Z" fill="#1D191F"/>
<path d="M528.066 375.399C528.636 375.399 529.142 374.991 529.25 374.411C529.271 374.29 531.568 362.18 540.919 348.572C550.578 334.515 556.426 303.132 556.67 301.804C556.79 301.147 556.358 300.521 555.702 300.4C555.041 300.294 554.421 300.716 554.3 301.368C554.242 301.69 548.302 333.574 538.932 347.209C529.271 361.273 526.97 373.469 526.876 373.98C526.758 374.634 527.192 375.264 527.846 375.383C527.921 375.391 527.993 375.399 528.066 375.399Z" fill="#1D191F"/>
<path d="M513.847 307.649C513.861 307.649 513.878 307.649 513.89 307.649C514.556 307.624 515.074 307.062 515.051 306.398C514.621 294.902 516.042 287.307 520.117 279.305L520.581 278.396C528.626 262.604 538.04 243.632 539.426 237.071C540.32 232.841 541.703 231.219 542.367 231.191C542.367 231.191 542.369 231.189 542.371 231.189C542.509 231.189 544.237 231.335 546.351 238.317C549.917 250.088 541.51 293.966 541.423 294.409C541.298 295.062 541.724 295.695 542.378 295.822C543.02 295.936 543.663 295.522 543.79 294.867C544.144 293.038 552.393 249.957 548.658 237.62C546.859 231.676 544.808 228.78 542.392 228.78C542.351 228.78 542.307 228.782 542.263 228.782C539.147 228.918 537.67 233.721 537.066 236.571C535.568 243.664 523.119 268.102 518.434 277.302L517.97 278.213C513.691 286.612 512.195 294.54 512.64 306.488C512.667 307.139 513.202 307.649 513.847 307.649Z" fill="#1D191F"/>
<path d="M522.464 326.928C523.088 326.928 523.614 326.448 523.664 325.815C523.674 325.661 524.837 310.389 525.981 300.657C527.097 291.166 538.514 273.002 538.63 272.819C538.986 272.257 538.816 271.512 538.254 271.156C537.703 270.805 536.953 270.965 536.591 271.533C536.109 272.296 524.766 290.348 523.589 300.374C522.438 310.158 521.269 325.478 521.257 325.63C521.207 326.294 521.704 326.872 522.368 326.924C522.401 326.928 522.434 326.928 522.464 326.928Z" fill="#1D191F"/>
</svg>
