<svg width="10" height="19" viewBox="0 0 10 19" fill="none" xmlns="http://www.w3.org/2000/svg">
<path d="M9.62359 0.269474L7.225 0.265625C4.53027 0.265625 2.78882 2.05231 2.78882 4.81769V6.9165H0.377154C0.168757 6.9165 0 7.08545 0 7.29385V10.3348C0 10.5432 0.16895 10.7119 0.377154 10.7119H2.78882V18.3852C2.78882 18.5936 2.95758 18.7623 3.16598 18.7623H6.31252C6.52092 18.7623 6.68967 18.5934 6.68967 18.3852V10.7119H9.50948C9.71787 10.7119 9.88663 10.5432 9.88663 10.3348L9.88779 7.29385C9.88779 7.19379 9.84795 7.09796 9.77733 7.02714C9.70671 6.95633 9.6105 6.9165 9.51044 6.9165H6.68967V5.13731C6.68967 4.28217 6.89345 3.84805 8.0074 3.84805L9.6232 3.84747C9.8314 3.84747 10.0002 3.67852 10.0002 3.47031V0.646632C10.0002 0.438617 9.8316 0.269858 9.62359 0.269474Z" fill="#1D191F"/>
</svg>
