<svg width="84" height="30" viewBox="0 0 84 30" fill="none" xmlns="http://www.w3.org/2000/svg">
<path fill-rule="evenodd" clip-rule="evenodd" d="M21.2532 1.73517C23.3097 1.73517 24.977 3.40194 24.977 5.45865C24.977 7.51563 23.3097 9.1824 21.2532 9.1824H4.22388C2.16717 9.1824 0.5 7.51563 0.5 5.45865C0.5 3.40194 2.16717 1.73517 4.22375 1.73517H21.2532ZM19.5415 11.4925C21.5984 11.4925 23.2655 13.1596 23.2655 15.2163C23.2655 17.273 21.5984 18.94 19.5415 18.94H9.84906C9.02238 18.943 8.34575 19.597 8.3141 20.4153V25.2687C8.3141 27.3251 6.64693 28.9921 4.59076 28.9921C2.53405 28.9921 0.866877 27.3251 0.866877 25.2687V17.0091C0.866877 13.9625 3.33659 11.4924 6.38331 11.4924L19.5415 11.4925ZM26.668 4.67394C26.668 2.6175 28.3352 0.950195 30.3918 0.950195C32.4486 0.950195 34.1155 2.6175 34.1155 4.67394V25.2947C34.1155 27.3514 32.4487 29.0184 30.3918 29.0184C28.3353 29.0184 26.668 27.3513 26.668 25.2947V4.67394ZM72.4991 21.6326L73.9955 21.6289C74.3013 21.6286 74.5491 21.3807 74.5493 21.0749C74.5516 21.0022 74.5383 20.9298 74.5102 20.8627L68.9459 11.5124L60.2532 26.5641C59.5817 27.7281 58.3759 28.3918 57.1245 28.4252C57.0872 28.4304 57.0496 28.4331 57.0119 28.4331H42.8652C39.8183 28.4331 37.3485 25.9631 37.3485 22.9165V4.67421C37.3485 2.61763 39.0158 0.950329 41.0722 0.950329C43.1285 0.950329 44.796 2.61763 44.796 4.67408V19.4503C44.7986 20.2773 45.4525 20.9544 46.2714 20.9852H54.185C54.3885 20.9226 55.011 20.711 55.2006 20.4164L65.1405 3.20965C65.8947 1.91459 67.2977 1.04272 68.9036 1.04272C70.5103 1.04272 71.9136 1.91593 72.6645 3.21368L82.3503 19.4753C83.0975 20.4468 83.5018 21.6385 83.5 22.8641C83.5 25.9398 81.0067 28.4328 77.9315 28.4328H66.6414C64.7627 28.4328 63.2412 26.9104 63.2412 25.0323C63.2412 23.1548 64.7629 21.6326 66.6414 21.6326H72.4991Z" fill="#1D191F"/>
</svg>
