<svg width="44" height="45" viewBox="0 0 44 45" fill="none" xmlns="http://www.w3.org/2000/svg">
<g clip-path="url(#clip0_301_8175-716342)">
<path d="M42.6236 22.7C41.1525 21.4875 38.8272 21.3836 37.301 23.0214L33.5123 27.0886C33.0224 25.5143 31.5521 24.368 29.8189 24.368H23.0578C22.5448 24.368 22.373 24.1721 21.4818 23.4855C18.084 20.5234 12.9805 20.5329 9.59303 23.5139L7.10789 25.7017C5.99079 25.1104 4.68634 25.0958 3.56314 25.657L0.712766 27.0817C0.0759694 27.4006 -0.181757 28.1748 0.136126 28.8116L7.87007 44.2794C8.1889 44.9162 8.96311 45.1739 9.59991 44.856L12.4503 43.4304C13.8553 42.7284 14.6372 41.2949 14.5865 39.8359H29.8189C32.6434 39.8359 35.3426 38.4867 37.0372 36.2268L43.2252 27.9756C44.4256 26.3763 44.2357 24.0311 42.6236 22.7ZM11.297 41.1248L9.59982 41.9737L3.0183 28.8116L4.71634 27.9626C5.35313 27.6446 6.12648 27.9016 6.44531 28.5392L11.8736 39.3959C12.1916 40.0326 11.9338 40.8059 11.297 41.1248ZM41.1628 26.4287L34.9748 34.6799C33.7641 36.2946 31.8366 37.2578 29.8189 37.2578H13.6868L8.85655 27.5965L11.2961 25.4491C13.7237 23.3136 17.3845 23.3136 19.812 25.4491C21.2419 26.708 22.1313 26.946 23.0577 26.946H29.8189C30.5296 26.946 31.1078 27.5244 31.1078 28.235C31.1078 28.9456 30.5295 29.524 29.8189 29.524H23.2356C22.524 29.524 21.9466 30.1015 21.9466 30.813C21.9466 31.5244 22.5241 32.1019 23.2356 32.1019H30.6825C31.7524 32.1019 32.7836 31.6533 33.5123 30.8705L39.1872 24.7788C39.7063 24.2219 40.502 24.2683 40.9901 24.6954C41.5005 25.1422 41.5556 25.9062 41.1628 26.4287Z" fill="#1D191F"/>
<path d="M27.1034 9.79043C27.9859 8.86497 28.5299 7.61381 28.5299 6.23623C28.5299 3.39874 26.2373 0.994385 23.374 0.994385C20.5322 0.994385 18.1322 3.39445 18.1322 6.23623C18.1322 7.57161 18.6555 8.83223 19.6059 9.80074C17.2488 11.1224 15.5542 13.6591 15.5542 16.6341V17.923C15.5542 18.6345 16.1317 19.212 16.8432 19.212H29.819C30.5304 19.212 31.1079 18.6345 31.1079 17.923V16.6341C31.1079 13.7175 29.5037 11.1413 27.1034 9.79043ZM23.374 3.57242C24.7713 3.57242 25.9519 4.79265 25.9519 6.23631C25.9519 7.65763 24.7953 8.81427 23.374 8.81427C21.9303 8.81427 20.7101 7.63357 20.7101 6.23631C20.7101 4.81757 21.9553 3.57242 23.374 3.57242ZM18.1322 16.6341C18.1322 13.7923 20.5322 11.3922 23.374 11.3922C26.2166 11.3922 28.5299 13.7433 28.5299 16.6341H18.1322Z" fill="#1D191F"/>
</g>
<defs>
<clipPath id="clip0_301_8175-716342">
<rect width="44" height="44" fill="white" transform="translate(0 0.993286)"/>
</clipPath>
</defs>
</svg>
