<svg width="50" height="46" viewBox="0 0 50 46" fill="none" xmlns="http://www.w3.org/2000/svg">
<path fill-rule="evenodd" clip-rule="evenodd" d="M15.1871 38.2578H14.1198L13.4627 43.8418H13.2164L12.3951 38.2578H10.7526L10.0135 43.8418H9.84923L9.02827 38.2578H7.96094L8.94644 45.484H10.7529L11.5739 39.8176H11.656L12.3951 45.484H14.2837L15.1871 38.2578ZM16.8294 45.4844H17.9791V42.7745H20.2786V45.4844H21.4281V38.3401H20.2783V41.0499H17.9788V38.3401H16.8291V45.4844H16.8294ZM27.5045 41.625C27.5045 39.4898 26.5193 38.1758 24.7125 38.1758C22.7415 38.1758 21.9205 39.4898 21.9205 41.625C21.9205 43.5958 22.5775 45.4846 24.7125 45.4846C26.7653 45.4846 27.5045 43.5958 27.5045 41.625ZM27.9972 45.4844H31.2819V43.8419H29.1467V38.2579H27.9972V45.4844ZM39.1648 38.3401H37.0301L35.4698 45.4844H36.7013L36.9477 44.1704H39.2469L39.4933 45.4844H40.6434L39.1648 38.3401ZM37.769 39.9004H38.4263L39.0012 43.0206H37.1123L37.769 39.9004ZM4.51202 45.484H7.46824V43.8415H5.0869V42.4456H7.46824V41.4601H5.0869V39.9003H7.46824V38.2578H3.93714V44.0054L1.96643 38.2578H0.159668V45.484H1.30942L1.2273 39.8176L3.28014 45.484H4.51202ZM31.7747 45.4844H35.0588V43.8419H32.9242V38.2579H31.7747V45.4844ZM45.0773 44.0054L43.0248 38.2578H41.218V45.484H42.3681L42.2856 39.8176L44.3388 45.484H46.9662C49.3478 45.484 49.8406 44.2518 49.8406 41.5419C49.7582 39.3254 49.1015 38.2578 46.9662 38.2578H44.9955V41.5419L45.0773 44.0054ZM46.2273 41.7891V39.8184H47.0485C48.2801 39.8184 48.8547 40.2293 48.8547 41.8715V41.7891C48.8547 43.4316 48.2798 43.9243 47.0485 43.8422H46.2273V41.7891ZM26.4368 41.6251C26.4368 42.6928 26.355 43.9243 24.7125 43.9243C23.0703 43.9243 22.906 42.6928 22.906 41.6251C22.906 40.6396 23.3988 39.8184 24.7125 39.8184C26.0265 39.8184 26.4368 40.6396 26.4368 41.6251ZM9.43895 15.0191C9.43895 14.5263 9.76746 14.1978 10.0138 14.4442C12.9701 17.4004 23.8916 25.4481 23.8094 32.5097C23.7273 32.9201 23.3988 33.1664 22.9882 33.1664C14.8586 32.5919 8.20707 29.3896 9.43895 15.0191ZM34.7306 2.45539C32.4314 1.2235 30.0501 0.648924 27.176 0.484375C26.6011 0.484375 26.3547 0.895002 26.2729 1.38776C26.0265 5.0831 26.1083 7.13594 26.0265 10.7489C25.9441 11.3237 26.355 12.0629 27.012 11.2416C30.0498 8.2854 31.7747 6.64319 34.8125 3.68697C35.3055 3.27664 35.1416 2.61964 34.7306 2.45539ZM15.0229 2.45539C17.4042 1.2235 19.7856 0.648924 22.6597 0.484375C23.2345 0.484375 23.4809 0.895002 23.563 1.38776C23.8094 5.0831 23.7273 7.13594 23.8094 10.7489C23.8916 11.3237 23.4809 12.0629 22.7418 11.2416C19.7037 8.2854 17.9791 6.64319 15.0232 3.68697C14.448 3.27664 14.6944 2.61964 15.0229 2.45539ZM36.6195 4.7549C30.871 10.2564 25.7801 13.9515 26.0265 23.8059C26.0265 24.2163 26.355 24.6272 26.9296 24.1344C31.6923 19.4536 34.4021 16.908 39.2469 12.2274C39.9861 11.4883 40.1506 10.8313 39.9042 9.68154C39.4115 7.6287 39.0012 6.72532 37.769 5.0831C37.4408 4.7549 37.1123 4.59035 36.6195 4.7549ZM13.2164 4.7549C18.9643 10.2564 24.0558 13.9518 23.8094 23.8059C23.8094 24.2163 23.4809 24.6272 22.906 24.1344C18.1431 19.4533 15.4335 16.908 10.5887 12.2274C9.84958 11.4883 9.68533 10.8313 9.93171 9.68154C10.4245 7.6287 10.8351 6.72532 12.0667 5.0831C12.3952 4.7549 12.7237 4.59035 13.2164 4.7549ZM40.4788 15.0191C40.4788 14.5263 40.2324 14.1978 39.9039 14.4442C37.0301 17.4004 26.0262 25.4481 26.1083 32.5097C26.1902 32.9201 26.6011 33.1664 27.012 33.1664C35.0591 32.5919 41.7104 29.3896 40.4788 15.0191Z" fill="#1D191F"/>
</svg>
