<svg width="23" height="23" viewBox="0 0 23 23" fill="none" xmlns="http://www.w3.org/2000/svg">
<path d="M11.4719 22.7637C11.3974 22.7637 11.3229 22.7637 11.2479 22.7633C9.48414 22.7676 7.85449 22.7228 6.26966 22.6263C4.81666 22.5379 3.49035 22.0358 2.43391 21.1744C1.41454 20.3432 0.71843 19.2194 0.364966 17.8344C0.0573371 16.6286 0.0410286 15.445 0.0254069 14.3002C0.0140767 13.4788 0.00240335 12.5055 0 11.5157C0.00240335 10.5218 0.0140767 9.54846 0.0254069 8.72705C0.0410286 7.58241 0.0573371 6.3988 0.364966 5.19288C0.71843 3.80791 1.41454 2.68404 2.43391 1.85285C3.49035 0.991455 4.81666 0.489344 6.26983 0.400938C7.85467 0.304636 9.48465 0.259661 11.2521 0.263952C13.0164 0.260176 14.6455 0.304636 16.2303 0.400938C17.6833 0.489344 19.0096 0.991455 20.0661 1.85285C21.0856 2.68404 21.7816 3.80791 22.135 5.19288C22.4427 6.39863 22.459 7.58241 22.4746 8.72705C22.4859 9.54846 22.4978 10.5218 22.5 11.5116V11.5157C22.4978 12.5055 22.4859 13.4788 22.4746 14.3002C22.459 15.4449 22.4428 16.6285 22.135 17.8344C21.7816 19.2194 21.0856 20.3432 20.0661 21.1744C19.0096 22.0358 17.6833 22.5379 16.2303 22.6263C14.7126 22.7187 13.1535 22.7637 11.4719 22.7637ZM11.2479 21.0055C12.9829 21.0096 14.576 20.9659 16.1236 20.8718C17.2222 20.805 18.1748 20.4485 18.9552 19.8121C19.6766 19.2238 20.1734 18.4122 20.4317 17.3998C20.6879 16.396 20.7026 15.3184 20.7169 14.2762C20.728 13.4603 20.7397 12.4938 20.7421 11.5136C20.7397 10.5333 20.728 9.56699 20.7169 8.75109C20.7026 7.70893 20.6879 6.63123 20.4317 5.62736C20.1734 4.61489 19.6766 3.80328 18.9552 3.21499C18.1748 2.57881 17.2222 2.22227 16.1236 2.15549C14.576 2.06125 12.9829 2.01782 11.252 2.0216C9.51727 2.01748 7.92402 2.06125 6.37643 2.15549C5.27776 2.22227 4.32517 2.57881 3.54477 3.21499C2.82342 3.80328 2.32662 4.61489 2.06826 5.62736C1.81213 6.63123 1.79736 7.70876 1.78311 8.75109C1.77196 9.56768 1.76028 10.5347 1.75788 11.5157C1.76028 12.4925 1.77196 13.4596 1.78311 14.2762C1.79736 15.3184 1.81213 16.396 2.06826 17.3998C2.32662 18.4122 2.82342 19.2238 3.54477 19.8121C4.32517 20.4483 5.27776 20.8048 6.37643 20.8716C7.92402 20.9659 9.51761 21.0098 11.2479 21.0055ZM11.206 17.0068C8.17706 17.0068 5.71259 14.5426 5.71259 11.5136C5.71259 8.48467 8.17706 6.02046 11.206 6.02046C14.235 6.02046 16.6993 8.48467 16.6993 11.5136C16.6993 14.5426 14.235 17.0068 11.206 17.0068ZM11.206 7.77828C9.1463 7.77828 7.47047 9.45404 7.47047 11.5136C7.47047 13.5732 9.1463 15.249 11.206 15.249C13.2658 15.249 14.9415 13.5732 14.9415 11.5136C14.9415 9.45404 13.2658 7.77828 11.206 7.77828ZM17.3146 4.26264C16.5866 4.26264 15.9962 4.85282 15.9962 5.58101C15.9962 6.3092 16.5866 6.89937 17.3146 6.89937C18.0428 6.89937 18.633 6.3092 18.633 5.58101C18.633 4.85282 18.0428 4.26264 17.3146 4.26264Z" fill="#1D191F"/>
</svg>
