<svg width="18" height="19" viewBox="0 0 18 19" fill="none" xmlns="http://www.w3.org/2000/svg">
<path d="M17.7497 18.2634V11.8541C17.7497 8.70409 17.0716 6.29785 13.3966 6.29785C11.6248 6.29785 10.4435 7.26035 9.96228 8.17909H9.91853V6.58222H6.44043V18.2634H10.0717V12.4666C10.0717 10.9353 10.356 9.46971 12.2373 9.46971C14.0966 9.46971 14.1185 11.1978 14.1185 12.5541V18.2415H17.7497V18.2634Z" fill="#1D191F"/>
<path d="M0.53418 6.58301H4.16541V18.2642H0.53418V6.58301Z" fill="#1D191F"/>
<path d="M2.34999 0.763672C1.19062 0.763672 0.25 1.70429 0.25 2.86366C0.25 4.02303 1.19062 4.98552 2.34999 4.98552C3.50935 4.98552 4.44997 4.02303 4.44997 2.86366C4.44997 1.70429 3.50935 0.763672 2.34999 0.763672Z" fill="#1D191F"/>
</svg>
