<svg width="84" height="44" viewBox="0 0 84 44" fill="none" xmlns="http://www.w3.org/2000/svg">
<path d="M20.1341 22.8422H25.8625L34.3033 0.336914H28.9833L25.1928 10.4303L25.8461 0.336914H20.186L11.7457 22.8422H17.0652L20.7852 12.8854L20.1341 22.8422Z" fill="#1D191F"/>
<path d="M34.9934 0.336914L26.5536 22.8422H31.8731L40.3129 0.336914H34.9934Z" fill="#1D191F"/>
<path fill-rule="evenodd" clip-rule="evenodd" d="M11.1322 15.0849C3.6988 23.8144 -3.31328 35.4297 2.88045 40.7784C8.8294 45.9162 16.2522 42.9461 21.3635 40.9009L21.4989 40.8467C26.6139 38.8007 83.1501 14.2493 83.1501 14.2493C83.6956 13.9765 83.5936 13.6354 82.9114 13.8057C82.7955 13.8347 71.8412 16.802 59.2063 20.2254L59.8336 18.4777H53.6278L55.6668 13.022H60.7814L62.3551 8.82779H57.2406L58.9939 4.08801H64.3808L65.8104 0.336914H49.5791L44.0059 7.08863L46.579 0.336914H41.1912L32.8187 22.8422H38.1382L41.7128 13.4309L41.9576 22.8422L49.6099 22.8255C35.1096 26.7546 21.3627 30.4801 21.3627 30.4801C13.5873 32.6628 4.72162 27.9057 11.1322 15.0849ZM47.235 21.3417L46.8939 9.61198L54.9368 0.781351L47.235 21.3417Z" fill="#1D191F"/>
</svg>
