<svg width="32" height="33" viewBox="0 0 32 33" fill="none" xmlns="http://www.w3.org/2000/svg">
<g clip-path="url(#clip0_301_10079-325796)">
<path d="M28.77 13.9744L6.17529 0.929199C5.25171 0.395996 4.14893 0.395996 3.2251 0.929199C3.21753 0.933594 3.21069 0.938477 3.20312 0.942871C3.18994 0.950684 3.17676 0.95874 3.16382 0.967285C2.27783 1.50708 1.75 2.44189 1.75 3.48413V29.5745C1.75 30.6411 2.30151 31.5962 3.2251 32.1294C3.68701 32.396 4.1936 32.5293 4.7002 32.5293C5.20679 32.5293 5.71362 32.396 6.17529 32.1294L28.7703 19.0842C29.6938 18.551 30.2454 17.5959 30.2454 16.5293C30.2454 15.4626 29.6938 14.5076 28.77 13.9744ZM3.64868 29.7964C3.63501 29.7278 3.62671 29.6543 3.62671 29.5745V3.48413C3.62671 3.34375 3.65039 3.22144 3.68823 3.11499L16.4585 16.4351L3.64868 29.7964ZM6.3877 3.21875L21.0264 11.6704L17.7585 15.0791L6.3877 3.21875ZM5.98267 30.0737L17.7583 17.7908L21.1428 21.321L5.98267 30.0737ZM27.8318 17.459L22.8162 20.3547L19.0583 16.4351L22.6997 12.6367L27.8318 15.5996C28.3162 15.8794 28.3687 16.343 28.3687 16.5293C28.3687 16.7156 28.3162 17.1792 27.8318 17.459Z" fill="#1D191F"/>
</g>
<defs>
<clipPath id="clip0_301_10079-325796">
<rect width="32" height="32" fill="white" transform="translate(0 0.529297)"/>
</clipPath>
</defs>
</svg>
