<svg width="84" height="42" viewBox="0 0 84 42" fill="none" xmlns="http://www.w3.org/2000/svg">
<path fill-rule="evenodd" clip-rule="evenodd" d="M45.2331 0.493776C45.5056 0.449943 45.9598 1.45361 46.2308 1.36495C46.5177 1.26632 46.9187 0.42205 47.3097 0.472357C47.477 0.494274 48.1415 1.82469 48.1415 1.82469C53.4941 2.08868 60.1018 8.5759 60.9531 9.23239C61.3625 9.54918 63.0959 11.3423 66.2638 12.7315C67.5663 13.3033 68.8748 13.5489 70.0877 13.4587C71.7065 13.3422 73.5171 11.9206 74.6303 9.98452C76.027 7.56277 76.6197 3.34389 80.6498 0.952523C81.2142 0.617802 82.4923 -0.13034 83.2315 0.812558C83.8262 1.57614 83.3341 2.83633 82.7159 3.43952C82.3239 3.82057 81.6146 4.20609 80.2643 4.84216C79.807 5.05983 79.0609 5.6182 78.77 5.84583C77.323 6.94712 76.275 9.44956 75.1095 12.1896C75.1095 12.1896 74.6119 13.536 72.4217 14.9839C72.0517 15.223 72.3844 15.4272 72.7878 15.9428C73.3034 16.6256 74.3384 19.4065 74.2039 23.6384C74.1825 24.3895 74.4864 24.7157 74.8286 25.3309C75.4203 26.3918 76.5923 26.1547 76.5624 27.5469C76.5226 29.4158 77.9038 29.8138 77.4605 30.6765C77.1367 31.3051 77.2493 31.9152 77.2503 32.5289C77.2503 32.8382 77.4177 33.2905 76.7771 33.2576C74.1506 33.0992 74.326 29.5767 74.3753 28.3643C74.4171 28.2039 74.2966 27.917 74.2762 27.9031C74.1457 27.8089 72.5104 26.5368 72.4013 26.4287C70.4149 24.4089 69.1054 22.5924 68.3737 20.7265C67.8886 19.4822 67.3895 18.2554 66.5367 17.4669C65.5814 16.5958 64.4118 16.1056 63.3843 16.0992C56.0782 16.0618 54.5744 12.8565 52.587 11.2591C52.5267 11.2153 52.3454 11.1127 52.2403 11.1037C52.1288 11.1122 52.0426 11.2437 51.9699 11.305C51.2033 12.1094 50.4293 12.3719 49.3902 12.3719C46.9217 12.3719 44.2658 10.2082 43.7981 10.6903C43.441 11.0664 43.7513 11.8404 43.0948 11.9699C42.1449 12.1602 41.1627 11.2228 41.2404 10.4288C41.3843 9.00675 42.8383 8.59034 44.1144 8.4449C45.1708 8.33333 46.0326 8.62222 46.2303 8.64464C46.8186 8.72732 46.9217 8.01504 46.8255 7.5548C46.7155 7.0567 46.2507 6.9526 45.7651 6.80815C45.1743 6.63133 44.5168 7.12245 44.076 6.97253C43.5575 6.78674 43.5167 6.52274 43.0903 6.1412C42.5434 5.66602 41.9128 5.53801 41.9148 4.86806C41.9148 4.24744 42.6684 4.19713 42.8831 3.6283C42.9927 3.34339 42.9618 3.04652 43.0589 2.87368C43.3139 2.40946 43.7916 2.43137 44.1766 2.05631C44.7001 1.5343 44.9617 0.53462 45.2331 0.493776ZM21.6661 39.2059C22.1722 39.1934 22.6011 38.78 22.6006 38.269L22.6051 21.5703H28.104V39.9769C28.104 40.879 27.3818 41.6152 26.4793 41.6152H16.86C15.9624 41.6152 15.2317 40.8795 15.2317 39.9769V21.5703H20.7352L20.7342 38.269C20.7342 38.78 21.1621 39.1934 21.6661 39.2059ZM31.7631 21.5703H48.4229C48.8987 21.5711 49.3546 21.7609 49.6904 22.0979C50.0261 22.435 50.2141 22.8916 50.2131 23.3674V41.6152H44.7036V24.8771C44.6996 24.3641 44.2793 23.9576 43.7707 23.9576C43.2572 23.9576 42.8457 24.3541 42.8378 24.8627V41.6157H37.3527V24.8632C37.3408 24.3546 36.9283 23.9581 36.4143 23.9581C36.1689 23.9564 35.9328 24.0524 35.7582 24.2248C35.5835 24.3973 35.4847 24.6322 35.4834 24.8776V41.6152H29.9744V23.3674C29.9729 22.8918 30.1607 22.4351 30.4962 22.098C30.8317 21.7609 31.2875 21.5711 31.7631 21.5703ZM11.5607 36.5784H6.00099V41.6152H0.5V21.5703H11.5956C12.5888 21.5703 13.3644 22.3777 13.3644 23.3754V34.7708C13.3658 35.25 13.1764 35.71 12.8379 36.0492C12.4995 36.3884 12.0399 36.5788 11.5607 36.5784ZM7.86736 24.912C7.87081 24.6619 7.77459 24.4207 7.59993 24.2416C7.42527 24.0626 7.18653 23.9604 6.93641 23.9576H6.00099V34.0964H6.93641C7.42106 34.0964 7.87184 33.7109 7.86736 33.1545V24.912ZM59.4483 41.6152V36.5824H57.577V41.6152H52.08V23.3674C52.08 22.3712 52.8819 21.5703 53.8691 21.5703H63.1566C63.6326 21.5707 64.0888 21.7603 64.4247 22.0975C64.7606 22.4346 64.9486 22.8915 64.9473 23.3674L64.9473 41.6152H59.4483ZM59.4483 34.1004V24.8702C59.4349 24.3601 59.0229 23.9676 58.5099 23.9676C58.0005 23.9667 57.5849 24.3752 57.577 24.8846V34.1004H59.4483Z" fill="#1D191F"/>
</svg>
