<svg width="52" height="40" viewBox="0 0 52 40" fill="none" xmlns="http://www.w3.org/2000/svg">
<path d="M4.70817 36.6097C1.7915 33.4014 0.0415039 29.9014 0.0415039 24.068C0.0415039 13.8597 7.33317 4.81803 17.5415 0.151367L20.1665 3.94303C10.5415 9.19304 8.49984 15.9014 7.9165 20.2764C9.37484 19.4014 11.4165 19.1097 13.4582 19.4014C18.7082 19.9847 22.7915 24.068 22.7915 29.6097C22.7915 32.2347 21.6248 34.8597 19.8748 36.9014C17.8332 38.943 15.4998 39.818 12.5832 39.818C9.37484 39.818 6.45817 38.3597 4.70817 36.6097ZM33.8748 36.6097C30.9582 33.4014 29.2082 29.9014 29.2082 24.068C29.2082 13.8597 36.4998 4.81803 46.7082 0.151367L49.3332 3.94303C39.7082 9.19304 37.6665 15.9014 37.0832 20.2764C38.5415 19.4014 40.5832 19.1097 42.6248 19.4014C47.8748 19.9847 51.9582 24.068 51.9582 29.6097C51.9582 32.2347 50.7915 34.8597 49.0415 36.9014C47.2915 38.943 44.6665 39.818 41.7498 39.818C38.5415 39.818 35.6248 38.3597 33.8748 36.6097Z" fill="#1D191F"/>
</svg>
