<svg width="62" height="46" viewBox="0 0 62 46" fill="none" xmlns="http://www.w3.org/2000/svg">
<path fill-rule="evenodd" clip-rule="evenodd" d="M60.9701 18.57C60.4113 15.3617 56.2715 15.051 53.5803 15.5475C50.8888 16.0441 47.5775 17.4722 44.2035 19.0457C42.9089 19.6493 41.4104 20.445 39.9659 21.2386C38.8348 21.0391 37.7346 20.8878 36.7918 20.8878C34.5359 20.8878 32.6318 21.6955 31.6171 22.1092C30.6031 22.5233 30.292 22.8748 30.3752 23.0825C30.458 23.2895 31.0374 23.1855 31.9894 22.8542C32.9418 22.5233 33.7495 22.1708 35.9017 21.9436C36.6351 21.8659 37.5046 21.9302 38.4656 22.0709C36.7459 23.0318 35.2511 23.8833 34.4952 24.2412C32.9223 24.9862 30.7297 26.3113 26.7549 26.4561C22.78 26.6008 21.6008 24.8829 20.2969 23.2269C18.9927 21.5706 17.7303 18.3428 16.4675 16.0034C15.2047 13.6643 12.4108 12.2157 12.4108 12.2157C15.5367 11.4912 18.3096 9.48344 18.6409 6.39937C18.9722 3.31497 16.9856 0.976593 13.2804 0.562168C9.57523 0.148085 6.38781 1.45262 4.27633 2.9221C2.16485 4.39158 0.881535 7.04137 1.29562 8.7179C1.70936 10.3948 2.93039 10.6846 3.86225 10.4153C4.79411 10.146 5.18697 9.1111 5.06275 8.7179C4.93852 8.32469 4.4625 7.78638 4.02788 7.95201C3.59292 8.11765 3.38622 8.0143 3.38622 8.0143C2.30995 6.87574 3.13778 4.53668 5.4563 3.21196C7.54451 2.01865 9.38256 1.85404 11.4205 2.14971C10.6393 2.52444 9.89 2.96222 9.17997 3.4587C7.54451 4.59725 6.48911 6.83262 6.21979 9.64804C5.95046 12.4635 6.05381 13.7673 5.86764 17.5348C5.68182 21.3023 5.49531 23.6612 4.81225 24.4688C4.12918 25.2761 2.78392 25.9171 2.12139 26.3315C1.45886 26.7459 1.56255 27.3869 2.53547 27.2011C3.50805 27.0152 4.6473 26.3322 5.72323 25.8144C6.7995 25.297 7.89665 25.0071 9.69774 24.9862C11.4988 24.965 11.4362 25.0273 11.5399 24.696C11.6436 24.3648 11.4157 24.3025 10.8154 23.8056C10.2152 23.3087 10.0085 23.0188 10.0499 21.7769C10.079 20.8974 10.0667 16.1738 10.0571 12.8608C11.3866 13.2051 11.8725 14.9658 12.2637 16.3949C12.6774 17.9061 13.278 20.3488 14.2509 22.1287C16.0055 25.3401 17.8107 27.635 21.3917 28.7527C24.9726 29.8707 28.0776 28.7527 31.1202 27.5939C33.9072 26.5324 37.5426 24.2046 40.3933 22.4203C41.7988 22.7156 43.3387 23.0945 44.9691 23.4534C48.6325 24.26 51.8206 24.4472 54.0765 24.219C56.3321 23.9924 61.529 21.7783 60.9701 18.57ZM10.0523 11.3394C10.0506 10.6844 10.0496 10.1625 10.0496 9.85588C10.0496 8.07567 10.0287 4.82563 11.2501 3.66654C12.0782 2.88012 12.4711 2.62072 12.94 2.48828C14.5035 3.06423 14.7732 4.24317 14.9159 5.65516C15.0815 7.29062 14.3157 8.76044 12.9081 10.0438C11.9253 10.9397 10.7022 11.2395 10.0523 11.3394ZM51.9664 22.7303C49.3584 22.9586 46.9146 22.4815 44.5553 22.1092C43.7039 21.9744 42.7488 21.7779 41.7714 21.5819C44.7757 19.8745 49.4768 18.1737 52.0287 17.8452C54.7609 17.4937 55.9409 18.3212 55.8995 19.7702C55.8584 21.2191 54.5744 22.5024 51.9664 22.7303ZM24.5072 11.3318C24.7259 11.4289 24.6229 11.713 24.6229 12.2106V18.5282C24.6229 18.8763 24.756 19.0751 25.0212 18.9095C25.2861 18.7438 25.8501 18.2962 26.0157 18.3623C26.1817 18.4283 26.5632 18.595 26.0492 19.4238C25.5352 20.2527 24.59 21.3806 23.8604 21.4634C23.1308 21.5463 22.0699 21.4634 21.6223 20.9159C21.1743 20.3683 20.9919 19.9204 20.9919 19.3239V13.8854C20.9919 13.4374 20.8927 13.4213 20.6271 13.4213C20.3616 13.4213 19.9143 13.4042 19.8643 13.1393C19.8144 12.8741 19.9136 12.7578 20.3616 12.5921C20.8095 12.4262 23.33 11.6305 23.7612 11.4977C24.192 11.3649 24.358 11.2657 24.5072 11.3318ZM22.3516 9.42492C22.6336 8.64535 22.7 8.04852 22.65 7.66729C22.6004 7.28606 22.2855 7.12008 22.3016 6.97088C22.318 6.82133 22.882 6.63927 23.5288 6.42367C24.1756 6.20807 24.7889 5.92608 25.2036 5.82684C25.618 5.72726 25.8668 6.22484 25.3196 7.68406C24.7724 9.14293 23.728 10.1049 23.1643 10.4365C22.6007 10.7681 22.2232 10.9064 22.0532 10.6521C21.9532 10.5029 22.0696 10.2045 22.3516 9.42492ZM32.5326 18.2959C31.8194 19.0922 31.0234 19.9043 29.7801 19.6391C28.5365 19.3739 27.9065 18.3623 27.9065 17.2511V12.0946C27.9065 11.5778 27.9503 11.5197 27.7073 11.4351C27.13 11.4776 26.7522 11.4259 26.7785 11.2325C26.8452 10.7346 27.2758 10.7678 27.8065 10.3038C28.3373 9.83971 29.1333 8.99375 29.7469 8.04855C30.3602 7.10368 30.609 5.82687 30.7917 5.29609C30.9741 4.76565 31.1065 4.53329 31.3885 4.63287C31.6705 4.7328 31.6206 4.91486 31.6206 5.46207V9.09197C31.678 9.18437 31.7523 9.23912 31.8533 9.22612C32.2341 9.17615 32.6 9.01052 32.7985 9.02695C32.997 9.04337 33.0637 9.32536 33.0637 9.57415C33.0637 9.80036 33.0182 10.0543 31.6206 10.5454V16.4555C31.6206 16.9202 31.4382 17.2682 31.9025 17.0691C32.3669 16.8699 32.7988 16.4558 33.0969 16.5718C33.395 16.6875 33.2457 17.4996 32.5326 18.2959ZM39.7681 16.2145C39.0549 17.0112 38.2589 17.8233 37.015 17.5581C35.7717 17.2922 35.1413 16.2806 35.1413 15.1697V10.0135C35.1413 9.49644 35.1855 9.43826 34.9422 9.35373C34.3652 9.39617 33.9877 9.34415 34.0137 9.15114C34.0804 8.6539 34.511 8.68641 35.0417 8.22236C35.5725 7.75832 36.3685 6.91235 36.9821 5.96749C37.5957 5.02229 37.8438 3.74582 38.0269 3.21504C38.2093 2.6846 38.3417 2.45223 38.6237 2.55182C38.9057 2.65175 38.8558 2.83381 38.8558 3.38135V7.01091C38.9132 7.10331 38.9875 7.15841 39.0885 7.14506C39.4693 7.0951 39.8352 6.92981 40.0337 6.94623C40.2322 6.963 40.2989 7.24431 40.2989 7.4931C40.2989 7.71896 40.2527 7.97323 38.8558 8.46465V14.3747C38.8558 14.8395 38.6733 15.1875 39.1377 14.9887C39.6021 14.7892 40.034 14.3754 40.3314 14.4911C40.6298 14.6064 40.4806 15.4185 39.7681 16.2145ZM49.177 5.19511C48.4244 4.49459 47.0234 3.72563 45.1265 4.7338C43.2289 5.74197 42.0325 7.00681 41.1267 9.75824C40.2211 12.51 42.99 14.8001 43.6392 15.1078C44.2887 15.4154 45.2969 15.9965 46.8348 14.9541C48.3735 13.9114 48.9378 12.8348 49.1082 12.4419C49.2793 12.0487 49.0914 11.4847 48.51 11.8779C47.9293 12.2711 47.1257 13.2454 45.8951 12.8693C44.9735 12.5877 44.5985 11.9707 44.3606 11.42C45.172 10.8965 47.6993 9.26476 48.613 8.66519C49.7064 7.94756 49.8094 7.96467 49.9798 7.48591C50.1509 7.00647 49.9288 5.89563 49.177 5.19511ZM46.6986 8.45979C46.0744 9.14833 45.2777 9.74721 43.9581 10.382C43.7521 9.71333 43.6488 8.71987 44.4085 7.38317C45.3995 5.63992 46.4252 5.10982 46.8523 5.74258C47.2793 6.37534 47.3649 7.72471 46.6986 8.45979ZM51.501 4.99012C51.2844 4.88198 51.1594 4.92168 50.886 4.97301C50.6119 5.02434 50.424 4.81901 50.578 4.61402C50.7324 4.40903 51.245 4.03294 51.7231 3.60551C52.2015 3.17842 52.6803 2.78521 53.2271 2.83655C53.7747 2.88788 54.4584 2.93921 55.0905 4.05005C55.0905 4.05005 56.0128 2.7681 56.5945 2.44334C56.5945 2.44334 57.4487 3.31497 57.9956 3.58874C58.5431 3.86183 58.8672 4.05005 59.3805 3.63973C59.8932 3.22941 59.9955 3.16131 60.1492 3.29785C60.3028 3.43474 60.1149 4.13526 59.3118 4.90457C58.5082 5.67353 57.6373 6.35728 56.868 6.13518C56.0987 5.91308 55.2096 5.26355 55.2096 5.26355V10.2367C55.2096 10.647 55.3301 10.6641 55.7229 10.4762C56.1158 10.288 56.5258 9.91223 56.7482 10.1172C56.97 10.3226 56.9361 10.9207 56.0302 11.8434C55.1244 12.766 54.9875 13.0911 53.5009 13.0911C52.0136 13.0911 51.5352 11.4673 51.5352 11.0231V5.41755C51.5352 5.07533 51.6382 5.05856 51.501 4.99012ZM9.12727 34.2483L10.5653 31.3973C10.5653 31.3973 8.64782 30.2119 6.25127 30.2119C3.85472 30.2119 2.26512 31.3224 1.58377 33.3658C0.902753 35.4091 1.811 37.6034 2.81985 38.0832C3.82905 38.5627 5.64555 39.1927 6.45284 39.5462C7.26013 39.8997 7.68927 41.1112 7.03324 41.7166C6.37721 42.3216 4.88856 42.8517 2.49201 40.7826L0.927734 43.6833C0.927734 43.6833 3.02176 45.3735 5.56991 45.3735C8.11807 45.3735 10.2621 44.2637 10.9684 41.9174C11.6751 39.5712 10.8175 37.3002 8.62249 36.5436C6.42785 35.787 4.96419 35.7113 5.14112 34.273C5.3177 32.8353 7.86551 33.0126 9.12727 34.2483ZM22.5233 33.0504C21.741 30.9813 19.1679 30.6035 18.5122 30.6035H12.1794V44.9838H15.8631V40.2664H18.4365C19.3698 40.2664 20.354 40.1904 21.7667 39.0303C23.1793 37.8695 23.3056 35.1194 22.5233 33.0504ZM17.5534 37.2882H15.8632V33.5293H17.1246C18.2597 33.5293 19.0923 33.9831 19.0923 35.4721C19.0923 36.96 18.26 37.2882 17.5534 37.2882ZM31.4539 30.1024C27.1026 30.1024 23.575 33.5458 23.575 37.7934C23.575 42.041 27.1026 45.4844 31.4539 45.4844C35.8052 45.4844 39.3328 42.041 39.3328 37.7934C39.3328 33.5458 35.8052 30.1024 31.4539 30.1024ZM31.4539 41.912C29.2165 41.912 27.4034 40.0678 27.4034 37.7934C27.4034 35.519 29.2165 33.6748 31.4539 33.6748C33.691 33.6748 35.5044 35.519 35.5044 37.7934C35.5044 40.0678 33.691 41.912 31.4539 41.912ZM43.9811 39.5856L47.4026 44.9711H52.0044L47.6045 39.1605C47.6045 39.1605 48.2201 39.1605 49.3823 38.4426C50.5441 37.7246 51.1937 35.2983 50.4757 33.2812C49.7577 31.2646 47.4673 30.615 46.1685 30.615H40.2211V44.9711H43.9808V39.5856H43.9811ZM46.0323 33.657C46.6473 33.8623 47.0234 34.9215 46.8865 35.8448C46.7503 36.7678 45.3144 37.1781 44.8359 37.1781H43.9811V33.4862C44.7548 33.4821 45.4667 33.4688 46.0323 33.657ZM61.0718 30.615H51.2275V33.657H54.3037V44.9711H57.9952V33.657H61.0718V30.615Z" fill="#1D191F"/>
</svg>
