<svg width="424" height="350" viewBox="0 0 424 350" fill="none" xmlns="http://www.w3.org/2000/svg">
<path d="M74.2453 64.3003L2.55762 64.2121C2.55762 64.2121 6.12818 60.5074 10.0594 60.0482C10.0594 60.0482 17.7355 41.8737 30.5314 41.7595C42.4275 41.6535 47.1744 52.9627 47.1744 52.9627C47.1744 52.9627 52.6943 47.8992 57.9549 50.2241C63.2155 52.5489 66.1842 59.1891 66.1842 59.1891C66.1842 59.1891 72.1014 61.7471 74.2453 64.3003Z" fill="#EBEBEB"/>
<path d="M330.789 80.4925L421.443 80.6034C421.443 80.6034 421.452 75.9731 408.963 75.0516C408.963 75.0516 397.6 54.8049 380.187 57.5014C369.343 59.1809 363.777 71.07 363.777 71.07C363.777 71.07 355.604 61.6985 349.047 63.5027C342.491 65.3068 338.581 75.267 338.581 75.267C338.581 75.267 331.817 77.8761 330.789 80.4925Z" fill="#EBEBEB"/>
<path d="M315.855 149.778L377.498 149.854C377.498 149.854 371.689 145.519 369.104 145.517C366.518 145.513 359 130.977 349.357 131.584C339.714 132.19 334.578 143.001 334.578 143.001C334.578 143.001 322.863 140.051 315.855 149.778Z" fill="#EBEBEB"/>
<path d="M306.67 24.6735L359.384 24.7383C359.384 24.7383 356.769 22.0077 353.879 21.6628C353.879 21.6628 348.287 8.28454 338.877 8.17765C330.13 8.07804 326.608 16.3855 326.608 16.3855C326.608 16.3855 322.563 12.6524 318.689 14.3522C314.814 16.0519 312.612 20.9299 312.612 20.9299C312.612 20.9299 308.254 22.8005 306.67 24.6735Z" fill="#EBEBEB"/>
<path d="M37.5347 126.636L90.249 126.7C90.249 126.7 87.6339 123.97 84.7442 123.626C84.7442 123.626 79.1503 110.247 69.7416 110.141C60.9945 110.042 57.4726 118.348 57.4726 118.348C57.4726 118.348 53.4279 114.615 49.5524 116.315C45.6778 118.015 43.4761 122.892 43.4761 122.892C43.4761 122.892 39.1183 124.763 37.5347 126.636Z" fill="#EBEBEB"/>
<path d="M7.50781 131.321V285.997H416.492V196.259H381.013V230.698H371.879V211.205H326.763V242.076H320.791V120.225H281.58V189.508H261.473V214.254H255.385V198.692H219.737V245.124H209.315V207.382H176.712V178.705H154.547V162.381H128.904V234.803H120.271V155.172H78.0334V198.435H72.1952V163.127H29.3547V131.321H7.50781Z" fill="#EBEBEB"/>
<path d="M406.14 207.176H412.144V200.593H406.14V207.176Z" fill="#FAFAFA"/>
<path d="M395.735 207.176H401.738V200.593H395.735V207.176Z" fill="#FAFAFA"/>
<path d="M385.33 207.176H391.333V200.593H385.33V207.176Z" fill="#FAFAFA"/>
<path d="M406.14 217.083H412.144V210.498H406.14V217.083Z" fill="#FAFAFA"/>
<path d="M395.735 217.083H401.738V210.498H395.735V217.083Z" fill="#FAFAFA"/>
<path d="M385.33 217.083H391.333V210.498H385.33V217.083Z" fill="#FAFAFA"/>
<path d="M406.14 226.99H412.144V220.406H406.14V226.99Z" fill="#FAFAFA"/>
<path d="M395.735 226.99H401.738V220.406H395.735V226.99Z" fill="#FAFAFA"/>
<path d="M385.33 226.99H391.333V220.406H385.33V226.99Z" fill="#FAFAFA"/>
<path d="M406.14 236.896H412.144V230.312H406.14V236.896Z" fill="#FAFAFA"/>
<path d="M395.735 236.896H401.738V230.312H395.735V236.896Z" fill="#FAFAFA"/>
<path d="M385.33 236.896H391.333V230.312H385.33V236.896Z" fill="#FAFAFA"/>
<path d="M198.302 217.575H204.305V212.083H198.302V217.575Z" fill="#FAFAFA"/>
<path d="M187.897 217.575H193.9V212.083H187.897V217.575Z" fill="#FAFAFA"/>
<path d="M177.492 217.575H183.496V212.083H177.492V217.575Z" fill="#FAFAFA"/>
<path d="M198.302 225.841H204.305V220.348H198.302V225.841Z" fill="#FAFAFA"/>
<path d="M187.897 225.841H193.9V220.348H187.897V225.841Z" fill="#FAFAFA"/>
<path d="M177.492 225.841H183.496V220.348H177.492V225.841Z" fill="#FAFAFA"/>
<path d="M198.302 234.104H204.305V228.612H198.302V234.104Z" fill="#FAFAFA"/>
<path d="M187.897 234.104H193.9V228.612H187.897V234.104Z" fill="#FAFAFA"/>
<path d="M177.492 234.104H183.496V228.612H177.492V234.104Z" fill="#FAFAFA"/>
<path d="M198.302 242.37H204.305V236.877H198.302V242.37Z" fill="#FAFAFA"/>
<path d="M187.897 242.37H193.9V236.877H187.897V242.37Z" fill="#FAFAFA"/>
<path d="M177.492 242.37H183.496V236.877H177.492V242.37Z" fill="#FAFAFA"/>
<path d="M198.302 250.838H204.305V245.345H198.302V250.838Z" fill="#FAFAFA"/>
<path d="M187.897 250.838H193.9V245.345H187.897V250.838Z" fill="#FAFAFA"/>
<path d="M177.492 250.838H183.496V245.345H177.492V250.838Z" fill="#FAFAFA"/>
<path d="M198.302 259.31H204.305V253.817H198.302V259.31Z" fill="#FAFAFA"/>
<path d="M187.897 259.31H193.9V253.817H187.897V259.31Z" fill="#FAFAFA"/>
<path d="M177.492 259.31H183.496V253.817H177.492V259.31Z" fill="#FAFAFA"/>
<path d="M198.302 267.778H204.306V262.285H198.302V267.778Z" fill="#FAFAFA"/>
<path d="M187.897 267.778H193.9V262.285H187.897V267.778Z" fill="#FAFAFA"/>
<path d="M177.492 267.778H183.495V262.285H177.492V267.778Z" fill="#FAFAFA"/>
<path d="M198.302 276.248H204.305V270.754H198.302V276.248Z" fill="#FAFAFA"/>
<path d="M187.897 276.248H193.9V270.754H187.897V276.248Z" fill="#FAFAFA"/>
<path d="M177.492 276.248H183.496V270.754H177.492V276.248Z" fill="#FAFAFA"/>
<path d="M332.196 219.544H366.756V215.426H332.196V219.544Z" fill="#FAFAFA"/>
<path d="M332.196 227.532H366.756V223.415H332.196V227.532Z" fill="#FAFAFA"/>
<path d="M332.196 235.524H366.756V231.406H332.196V235.524Z" fill="#FAFAFA"/>
<path d="M332.196 243.513H366.756V239.396H332.196V243.513Z" fill="#FAFAFA"/>
<path d="M332.196 251.501H366.756V247.383H332.196V251.501Z" fill="#FAFAFA"/>
<path d="M332.196 259.491H366.756V255.374H332.196V259.491Z" fill="#FAFAFA"/>
<path d="M332.196 267.481H366.756V263.364H332.196V267.481Z" fill="#FAFAFA"/>
<path d="M332.196 275.471H366.756V271.353H332.196V275.471Z" fill="#FAFAFA"/>
<path d="M83.3952 163.135H115.168V159.017H83.3952V163.135Z" fill="#FAFAFA"/>
<path d="M83.3952 171.125H115.168V167.008H83.3952V171.125Z" fill="#FAFAFA"/>
<path d="M83.3952 179.113H115.168V174.995H83.3952V179.113Z" fill="#FAFAFA"/>
<path d="M83.3952 187.104H115.168V182.986H83.3952V187.104Z" fill="#FAFAFA"/>
<path d="M115.168 190.976H83.3945V195.094H115.168V190.976Z" fill="#FAFAFA"/>
<path d="M83.3952 203.083H115.168V198.965H83.3952V203.083Z" fill="#FAFAFA"/>
<path d="M83.3952 211.073H115.168V206.956H83.3952V211.073Z" fill="#FAFAFA"/>
<path d="M83.3952 219.063H115.168V214.946H83.3952V219.063Z" fill="#FAFAFA"/>
<path d="M83.3952 226.654H115.168V222.536H83.3952V226.654Z" fill="#FAFAFA"/>
<path d="M83.3952 234.246H115.168V230.128H83.3952V234.246Z" fill="#FAFAFA"/>
<path d="M83.3952 241.838H115.168V237.721H83.3952V241.838Z" fill="#FAFAFA"/>
<path d="M83.3952 249.43H115.168V245.312H83.3952V249.43Z" fill="#FAFAFA"/>
<path d="M32.0219 172.786H65.5845V168.668H32.0219V172.786Z" fill="#FAFAFA"/>
<path d="M32.0219 180.776H65.5845V176.658H32.0219V180.776Z" fill="#FAFAFA"/>
<path d="M32.0219 188.764H65.5845V184.646H32.0219V188.764Z" fill="#FAFAFA"/>
<path d="M32.0219 196.754H65.5845V192.637H32.0219V196.754Z" fill="#FAFAFA"/>
<path d="M32.0219 204.743H65.5845V200.626H32.0219V204.743Z" fill="#FAFAFA"/>
<path d="M32.0219 212.735H65.5845V208.617H32.0219V212.735Z" fill="#FAFAFA"/>
<path d="M32.0219 220.724H65.5845V216.606H32.0219V220.724Z" fill="#FAFAFA"/>
<path d="M32.0219 228.714H65.5845V224.596H32.0219V228.714Z" fill="#FAFAFA"/>
<path d="M32.0219 235.865H65.5845V231.747H32.0219V235.865Z" fill="#FAFAFA"/>
<path d="M32.0219 243.016H65.5845V238.898H32.0219V243.016Z" fill="#FAFAFA"/>
<path d="M32.0219 250.167H65.5845V246.049H32.0219V250.167Z" fill="#FAFAFA"/>
<path d="M234.288 206.398H244.959V202.421H234.288V206.398Z" fill="#FAFAFA"/>
<path d="M234.288 214.114H244.959V210.137H234.288V214.114Z" fill="#FAFAFA"/>
<path d="M234.288 221.829H244.959V217.852H234.288V221.829Z" fill="#FAFAFA"/>
<path d="M234.288 229.546H244.959V225.569H234.288V229.546Z" fill="#FAFAFA"/>
<path d="M234.288 237.26H244.959V233.283H234.288V237.26Z" fill="#FAFAFA"/>
<path d="M234.288 244.977H244.959V241H234.288V244.977Z" fill="#FAFAFA"/>
<path d="M234.288 252.692H244.959V248.715H234.288V252.692Z" fill="#FAFAFA"/>
<path d="M234.288 260.408H244.959V256.431H234.288V260.408Z" fill="#FAFAFA"/>
<path d="M219.765 206.398H230.436V202.421H219.765V206.398Z" fill="#FAFAFA"/>
<path d="M219.765 214.114H230.436V210.137H219.765V214.114Z" fill="#FAFAFA"/>
<path d="M219.765 221.829H230.436V217.852H219.765V221.829Z" fill="#FAFAFA"/>
<path d="M219.765 229.546H230.436V225.569H219.765V229.546Z" fill="#FAFAFA"/>
<path d="M219.765 237.26H230.436V233.283H219.765V237.26Z" fill="#FAFAFA"/>
<path d="M219.765 244.977H230.436V241H219.765V244.977Z" fill="#FAFAFA"/>
<path d="M219.765 252.692H230.436V248.715H219.765V252.692Z" fill="#FAFAFA"/>
<path d="M219.765 260.408H230.436V256.431H219.765V260.408Z" fill="#FAFAFA"/>
<path d="M303.724 130.667H314.843V124.396H303.724V130.667Z" fill="#FAFAFA"/>
<path d="M287.149 130.667H298.268V124.396H287.149V130.667Z" fill="#FAFAFA"/>
<path d="M303.724 139.879H314.843V133.608H303.724V139.879Z" fill="#FAFAFA"/>
<path d="M287.149 139.879H298.268V133.608H287.149V139.879Z" fill="#FAFAFA"/>
<path d="M303.724 149.091H314.843V142.82H303.724V149.091Z" fill="#FAFAFA"/>
<path d="M287.149 149.091H298.268V142.82H287.149V149.091Z" fill="#FAFAFA"/>
<path d="M303.724 158.302H314.843V152.031H303.724V158.302Z" fill="#FAFAFA"/>
<path d="M287.149 158.302H298.268V152.031H287.149V158.302Z" fill="#FAFAFA"/>
<path d="M303.724 167.515H314.843V161.244H303.724V167.515Z" fill="#FAFAFA"/>
<path d="M287.149 167.515H298.268V161.244H287.149V167.515Z" fill="#FAFAFA"/>
<path d="M303.724 176.726H314.843V170.455H303.724V176.726Z" fill="#FAFAFA"/>
<path d="M287.149 176.726H298.268V170.455H287.149V176.726Z" fill="#FAFAFA"/>
<path d="M303.724 185.938H314.843V179.668H303.724V185.938Z" fill="#FAFAFA"/>
<path d="M287.149 185.938H298.268V179.668H287.149V185.938Z" fill="#FAFAFA"/>
<path d="M303.724 195.151H314.843V188.88H303.724V195.151Z" fill="#FAFAFA"/>
<path d="M287.149 195.151H298.268V188.88H287.149V195.151Z" fill="#FAFAFA"/>
<path d="M266.603 198.493H277.722V192.222H266.603V198.493Z" fill="#FAFAFA"/>
<path d="M266.603 207.704H277.722V201.433H266.603V207.704Z" fill="#FAFAFA"/>
<path d="M266.603 216.917H277.722V210.646H266.603V216.917Z" fill="#FAFAFA"/>
<path d="M266.603 226.129H277.722V219.858H266.603V226.129Z" fill="#FAFAFA"/>
<path d="M266.603 235.341H277.722V229.07H266.603V235.341Z" fill="#FAFAFA"/>
<path d="M266.603 244.553H277.722V238.282H266.603V244.553Z" fill="#FAFAFA"/>
<path d="M303.725 204.252H314.844V197.982H303.725V204.252Z" fill="#FAFAFA"/>
<path d="M287.149 204.252H298.268V197.982H287.149V204.252Z" fill="#FAFAFA"/>
<path d="M266.603 253.655H277.722V247.384H266.603V253.655Z" fill="#FAFAFA"/>
<path d="M303.725 213.354H314.844V207.083H303.725V213.354Z" fill="#FAFAFA"/>
<path d="M287.149 213.354H298.268V207.083H287.149V213.354Z" fill="#FAFAFA"/>
<path d="M266.603 262.757H277.722V256.485H266.603V262.757Z" fill="#FAFAFA"/>
<path d="M303.725 222.458H314.844V216.187H303.725V222.458Z" fill="#FAFAFA"/>
<path d="M287.149 222.458H298.268V216.187H287.149V222.458Z" fill="#FAFAFA"/>
<path d="M266.603 271.859H277.722V265.588H266.603V271.859Z" fill="#FAFAFA"/>
<path d="M303.725 231.56H314.844V225.289H303.725V231.56Z" fill="#FAFAFA"/>
<path d="M287.149 231.56H298.268V225.289H287.149V231.56Z" fill="#FAFAFA"/>
<path d="M303.725 240.662H314.844V234.391H303.725V240.662Z" fill="#FAFAFA"/>
<path d="M287.149 240.662H298.268V234.391H287.149V240.662Z" fill="#FAFAFA"/>
<path d="M166.178 188.24H172.182V182.747H166.178V188.24Z" fill="#FAFAFA"/>
<path d="M155.774 188.24H161.777V182.747H155.774V188.24Z" fill="#FAFAFA"/>
<path d="M166.178 196.505H172.182V191.012H166.178V196.505Z" fill="#FAFAFA"/>
<path d="M155.774 196.505H161.777V191.012H155.774V196.505Z" fill="#FAFAFA"/>
<path d="M166.178 204.769H172.182V199.277H166.178V204.769Z" fill="#FAFAFA"/>
<path d="M155.774 204.769H161.777V199.277H155.774V204.769Z" fill="#FAFAFA"/>
<path d="M166.178 213.034H172.182V207.542H166.178V213.034Z" fill="#FAFAFA"/>
<path d="M155.774 213.034H161.777V207.542H155.774V213.034Z" fill="#FAFAFA"/>
<path d="M166.178 221.503H172.182V216.01H166.178V221.503Z" fill="#FAFAFA"/>
<path d="M155.774 221.503H161.777V216.01H155.774V221.503Z" fill="#FAFAFA"/>
<path d="M166.178 229.972H172.182V224.479H166.178V229.972Z" fill="#FAFAFA"/>
<path d="M155.774 229.972H161.777V224.479H155.774V229.972Z" fill="#FAFAFA"/>
<path d="M166.178 238.442H172.182V232.948H166.178V238.442Z" fill="#FAFAFA"/>
<path d="M155.774 238.442H161.777V232.948H155.774V238.442Z" fill="#FAFAFA"/>
<path d="M166.178 246.913H172.182V241.42H166.178V246.913Z" fill="#FAFAFA"/>
<path d="M155.774 246.913H161.777V241.42H155.774V246.913Z" fill="#FAFAFA"/>
<path d="M166.178 255.47H172.182V249.978H166.178V255.47Z" fill="#FAFAFA"/>
<path d="M155.774 255.47H161.777V249.978H155.774V255.47Z" fill="#FAFAFA"/>
<path d="M166.178 264.031H172.182V258.537H166.178V264.031Z" fill="#FAFAFA"/>
<path d="M155.774 264.031H161.777V258.537H155.774V264.031Z" fill="#FAFAFA"/>
<path d="M166.178 272.59H172.182V267.098H166.178V272.59Z" fill="#FAFAFA"/>
<path d="M155.774 272.59H161.777V267.098H155.774V272.59Z" fill="#FAFAFA"/>
<path d="M19.588 140.708H25.5913V134.237H19.588V140.708Z" fill="#FAFAFA"/>
<path d="M9.18374 140.708H15.187L15.187 134.237H9.18374V140.708Z" fill="#FAFAFA"/>
<path d="M19.588 150.447H25.5913V143.976H19.588V150.447Z" fill="#FAFAFA"/>
<path d="M9.18374 150.447H15.187L15.187 143.976H9.18374V150.447Z" fill="#FAFAFA"/>
<path d="M19.588 160.182H25.5913V153.711H19.588V160.182Z" fill="#FAFAFA"/>
<path d="M9.18374 160.182H15.187L15.187 153.711H9.18374V160.182Z" fill="#FAFAFA"/>
<path d="M19.588 169.919H25.5913V163.449H19.588V169.919Z" fill="#FAFAFA"/>
<path d="M9.18374 169.919H15.187L15.187 163.449H9.18374V169.919Z" fill="#FAFAFA"/>
<path d="M19.588 179.899H25.5913V173.427H19.588V179.899Z" fill="#FAFAFA"/>
<path d="M9.18374 179.899H15.187L15.187 173.427H9.18374V179.899Z" fill="#FAFAFA"/>
<path d="M19.588 189.875H25.5913V183.404H19.588V189.875Z" fill="#FAFAFA"/>
<path d="M9.18374 189.875H15.187L15.187 183.404H9.18374V189.875Z" fill="#FAFAFA"/>
<path d="M19.588 199.854H25.5913V193.383H19.588V199.854Z" fill="#FAFAFA"/>
<path d="M9.18374 199.854H15.187L15.187 193.383H9.18374V199.854Z" fill="#FAFAFA"/>
<path d="M19.588 209.831H25.5913V203.36H19.588V209.831Z" fill="#FAFAFA"/>
<path d="M9.18374 209.831H15.187L15.187 203.36H9.18374V209.831Z" fill="#FAFAFA"/>
<path d="M19.588 219.914H25.5913V213.443H19.588V219.914Z" fill="#FAFAFA"/>
<path d="M9.18374 219.914H15.187L15.187 213.443H9.18374V219.914Z" fill="#FAFAFA"/>
<path d="M19.588 230H25.5913V223.529H19.588V230Z" fill="#FAFAFA"/>
<path d="M9.18374 230H15.187L15.187 223.529H9.18374V230Z" fill="#FAFAFA"/>
<path d="M19.588 240.083H25.5913V233.612H19.588V240.083Z" fill="#FAFAFA"/>
<path d="M9.18374 240.083H15.187L15.187 233.612H9.18374V240.083Z" fill="#FAFAFA"/>
<path d="M19.588 250.167H25.5913V243.696H19.588V250.167Z" fill="#FAFAFA"/>
<path d="M9.18374 250.167H15.187L15.187 243.696H9.18374V250.167Z" fill="#FAFAFA"/>
<path d="M143.929 188.24H149.931V182.747H143.929V188.24Z" fill="#FAFAFA"/>
<path d="M133.523 188.24H139.526V182.747H133.523V188.24Z" fill="#FAFAFA"/>
<path d="M143.929 179.765H149.931V174.273H143.929V179.765Z" fill="#FAFAFA"/>
<path d="M133.523 179.765H139.526V174.273H133.523V179.765Z" fill="#FAFAFA"/>
<path d="M143.929 171.292H149.931V165.799H143.929V171.292Z" fill="#FAFAFA"/>
<path d="M133.523 171.292H139.526V165.799H133.523V171.292Z" fill="#FAFAFA"/>
<path d="M143.929 196.505H149.931V191.012H143.929V196.505Z" fill="#FAFAFA"/>
<path d="M133.523 196.505H139.526V191.012H133.523V196.505Z" fill="#FAFAFA"/>
<path d="M143.929 204.769H149.931V199.277H143.929V204.769Z" fill="#FAFAFA"/>
<path d="M133.523 204.769H139.526V199.277H133.523V204.769Z" fill="#FAFAFA"/>
<path d="M143.929 213.034H149.931V207.542H143.929V213.034Z" fill="#FAFAFA"/>
<path d="M133.523 213.034H139.526V207.542H133.523V213.034Z" fill="#FAFAFA"/>
<path d="M143.929 221.503H149.931V216.01H143.929V221.503Z" fill="#FAFAFA"/>
<path d="M133.523 221.503H139.526V216.01H133.523V221.503Z" fill="#FAFAFA"/>
<path d="M143.929 229.972H149.931V224.479H143.929V229.972Z" fill="#FAFAFA"/>
<path d="M133.523 229.972H139.526V224.479H133.523V229.972Z" fill="#FAFAFA"/>
<path d="M143.929 238.442H149.931V232.948H143.929V238.442Z" fill="#FAFAFA"/>
<path d="M133.523 238.442H139.526V232.948H133.523V238.442Z" fill="#FAFAFA"/>
<path d="M143.929 246.913H149.931V241.42H143.929V246.913Z" fill="#FAFAFA"/>
<path d="M133.523 246.913H139.526V241.421H133.523V246.913Z" fill="#FAFAFA"/>
<path d="M143.929 255.47H149.931V249.978H143.929V255.47Z" fill="#FAFAFA"/>
<path d="M133.523 255.47H139.526V249.978H133.523V255.47Z" fill="#FAFAFA"/>
<path d="M143.929 264.031H149.931V258.537H143.929V264.031Z" fill="#FAFAFA"/>
<path d="M133.523 264.031H139.526V258.537H133.523V264.031Z" fill="#FAFAFA"/>
<path d="M143.929 272.59H149.931V267.098H143.929V272.59Z" fill="#FAFAFA"/>
<path d="M133.523 272.59H139.526V267.098H133.523V272.59Z" fill="#FAFAFA"/>
<path d="M212 350C328.567 350 423.062 342.01 423.062 332.153C423.062 322.296 328.567 314.305 212 314.305C95.4341 314.305 0.938477 322.296 0.938477 332.153C0.938477 342.01 95.4341 350 212 350Z" fill="#EBEBEB"/>
<path d="M423.393 280.11H0.606934V285.996H423.393V280.11Z" fill="#C7C7C7"/>
<path d="M30.2477 280.11C30.6438 281.091 30.733 282.072 30.7502 283.053C30.735 284.034 30.6469 285.015 30.2477 285.996C29.8495 285.015 29.7603 284.034 29.7451 283.053C29.7623 282.072 29.8515 281.091 30.2477 280.11Z" fill="#1D191F"/>
<path d="M63.2931 280.111C63.6892 281.091 63.7784 282.073 63.7956 283.054C63.7804 284.034 63.6923 285.016 63.2931 285.996C62.8939 285.016 62.8057 284.034 62.7905 283.054C62.8078 282.073 62.8969 281.091 63.2931 280.111Z" fill="#1D191F"/>
<path d="M96.339 280.111C96.7351 281.091 96.8243 282.073 96.8415 283.054C96.8263 284.034 96.7372 285.016 96.339 285.996C95.9398 285.016 95.8506 284.034 95.8364 283.054C95.8537 282.073 95.9428 281.091 96.339 280.111Z" fill="#1D191F"/>
<path d="M129.385 280.111C129.781 281.091 129.87 282.073 129.887 283.054C129.872 284.034 129.784 285.016 129.385 285.996C128.987 285.016 128.898 284.034 128.882 283.054C128.9 282.073 128.989 281.091 129.385 280.111Z" fill="#1D191F"/>
<path d="M162.431 280.111C162.827 281.091 162.916 282.073 162.933 283.054C162.919 284.034 162.83 285.016 162.431 285.996C162.033 285.016 161.943 284.034 161.928 283.054C161.945 282.073 162.035 281.091 162.431 280.111Z" fill="#1D191F"/>
<path d="M195.477 280.111C195.873 281.091 195.962 282.073 195.979 283.054C195.965 284.034 195.876 285.016 195.477 285.996C195.078 285.016 194.989 284.034 194.974 283.054C194.991 282.073 195.081 281.091 195.477 280.111Z" fill="#1D191F"/>
<path d="M228.523 280.111C228.919 281.091 229.008 282.073 229.025 283.054C229.011 284.034 228.921 285.016 228.523 285.996C228.124 285.016 228.035 284.034 228.02 283.054C228.037 282.073 228.126 281.091 228.523 280.111Z" fill="#1D191F"/>
<path d="M261.568 280.111C261.965 281.091 262.054 282.073 262.071 283.054C262.057 284.034 261.967 285.016 261.568 285.996C261.17 285.016 261.081 284.034 261.066 283.054C261.083 282.073 261.172 281.091 261.568 280.111Z" fill="#1D191F"/>
<path d="M294.615 280.111C295.012 281.091 295.101 282.073 295.118 283.054C295.104 284.034 295.015 285.016 294.615 285.996C294.216 285.016 294.127 284.034 294.113 283.054C294.129 282.073 294.218 281.091 294.615 280.111Z" fill="#1D191F"/>
<path d="M327.661 280.111C328.058 281.091 328.147 282.073 328.164 283.054C328.15 284.034 328.059 285.016 327.661 285.996C327.263 285.016 327.174 284.034 327.159 283.054C327.175 282.073 327.264 281.091 327.661 280.111Z" fill="#1D191F"/>
<path d="M360.707 280.111C361.104 281.091 361.192 282.073 361.21 283.054C361.196 284.034 361.106 285.016 360.707 285.996C360.309 285.016 360.22 284.034 360.205 283.054C360.222 282.073 360.31 281.091 360.707 280.111Z" fill="#1D191F"/>
<path d="M393.753 280.111C394.149 281.091 394.238 282.073 394.256 283.054C394.24 284.034 394.152 285.016 393.753 285.996C393.354 285.016 393.265 284.034 393.25 283.054C393.268 282.073 393.356 281.091 393.753 280.111Z" fill="#1D191F"/>
<path d="M0.606934 285.998L53.455 285.801L106.304 285.73L212 285.594L317.696 285.728L370.545 285.799L423.393 285.998L370.545 286.196L317.696 286.267L212 286.402L106.304 286.266L53.455 286.195L0.606934 285.998Z" fill="#1D191F"/>
<path d="M384.939 227.125C390.5 217.99 400.231 213.299 411.198 215.891C422.165 218.483 423.864 230.705 415.677 233.791C407.49 236.877 399.305 227.865 394.979 226.014C390.655 224.162 384.939 227.125 384.939 227.125Z" fill="#5D80D9"/>
<path d="M379.556 251.442C379.585 250.341 379.638 249.24 379.687 248.14C379.784 245.941 379.877 243.742 379.98 241.543C380.167 237.523 380.708 233.574 382.792 229.867C384.662 226.542 387.691 223.631 391.613 221.742C393.075 221.038 394.636 220.5 396.251 220.144C397.607 218.93 399.727 218.143 401.663 217.768C404.199 217.275 406.806 217.383 409.377 217.613C409.469 217.621 409.466 217.738 409.373 217.729C406.937 217.491 404.441 217.608 402.075 218.144C401.061 218.374 400.07 218.668 399.135 219.058C398.53 219.311 397.976 219.608 397.433 219.92C399.626 219.568 401.895 219.556 404.136 219.972C404.933 220.119 405.705 220.337 406.461 220.586C407.049 220.463 407.705 220.451 408.288 220.462C409.087 220.476 409.888 220.578 410.663 220.732C412.261 221.051 413.754 221.656 415.175 222.307C415.256 222.345 415.18 222.442 415.099 222.406C413.716 221.798 412.235 221.359 410.696 221.08C409.95 220.944 409.198 220.856 408.434 220.815C408.012 220.792 407.592 220.808 407.172 220.823C410.258 221.987 412.852 223.965 414.265 226.47C414.303 226.538 414.176 226.595 414.138 226.526C412.494 223.556 408.986 221.527 405.101 220.736C404.859 220.687 404.612 220.661 404.368 220.623C404.454 220.906 404.439 221.232 404.484 221.506C404.557 221.951 404.65 222.393 404.763 222.833C404.993 223.736 405.288 224.633 405.656 225.507C406.028 226.393 406.466 227.261 406.984 228.1C407.512 228.955 408.067 229.867 408.838 230.601C408.905 230.665 408.779 230.74 408.722 230.669C408.063 229.844 407.296 229.084 406.695 228.227C406.121 227.407 405.619 226.556 405.208 225.677C404.791 224.785 404.459 223.873 404.23 222.939C404.109 222.447 404.013 221.951 403.941 221.453C403.9 221.165 403.814 220.839 403.872 220.546C402.586 220.384 401.276 220.374 399.978 220.483C400.464 222.661 400.987 224.933 402.515 226.825C402.565 226.887 402.432 226.947 402.388 226.881C401.706 225.855 401.009 224.857 400.503 223.764C400.026 222.731 399.657 221.623 399.563 220.518C397.303 220.752 395.091 221.36 393.124 222.244C389.328 223.95 386.448 226.627 384.552 229.739C382.494 233.119 381.667 236.756 381.375 240.482C381.009 245.151 380.934 249.849 380.351 254.505C380.312 254.808 379.709 254.911 379.635 254.568C379.416 253.538 379.53 252.482 379.556 251.442Z" fill="#1D191F"/>
<path d="M392.408 221.01C392.717 220.646 393.252 220.355 393.671 220.078C394.126 219.775 394.593 219.485 395.084 219.22C396.057 218.692 397.106 218.295 398.243 218.049C398.333 218.03 398.37 218.146 398.278 218.162C397.135 218.359 396.096 218.838 395.16 219.387C394.695 219.659 394.249 219.952 393.814 220.254C393.411 220.535 393.011 220.916 392.539 221.121C392.455 221.155 392.352 221.075 392.408 221.01Z" fill="#1D191F"/>
<path d="M410.156 224.321C411.05 225.19 411.956 226.066 412.706 227.018C413.459 227.974 414.109 228.964 414.603 230.024C414.617 230.055 414.555 230.073 414.536 230.045C413.187 228.107 411.833 226.11 410.05 224.401C409.991 224.344 410.096 224.263 410.156 224.321Z" fill="#1D191F"/>
<path d="M398.192 223.417C398.312 223.987 398.518 224.544 398.82 225.07C399.113 225.58 399.491 226.067 399.879 226.534C399.904 226.565 399.846 226.597 399.815 226.571C398.827 225.73 398.275 224.573 398.051 223.445C398.037 223.372 398.177 223.343 398.192 223.417Z" fill="#1D191F"/>
<path d="M380.332 227.349C380.332 227.349 372.459 219.44 357.261 222.244C342.816 224.908 336.15 246.077 350.747 248.61C365.343 251.143 362.769 231.553 368.089 228.229C371.992 225.79 377.605 226.314 380.332 227.349Z" fill="#5D80D9"/>
<path d="M345.523 233.805C346.52 233.119 347.551 232.461 348.654 231.887C349.687 231.35 350.808 230.846 351.993 230.555C352.59 229.84 353.238 229.152 353.974 228.518C355.33 227.35 356.88 226.372 358.565 225.595C358.415 225.588 358.265 225.575 358.113 225.571C357.305 225.55 356.504 225.546 355.697 225.59C354.065 225.68 352.498 225.983 351.007 226.524C350.922 226.555 350.859 226.448 350.945 226.419C352.443 225.91 354.023 225.513 355.628 225.291C356.407 225.183 357.211 225.122 358.001 225.128C358.428 225.131 358.854 225.154 359.278 225.187C359.357 225.193 359.439 225.197 359.521 225.202C360.91 224.641 362.38 224.211 363.902 223.915C363.761 223.885 363.622 223.849 363.48 223.823C362.737 223.687 361.983 223.599 361.227 223.528C359.703 223.384 358.2 223.413 356.68 223.584C356.587 223.594 356.561 223.478 356.654 223.469C358.17 223.32 359.724 223.273 361.25 223.321C362.501 223.36 363.83 223.473 365.072 223.717C365.982 223.585 366.906 223.496 367.843 223.465C373.142 223.286 378.919 224.869 382.18 228.349C385.453 231.84 386.082 236.482 386.659 240.685C387.461 246.536 387.829 252.469 387.24 258.339C387.206 258.686 386.596 258.623 386.583 258.293C386.383 253.301 386.163 248.309 385.566 243.335C385.289 241.032 384.982 238.72 384.503 236.437C384.093 234.486 383.51 232.539 382.407 230.757C381.258 228.898 379.517 227.401 377.278 226.35C375.073 225.314 372.553 224.74 370.013 224.563C367.707 224.403 365.402 224.595 363.195 225.074C363.292 225.423 363.271 225.789 363.233 226.148C363.186 226.599 363.072 227.045 362.9 227.475C362.738 227.883 362.518 228.277 362.265 228.654C361.983 229.071 361.629 229.442 361.315 229.842C361.266 229.905 361.138 229.834 361.197 229.775C361.852 229.117 362.187 228.196 362.375 227.381C362.469 226.972 362.53 226.557 362.558 226.142C362.578 225.83 362.543 225.514 362.562 225.203C360.166 225.791 357.907 226.738 355.927 228.002C355.557 228.239 355.201 228.489 354.852 228.747C355.371 229.087 355.79 229.599 356.14 230.012C356.659 230.623 357.116 231.26 357.491 231.936C358.234 233.27 358.627 234.721 358.897 236.16C358.911 236.234 358.767 236.255 358.754 236.181C358.508 234.759 357.855 233.443 357.024 232.178C356.623 231.565 356.174 230.965 355.678 230.399C355.421 230.106 355.156 229.817 354.879 229.537C354.73 229.386 354.567 229.233 354.427 229.071C352.647 230.463 351.175 232.116 350.117 233.922C350.126 233.926 350.137 233.926 350.146 233.932C350.897 234.491 351.429 235.269 351.927 235.978C352.473 236.757 352.946 237.576 353.35 238.409C354.131 240.015 354.644 241.692 355.164 243.361C355.186 243.433 355.04 243.456 355.021 243.382C354.602 241.68 353.795 240.068 352.865 238.505C352.412 237.743 351.932 236.995 351.426 236.255C350.951 235.559 350.37 234.869 349.999 234.132C348.996 235.906 348.385 237.817 348.264 239.758C348.259 239.832 348.112 239.823 348.119 239.747C348.422 236.721 349.547 233.709 351.531 231.114C350.602 231.43 349.668 231.736 348.775 232.12C347.636 232.611 346.566 233.193 345.615 233.894C345.549 233.945 345.453 233.855 345.523 233.805Z" fill="#1D191F"/>
<path d="M356.669 234.254C357.125 235.454 357.698 236.618 358.109 237.829C358.505 238.994 358.779 240.192 358.781 241.401C358.781 241.433 358.715 241.435 358.709 241.403C358.263 239.003 357.605 236.565 356.532 234.29C356.495 234.211 356.638 234.173 356.669 234.254Z" fill="#1D191F"/>
<path d="M347.042 231.278C347.647 230.822 348.309 230.427 349.054 230.129C349.796 229.833 350.595 229.661 351.384 229.471C351.472 229.45 351.502 229.569 351.41 229.585C350.618 229.727 349.882 230.02 349.168 230.323C348.455 230.625 347.753 230.955 347.102 231.336C347.053 231.365 346.998 231.311 347.042 231.278Z" fill="#1D191F"/>
<path d="M372.849 216.788C372.849 216.788 371.396 202.579 358.178 197.973C347.142 194.128 340.823 204.039 348.626 210.107C354.937 215.015 365.059 212.8 372.849 216.788Z" fill="#5D80D9"/>
<path d="M351.07 200.725C353.071 201.407 355.055 202.084 356.947 202.949C358.533 203.674 360.05 204.493 361.511 205.37C361.291 205.011 361.101 204.635 360.88 204.284C360.534 203.736 360.164 203.199 359.756 202.679C358.916 201.609 357.991 200.607 356.845 199.734C356.777 199.682 356.885 199.6 356.95 199.653C358.042 200.547 359.118 201.48 360.014 202.505C360.467 203.021 360.893 203.557 361.271 204.112C361.615 204.617 362.005 205.178 362.158 205.749C362.206 205.778 362.257 205.804 362.304 205.834C364.623 207.294 366.717 208.967 368.617 210.77C368.58 210.63 368.543 210.491 368.498 210.363C368.251 209.669 367.982 208.982 367.698 208.298C367.098 206.86 366.357 205.423 365.309 204.153C365.259 204.091 365.388 204.033 365.437 204.097C366.437 205.415 367.438 206.719 368.203 208.139C368.57 208.818 368.877 209.525 369.116 210.24C369.259 210.665 369.488 211.18 369.546 211.667C370.122 212.249 370.688 212.838 371.221 213.445C376.894 219.901 379.744 227.71 380.427 235.522C380.63 237.853 380.672 240.187 380.574 242.522C380.476 244.858 380.37 247.249 379.8 249.547C379.764 249.693 379.476 249.65 379.481 249.505C379.547 247.453 379.812 245.409 379.862 243.354C379.912 241.297 379.822 239.235 379.614 237.185C379.201 233.099 378.231 229.014 376.732 225.094C375.2 221.086 372.936 217.227 370.011 213.728C369.454 213.64 368.902 213.519 368.355 213.407C367.696 213.271 367.035 213.136 366.378 212.989C365.116 212.706 363.864 212.386 362.693 211.909C362.611 211.875 362.688 211.772 362.769 211.81C363.923 212.349 365.204 212.632 366.507 212.84C367.542 213.004 368.616 213.112 369.652 213.302C368.694 212.186 367.672 211.105 366.579 210.074C364.068 210.27 361.51 210.093 359.059 209.626C357.754 209.377 356.462 209.053 355.211 208.668C353.886 208.26 352.633 207.737 351.327 207.3C351.229 207.268 351.297 207.152 351.386 207.196C353.628 208.283 356.445 208.841 359.008 209.189C361.373 209.511 363.747 209.627 366.138 209.66C365.199 208.799 364.229 207.96 363.194 207.172C359.723 204.53 355.598 202.101 351.027 200.836C350.938 200.811 350.985 200.696 351.07 200.725Z" fill="#1D191F"/>
<path d="M361.826 200.768C362.417 201.368 362.97 202.002 363.446 202.662C363.952 203.364 364.32 204.092 364.612 204.866C364.622 204.891 364.574 204.906 364.559 204.883C364.118 204.186 363.745 203.463 363.299 202.769C362.857 202.083 362.338 201.444 361.721 200.848C361.661 200.79 361.768 200.71 361.826 200.768Z" fill="#1D191F"/>
<path d="M349.536 205.499C350.393 205.896 351.306 206.161 352.245 206.403C353.151 206.637 354.071 206.846 355.005 206.995C355.048 207.001 355.037 207.061 354.993 207.057C354.02 206.965 353.062 206.816 352.135 206.557C351.214 206.3 350.333 205.941 349.46 205.597C349.376 205.565 349.454 205.461 349.536 205.499Z" fill="#1D191F"/>
<path d="M383.124 214.229C383.207 214.843 385.124 209.071 396.298 203.946C406.448 199.292 418.561 187.187 408.61 179.54C400.577 173.368 379.416 186.824 383.124 214.229Z" fill="#5D80D9"/>
<path d="M375.43 247.323C375.596 241.317 376.184 235.317 377.203 229.364C378.141 223.89 379.616 218.503 381.925 213.29C382.757 211.413 383.706 209.564 384.737 207.744C384.629 207.052 384.743 206.288 384.783 205.619C384.838 204.71 384.94 203.802 385.046 202.896C385.15 201.989 385.266 201.082 385.401 200.179C385.536 199.281 385.776 198.372 385.823 197.47C385.827 197.387 385.99 197.404 385.965 197.488C385.692 198.414 385.656 199.416 385.563 200.363C385.478 201.239 385.415 202.116 385.382 202.994C385.349 203.874 385.354 204.752 385.353 205.632C385.353 205.949 385.374 206.285 385.389 206.624C386.441 204.849 387.568 203.102 388.785 201.4C388.029 197.697 389.011 193.826 389.958 190.205C389.977 190.132 390.116 190.166 390.096 190.239C389.603 192.125 389.414 194.054 389.36 195.978C389.316 197.499 389.405 199.02 389.413 200.54C389.681 200.175 389.948 199.81 390.223 199.451C391.671 197.559 393.22 195.706 394.865 193.907C394.686 193.042 394.814 192.125 394.973 191.269C395.153 190.297 395.429 189.326 395.784 188.385C396.14 187.438 396.55 186.51 397.021 185.596C397.505 184.657 398.149 183.769 398.617 182.826C398.656 182.747 398.802 182.802 398.748 182.873C398.114 183.72 397.726 184.739 397.349 185.675C396.983 186.584 396.67 187.517 396.435 188.453C396.199 189.393 396.006 190.336 395.84 191.286C395.731 191.914 395.662 192.565 395.526 193.2C397.93 190.635 400.532 188.186 403.351 185.922C403.418 185.868 403.512 185.951 403.452 186.006C399.209 189.858 395.37 193.942 392.089 198.358C391.967 198.523 391.851 198.69 391.731 198.855C392.346 198.547 393.053 198.302 393.633 198.045C394.716 197.564 395.801 197.085 396.891 196.615C397.95 196.158 399.005 195.697 400.057 195.23C400.599 194.99 401.133 194.74 401.685 194.514C402.31 194.258 403.015 194.013 403.578 193.675C403.663 193.624 403.755 193.728 403.663 193.768C402.588 194.241 401.637 194.943 400.598 195.473C399.552 196.007 398.492 196.518 397.408 197.003C395.421 197.889 393.263 198.526 391.307 199.442C389.95 201.339 388.701 203.287 387.546 205.27C388.734 204.662 389.946 204.086 391.177 203.533C391.969 203.179 392.762 202.83 393.566 202.492C394.342 202.166 395.146 201.864 395.816 201.405C395.887 201.357 395.983 201.437 395.916 201.49C394.652 202.479 393.141 203.168 391.622 203.878C390.187 204.548 388.736 205.195 387.243 205.781C386.048 207.873 384.967 210.006 384.009 212.172C379.306 222.817 377.577 234.117 376.751 245.34C376.505 248.687 376.379 252.03 376.326 255.382C376.274 258.728 376.495 262.069 376.487 265.415C376.487 265.513 376.282 265.536 376.265 265.434C375.763 262.467 375.674 259.449 375.512 256.461C375.348 253.419 375.346 250.364 375.43 247.323Z" fill="#1D191F"/>
<path d="M395.734 199.133C397.788 198.459 399.743 197.551 401.672 196.678C403.614 195.801 405.497 194.856 407.311 193.818C407.341 193.801 407.378 193.841 407.349 193.86C405.632 194.959 403.828 195.987 401.935 196.886C399.969 197.819 397.893 198.507 395.804 199.235C395.719 199.264 395.649 199.16 395.734 199.133Z" fill="#1D191F"/>
<path d="M392.497 187.099C392.663 186.58 392.868 186.07 393.087 185.563C393.062 185.551 393.045 185.532 393.058 185.504C393.199 185.216 393.348 184.931 393.495 184.645C393.512 184.606 393.53 184.57 393.548 184.542C393.575 184.487 393.603 184.433 393.631 184.378C393.64 184.36 393.675 184.368 393.667 184.387C393.628 184.485 393.596 184.585 393.558 184.683C393.538 184.739 393.526 184.79 393.497 184.848C392.736 186.83 392.231 188.863 391.84 190.912C391.828 190.976 391.705 190.978 391.71 190.909C391.807 189.62 392.098 188.35 392.497 187.099Z" fill="#1D191F"/>
<path d="M363.624 249.48L364.42 257.035L366.861 280.074H393.011L395.452 257.035L396.249 249.48H363.624Z" fill="#1E397D"/>
<path d="M363.624 249.48L364.42 257.035H395.452L396.249 249.48H363.624Z" fill="#1D191F"/>
<path d="M361.058 253.698H398.815V246.45H361.058V253.698Z" fill="#1E397D"/>
<path d="M325.887 315.101H98.2867C92.5742 315.101 87.9438 311.4 87.9438 306.834V26.6177C87.9438 22.0522 92.5742 18.3516 98.2867 18.3516H325.887C331.6 18.3516 336.23 22.0522 336.23 26.6177V306.835C336.23 311.4 331.6 315.101 325.887 315.101Z" fill="#1E397D"/>
<path d="M325.747 39.3049H98.5542V294.727H325.747V39.3049Z" fill="#FAFAFA"/>
<path d="M184.971 31.118V30.0564C184.971 29.4969 185.538 29.0442 186.237 29.0442H237.772C238.472 29.0442 239.039 29.4977 239.039 30.0564V31.118C239.039 31.6776 238.471 32.1302 237.772 32.1302H186.237C185.538 32.1302 184.971 31.6776 184.971 31.118Z" fill="#1E397D"/>
<path d="M212.005 311.501C208.143 311.501 205.013 308.998 205.013 305.912C205.013 302.826 208.144 300.324 212.005 300.324C215.868 300.324 218.999 302.826 218.999 305.912C218.999 308.999 215.868 311.501 212.005 311.501Z" fill="#1E397D"/>
<path opacity="0.6" d="M133.481 266.547C133.481 269.154 130.837 271.267 127.576 271.267C124.315 271.267 121.671 269.154 121.671 266.547C121.671 263.941 124.315 261.828 127.576 261.828C130.837 261.828 133.481 263.941 133.481 266.547Z" fill="#5D80D9"/>
<path opacity="0.6" d="M140.664 257.534C140.664 258.805 139.375 259.834 137.787 259.834C136.197 259.834 134.909 258.804 134.909 257.534C134.909 256.264 136.198 255.235 137.787 255.235C139.375 255.235 140.664 256.264 140.664 257.534Z" fill="#5D80D9"/>
<path opacity="0.6" d="M266.994 264.266C266.994 265.536 265.706 266.565 264.117 266.565C262.527 266.565 261.239 265.535 261.239 264.266C261.239 262.996 262.528 261.966 264.117 261.966C265.707 261.966 266.994 262.995 266.994 264.266Z" fill="#5D80D9"/>
<path opacity="0.6" d="M324.623 285.263C324.623 286.534 323.334 287.563 321.745 287.563C320.156 287.563 318.868 286.533 318.868 285.263C318.868 283.993 320.156 282.963 321.745 282.963C323.334 282.963 324.623 283.993 324.623 285.263Z" fill="#5D80D9"/>
<path opacity="0.6" d="M320.21 291.985C320.21 293.499 318.673 294.727 316.78 294.727H102.822C100.928 294.727 99.3911 293.499 99.3911 291.985C99.3911 290.472 100.928 289.243 102.822 289.243C103.104 289.243 103.378 289.271 103.638 289.32C103.638 286.331 106.664 283.913 110.404 283.913C112.297 283.913 114.006 284.538 115.241 285.542L115.303 285.52C115.261 285.185 115.241 284.851 115.241 284.511C115.241 278.874 120.956 274.301 128.016 274.301C130.034 274.301 131.942 274.674 133.636 275.343C133.91 271.515 137.876 268.482 142.733 268.482C146.61 268.482 149.917 270.407 151.234 273.127C153.492 270.259 157.492 268.356 162.048 268.356C162.885 268.356 163.702 268.422 164.491 268.542C164.32 267.769 164.231 266.974 164.231 266.162C164.231 258.529 171.97 252.344 181.521 252.344C185.83 252.344 189.776 253.605 192.801 255.694C193.37 254.812 194.524 254.208 195.848 254.208C196.315 254.208 196.761 254.285 197.165 254.417L200.376 151.871H219.224L222.434 254.417C222.84 254.285 223.286 254.208 223.752 254.208C225.076 254.208 226.229 254.812 226.798 255.694C229.825 253.605 233.769 252.344 238.078 252.344C247.63 252.344 255.369 258.529 255.369 266.162C255.369 266.974 255.28 267.769 255.108 268.542C255.898 268.422 256.714 268.356 257.551 268.356C262.108 268.356 266.108 270.259 268.365 273.127C269.682 270.407 272.99 268.482 276.866 268.482C281.724 268.482 285.69 271.515 285.964 275.343C287.659 274.674 289.566 274.301 291.583 274.301C298.643 274.301 304.359 278.874 304.359 284.511C304.359 284.851 304.338 285.185 304.297 285.52L304.359 285.542C305.594 284.538 307.302 283.913 309.196 283.913C312.935 283.913 315.961 286.331 315.961 289.32C316.221 289.271 316.496 289.243 316.778 289.243C318.674 289.243 320.21 290.472 320.21 291.985Z" fill="#5D80D9"/>
<path d="M175.696 86.8308L139.739 118.172C139.739 118.172 175.733 183.957 175.697 184.408L170.579 129.603L181.7 120.429L175.696 86.8308Z" fill="#5D80D9"/>
<path opacity="0.1" d="M175.696 86.8308L139.739 118.172C139.739 118.172 175.733 183.957 175.697 184.408L170.579 129.603L181.7 120.429L175.696 86.8308Z" fill="#1D191F"/>
<path opacity="0.1" d="M181.698 120.426L174.104 126.699L159.73 100.741L175.695 86.8303L181.698 120.426Z" fill="#1D191F"/>
<path d="M244.169 86.8306L280.127 118.172C280.127 118.172 244.133 183.957 244.169 184.407L249.287 129.603L238.166 120.429L244.169 86.8306Z" fill="#5D80D9"/>
<path opacity="0.1" d="M244.169 86.8306L280.127 118.172C280.127 118.172 244.133 183.957 244.169 184.407L249.287 129.603L238.166 120.429L244.169 86.8306Z" fill="#1D191F"/>
<path opacity="0.1" d="M238.168 120.426L245.763 126.699L260.136 100.741L244.172 86.8298L238.168 120.426Z" fill="#1D191F"/>
<path d="M230.731 141.87L189.032 141.845C189.032 141.845 169.388 113.771 171.713 80.301C172.887 63.5963 178.35 46.7732 184.927 32.8557C193.975 13.6317 205.162 -0.00323851 210.01 5.7698e-07C214.879 0.00242989 226.02 13.6503 235.055 32.8848C241.584 46.8097 247.018 63.6384 248.161 80.3448C250.427 113.818 230.731 141.87 230.731 141.87Z" fill="#EBEBEB"/>
<path opacity="0.2" d="M234.898 76.0133C234.889 86.627 224.115 95.2252 210.834 95.2179C197.554 95.2098 186.795 86.5995 186.805 75.9858C186.815 65.3721 197.589 56.774 210.869 56.7813C224.149 56.7885 234.907 65.3988 234.898 76.0133Z" fill="#1D191F"/>
<path d="M234.045 74.0566C234.036 84.6702 223.262 93.2684 209.981 93.2611C196.701 93.253 185.943 84.6427 185.952 74.029C185.961 63.4153 196.736 54.8172 210.016 54.8245C223.296 54.8318 234.054 63.4421 234.045 74.0566Z" fill="#5D80D9"/>
<path opacity="0.1" d="M234.045 74.0566C234.036 84.6702 223.262 93.2684 209.981 93.2611C196.701 93.253 185.943 84.6427 185.952 74.029C185.961 63.4153 196.736 54.8172 210.016 54.8245C223.296 54.8318 234.054 63.4421 234.045 74.0566Z" fill="#1D191F"/>
<path d="M226.676 74.0425C226.676 81.4041 219.21 87.3713 209.999 87.3713C200.788 87.3713 193.321 81.4041 193.321 74.0425C193.321 66.6808 200.789 60.7136 209.999 60.7136C219.21 60.7136 226.676 66.6808 226.676 74.0425Z" fill="#1E397D"/>
<g opacity="0.4">
<path d="M226.679 74.0408C226.679 75.7421 226.281 77.3746 225.55 78.8702L216.046 86.4667C214.175 87.0506 212.132 87.3688 210.003 87.3688C208.455 87.3688 206.96 87.1971 205.541 86.8789L226.065 70.4753C226.464 71.609 226.679 72.8034 226.679 74.0408Z" fill="#FAFAFA"/>
<path d="M212.448 60.8595L193.504 75.9998C193.384 75.3633 193.32 74.7074 193.32 74.045C193.32 66.6785 200.785 60.7129 210.002 60.7129C210.831 60.7129 211.651 60.7639 212.448 60.8595Z" fill="#FAFAFA"/>
<path d="M224.593 67.5874L201.929 85.7012C201.488 85.5125 201.068 85.3061 200.649 85.0737L223.808 66.5647C224.089 66.8918 224.346 67.2352 224.593 67.5874Z" fill="#FAFAFA"/>
</g>
<path d="M235.055 32.8851L184.927 32.8559C193.975 13.6319 205.163 -0.00299437 210.01 0.000244718C214.879 0.00348381 226.021 13.6506 235.055 32.8851Z" fill="#5D80D9"/>
<g opacity="0.1">
<path d="M193.559 28.7237C193.559 29.3432 192.93 29.8453 192.155 29.8445C191.38 29.8437 190.751 29.3416 190.752 28.7213C190.753 28.1018 191.382 27.5998 192.157 27.6006C192.932 27.6014 193.56 28.1043 193.559 28.7237Z" fill="#1D191F"/>
<path d="M202.477 28.7276C202.477 29.347 201.847 29.8491 201.072 29.8483C200.297 29.8475 199.669 29.3454 199.67 28.726C199.671 28.1065 200.299 27.6044 201.074 27.6052C201.849 27.606 202.478 28.1081 202.477 28.7276Z" fill="#1D191F"/>
<path d="M211.394 28.7334C211.393 29.3529 210.765 29.855 209.99 29.8542C209.215 29.8542 208.587 29.3513 208.588 28.7318C208.589 28.1123 209.217 27.6103 209.992 27.6111C210.767 27.6111 211.394 28.1131 211.394 28.7334Z" fill="#1D191F"/>
<path d="M220.312 28.7384C220.312 29.3579 219.683 29.8599 218.908 29.8591C218.133 29.8583 217.504 29.3562 217.505 28.7368C217.506 28.1173 218.135 27.6152 218.91 27.6152C219.685 27.616 220.313 28.1189 220.312 28.7384Z" fill="#1D191F"/>
<path d="M229.229 28.7425C229.229 29.362 228.6 29.8641 227.825 29.8633C227.05 29.8625 226.421 29.3604 226.422 28.7401C226.422 28.1206 227.052 27.6186 227.827 27.6194C228.602 27.6202 229.23 28.1231 229.229 28.7425Z" fill="#1D191F"/>
</g>
<path d="M193.501 136.721C193.501 137.34 192.872 137.842 192.097 137.842C191.322 137.841 190.694 137.339 190.695 136.719C190.696 136.1 191.324 135.598 192.099 135.598C192.873 135.598 193.501 136.101 193.501 136.721Z" fill="#5D80D9"/>
<path d="M202.418 136.725C202.417 137.345 201.789 137.847 201.014 137.846C200.239 137.846 199.611 137.343 199.612 136.724C199.613 136.104 200.241 135.602 201.016 135.602C201.791 135.603 202.419 136.106 202.418 136.725Z" fill="#5D80D9"/>
<path d="M211.336 136.731C211.335 137.35 210.707 137.852 209.932 137.852C209.156 137.851 208.528 137.349 208.529 136.729C208.53 136.11 209.159 135.608 209.934 135.608C210.709 135.609 211.337 136.111 211.336 136.731Z" fill="#5D80D9"/>
<path d="M220.253 136.736C220.253 137.356 219.624 137.858 218.849 137.857C218.073 137.857 217.445 137.354 217.446 136.735C217.447 136.115 218.075 135.613 218.851 135.614C219.626 135.614 220.254 136.117 220.253 136.736Z" fill="#5D80D9"/>
<path d="M229.171 136.741C229.17 137.361 228.542 137.863 227.767 137.862C226.992 137.862 226.364 137.359 226.365 136.74C226.366 136.12 226.994 135.618 227.769 135.619C228.544 135.619 229.171 136.122 229.171 136.741Z" fill="#5D80D9"/>
<path d="M226.884 151.888L192.973 151.866L191.389 141.85L228.486 141.871L226.884 151.888Z" fill="#5D80D9"/>
<path opacity="0.1" d="M226.884 151.888L192.973 151.866L191.389 141.85L228.486 141.871L226.884 151.888Z" fill="#1D191F"/>
<path opacity="0.1" d="M228.484 141.871L227.7 146.749L191.995 145.68L191.393 141.851L228.484 141.871Z" fill="#1D191F"/>
<path d="M262.97 270.815L258.767 271.436L257.828 274.977L256.889 271.436L252.687 270.814L256.872 269.997L257.828 266.652L258.786 269.997L262.97 270.815Z" fill="#FCFCFC"/>
<path d="M222.094 242.423L217.891 243.044L216.952 246.584L216.013 243.044L211.81 242.421L215.995 241.604L216.952 238.26L217.91 241.604L222.094 242.423Z" fill="#FCFCFC"/>
<path d="M208.026 158.217L203.823 158.838L202.884 162.378L201.944 158.838L197.743 158.215L201.927 157.398L202.884 154.054L203.841 157.398L208.026 158.217Z" fill="#FCFCFC"/>
<path d="M161.02 277.559L158.671 277.906L158.146 279.885L157.622 277.906L155.273 277.558L157.611 277.101L158.146 275.232L158.681 277.101L161.02 277.559Z" fill="#FCFCFC"/>
<path d="M287.406 283.462L285.057 283.809L284.532 285.787L284.006 283.809L281.658 283.461L283.997 283.004L284.532 281.134L285.067 283.004L287.406 283.462Z" fill="#FCFCFC"/>
<path d="M128.693 290.397L126.345 290.745L125.82 292.724L125.295 290.745L122.946 290.396L125.285 289.94L125.82 288.071L126.355 289.94L128.693 290.397Z" fill="#FCFCFC"/>
<path d="M230.869 288.752L228.52 289.099L227.995 291.078L227.47 289.099L225.121 288.75L227.46 288.294L227.995 286.425L228.53 288.294L230.869 288.752Z" fill="#FCFCFC"/>
<path d="M213.672 237.039L211.323 237.387L210.798 239.366L210.273 237.387L207.925 237.039L210.263 236.582L210.798 234.713L211.333 236.582L213.672 237.039Z" fill="#FCFCFC"/>
<path d="M219.983 185.798L217.634 186.145L217.109 188.124L216.583 186.145L214.235 185.797L216.574 185.34L217.109 183.471L217.644 185.34L219.983 185.798Z" fill="#FCFCFC"/>
<path d="M292.962 287.742C292.086 287.742 292.085 288.83 292.962 288.83C293.839 288.83 293.84 287.742 292.962 287.742Z" fill="#FCFCFC"/>
<path d="M204.581 230.176C203.704 230.176 203.703 231.264 204.581 231.264C205.457 231.264 205.459 230.176 204.581 230.176Z" fill="#FCFCFC"/>
<path d="M215.922 161.834C215.045 161.834 215.044 162.923 215.922 162.923C216.798 162.923 216.799 161.834 215.922 161.834Z" fill="#FCFCFC"/>
<path d="M146.49 290.397C145.614 290.397 145.613 291.486 146.49 291.486C147.366 291.486 147.368 290.397 146.49 290.397Z" fill="#FCFCFC"/>
<path d="M189.643 282.916C188.767 282.916 188.766 284.004 189.643 284.004C190.519 284.004 190.522 282.916 189.643 282.916Z" fill="#FCFCFC"/>
<path d="M275.906 277.953C275.286 277.953 275.285 278.723 275.906 278.723C276.526 278.723 276.527 277.953 275.906 277.953Z" fill="#FCFCFC"/>
<path d="M216.387 272.184C215.767 272.184 215.766 272.954 216.387 272.954C217.007 272.954 217.008 272.184 216.387 272.184Z" fill="#FCFCFC"/>
<path d="M207.924 174.528C207.304 174.528 207.303 175.298 207.924 175.298C208.543 175.298 208.545 174.528 207.924 174.528Z" fill="#FCFCFC"/>
<path d="M172.817 264.66C172.197 264.66 172.196 265.43 172.817 265.43C173.437 265.43 173.438 264.66 172.817 264.66Z" fill="#FCFCFC"/>
<path d="M247.359 266.23C245.679 266.23 245.676 268.317 247.359 268.317C249.039 268.317 249.041 266.23 247.359 266.23Z" fill="#FCFCFC"/>
<path d="M178.986 261.12C177.306 261.12 177.303 263.206 178.986 263.206C180.666 263.206 180.668 261.12 178.986 261.12Z" fill="#FCFCFC"/>
<path d="M210.798 198.147C209.118 198.147 209.115 200.234 210.798 200.234C212.478 200.234 212.481 198.147 210.798 198.147Z" fill="#FCFCFC"/>
<path d="M256.354 243.373H167.66V265.231H256.354V243.373Z" fill="#1E397D"/>
<path d="M192.766 251.735C192.653 251.635 192.489 251.529 192.273 251.415C192.057 251.302 191.806 251.196 191.516 251.095C191.227 250.996 190.91 250.915 190.565 250.851C190.219 250.788 189.865 250.756 189.503 250.756C188.698 250.756 188.106 250.873 187.727 251.109C187.347 251.345 187.157 251.67 187.157 252.087C187.157 252.323 187.217 252.515 187.336 252.665C187.454 252.814 187.639 252.946 187.888 253.058C188.137 253.172 188.449 253.272 188.823 253.357C189.197 253.444 189.633 253.536 190.132 253.636C190.744 253.753 191.296 253.885 191.79 254.03C192.282 254.175 192.699 254.351 193.039 254.56C193.378 254.768 193.642 255.024 193.829 255.327C194.017 255.631 194.11 256 194.11 256.435C194.11 256.924 193.993 257.345 193.761 257.698C193.529 258.051 193.212 258.339 192.81 258.56C192.408 258.782 191.941 258.945 191.408 259.049C190.875 259.153 190.302 259.205 189.69 259.205C188.772 259.205 187.886 259.095 187.031 258.872C186.175 258.65 185.401 258.327 184.71 257.901L185.577 256.597C185.724 256.714 185.936 256.846 186.214 256.99C186.492 257.136 186.815 257.269 187.183 257.392C187.55 257.514 187.95 257.618 188.381 257.704C188.812 257.791 189.26 257.833 189.724 257.833C190.472 257.833 191.049 257.729 191.457 257.521C191.866 257.313 192.069 257.005 192.069 256.598C192.069 256.353 191.993 256.149 191.839 255.986C191.686 255.824 191.469 255.68 191.185 255.558C190.901 255.436 190.556 255.325 190.148 255.225C189.74 255.126 189.276 255.021 188.754 254.913C188.153 254.785 187.63 254.653 187.182 254.511C186.734 254.372 186.363 254.201 186.068 254.002C185.773 253.802 185.55 253.569 185.396 253.303C185.243 253.036 185.167 252.712 185.167 252.331C185.167 251.86 185.281 251.441 185.507 251.075C185.733 250.708 186.042 250.401 186.433 250.151C186.824 249.903 187.285 249.715 187.818 249.588C188.35 249.461 188.928 249.397 189.552 249.397C190.367 249.397 191.121 249.501 191.812 249.709C192.503 249.917 193.109 250.175 193.631 250.483L192.766 251.735Z" fill="#FAFAFA"/>
<path d="M205.463 250.811H201.451V259.111H199.531V250.811H195.503V249.467H205.464V250.811H205.463Z" fill="#FAFAFA"/>
<path d="M210.121 249.466H211.786L216.545 259.11H214.54L213.266 256.488H208.609L207.351 259.11H205.329L210.121 249.466ZM212.891 255.362L210.952 251.219L208.947 255.362H212.891Z" fill="#FAFAFA"/>
<path d="M218.72 259.111V249.467H223.972C224.515 249.467 225.018 249.558 225.476 249.738C225.935 249.919 226.328 250.158 226.657 250.451C226.986 250.746 227.244 251.081 227.43 251.456C227.617 251.832 227.711 252.214 227.711 252.604C227.711 252.93 227.653 253.242 227.541 253.541C227.427 253.84 227.268 254.117 227.065 254.369C226.862 254.623 226.612 254.843 226.317 255.028C226.022 255.214 225.7 255.352 225.348 255.442L228.187 259.11H226.028L223.411 255.756H220.623V259.11H218.72V259.111ZM220.624 254.41H223.955C224.228 254.41 224.474 254.363 224.695 254.268C224.915 254.173 225.104 254.042 225.263 253.874C225.421 253.706 225.546 253.514 225.637 253.297C225.727 253.079 225.773 252.848 225.773 252.604C225.773 252.359 225.719 252.129 225.612 251.911C225.503 251.694 225.362 251.503 225.186 251.341C225.011 251.178 224.806 251.048 224.574 250.954C224.342 250.859 224.101 250.811 223.853 250.811H220.623V254.41H220.624Z" fill="#FAFAFA"/>
<path d="M239.303 250.811H235.292V259.111H233.371V250.811H229.343V249.467H239.303V250.811Z" fill="#FAFAFA"/>
<path d="M252.606 267.021H171.407L167.66 265.23H256.353L252.606 267.021Z" fill="#1D191F"/>
<path d="M394.742 329.296C394.913 331.094 388.48 331.61 385.795 330.446C384.944 330.076 382.535 328.45 379.603 326.381C373.156 321.822 364.237 315.152 364.237 315.152L357.632 317.526L325.363 326.112L311.751 297.97C311.751 297.97 327.366 292.69 342.212 287.963C344.494 287.238 346.745 286.535 348.936 285.853C349.071 285.81 349.206 285.768 349.341 285.725C359.304 282.663 367.559 280.344 368.405 280.821C370.684 282.09 394.571 327.485 394.742 329.296Z" fill="#C8D4F2"/>
<path d="M394.743 329.291C394.915 331.097 388.481 331.607 385.796 330.449C384.945 330.077 382.534 328.449 379.606 326.376C373.152 321.825 364.235 315.153 364.235 315.153L357.629 317.526L356.555 317.809L341.732 288.115C341.894 288.058 342.046 288.009 342.208 287.961C344.498 287.24 346.747 286.536 348.936 285.855C349.068 285.807 349.209 285.766 349.341 285.726C359.301 282.665 367.559 280.341 368.41 280.819C370.689 282.09 394.571 327.486 394.743 329.291Z" fill="#EBEBEB"/>
<path d="M395.315 329.958C395.175 328.114 371.575 281.652 369.27 280.341C368.405 279.83 359.734 282.184 349.358 285.268C349.25 285.301 349.143 285.334 349.034 285.367L363.841 315.478L364.471 315.26C364.471 315.26 383.458 329.815 386.183 331.045C388.894 332.261 395.465 331.801 395.315 329.958Z" fill="#5D80D9"/>
<path d="M392.794 330.163C388.575 322.409 372.475 290.816 369.041 282.895C369.014 282.83 369.067 282.813 369.103 282.875C373.494 290.487 389.274 322.183 392.955 330.111C393.032 330.278 392.883 330.327 392.794 330.163Z" fill="#1D191F"/>
<path d="M365.643 318.778C363.358 315.931 362.035 311.968 363.586 308.722C363.646 308.596 363.869 308.666 363.88 308.779C364.224 312.208 364.897 315.297 366.123 318.608C366.21 318.842 365.807 318.983 365.643 318.778Z" fill="#1D191F"/>
<path d="M368.45 320.458C366.165 317.609 364.842 313.648 366.394 310.401C366.453 310.276 366.676 310.346 366.687 310.458C367.033 313.888 367.706 316.978 368.931 320.287C369.018 320.521 368.614 320.662 368.45 320.458Z" fill="#1D191F"/>
<path d="M371.258 322.14C368.973 319.291 367.65 315.33 369.201 312.084C369.261 311.958 369.484 312.028 369.495 312.14C369.841 315.57 370.514 318.66 371.739 321.969C371.826 322.202 371.422 322.343 371.258 322.14Z" fill="#1D191F"/>
<path d="M364.058 322.352C365.072 319.484 364.497 316.366 364.383 313.438C364.371 313.135 363.954 313.025 363.656 313.111C363.618 313.064 363.549 313.037 363.48 313.084C360.685 314.968 358.19 317.902 357.058 320.696C356.359 322.422 356.565 324.982 359.267 325.515C361.824 326.02 363.466 324.026 364.058 322.352ZM361.354 324.143C357.398 326.059 357.776 321.708 358.355 320.452C358.726 319.646 359.228 318.86 359.733 318.103C360.792 316.515 362.114 315.078 363.362 313.59C363.307 315.032 363.407 316.464 363.42 317.904C363.434 319.622 363.534 323.087 361.354 324.143Z" fill="#1D191F"/>
<path d="M352.378 304.7C350.351 306.226 351.744 308.537 353.413 309.765C356.117 311.756 360.092 313.332 363.685 313.877C363.773 313.89 363.818 313.84 363.822 313.784C364.134 313.742 364.431 313.483 364.255 313.214C362.554 310.62 361.141 307.677 358.496 305.575C356.95 304.35 354.295 303.258 352.378 304.7ZM360.671 309.701C361.545 310.961 362.338 312.248 363.271 313.482C361.27 312.676 359.236 311.943 357.338 310.975C356.433 310.513 355.514 310.025 354.694 309.469C353.418 308.602 350.417 304.959 355.039 305.077C357.587 305.141 359.628 308.2 360.671 309.701Z" fill="#1D191F"/>
<path opacity="0.1" d="M395.311 329.954C395.463 331.801 388.897 332.262 386.182 331.039C383.456 329.809 364.468 315.257 364.468 315.257L363.84 315.476L352.138 291.676L375.188 290.016C382.909 304.082 395.219 328.626 395.311 329.954Z" fill="#1D191F"/>
<path d="M351.761 322.731C351.761 322.731 281.612 335.605 255.806 331.888C243.456 330.109 234.542 317.409 240.478 307.68C246.017 298.602 279.877 289.39 289.444 284.05C292.458 282.378 292.135 275.741 292.135 275.741L317.268 275.472C317.268 275.472 326.225 286.846 322.429 292.383C322.372 292.478 322.3 292.561 322.214 292.657L333.551 289.213L351.761 322.731Z" fill="#1E397D"/>
<path d="M336.23 307.57C333.437 302.714 330.366 297.967 327.52 293.132C327.467 293.041 327.279 293.091 327.332 293.185C330.016 298.059 332.496 303.001 335.289 307.838C338.092 312.693 341.115 317.452 344.048 322.255C344.123 322.378 344.375 322.312 344.303 322.183C341.596 317.317 339.014 312.41 336.23 307.57Z" fill="#1D191F"/>
<path d="M322.381 292.891C320.648 293.695 318.997 294.633 317.313 295.501C315.652 296.357 313.983 297.203 312.285 298.011C308.857 299.641 305.346 301.165 301.794 302.615C294.631 305.539 287.24 308.104 279.651 310.235C275.421 311.423 271.147 312.582 266.794 313.446C266.698 313.464 266.742 313.581 266.838 313.563C270.007 312.957 273.175 312.361 276.309 311.654C274.647 312.49 273.015 313.363 271.362 314.212C271.279 314.255 271.358 314.357 271.442 314.316C273.25 313.445 275.082 312.606 276.873 311.714C276.976 311.663 276.975 311.573 276.924 311.511C277.459 311.387 277.996 311.269 278.529 311.137C282.405 310.177 286.236 309.101 289.998 307.885C297.444 305.477 304.618 302.602 311.445 299.219C313.369 298.265 315.274 297.286 317.149 296.274C318.997 295.277 320.891 294.252 322.562 293.071C322.69 292.98 322.518 292.827 322.381 292.891Z" fill="#1D191F"/>
<path d="M421.666 336.185C421.838 337.983 415.405 338.499 412.72 337.335C411.869 336.965 409.459 335.339 406.527 333.27C400.08 328.711 391.162 322.041 391.162 322.041L384.557 324.415L353.248 332.973L338.675 304.859C338.675 304.859 354.29 299.579 369.136 294.852C371.418 294.126 373.67 293.423 375.86 292.741C375.995 292.698 376.131 292.656 376.265 292.613C386.227 289.551 394.483 287.232 395.329 287.709C397.61 288.978 421.496 334.374 421.666 336.185Z" fill="#C8D4F2"/>
<path d="M421.665 336.184C421.837 337.981 415.403 338.499 412.718 337.333C411.867 336.961 409.455 335.333 406.527 333.268C400.083 328.709 391.157 322.037 391.157 322.037L384.561 324.418L383.679 324.66L368.289 295.12C368.572 295.031 368.856 294.942 369.14 294.853C371.419 294.124 373.669 293.419 375.857 292.739C375.999 292.699 376.131 292.658 376.263 292.61C386.233 289.549 394.48 287.233 395.331 287.711C397.611 288.974 421.492 334.37 421.665 336.184Z" fill="#EBEBEB"/>
<path d="M422.253 336.588C422.082 334.744 397.682 288.546 395.354 287.261C394.481 286.76 385.85 289.209 375.53 292.407C375.422 292.441 375.315 292.476 375.208 292.51L390.532 322.455L391.159 322.23C391.159 322.23 410.395 336.575 413.141 337.774C415.873 338.962 422.434 338.428 422.253 336.588Z" fill="#5D80D9"/>
<path d="M419.735 336.823C415.382 329.116 398.738 297.704 395.169 289.821C395.139 289.757 395.193 289.74 395.23 289.8C399.753 297.364 416.078 328.883 419.895 336.77C419.975 336.936 419.827 336.986 419.735 336.823Z" fill="#1D191F"/>
<path d="M392.39 325.738C390.056 322.915 388.666 318.969 390.16 315.705C390.218 315.579 390.442 315.646 390.455 315.759C390.859 319.184 391.585 322.266 392.868 325.563C392.959 325.795 392.558 325.941 392.39 325.738Z" fill="#1D191F"/>
<path d="M395.227 327.388C392.893 324.565 391.502 320.618 392.997 317.354C393.055 317.228 393.279 317.296 393.292 317.408C393.696 320.833 394.422 323.915 395.705 327.212C395.796 327.444 395.394 327.589 395.227 327.388Z" fill="#1D191F"/>
<path d="M398.063 329.038C395.729 326.216 394.338 322.269 395.833 319.005C395.891 318.879 396.115 318.946 396.128 319.059C396.532 322.485 397.258 325.566 398.54 328.862C398.632 329.095 398.23 329.24 398.063 329.038Z" fill="#1D191F"/>
<path d="M390.868 329.329C391.832 326.45 391.203 323.338 391.039 320.412C391.022 320.108 390.602 320.003 390.306 320.093C390.268 320.046 390.198 320.02 390.13 320.067C387.368 321.982 384.923 324.943 383.839 327.749C383.169 329.482 383.421 332.039 386.132 332.544C388.696 333.021 390.305 331.01 390.868 329.329ZM388.195 331.15C384.273 333.109 384.576 328.755 385.132 327.493C385.49 326.682 385.977 325.891 386.469 325.128C387.501 323.53 388.798 322.078 390.02 320.577C389.99 322.018 390.115 323.449 390.152 324.89C390.197 326.606 390.357 330.07 388.195 331.15Z" fill="#1D191F"/>
<path d="M378.884 311.808C376.885 313.355 378.317 315.651 380.007 316.862C382.744 318.822 386.747 320.354 390.349 320.86C390.438 320.873 390.481 320.821 390.484 320.766C390.795 320.72 391.088 320.458 390.906 320.191C389.161 317.615 387.697 314.688 385.015 312.617C383.45 311.407 380.776 310.345 378.884 311.808ZM387.263 316.718C388.159 317.968 388.973 319.246 389.927 320.469C387.913 319.685 385.866 318.974 383.952 318.028C383.038 317.576 382.111 317.098 381.282 316.551C379.992 315.698 376.927 312.089 381.551 312.155C384.1 312.192 386.194 315.228 387.263 316.718Z" fill="#1D191F"/>
<path d="M300.777 275.611L343.987 275.091C343.987 275.091 353.154 293.73 349.359 299.274C345.563 304.819 305.762 312.741 305.762 312.741L360.478 296.104L378.684 329.614C378.684 329.614 312.161 341.202 276.878 338.326C263.635 337.248 255.324 323.424 263.081 312.801C271.241 301.627 300.849 286.339 300.849 286.339L300.777 275.611Z" fill="#1E397D"/>
<path d="M359.052 296.018C342.304 302.134 325.412 307.98 308.133 313.079C305.732 313.787 303.33 314.489 300.922 315.179C298.424 315.894 295.946 316.718 293.391 317.292C293.266 317.32 293.331 317.481 293.452 317.444C295.654 316.784 297.943 316.314 300.176 315.728C302.362 315.155 304.547 314.574 306.72 313.97C307.659 313.71 308.594 313.438 309.531 313.174C309.34 313.28 309.151 313.385 308.964 313.485C308.1 313.944 307.241 314.407 306.392 314.884C304.643 315.866 303.018 317.032 301.182 317.907C301.071 317.961 301.185 318.103 301.291 318.043C303.034 317.053 304.999 316.314 306.791 315.379C307.661 314.926 308.511 314.454 309.356 313.971C310.101 313.545 310.954 313.113 311.611 312.583C314.363 311.795 317.11 310.995 319.841 310.163C328.448 307.541 336.95 304.726 345.34 301.688C350.026 299.99 354.671 298.228 359.256 296.363C359.496 296.266 359.301 295.927 359.052 296.018Z" fill="#1D191F"/>
<path d="M364.121 314.165C361.328 309.31 358.257 304.562 355.412 299.727C355.358 299.635 355.17 299.685 355.223 299.78C357.907 304.654 360.387 309.595 363.18 314.433C365.982 319.288 369.006 324.047 371.939 328.85C372.014 328.972 372.266 328.907 372.194 328.777C369.487 323.911 366.905 319.004 364.121 314.165Z" fill="#1D191F"/>
<path d="M300.068 286.702C295.287 288.784 290.79 291.352 286.421 293.941C282.088 296.508 277.889 299.224 273.888 302.115C271.869 303.575 269.918 305.099 268.034 306.669C266.235 308.168 264.509 309.733 263.067 311.464C260.49 314.559 259.133 318.275 259.483 321.999C259.668 323.961 260.216 325.951 261.199 327.759C262.195 329.591 263.629 331.158 265.201 332.698C265.262 332.758 265.375 332.668 265.306 332.61C263.749 331.284 262.692 329.585 261.928 327.886C261.201 326.267 260.707 324.575 260.592 322.854C260.352 319.275 261.293 315.764 263.617 312.683C266.27 309.165 270.17 306.247 273.876 303.445C277.703 300.553 281.72 297.837 285.894 295.268C288.235 293.827 290.619 292.427 293.023 291.052C295.431 289.675 297.883 288.354 300.234 286.914C300.393 286.819 300.249 286.624 300.068 286.702Z" fill="#1D191F"/>
<path d="M312.63 288.092C309.116 287.113 305.278 286.73 301.59 286.402C297.906 286.075 294.219 285.919 290.516 285.876C290.416 285.875 290.424 285.992 290.52 285.998C294.272 286.262 298.021 286.64 301.746 287.087C305.35 287.519 308.96 288.142 312.592 288.374C312.807 288.389 312.808 288.141 312.63 288.092Z" fill="#1D191F"/>
<path d="M342.012 288.502C339.697 288.478 337.422 288.262 335.131 288.001C333.241 287.786 331.305 287.562 329.733 286.621C326.669 284.783 325.422 281.552 324.773 278.669C324.757 278.601 324.612 278.619 324.623 278.688C325.144 281.828 325.322 285.43 328.77 287.537C330.477 288.58 332.538 288.895 334.64 289.002C337.086 289.127 339.599 288.911 342.016 288.637C342.122 288.624 342.124 288.503 342.012 288.502Z" fill="#1D191F"/>
<path d="M346.767 293.476C346.576 291.665 346.081 289.854 345.556 288.089C345.014 286.268 344.367 284.467 343.645 282.687C342.824 280.665 341.874 278.677 340.879 276.707C340.842 276.635 340.699 276.667 340.732 276.743C342.157 280.077 343.459 283.453 344.546 286.869C345.084 288.562 345.563 290.264 345.989 291.977C346.406 293.648 346.616 295.33 346.029 296.994C345.439 298.669 344.223 300.17 342.568 301.298C342.552 301.309 342.575 301.332 342.592 301.321C345.559 299.44 347.085 296.477 346.767 293.476Z" fill="#1D191F"/>
<path d="M354.16 303.719C351.244 304.329 348.389 305.13 345.522 305.872C342.652 306.615 339.784 307.36 336.921 308.122C331.195 309.647 325.491 311.226 319.786 312.801C316.547 313.695 313.33 314.65 310.111 315.59C310.018 315.617 310.06 315.731 310.155 315.708C321.682 312.847 333.136 309.801 344.521 306.603C347.751 305.695 351.031 304.856 354.191 303.801C354.253 303.78 354.228 303.704 354.16 303.719Z" fill="#1D191F"/>
<path d="M270.568 249.533C271.152 249.63 273.878 250.096 277.864 250.785C279.75 248.958 282.254 245.599 282.76 240.383C282.837 239.518 284.185 244.757 281.57 251.424C289.272 252.747 299.752 254.543 308.923 256.041C309.784 253.199 310.741 250.595 310.741 250.595C310.565 252.711 310.675 254.661 310.916 256.373C312.169 256.586 313.401 256.776 314.58 256.966C315.369 252.47 318.165 244.853 318.165 244.853C317.714 250.379 318.848 255.018 319.799 257.795C325.633 258.697 329.494 259.207 329.299 258.949C322.39 249.514 329.966 245.835 329.148 238.325C328.164 229.326 319.273 226.571 321.071 220.198C322.518 215.009 325.582 205.663 317.812 202.386C317.812 202.386 312.498 195.493 301.191 197.127C287.204 199.139 288.538 216.019 286.871 219.158C284.494 223.643 281.316 224.868 277.969 229.887C274.563 234.962 276.787 239.014 276.268 242.726C275.727 246.434 269.106 249.299 270.568 249.533Z" fill="#1D191F"/>
<path d="M329.833 257.831C328.998 256.207 328.311 254.525 328.084 252.831C327.794 251.139 328.472 249.553 329.273 247.933C330.072 246.321 330.956 244.684 331.573 242.939C332.163 241.197 332.525 239.326 332.207 237.467C331.928 235.61 331.043 233.828 329.791 232.303C328.561 230.759 327.044 229.437 325.586 228.138C324.147 226.828 322.71 225.533 321.763 224.001C320.784 222.486 320.384 220.74 320.532 218.979C320.035 220.694 320.186 222.57 321.03 224.26C321.856 225.958 323.22 227.43 324.588 228.807C325.954 230.194 327.344 231.527 328.426 232.976C329.5 234.424 330.262 235.992 330.479 237.632C330.704 239.269 330.48 240.945 329.935 242.588C329.418 244.24 328.63 245.86 327.937 247.55C327.599 248.397 327.272 249.263 327.094 250.177C326.908 251.092 326.976 252.057 327.201 252.941C327.698 254.716 328.634 256.35 329.833 257.831Z" fill="#1D191F"/>
<path d="M292.394 201.993C290.909 203.817 290.022 205.905 289.139 207.952C288.305 210.019 287.597 212.113 286.922 214.204L285.886 217.321C285.538 218.362 285.135 219.327 284.572 220.251C283.46 222.107 281.686 223.604 279.729 225.103C278.771 225.869 277.794 226.669 276.936 227.567C276.078 228.463 275.331 229.436 274.744 230.464C274.193 231.511 273.743 232.55 273.397 233.634C273.045 234.713 272.853 235.844 272.839 236.965C272.818 238.089 272.958 239.177 273.039 240.233C273.125 241.288 273.088 242.353 272.921 243.388C272.633 245.448 270.807 247.272 268.436 248.289C270.974 247.554 273.135 245.752 273.748 243.51C274.046 242.421 274.163 241.316 274.177 240.214C274.2 239.113 274.107 238.043 274.204 237.008C274.363 234.95 275.18 232.903 276.254 231.025C276.829 230.102 277.494 229.224 278.294 228.413C279.086 227.598 280.01 226.855 280.971 226.103C281.92 225.342 282.907 224.563 283.799 223.69C284.687 222.817 285.486 221.858 286.079 220.823C286.665 219.788 287.072 218.687 287.38 217.633C287.709 216.573 287.985 215.514 288.259 214.456C288.82 212.342 289.341 210.23 289.97 208.139C290.569 206.04 291.266 203.96 292.394 201.993Z" fill="#1D191F"/>
<path d="M310.141 232.897C302.552 242.529 287.73 255.549 277.464 260.129C273.04 262.102 253.681 262.83 241.903 262.009C237.504 261.702 242.139 243.066 246.956 242.979C250.236 242.92 267.337 245.173 269.783 244.511C274.284 243.294 290.949 233.238 302.392 228.172C308.78 225.344 314.861 226.906 310.141 232.897Z" fill="#C8D4F2"/>
<path d="M254.426 244.432C246.48 242.061 236.768 238.721 227.344 240.049C225.496 240.31 224.595 241.2 224.595 241.2C220.358 241.735 219.401 243.495 219.401 243.495C215.645 244.96 214.978 246.867 214.978 246.867C214.978 246.867 210.012 247.539 210.021 250.006C210.022 252.771 216.996 251.287 221.456 252.344C231.675 254.769 246.857 260.864 249.718 261.797L254.426 244.432Z" fill="#C8D4F2"/>
<path d="M234.381 248.879C231.355 248.213 228.406 247.496 225.283 247.162C221.858 246.795 218.485 246.901 215.046 246.94C214.938 246.941 214.925 246.823 215.031 246.808C221.24 245.949 228.64 246.789 234.42 248.769C234.561 248.817 234.533 248.913 234.381 248.879Z" fill="#1D191F"/>
<path d="M237.108 244.163C234.119 243.646 228.859 242.764 219.393 243.587C219.363 243.59 219.346 243.549 219.38 243.542C225.437 242.355 231.224 242.602 237.138 244.05C237.322 244.094 237.307 244.198 237.108 244.163Z" fill="#1D191F"/>
<path d="M238.513 241.605C233.39 240.881 230.045 240.942 224.598 241.226C224.568 241.227 224.555 241.185 224.589 241.18C230.736 240.339 233.086 240.591 238.569 241.468C238.758 241.499 238.714 241.634 238.513 241.605Z" fill="#1D191F"/>
<path d="M233.539 255.889C234.713 256.626 234.237 257.124 231.583 257.124C228.897 257.131 218.422 255.332 217.947 258.313C217.465 261.305 232.347 263.079 236.764 263.384C244.18 263.896 249.718 261.797 249.718 261.797C246.939 260.874 238.961 257.755 233.539 255.889Z" fill="#C8D4F2"/>
<path d="M282.801 236.372L295.234 251.419C295.234 251.419 307.58 240.648 311.219 233.135C314.857 225.621 309.958 225.317 303.153 227.648C296.345 229.978 282.801 236.372 282.801 236.372Z" fill="#5D80D9"/>
<path d="M286.896 235.861C286.817 235.76 286.705 235.773 286.779 235.875C290.529 240.955 295.279 246.589 297.279 248.469C297.309 248.498 297.362 248.462 297.343 248.431C295.951 246.199 287.765 236.96 286.896 235.861Z" fill="#1D191F"/>
<path opacity="0.1" d="M311.221 233.136C307.583 240.65 295.232 251.42 295.232 251.42L286.812 241.225L310.238 226.439C312.568 226.844 313.328 228.779 311.221 233.136Z" fill="#1D191F"/>
<path d="M291.673 262.771L290.298 281.451C290.298 281.451 335.581 279.333 348.106 278.628C348.106 278.628 335.263 241.839 321.796 230.152C315.06 224.307 307.151 224.743 302.11 228.83C300.834 229.864 288.344 245.567 286.741 251.708C285.344 257.125 291.673 262.771 291.673 262.771Z" fill="#5D80D9"/>
<path d="M308.777 259.844C306.354 259.694 303.907 259.608 301.48 259.746C300.272 259.815 299.076 259.927 297.878 260.061C297.28 260.127 296.683 260.178 296.083 260.226C295.467 260.275 294.811 260.309 294.196 260.236C294.14 260.229 294.127 260.295 294.181 260.305C294.773 260.404 295.341 260.498 295.945 260.534C296.52 260.568 297.104 260.553 297.679 260.525C298.905 260.464 300.126 260.359 301.351 260.288C303.822 260.146 306.292 260.005 308.771 260.006C308.885 260.005 308.891 259.85 308.777 259.844Z" fill="#1D191F"/>
<path d="M314.291 262.39C312.371 261.946 310.395 261.57 308.423 261.303C307.431 261.169 306.438 261.082 305.436 261.015C304.958 260.983 304.479 260.958 304 260.938C303.472 260.915 302.94 260.949 302.414 260.921C302.359 260.918 302.344 260.985 302.4 260.99C302.895 261.029 303.386 261.133 303.877 261.196C304.371 261.258 304.867 261.317 305.361 261.379C306.351 261.502 307.339 261.635 308.331 261.752C310.317 261.985 312.29 262.233 314.263 262.521C314.371 262.536 314.39 262.413 314.291 262.39Z" fill="#1D191F"/>
<path opacity="0.3" d="M317.172 227.159L303.514 227.831C303.676 227.734 303.838 227.637 304.001 227.539L316.615 226.924C316.797 226.997 316.99 227.07 317.172 227.159ZM319.645 228.527L301.538 229.418C301.468 229.507 301.376 229.596 301.295 229.702L320.019 228.778C319.898 228.689 319.776 228.6 319.645 228.527ZM321.823 230.171L299.988 231.24C299.927 231.329 299.846 231.426 299.765 231.524L322.097 230.422C322.015 230.333 321.914 230.252 321.823 230.171ZM323.566 231.839L298.529 233.07C298.458 233.159 298.387 233.256 298.306 233.346L323.819 232.099C323.748 232.009 323.657 231.928 323.566 231.839ZM325.106 233.507L297.121 234.884C297.06 234.981 296.989 235.07 296.918 235.168L325.319 233.767C325.248 233.678 325.177 233.597 325.106 233.507ZM326.484 235.2L295.753 236.706C295.692 236.803 295.621 236.892 295.55 236.99L326.686 235.459C326.626 235.37 326.555 235.281 326.484 235.2ZM327.76 236.884L294.436 238.52C294.365 238.609 294.304 238.706 294.243 238.803L327.953 237.143C327.892 237.054 327.831 236.973 327.76 236.884ZM328.966 238.577L293.139 240.342C293.078 240.439 293.017 240.528 292.946 240.617L329.138 238.836C329.088 238.747 329.027 238.666 328.966 238.577ZM330.091 240.269L291.913 242.148C291.842 242.237 291.781 242.334 291.731 242.423L330.263 240.528C330.202 240.439 330.152 240.358 330.091 240.269ZM331.175 241.978L290.717 243.962C290.657 244.051 290.596 244.148 290.545 244.237L331.337 242.237C331.276 242.148 331.226 242.067 331.175 241.978ZM332.198 243.67L289.593 245.767C289.542 245.857 289.481 245.954 289.431 246.043L332.35 243.929C332.3 243.84 332.249 243.759 332.198 243.67ZM333.201 245.379L288.559 247.573C288.509 247.67 288.458 247.76 288.417 247.849L333.343 245.638C333.293 245.549 333.242 245.468 333.201 245.379ZM334.144 247.079L287.647 249.363C287.597 249.46 287.556 249.549 287.516 249.638L334.285 247.338C334.245 247.249 334.194 247.16 334.144 247.079ZM335.066 248.788L286.908 251.161C286.877 251.25 286.847 251.339 286.827 251.428L335.207 249.047C335.167 248.958 335.116 248.869 335.066 248.788ZM335.967 250.497L286.553 252.926C286.553 253.015 286.543 253.104 286.543 253.193L336.109 250.756C336.059 250.667 336.018 250.586 335.967 250.497ZM336.849 252.205L286.675 254.675C286.685 254.764 286.705 254.853 286.725 254.942L336.981 252.464C336.93 252.375 336.889 252.294 336.849 252.205ZM337.69 253.914L287.151 256.4C287.191 256.481 287.222 256.57 287.262 256.659L337.822 254.173C337.781 254.084 337.74 253.995 337.69 253.914ZM338.521 255.622L287.961 258.116C288.012 258.206 288.063 258.287 288.113 258.376L338.652 255.89C338.612 255.801 338.561 255.711 338.521 255.622ZM339.331 257.331L289.056 259.809C289.127 259.898 289.187 259.987 289.248 260.068L339.453 257.606C339.422 257.517 339.372 257.428 339.331 257.331ZM340.132 259.048L290.424 261.493C290.494 261.582 290.576 261.671 290.646 261.752L340.243 259.315C340.213 259.226 340.172 259.137 340.132 259.048ZM340.912 260.756L291.639 263.186L291.619 263.453L341.023 261.032C340.983 260.943 340.942 260.854 340.912 260.756ZM341.662 262.481L291.508 264.943L291.487 265.218L341.773 262.74C341.743 262.659 341.702 262.57 341.662 262.481ZM342.401 264.19L291.386 266.7L291.366 266.975L342.523 264.457C342.482 264.368 342.442 264.279 342.401 264.19ZM343.141 265.906L291.254 268.457L291.234 268.733L343.252 266.174C343.212 266.085 343.171 265.996 343.141 265.906ZM343.85 267.623L291.123 270.214L291.102 270.49L343.972 267.89C343.931 267.801 343.891 267.712 343.85 267.623ZM344.549 269.34L290.991 271.98L290.981 272.247L344.661 269.607C344.63 269.518 344.59 269.429 344.549 269.34ZM345.238 271.057L290.869 273.729L290.849 274.004L345.35 271.332C345.319 271.243 345.279 271.146 345.238 271.057ZM345.917 272.781L290.738 275.494L290.717 275.761L346.018 273.041C345.988 272.951 345.958 272.871 345.917 272.781ZM346.576 274.498L290.606 277.243L290.586 277.527L346.677 274.765C346.647 274.676 346.616 274.587 346.576 274.498ZM347.234 276.215L290.484 279.009L290.464 279.276L347.325 276.482C347.295 276.401 347.265 276.304 347.234 276.215ZM347.862 277.932L290.353 280.766L290.332 281.041L347.954 278.207C347.923 278.126 347.893 278.037 347.862 277.932Z" fill="#1E397D"/>
<path d="M327.134 236.33C333.504 247.67 343.721 269.815 340.866 275.373C335.121 286.554 312.055 296.577 305.344 298.824C302.201 299.876 287.452 284.1 289.96 281.989C292.694 279.686 316.797 268.189 317.211 265.636C317.562 263.477 315.912 249.777 314.906 239.255C313.637 225.982 321.741 226.731 327.134 236.33Z" fill="#C8D4F2"/>
<path d="M296.951 278.295C296.951 278.295 286.552 279.713 279.807 280.895C276.044 281.554 269.718 283.145 267.23 284.64C263.51 286.877 249.736 298.129 253.079 300.857C256.104 303.326 266.401 292.458 266.401 292.458C266.401 292.458 254.797 302.691 259.124 305.129C263.45 307.566 273.041 294.05 273.041 294.05C273.041 294.05 261.415 304.778 266.373 306.727C270.121 308.201 279.671 296.35 279.671 296.35C279.671 296.35 269.756 305.626 273.529 307.274C277.697 309.095 287.371 298.599 287.371 298.599C297.843 301.498 304.312 299.455 308.698 297.564C309.761 297.106 296.951 278.295 296.951 278.295Z" fill="#C8D4F2"/>
<path d="M269.601 289.211C260.334 296.227 258.479 301.937 258.566 301.793C260.639 298.399 265.146 293.834 266.43 292.574C267.711 291.317 268.382 290.507 269.663 289.249C269.695 289.217 269.637 289.184 269.601 289.211Z" fill="#1D191F"/>
<path d="M275.904 292.334C271.248 295.427 267.283 300.111 266.234 301.895C266.15 302.04 266.244 302.032 266.366 301.905C267.944 300.268 274.285 293.933 275.953 292.364C275.98 292.339 275.935 292.313 275.904 292.334Z" fill="#1D191F"/>
<path d="M281.559 294.73C277.655 297.746 276.287 299.413 274.345 302.308C274.251 302.448 274.4 302.435 274.52 302.305C276.858 299.749 278.67 297.731 281.657 294.807C281.705 294.762 281.62 294.683 281.559 294.73Z" fill="#1D191F"/>
<path d="M313.717 252.85L336.153 250.948C336.153 250.948 329.866 237.233 323.192 231.195C316.518 225.156 313.927 228.493 313.385 234.395C312.843 240.297 313.717 252.85 313.717 252.85Z" fill="#5D80D9"/>
<path d="M315.033 249.71C314.885 249.72 314.848 249.806 314.994 249.799C322.363 249.474 330.808 248.696 333.816 248.141C333.863 248.133 333.847 248.079 333.803 248.079C330.684 248.04 316.655 249.599 315.033 249.71Z" fill="#1D191F"/>
<path d="M313.091 239.002C313.127 243.643 313.341 248.523 313.55 253.058C313.554 253.14 314.494 252.929 314.882 252.866C315.03 252.842 314.954 252.727 314.811 252.738C314.447 252.767 314.354 252.757 313.978 252.742C313.768 248.16 313.544 243.576 313.159 239C313.157 238.965 313.091 238.967 313.091 239.002Z" fill="#1D191F"/>
<path d="M313.316 228.769C313.071 229.57 308.216 234.741 303.629 234.533C302.136 234.463 302.247 227.931 302.247 227.931L302.118 227.447L300.309 220.674L310.303 215.656L311.747 214.993C311.747 214.993 312.09 216.873 312.486 219.215C312.505 219.324 312.524 219.432 312.543 219.549C312.569 219.681 312.596 219.806 312.615 219.93C312.679 220.279 312.744 220.636 312.798 220.993C312.841 221.264 312.885 221.528 312.917 221.814C312.959 222.101 312.991 222.379 313.034 222.666C313.366 225.499 313.413 228.429 313.316 228.769Z" fill="#C8D4F2"/>
<path d="M312.483 219.217C309.996 224.577 304.593 226.729 302.115 227.448L300.307 220.675L310.301 215.657L311.745 214.994C311.745 214.995 312.087 216.874 312.483 219.217Z" fill="#1D191F"/>
<path d="M290.433 204.919C282.3 215.189 289.077 220.242 291.85 221.641C294.368 222.912 303.14 226.981 312.558 217.438C321.976 207.894 318.573 201.625 313.008 198.477C307.443 195.328 298.567 194.648 290.433 204.919Z" fill="#C8D4F2"/>
<path d="M293.759 204.415C294.092 204.521 294.422 204.574 294.766 204.652C295.154 204.739 295.452 204.841 295.851 204.737C296.066 204.681 296.212 204.444 296.163 204.272C296.051 203.872 295.609 203.671 295.148 203.55C294.647 203.419 294.219 203.42 293.728 203.571C293.253 203.718 293.319 204.275 293.759 204.415Z" fill="#1D191F"/>
<path d="M302.315 208.358C302.02 208.193 301.783 208.002 301.513 207.815C301.208 207.605 300.938 207.462 300.827 207.137C300.767 206.964 300.935 206.735 301.141 206.673C301.62 206.528 302.074 206.712 302.454 206.954C302.866 207.217 303.1 207.503 303.212 207.914C303.321 208.312 302.704 208.575 302.315 208.358Z" fill="#1D191F"/>
<path d="M298.711 210.288C298.737 210.264 298.757 210.355 298.735 210.384C298.194 211.09 297.723 211.971 298.368 212.581C298.388 212.599 298.358 212.634 298.331 212.618C297.417 212.053 298.058 210.888 298.711 210.288Z" fill="#1D191F"/>
<path d="M300.051 209.904C301.56 210.475 300.021 212.846 298.622 212.317C297.245 211.797 298.785 209.425 300.051 209.904Z" fill="#1D191F"/>
<path d="M300.551 210.27C300.723 210.512 300.823 210.854 301.119 211.008C301.463 211.187 301.896 211.052 302.287 210.911C302.328 210.896 302.34 210.928 302.321 210.959C302.034 211.417 301.512 211.793 300.86 211.608C300.264 211.44 300.125 210.871 300.28 210.355C300.309 210.26 300.482 210.173 300.551 210.27Z" fill="#1D191F"/>
<path d="M293.725 207.84C293.735 207.81 293.631 207.846 293.612 207.877C293.172 208.626 292.51 209.425 291.519 209.33C291.489 209.327 291.467 209.365 291.501 209.375C292.592 209.674 293.458 208.606 293.725 207.84Z" fill="#1D191F"/>
<path d="M293.392 206.734C291.965 206.04 290.333 208.371 291.655 209.014C292.956 209.648 294.588 207.316 293.392 206.734Z" fill="#1D191F"/>
<path d="M292.676 206.617C292.359 206.638 291.974 206.761 291.689 206.652C291.357 206.526 291.298 206.169 291.263 205.835C291.259 205.8 291.222 205.81 291.2 205.84C290.873 206.279 290.732 206.826 291.208 207.15C291.642 207.447 292.269 207.225 292.712 206.84C292.795 206.77 292.804 206.609 292.676 206.617Z" fill="#1D191F"/>
<path d="M295.154 216.011C294.828 216.104 294.463 216.262 294.108 216.16C293.769 216.061 293.454 215.801 293.207 215.597C293.183 215.576 293.139 215.59 293.145 215.62C293.222 215.998 293.631 216.369 294.101 216.469C294.561 216.567 294.942 216.351 295.225 216.078C295.265 216.04 295.201 215.998 295.154 216.011Z" fill="#1D191F"/>
<path d="M293.099 211.742C293.099 211.742 292.182 212.752 291.838 213.266C291.807 213.315 291.947 213.404 292.158 213.508C292.168 213.515 292.171 213.521 292.184 213.519C293.225 214.146 294.579 214.321 295.764 213.874C295.842 213.842 295.796 213.755 295.716 213.761C294.534 213.897 293.511 213.625 292.495 213.209C292.544 213.047 294.137 211.521 294.04 211.472C293.705 211.298 292.884 211.193 292.402 211.113C294.236 208.965 296.485 207.07 298.271 204.91C298.333 204.831 298.203 204.745 298.125 204.804C295.591 206.658 293.414 209.092 291.448 211.271C291.2 211.541 292.783 211.721 293.099 211.742Z" fill="#1D191F"/>
<path d="M292.376 213.354C292.376 213.354 292.513 214.31 293.189 214.944C293.437 215.179 293.749 215.37 294.157 215.458C294.994 215.641 295.397 215.116 295.592 214.599C295.756 214.174 295.772 213.751 295.772 213.751C295.772 213.751 294.137 214.055 292.376 213.354Z" fill="#1D191F"/>
<path d="M293.189 214.944C293.438 215.179 293.75 215.37 294.157 215.457C294.994 215.64 295.397 215.115 295.593 214.598C294.769 214.302 293.692 214.37 293.189 214.944Z" fill="#FF99BA"/>
<path d="M311.015 217.419C307.763 215.945 312.108 207.405 312.656 206.361C312.268 207.004 310.199 210.404 309.791 210.405C309.689 210.402 309.359 210.186 308.853 209.814L308.846 209.81C309.092 209.43 309.321 209.004 309.507 208.562C309.601 208.365 309.156 208.928 308.557 209.6C308.396 209.48 308.226 209.345 308.035 209.209C308.53 208.497 309.057 207.581 309.38 206.529C309.488 206.174 308.455 207.553 307.264 208.639C305.3 207.194 302.42 205.172 299.387 203.805C298.577 203.436 297.858 203.147 297.211 202.909C297.852 201.917 298.682 200.923 298.443 201.112C297.747 201.644 297.171 202.225 296.728 202.734C296.376 202.608 296.047 202.495 295.749 202.399C296.575 200.966 298.861 199.082 298.358 199.307C296.425 200.183 295.076 201.383 294.427 202.045C293.114 201.732 292.663 201.782 292.791 201.521C293.025 201.05 296.257 197.425 301.936 196.145C308.11 194.753 316.881 197.41 318.408 204.151C318.408 204.151 320.938 207.749 319.44 211.223C317.947 214.692 312.896 218.268 311.015 217.419Z" fill="#1D191F"/>
<path d="M309.195 216.577C309.195 216.577 314.325 214.427 315.694 216.058C317.062 217.69 311.683 221.656 309.004 221.396C306.326 221.134 306.579 219.148 306.579 219.148L309.195 216.577Z" fill="#C8D4F2"/>
<path d="M314.117 217.164C314.154 217.177 314.135 217.22 314.097 217.217C312.192 217.075 310.608 217.899 309.243 218.869C310.013 218.597 310.816 218.606 311.308 219.374C311.333 219.415 311.261 219.45 311.222 219.424C310.648 219.046 310.126 218.944 309.422 219.176C308.924 219.34 308.474 219.623 308.034 219.869C307.887 219.951 307.673 219.786 307.81 219.679C307.82 219.671 307.832 219.663 307.842 219.655C308.842 218.034 311.856 216.434 314.117 217.164Z" fill="#1D191F"/>
</svg>
