<svg width="434" height="379" viewBox="0 0 434 379" fill="none" xmlns="http://www.w3.org/2000/svg">
<path d="M181.25 375.306C73.9225 360.397 -13.2993 267.323 2.54694 163.873C16.0655 75.6471 100.399 6.988 201.53 0.50437C208.853 0.033712 216.26 -0.111979 223.736 0.0869984C280.154 1.58174 330.281 22.2795 367.354 53.6003C404.254 84.7706 428.227 126.462 432.592 170.202C444.216 286.575 314.741 393.849 181.25 375.306Z" fill="#F4F7FA"/>
<path d="M80.5253 369.957C55.4266 367 23.6041 359.228 10.8233 337.315C7.78258 332.102 4.73186 321.975 12.406 318.161C19.4208 314.675 28.4925 318.357 33.7064 322.893C37.5397 326.229 40.5313 333.673 44.8387 336.027C51.1429 339.472 54.5368 330.071 54.4042 326.192C54.1077 317.517 42.4741 313.966 34.7426 312.082C21.9091 308.956 6.96691 306.276 7.771 293.011C8.57509 279.746 22.6759 271.789 33.5237 277.592C42.4612 282.374 41.2029 292.58 47.31 298.704C52.7354 304.144 54.6233 295.314 54.2611 290.985C53.4742 281.581 44.4599 274.78 37.8274 268.479C30.3284 261.355 22.0436 247.021 30.0368 237.601C34.6366 232.181 46.3215 230.911 53.2277 231.826C87.0336 236.303 64.6168 276.429 70.7634 280.906C76.91 285.383 82.7254 277.546 82.7101 265.63C82.6948 253.713 84.6834 244.925 98.2419 248.739C111.8 252.552 114.381 283.679 98.8997 295.64C83.418 307.602 99.8714 320.653 104.028 312.08C107.028 305.891 109.666 289.681 118.338 287.903C132.788 284.946 132.573 312.008 128.415 318.306C122.585 327.135 109.404 329.053 102.043 336.671C99.9045 338.884 95.0764 344.364 96.952 347.599C99.5676 352.11 106.866 347.284 109.547 345.193C115.575 340.493 123.918 324.519 132.409 335.127C142.894 348.227 125.359 367.645 80.5253 369.957Z" fill="#A4B8EA"/>
<g opacity="0.8">
<path d="M76.9099 368.006C77.4995 368.006 77.983 367.387 77.9938 366.845C78.0037 366.374 78.7021 319.092 56.2342 262.969C56.0273 262.453 55.4034 262.142 54.842 262.331C54.2796 262.521 53.9911 263.069 54.1977 263.585C76.5272 319.362 75.8348 366.352 75.8252 366.819C75.8139 367.368 76.2903 368.006 76.889 368.006C76.8961 368.006 76.9032 368.006 76.9099 368.006Z" fill="white"/>
</g>
<path d="M60.555 366.069C61.3964 361.231 71.484 359.851 75.5493 359.147C77.9068 358.739 81.2621 358.318 82.4734 356.084C83.7456 353.738 81.8106 351.924 79.3307 351.509C74.8907 350.765 70.1138 353.352 65.9874 354.529C61.5551 355.794 56.9564 356.389 52.5606 354.643C49.0556 353.251 45.467 349.943 44.7042 346.462C42.5934 336.828 53.1172 337.381 59.9753 338.734C63.3031 339.391 69.8463 339.887 70.4331 335.573C71.0574 330.984 64.6911 328.67 60.7587 328.533C55.6192 328.354 50.5674 329.391 45.469 329.73C40.8719 330.036 35.4295 329.576 34.1544 324.724C33.1696 320.976 35.4714 316.668 38.7939 314.444C46.4757 309.302 56.597 318.07 64.7969 318.052C67.6959 318.045 72.4809 316.094 73.2833 313.239C74.0971 310.331 69.9778 308.371 67.7194 307.311C61.0254 304.166 30.2791 300.14 41.2927 287.964C44.0647 284.9 49.4207 282.323 53.7434 282.214C61.8985 282.01 71.0626 287.087 77.3456 291.467C87.2287 298.356 95.8748 307.837 101.489 317.995C113.897 340.446 107.886 355.5 107.886 355.5C104.289 360.941 98.7224 366.599 92.5914 369.664C85.3844 373.267 74.2228 374.85 66.3841 372.049C63.8485 371.142 60.0337 369.067 60.555 366.069Z" fill="#2A51B3"/>
<path opacity="0.7" d="M396.157 232.274L385.741 232.918C384.545 228.655 382.975 224.536 381.026 220.61L389.668 215.291C392.026 213.84 392.632 210.903 391.022 208.73L380.942 195.128C379.329 192.951 376.104 192.359 373.738 193.807L364.981 199.167C361.655 196.042 358.042 193.175 354.177 190.608L358.795 181.911C360.04 179.566 358.95 176.718 356.36 175.549L340.132 168.225C337.532 167.051 334.409 168.003 333.157 170.353L328.507 179.078C323.959 177.864 319.252 177.013 314.436 176.522L313.627 166.738C313.409 164.111 310.888 162.109 307.994 162.265L289.855 163.246C286.948 163.404 284.767 165.667 284.985 168.301L285.797 178.115C281.073 179.139 276.51 180.511 272.156 182.23L266.039 174.049C264.389 171.842 261.088 171.236 258.665 172.696L243.484 181.84C241.051 183.305 240.422 186.285 242.08 188.495L248.218 196.678C244.732 199.699 241.547 202.995 238.693 206.522L228.871 202.171C226.212 200.992 223.014 201.967 221.731 204.349L213.695 219.262C212.408 221.649 213.528 224.537 216.194 225.711L225.944 230.003C224.614 234.194 223.702 238.534 223.198 242.975L212.403 243.643C209.448 243.826 207.229 246.128 207.449 248.786L208.823 265.403C209.043 268.06 211.618 270.059 214.573 269.869L225.28 269.177C226.487 273.536 228.092 277.739 230.085 281.745L221.276 287.137C218.831 288.635 218.198 291.633 219.864 293.834L230.271 307.581C231.934 309.776 235.258 310.339 237.696 308.838L246.435 303.459C249.865 306.645 253.599 309.547 257.586 312.14L253.019 320.71C251.742 323.105 252.855 325.975 255.503 327.119L272.031 334.259C274.67 335.399 277.837 334.383 279.106 331.993L283.614 323.503C288.278 324.687 293.1 325.486 298.025 325.913L298.801 335.297C299.019 337.932 301.55 339.897 304.453 339.687L322.564 338.376C325.454 338.167 327.619 335.868 327.402 333.242L326.628 323.885C331.392 322.775 335.985 321.314 340.352 319.5L346.134 327.208C347.76 329.375 351.007 329.925 353.387 328.437L368.241 319.148C370.611 317.665 371.221 314.71 369.603 312.546L363.804 304.791C367.238 301.718 370.373 298.382 373.164 294.814L382.432 298.894C385.011 300.029 388.105 299.038 389.344 296.68L397.079 281.952C398.315 279.599 397.232 276.769 394.66 275.629L385.373 271.514C386.638 267.361 387.499 263.067 387.955 258.674L398.286 258.007C401.129 257.824 403.258 255.563 403.042 252.959L401.695 236.671C401.48 234.066 399.001 232.098 396.157 232.274ZM302.263 203.006C331.456 201.305 356.765 221.353 358.951 247.774C361.137 274.195 339.391 297.218 310.222 299.208C280.877 301.21 255.165 281.188 252.955 254.477C250.746 227.766 272.893 204.717 302.263 203.006Z" fill="#D8DEE8"/>
<path opacity="0.7" d="M363.238 87.7671L357.512 88.1215C356.854 85.7777 355.991 83.5135 354.92 81.3551L359.671 78.4307C360.967 77.6328 361.3 76.0181 360.415 74.8237L354.873 67.3457C353.986 66.1486 352.213 65.8229 350.913 66.6191L346.098 69.5664C344.27 67.848 342.284 66.2719 340.159 64.8605L342.698 60.0792C343.382 58.79 342.783 57.2241 341.359 56.5815L332.437 52.5549C331.008 51.9098 329.291 52.4332 328.603 53.725L326.046 58.5217C323.546 57.8545 320.958 57.3868 318.31 57.117L317.865 51.7378C317.746 50.2936 316.36 49.1927 314.769 49.2788L304.796 49.8182C303.198 49.9046 301.999 51.1489 302.119 52.5972L302.565 57.9922C299.969 58.5553 297.46 59.3097 295.066 60.2547L291.703 55.7569C290.796 54.5439 288.981 54.2108 287.649 55.0131L279.303 60.0404C277.966 60.8458 277.62 62.4843 278.531 63.699L281.906 68.1976C279.989 69.8587 278.238 71.6708 276.669 73.6098L271.269 71.2173C269.807 70.5695 268.049 71.1055 267.344 72.415L262.926 80.6136C262.218 81.9261 262.834 83.5138 264.3 84.1591L269.66 86.5187C268.929 88.8228 268.428 91.209 268.15 93.6504L262.215 94.0176C260.591 94.1181 259.371 95.384 259.492 96.845L260.248 105.981C260.368 107.442 261.784 108.541 263.408 108.436L269.295 108.056C269.958 110.452 270.841 112.763 271.936 114.965L267.094 117.93C265.749 118.753 265.401 120.401 266.317 121.611L272.039 129.169C272.953 130.376 274.781 130.685 276.121 129.86L280.926 126.903C282.811 128.654 284.864 130.25 287.056 131.675L284.545 136.387C283.843 137.704 284.455 139.282 285.911 139.91L294.997 143.836C296.448 144.462 298.189 143.904 298.887 142.59L301.365 137.922C303.929 138.573 306.58 139.013 309.288 139.247L309.715 144.406C309.835 145.855 311.226 146.935 312.822 146.82L322.779 146.099C324.368 145.984 325.558 144.72 325.439 143.276L325.013 138.132C327.632 137.522 330.158 136.719 332.558 135.722L335.737 139.959C336.631 141.151 338.416 141.453 339.724 140.635L347.891 135.528C349.194 134.713 349.529 133.088 348.639 131.898L345.452 127.635C347.339 125.946 349.063 124.112 350.597 122.15L355.693 124.393C357.111 125.017 358.812 124.472 359.493 123.176L363.745 115.079C364.424 113.786 363.829 112.23 362.415 111.603L357.31 109.341C358.005 107.057 358.478 104.697 358.729 102.282L364.409 101.915C365.972 101.814 367.142 100.572 367.024 99.1398L366.283 90.1851C366.164 88.7528 364.801 87.6705 363.238 87.7671ZM311.618 71.6768C327.667 70.7418 341.581 81.7632 342.783 96.2889C343.985 110.814 332.03 123.472 315.994 124.566C299.86 125.667 285.725 114.659 284.51 99.9741C283.295 85.2888 295.471 72.6174 311.618 71.6768Z" fill="#D8DEE8"/>
<path d="M372.718 358.921C375.849 361.242 376.026 362.891 375.925 363.695C375.762 364.99 374.697 365.493 372.149 367.938C368.703 371.246 369.23 371.689 367.474 372.885C363.6 375.525 358.122 375.351 357.791 374.453C357.56 373.822 360.037 373.308 362.857 370.313C365.459 367.549 366.339 364.81 366.575 364.007C367.003 362.546 367.114 361.283 367.135 360.408L372.718 358.921Z" fill="#5D80D9"/>
<path d="M362.232 351.849L368.398 361.703C369.882 362.306 371.302 362.001 372.619 360.245L370.213 348.266L362.232 351.849Z" fill="url(#paint0_linear_301_9321-827735)"/>
<path d="M354.759 225.469C348.753 234.769 339.011 252.717 337.04 276.986C335.094 300.941 341.682 319.197 344.442 326.006C349.613 338.763 358.605 352.158 363.829 358.543C367.352 357.191 369.426 355.072 372.949 353.72C372.42 351.962 370.786 346.156 369.758 342.697C368.961 340.018 367.492 335.06 367.19 334C364.661 325.128 366.658 318.471 365.962 307.498C365.15 294.701 361.953 296.189 362.434 288.506C363.152 277.034 370.239 274.356 378.375 257.751C383.944 246.385 389.793 234.447 384.417 227.92C377.651 219.705 357.058 224.87 354.759 225.469Z" fill="#5D80D9"/>
<path d="M398.221 367.934C400.099 369.029 401.232 371.633 400.377 373.272C399.535 374.884 397.392 374.375 392.184 375.842C386.607 377.415 385.504 379.003 381.392 379C379.731 378.998 376.719 378.736 376.468 377.711C376.291 376.991 377.57 376.274 381.779 373.68C387.755 369.998 387.693 369.895 389.026 369.33C392.377 367.912 395.741 366.487 398.221 367.934Z" fill="#5D80D9"/>
<path d="M389.3 360.13L391.589 369.721C391.909 370.15 395.169 371.176 397.452 369.721L396.61 360.13H389.3Z" fill="url(#paint1_linear_301_9321-732438)"/>
<path opacity="0.3" d="M384.418 227.92C377.651 219.705 357.058 224.87 354.76 225.469C352.292 229.29 349.196 234.594 346.265 241.173C353.563 239.857 356.731 241.052 358.207 242.64C363.936 248.801 345.997 262.407 349.686 283.053C351.129 291.128 354.894 294.762 354.205 304.623C353.693 311.962 351.207 315.677 349.489 321.05C348.458 324.274 347.659 328.238 347.622 333.028C352.781 343.431 359.562 353.326 363.829 358.543C367.352 357.191 369.426 355.072 372.949 353.72C372.42 351.962 370.787 346.156 369.758 342.697C368.962 340.018 367.493 335.06 367.191 334C364.661 325.128 366.658 318.471 365.962 307.498C365.15 294.701 361.954 296.189 362.434 288.506C363.152 277.034 370.239 274.356 378.376 257.751C383.945 246.385 389.794 234.447 384.418 227.92Z" fill="#2A51B3"/>
<path d="M370.842 230.509C370.261 251.909 371.141 276.706 374.98 304.038C378.106 326.289 382.651 346.365 387.657 363.978C388.35 364.337 390.778 365.491 393.889 364.951C396.091 364.568 397.565 363.522 398.221 362.99C397.674 359.392 397.121 353.948 397.574 347.369C398.353 336.06 401.256 333.756 402.502 322.053C403.595 311.79 402.444 303.406 401.886 299.518C400.168 287.552 397.836 287.306 397.79 280.14C397.718 269.105 403.219 265.154 406.243 254.641C408.26 247.627 409.33 237.156 404.257 222.798C393.119 225.368 381.981 227.939 370.842 230.509Z" fill="#5D80D9"/>
<path d="M358.938 145.125C354.848 147.231 349.166 150.722 343.871 156.284C331.657 169.113 324.103 190.223 331.953 197.13C337.294 201.829 349.961 200.406 354.324 194.829C357.534 190.727 355.224 185.69 354.115 178.529C352.923 170.824 352.966 159.651 358.938 145.125Z" fill="#2A51B3"/>
<path d="M406.367 227.96C401.845 173.282 387.426 150.9 388.686 144.255C386.871 143.059 379.702 141.156 363.459 143.117C362.071 143.585 358.365 144.957 354.693 148.036C354.693 148.036 353.84 148.75 352.672 150.004C364.083 151.98 375.706 157.94 379.89 166.383C387.138 182.528 373.678 200.572 379.89 214.818C383.155 222.304 388.378 228.94 394.614 235.143C401.742 233.512 406.628 231.111 406.367 227.96Z" fill="#5D80D9"/>
<path opacity="0.3" d="M404.257 222.798C400.997 223.551 397.736 224.303 394.476 225.055C396.181 230.444 397.819 238.531 395.85 247.712C393.131 260.39 386.104 263.172 385.071 274.604C384.141 284.889 389.435 286.986 391.969 300.705C394.567 314.763 390.635 321.374 389.813 333.132C389.251 341.179 390.164 351.707 395.502 364.519C396.821 364.04 397.742 363.379 398.221 362.99C397.675 359.392 397.121 353.948 397.574 347.369C398.353 336.06 401.256 333.756 402.502 322.053C403.595 311.79 402.444 303.406 401.886 299.518C400.168 287.552 397.836 287.306 397.79 280.14C397.718 269.105 403.219 265.154 406.243 254.641C408.261 247.627 409.33 237.156 404.257 222.798Z" fill="#5D80D9"/>
<path d="M354.693 148.036C354.693 148.036 350.371 151.643 347.852 156.942C344.055 164.926 348.144 171.779 349.37 184.817C350.715 199.119 348.812 222.944 344.425 231.479C344.349 231.628 344.159 232.052 344.237 232.59C345.422 240.84 407.279 238.97 406.368 227.96C401.845 173.282 387.426 150.9 388.686 144.255C386.872 143.059 379.702 141.156 363.459 143.117C362.071 143.585 358.365 144.957 354.693 148.036Z" fill="#5D80D9"/>
<path d="M373.079 129.386C373.079 129.386 377.074 140.886 378.367 142.27C379.661 143.654 373.175 147.271 368.203 145.64C363.637 144.143 368.207 137.76 368.207 137.76L373.079 129.386Z" fill="#A4B8EA"/>
<path d="M360.683 126.701C359.117 124.436 359.337 120.698 361.564 118.49C363.481 116.59 366.242 116.503 367.895 116.451C372.686 116.298 378.515 118.559 380.246 122.72C381.271 125.185 378.168 129.922 377.672 130.777C377.11 131.745 376.222 132.026 375.361 132.726C374.168 133.696 372.298 135.241 369.24 137.829C369.094 136.988 368.852 135.942 368.421 134.795C368.255 134.354 367.585 132.629 366.472 131.158C364.242 128.208 362.167 128.849 360.683 126.701Z" fill="#5D80D9"/>
<path d="M373.458 135.774C373.458 135.774 369.925 140.239 363.745 139.408C358.212 138.665 358.403 127.164 362.169 124.999C363.426 124.277 365.829 124.116 367.716 124.755C368.83 125.132 369.178 125.595 371.012 126.179C372.703 126.718 373.206 126.578 373.692 127.019C374.301 127.571 374.67 128.841 373.287 132.105C374.434 131.198 375.741 130.914 376.61 131.371C376.748 131.444 377.109 131.711 377.292 132.088C377.955 133.452 376.507 135.025 373.458 135.774Z" fill="#C8D4F2"/>
<path d="M361.432 133.88C361.432 133.88 362.583 134.544 364.668 134.591C364.769 134.593 364.878 134.628 364.887 134.677C364.919 134.861 363.516 135.573 362.317 135.166C361.465 134.876 360.854 134.07 360.988 133.886C361.044 133.809 361.241 133.834 361.432 133.88Z" fill="#5D80D9"/>
<path opacity="0.3" d="M388.926 179.68C382.176 181.853 373.219 187.961 372.619 195.788C371.696 207.808 391.213 214.404 388.613 222.827C387.904 225.123 385.662 227.194 371.05 232.031C365.138 233.989 359.645 235.585 354.659 236.905C372.538 239.322 407.05 236.204 406.368 227.959C404.636 207.027 401.455 190.843 398.258 178.448C395.018 178.331 391.869 178.732 388.926 179.68Z" fill="#2A51B3"/>
<path d="M367.674 204.276C378.654 214.499 394.33 217.72 406.381 212.605C423.118 205.502 425.706 185.362 421.804 172.757C415.289 151.714 386.896 139.443 377.951 145.049C371.482 149.103 371.544 164.788 379.253 172.639C386.183 179.696 396.826 177.913 399.721 185.102C401.889 190.487 397.7 195.913 397.34 196.365C392.68 202.217 382.524 204.202 372.919 200.184C371.17 201.548 369.422 202.911 367.674 204.276Z" fill="#2A51B3"/>
<path d="M345.935 186.654C346.829 184.02 349.734 182.67 352.019 182.378C354.256 182.093 357.942 182.559 359.409 185.241C360.782 187.749 359.703 191.259 356.547 193.162C356.103 192.151 355.307 190.822 353.906 190.419C351.328 189.677 349.095 192.758 347.19 191.953C345.672 191.311 345.279 188.588 345.935 186.654Z" fill="#C8D4F2"/>
<path d="M356.478 202.623L364.928 203.971C366.565 204.232 367.97 202.891 367.62 201.401L364.546 188.29C364.324 187.342 363.436 186.648 362.381 186.596L352.264 186.099C350.595 186.017 349.371 187.519 349.93 188.964L354.671 201.224C354.953 201.956 355.644 202.491 356.478 202.623Z" fill="white"/>
<path d="M371.225 201.504C370.531 196.939 368.433 195.745 367.674 195.405C366.401 194.836 365.773 195.278 361.328 195.213C357.357 195.156 356.416 194.782 355.914 195.405C354.963 196.585 356.918 199.686 359.133 201.504C362.238 204.053 366.089 204.272 367.674 204.275L371.225 201.504Z" fill="#C8D4F2"/>
<path d="M248.055 18.1113L284.618 355.394C285.162 360.417 281.392 364.808 276.225 365.154L98.0773 378.84C87.2174 379.189 81.3572 373.824 80.7674 368.509L41.1521 11.4936C40.557 6.13055 45.9825 1.38387 56.953 1.5888L237.528 8.57157C242.775 8.75298 247.506 13.046 248.055 18.1113Z" fill="#2A51B3"/>
<path d="M256.155 17.6818L292.871 356.703C293.418 361.751 289.633 366.166 284.446 366.514L99.7507 378.932C93.9844 379.32 88.7686 375.267 88.1762 369.924L48.3834 11.0165C47.7859 5.62483 52.1039 1.37983 57.963 1.58292L245.585 8.09178C250.853 8.27474 255.603 12.5902 256.155 17.6818Z" fill="#1D191F"/>
<path d="M252.267 36.3883L286.321 350.61C286.832 355.327 283.288 359.445 278.434 359.761L104.717 371.087C99.3543 371.436 94.5045 367.653 93.9531 362.677L57.2253 31.1703C56.6694 26.1532 60.6792 22.1779 66.1212 22.3368L242.385 27.4821C247.31 27.6259 251.751 31.6337 252.267 36.3883Z" fill="#D8DEE8"/>
<path d="M158.833 15.6066C159.031 17.4202 157.635 18.8422 155.713 18.7828C153.789 18.7233 152.066 17.2021 151.867 15.3852C151.667 13.568 153.068 12.1459 154.993 12.2089C156.916 12.2719 158.634 13.793 158.833 15.6066Z" fill="white"/>
<g opacity="0.3">
<path d="M141.733 181.09C123.377 131.345 155.326 106.284 137.233 60.2079C127.389 35.1385 107.683 16.4634 86.0045 2.55571L57.9632 1.58293C52.104 1.3797 47.7861 5.62469 48.3833 11.0164L88.1763 369.924C88.7683 375.267 93.9845 379.32 99.7504 378.932L259.208 368.211C258.707 330.736 248.327 304.064 236.783 285.104C205.06 233.004 160.74 232.601 141.733 181.09Z" fill="#F4F7FA"/>
</g>
<path d="M246.799 61.7897C274.299 82.6843 301.799 103.579 329.299 124.474C258.355 153.734 266.611 243.171 195.667 272.432C168.167 251.537 140.668 230.643 113.168 209.748C184.111 180.487 175.856 91.0504 246.799 61.7897Z" fill="#2A51B3"/>
<path d="M315.391 123.404C255.208 154.509 257.476 233.064 197.293 264.169C173.888 246.385 150.482 228.601 127.077 210.817C187.259 179.713 184.991 101.158 245.174 70.0529C268.579 87.8367 291.985 105.62 315.391 123.404Z" fill="white"/>
<path d="M139.556 201.644C139.865 201.879 140.137 202.101 140.417 202.349C140.441 202.371 140.464 202.39 140.488 202.412C143.69 205.237 145.192 208.809 144.821 212.227C144.503 215.214 142.738 218.069 139.392 220.174C138.905 220.481 138.378 220.768 137.825 221.041C135.733 222.074 133.333 222.761 130.788 223.135C124.915 218.673 119.042 214.21 113.168 209.748C120.709 206.637 127.356 202.847 133.297 198.522C135.436 199.096 137.703 200.236 139.556 201.644Z" fill="#5D80D9"/>
<path d="M211.41 256.239C213.34 257.705 214.626 259.316 215.702 261.273C209.784 265.571 203.169 269.337 195.667 272.431C189.658 267.865 183.648 263.299 177.638 258.732C179.032 257.484 180.796 256.313 182.888 255.281C183.441 255.008 184.007 254.75 184.58 254.509C193.144 250.906 203.643 250.907 210.646 255.69C210.673 255.707 210.699 255.727 210.728 255.746C210.957 255.902 211.195 256.076 211.41 256.239Z" fill="#2A51B3"/>
<path d="M246.799 61.7897C252.673 66.2522 258.546 70.7147 264.419 75.1773C263.025 76.426 261.261 77.5967 259.17 78.629C258.616 78.9021 258.051 79.1597 257.477 79.4011C249.001 82.966 238.657 83.022 231.654 78.3846C231.326 78.17 231.059 77.9836 230.75 77.7485C228.898 76.3414 227.398 74.6192 226.671 73.0156C232.612 68.6901 239.259 64.8999 246.799 61.7897Z" fill="#5D80D9"/>
<path d="M311.27 110.775C317.279 115.341 323.289 119.907 329.299 124.473C321.797 127.567 315.182 131.334 309.264 135.631C306.655 134.788 304.535 133.811 302.604 132.344C302.389 132.18 302.16 132 301.956 131.826C301.931 131.804 301.904 131.784 301.882 131.764C298.762 129.124 297.159 125.788 297.219 122.522C297.282 119.242 299.043 116.049 302.69 113.754C303.178 113.447 303.692 113.151 304.245 112.878C306.337 111.845 308.725 111.149 311.27 110.775Z" fill="#5D80D9"/>
<path d="M235.611 140.991C248.78 150.997 252.671 170.539 245.082 185.232C237.494 199.925 219.938 203.171 206.651 193.075C193.482 183.069 189.591 163.528 197.179 148.835C204.768 134.142 222.324 130.895 235.611 140.991Z" fill="#2A51B3"/>
<path d="M225.961 158.528C223.643 159.027 221.245 160.472 218.475 163.432C216.522 161.949 214.57 160.465 212.618 158.982C212.694 158.859 212.771 158.736 212.847 158.613C213.613 157.413 214.472 156.332 215.396 155.427C215.924 154.908 216.489 154.42 217.074 153.987C217.73 153.503 217.73 152.456 217.09 151.865C216.285 151.122 215.48 150.379 214.675 149.636C214.169 149.173 213.442 149.159 212.97 149.598C212.178 150.329 211.398 151.15 210.683 151.955C209.712 153.047 208.818 154.195 207.971 155.451C207.289 154.933 206.606 154.414 205.924 153.896C205.326 153.441 204.542 153.513 204.144 154.122C203.742 154.731 203.93 155.547 204.532 156.004C205.229 156.534 205.925 157.063 206.622 157.592C204.952 160.756 204.252 163.716 204.571 166.394C204.896 169.091 206.213 171.32 208.533 173.082C210.776 174.787 213.056 175.384 215.359 174.877C217.652 174.371 220.033 172.757 222.486 170.052C224.654 171.709 226.823 173.366 228.991 175.023C228.142 176.381 227.18 177.629 226.109 178.766C225.423 179.495 224.689 180.175 223.912 180.807C223.246 181.35 223.236 182.45 223.91 183.061C224.952 184.004 225.993 184.947 227.034 185.89C227.554 186.36 228.284 186.345 228.756 185.875C229.536 185.096 230.28 184.254 230.989 183.351C231.945 182.133 232.871 180.756 233.735 179.289C233.84 179.108 233.944 178.929 234.049 178.748C234.791 179.312 235.534 179.877 236.276 180.441C236.879 180.898 237.653 180.832 237.998 180.179C238.002 180.172 238.005 180.165 238.009 180.158C238.354 179.505 238.16 178.705 237.56 178.25C236.807 177.678 236.055 177.106 235.302 176.534C236.374 174.183 236.968 171.935 237.059 169.835C237.103 168.925 237.06 168.022 236.916 167.156C236.448 164.313 235.037 162.028 232.69 160.245C230.52 158.597 228.271 158.034 225.961 158.528ZM224.235 168.125C225.167 167.251 226.095 166.637 226.905 166.489C227.713 166.34 228.522 166.554 229.31 167.152C230.178 167.812 230.681 168.634 230.846 169.58C231.01 170.528 230.809 171.537 230.21 172.666C228.218 171.152 226.227 169.639 224.235 168.125ZM214.343 166.847C213.601 167.012 212.88 166.829 212.184 166.3C211.447 165.74 211.01 165.015 210.872 164.121C210.733 163.228 210.953 162.15 211.363 161.195C213.156 162.557 214.948 163.919 216.741 165.281C215.864 166.198 215.086 166.68 214.343 166.847Z" fill="white"/>
<path opacity="0.2" d="M329.03 124.27C329.12 124.338 329.209 124.406 329.299 124.474C258.355 153.734 266.611 243.171 195.667 272.432C168.749 251.979 141.831 231.526 114.912 211.074C118.828 210.693 123.056 210.467 127.615 210.537C132.88 210.621 138.587 211.097 144.821 212.228C151.744 213.483 159.318 215.542 167.71 218.797C209.171 234.934 221.086 221.347 228.272 198.399C230.246 192.316 231.95 185.619 234.015 178.811C234.926 175.818 235.943 172.8 237.074 169.804C239.297 163.938 241.971 158.152 245.199 152.778C255.758 134.403 274.294 121.967 297.219 122.522C301.419 122.576 305.704 123.029 309.996 123.884C311.114 124.106 312.289 124.275 313.523 124.395C317.986 124.838 323.174 124.665 329.03 124.27Z" fill="#5D80D9"/>
<path d="M259.861 137.644C262.323 138.539 263.598 140.93 262.694 142.959L205.701 271.499C204.726 273.685 201.31 275.257 198.77 274.289L105.924 238.879C103.438 237.931 102.408 234.627 103.431 232.489L160.903 105.97C161.848 103.983 164.592 103.075 167.001 103.952L259.861 137.644Z" fill="#5D80D9"/>
<path d="M261.379 135.099C263.858 135.999 265.141 138.409 264.228 140.456L206.178 270.634C205.197 272.834 202.302 273.838 199.746 272.864L106.319 237.252C103.818 236.298 102.615 233.756 103.645 231.604L161.734 103.246C162.688 101.242 165.452 100.324 167.878 101.205L261.379 135.099Z" fill="#5D80D9"/>
<g opacity="0.7">
<path d="M191.255 224.165L181.421 245.291C180.982 246.234 179.757 246.74 178.699 246.414L172.9 244.629C171.841 244.303 171.337 243.265 171.779 242.322L181.684 221.207C182.12 220.278 183.335 219.784 184.385 220.109L190.135 221.886C191.183 222.21 191.688 223.236 191.255 224.165Z" fill="#F4F7FA"/>
<path d="M204.196 196.366L194.541 217.105C194.11 218.031 192.901 218.524 191.853 218.2L186.111 216.423C185.063 216.099 184.561 215.076 184.994 214.151L194.719 193.422C195.146 192.511 196.347 192.029 197.386 192.352L203.08 194.121C204.118 194.443 204.621 195.453 204.196 196.366Z" fill="#F4F7FA"/>
<path d="M216.902 169.069L207.423 189.433C207 190.342 205.805 190.822 204.768 190.499L199.081 188.732C198.043 188.409 197.543 187.402 197.969 186.493L207.517 166.141C207.937 165.245 209.122 164.776 210.152 165.097L215.79 166.857C216.819 167.178 217.319 168.173 216.902 169.069Z" fill="#F4F7FA"/>
<path d="M229.38 142.264L220.071 162.262C219.656 163.155 218.475 163.623 217.448 163.302L211.816 161.543C210.788 161.222 210.29 160.229 210.708 159.337L220.084 139.35C220.497 138.471 221.668 138.013 222.688 138.333L228.273 140.084C229.291 140.403 229.79 141.384 229.38 142.264Z" fill="#F4F7FA"/>
</g>
<path d="M163.48 225.604L158.842 235.623C157.998 237.446 155.565 238.279 153.438 237.472L141.853 233.079C139.732 232.275 138.695 230.131 139.547 228.315L144.227 218.337C145.073 216.533 147.493 215.71 149.606 216.506L161.149 220.858C163.269 221.657 164.318 223.792 163.48 225.604Z" fill="#54C390"/>
<path d="M162.04 225.888L158.054 234.492C157.273 236.178 155.035 236.944 153.068 236.198L143.118 232.427C141.156 231.683 140.201 229.71 140.988 228.03L145.006 219.457C145.789 217.787 148.017 217.029 149.973 217.767L159.89 221.507C161.852 222.246 162.817 224.211 162.04 225.888ZM141.482 228.217C140.804 229.664 141.627 231.363 143.317 232.003L153.265 235.773C154.959 236.415 156.886 235.756 157.558 234.305L161.545 225.701C162.214 224.257 161.383 222.565 159.694 221.928L149.776 218.187C148.091 217.552 146.173 218.204 145.499 219.643L141.482 228.217Z" fill="url(#paint2_linear_301_9321-310104)"/>
<path d="M144.449 232.682L151.102 218.44L144.449 232.682Z" fill="#F4F7FA"/>
<path d="M151.349 218.533L144.697 232.776L144.202 232.588L150.856 218.347L151.349 218.533Z" fill="url(#paint3_linear_301_9321-524757)"/>
<path d="M148.189 234.099L154.831 219.846L148.189 234.099Z" fill="#F4F7FA"/>
<path d="M155.078 219.939L148.437 234.193L147.942 234.005L154.584 219.753L155.078 219.939Z" fill="url(#paint4_linear_301_9321-551124)"/>
<path d="M151.932 235.518L158.562 221.253L151.932 235.518Z" fill="#F4F7FA"/>
<path d="M158.809 221.346L152.18 235.612L151.685 235.424L158.315 221.16L158.809 221.346Z" fill="url(#paint5_linear_301_9321-608319)"/>
<path d="M158.933 227.42L157.083 231.408C156.612 232.422 155.258 232.885 154.074 232.437L145.391 229.149C144.209 228.702 143.631 227.508 144.103 226.498L145.965 222.521C146.437 221.513 147.787 221.052 148.967 221.498L157.636 224.771C158.818 225.217 159.402 226.409 158.933 227.42Z" fill="#FEC045"/>
<path d="M159.18 227.514L157.33 231.502C156.804 232.636 155.299 233.15 153.976 232.649L145.292 229.361C143.971 228.861 143.327 227.535 143.857 226.405L145.718 222.428C146.246 221.301 147.747 220.789 149.065 221.287L157.734 224.56C159.055 225.059 159.704 226.384 159.18 227.514ZM144.35 226.591C143.93 227.488 144.441 228.541 145.489 228.938L154.173 232.225C155.223 232.623 156.417 232.214 156.835 231.315L158.685 227.327C159.101 226.43 158.586 225.378 157.537 224.982L148.868 221.709C147.822 221.313 146.63 221.719 146.211 222.614L144.35 226.591Z" fill="url(#paint6_linear_301_9321-972975)"/>
<path opacity="0.15" d="M201.569 218.596C198.184 229.893 195.186 236.772 188.762 243.369C179.941 252.428 168.949 256.558 162.079 258.505L199.746 272.863C202.302 273.837 205.198 272.833 206.179 270.633L264.228 140.456C265.141 138.409 263.858 135.998 261.379 135.098L246.41 129.66C223.582 143.929 214.967 158.485 211.378 169.397C207.042 182.581 209.609 191.763 201.569 218.596Z" fill="url(#paint7_linear_301_9321-891961)"/>
<g opacity="0.42">
<path d="M212.122 224.521L199.012 253.66C198.763 254.215 198.029 254.468 197.382 254.222L192.052 252.202C191.406 251.956 191.082 251.303 191.332 250.749L204.49 221.657C204.737 221.112 205.464 220.863 206.106 221.104L211.399 223.089C212.042 223.331 212.367 223.974 212.122 224.521Z" fill="url(#paint8_linear_301_9321-790324)"/>
<path d="M237.453 168.627L220.009 207.39C219.76 207.942 219.027 208.196 218.38 207.955L213.049 205.965C212.403 205.724 212.078 205.076 212.328 204.524L229.835 165.823C230.079 165.283 230.803 165.034 231.444 165.27L236.729 167.214C237.37 167.45 237.696 168.086 237.453 168.627Z" fill="url(#paint9_linear_301_9321-071833)"/>
</g>
<path opacity="0.26" d="M183.309 121.884C189.736 124.23 192.695 131.048 189.935 137.057C187.2 143.009 179.881 145.909 173.571 143.588C167.27 141.271 164.272 134.59 166.89 128.614C169.533 122.579 176.891 119.541 183.309 121.884Z" fill="url(#paint10_linear_301_9321-877136)"/>
<g opacity="0.53">
<path d="M159.323 212.684C159.744 213.621 159.252 214.708 158.219 215.11C157.182 215.513 155.999 215.068 155.584 214.12C155.171 213.176 155.678 212.095 156.71 211.703C157.738 211.313 158.905 211.751 159.323 212.684Z" fill="#F4F7FA"/>
<path d="M169.081 210.067C169.011 210.229 168.873 210.367 168.684 210.44C168.304 210.587 167.86 210.421 167.694 210.07C165.238 204.874 158.67 202.417 152.867 204.516C152.474 204.658 152.032 204.492 151.88 204.146C151.728 203.801 151.924 203.407 152.315 203.267C158.868 200.917 166.277 203.688 169.068 209.54C169.152 209.715 169.15 209.903 169.081 210.067Z" fill="#F4F7FA"/>
<path d="M166.32 211.133C166.248 211.298 166.108 211.437 165.916 211.511C165.532 211.66 165.085 211.493 164.92 211.138C163.129 207.281 158.267 205.46 153.98 207.037C153.586 207.182 153.141 207.015 152.987 206.665C152.833 206.315 153.028 205.916 153.421 205.772C158.469 203.931 164.188 206.072 166.311 210.602C166.394 210.778 166.391 210.969 166.32 211.133Z" fill="#F4F7FA"/>
<path d="M163.525 212.215C163.452 212.381 163.309 212.521 163.115 212.596C162.726 212.747 162.277 212.579 162.114 212.221C160.98 209.736 157.856 208.565 155.108 209.593C154.713 209.741 154.264 209.573 154.108 209.218C153.953 208.864 154.148 208.458 154.542 208.312C156.254 207.677 158.12 207.676 159.806 208.308C161.492 208.94 162.811 210.134 163.521 211.678C163.603 211.856 163.599 212.048 163.525 212.215Z" fill="#F4F7FA"/>
</g>
<path d="M187.823 200.263C187.823 223.517 167.998 241.81 142.659 241.097C116.289 240.354 94.1113 219.465 94.1113 194.468C94.1113 169.471 116.289 151.325 142.659 153.843C167.998 156.263 187.823 177.008 187.823 200.263Z" fill="url(#paint11_linear_301_9321-962707)"/>
<path d="M194.67 198.257C194.67 221.512 174.845 239.805 149.506 239.091C123.136 238.349 100.958 217.46 100.958 192.463C100.958 167.465 123.136 149.319 149.506 151.838C174.845 154.258 194.67 175.003 194.67 198.257Z" fill="url(#paint12_linear_301_9321-861389)"/>
<path d="M192.681 198.133C192.681 220.364 173.712 237.822 149.506 237.103C124.361 236.356 103.249 216.421 103.249 192.603C103.249 168.785 124.361 151.461 149.506 153.824C173.712 156.099 192.681 175.903 192.681 198.133Z" fill="url(#paint13_linear_301_9321-592971)"/>
<path d="M191.257 198.045C191.257 219.542 172.902 236.404 149.506 235.684C125.234 234.936 104.88 215.682 104.88 192.704C104.88 169.726 125.234 152.989 149.506 155.243C172.902 157.416 191.257 176.548 191.257 198.045Z" fill="#A19B01"/>
<path d="M149.267 162.558C150.512 162.666 151.519 163.694 151.519 164.854V168.812C154.009 169.067 156.502 169.464 158.998 170.002C160.839 170.399 162.667 170.871 164.483 171.419C165.572 171.747 166.313 172.755 166.202 173.794L165.672 178.757C165.532 180.074 164.112 180.847 162.776 180.301C161.58 179.812 160.354 179.392 159.097 179.044C156.903 178.435 154.59 178.038 152.156 177.854L151.519 177.806V189.141C158.014 190.808 162.784 193.05 165.866 195.87C168.934 198.676 170.462 202.174 170.462 206.373C170.462 210.914 168.772 214.55 165.379 217.293C161.968 220.05 157.186 221.6 151.002 221.936V226.304C151.002 227.465 149.993 228.368 148.747 228.323L148.707 228.321C147.459 228.276 146.445 227.295 146.445 226.131V221.822L145.441 221.78C142.542 221.66 139.765 221.389 137.112 220.966C135.147 220.652 133.228 220.247 131.356 219.751C130.224 219.451 129.447 218.462 129.551 217.399L130.174 211.019C130.309 209.64 131.819 208.837 133.249 209.355C134.916 209.958 136.604 210.466 138.312 210.879C140.973 211.523 143.671 211.935 146.405 212.119L146.445 199.51C140.211 198.095 135.544 196 132.477 193.224C129.396 190.435 127.851 186.866 127.851 182.526C127.851 178.036 129.527 174.569 132.866 172.136C136.189 169.716 140.913 168.511 147.007 168.515V164.468C147.006 163.304 148.019 162.449 149.267 162.558ZM147.006 177.688C145.079 177.817 143.577 178.302 142.502 179.145C141.425 179.989 140.885 181.124 140.885 182.548C140.885 183.897 141.384 185.024 142.381 185.929C143.376 186.833 144.919 187.554 147.006 188.094V177.688H147.006ZM151.002 200.52V212.083C153.096 212.087 154.702 211.628 155.823 210.708C156.943 209.79 157.501 208.493 157.501 206.816C157.501 205.287 156.982 204.019 155.942 203.011C154.9 202.001 153.255 201.171 151.002 200.52Z" fill="url(#paint14_linear_301_9321-868864)"/>
<path opacity="0.3" d="M141.951 203.311C143.362 190.532 156.166 185.123 154.495 173.368C153.465 166.124 147.478 160.018 140.8 155.251C120.544 157.2 104.88 172.584 104.88 192.705C104.88 215.683 125.234 234.937 149.506 235.685C151.863 235.757 154.165 235.645 156.403 235.376C146.763 226.578 140.739 214.289 141.951 203.311Z" fill="url(#paint15_linear_301_9321-638294)"/>
<path d="M163.664 107.565C163.664 123.227 150.311 135.548 133.245 135.067C115.485 134.567 100.547 120.498 100.547 103.662C100.547 86.8262 115.485 74.6045 133.245 76.3008C150.311 77.9307 163.664 91.9028 163.664 107.565Z" fill="url(#paint16_linear_301_9321-574107)"/>
<path d="M168.275 106.215C168.275 121.877 154.923 134.198 137.857 133.717C120.096 133.217 105.159 119.148 105.159 102.312C105.159 85.4759 120.096 73.2543 137.857 74.9506C154.923 76.5805 168.275 90.5526 168.275 106.215Z" fill="url(#paint17_linear_301_9321-728213)"/>
<path d="M166.936 106.132C166.936 121.104 154.16 132.863 137.857 132.378C120.921 131.875 106.702 118.449 106.702 102.407C106.702 86.3653 120.921 74.6974 137.857 76.2888C154.16 77.8208 166.936 91.1591 166.936 106.132Z" fill="#93D9B9"/>
<path d="M165.976 106.072C165.976 120.551 153.614 131.908 137.857 131.422C121.509 130.919 107.8 117.951 107.8 102.475C107.8 86.9989 121.509 75.7265 137.857 77.2448C153.614 78.7084 165.976 91.5939 165.976 106.072Z" fill="#D7CE01"/>
<path d="M137.696 82.1704C138.534 82.2435 139.213 82.9358 139.213 83.7168V86.3826C140.889 86.5544 142.569 86.8217 144.25 87.1841C145.49 87.4513 146.721 87.7694 147.944 88.1383C148.677 88.3594 149.177 89.0379 149.102 89.738L148.745 93.0808C148.65 93.9677 147.694 94.4885 146.794 94.1205C145.989 93.791 145.163 93.5087 144.316 93.2737C142.839 92.8637 141.281 92.5964 139.641 92.4724L139.213 92.4401V100.075C143.587 101.197 146.799 102.707 148.875 104.606C150.941 106.497 151.971 108.852 151.971 111.681C151.971 114.739 150.833 117.188 148.547 119.035C146.25 120.892 143.029 121.936 138.864 122.162V125.104C138.864 125.886 138.185 126.494 137.346 126.464L137.319 126.463C136.478 126.432 135.795 125.772 135.795 124.988V122.085L135.119 122.057C133.166 121.976 131.296 121.794 129.509 121.509C128.185 121.297 126.893 121.025 125.632 120.691C124.869 120.489 124.346 119.822 124.416 119.107L124.836 114.81C124.927 113.881 125.944 113.34 126.907 113.689C128.03 114.095 129.166 114.437 130.317 114.715C132.109 115.149 133.926 115.427 135.768 115.55L135.795 107.058C131.596 106.105 128.452 104.694 126.387 102.824C124.312 100.946 123.271 98.5419 123.271 95.6192C123.271 92.5946 124.4 90.2598 126.649 88.6213C128.887 86.9909 132.069 86.1799 136.173 86.1819V83.4566C136.173 82.6729 136.855 82.097 137.696 82.1704ZM136.173 92.361C134.876 92.4476 133.864 92.7744 133.139 93.342C132.414 93.9106 132.051 94.6746 132.051 95.6336C132.051 96.5421 132.387 97.3016 133.058 97.9111C133.728 98.5198 134.767 99.0058 136.173 99.3689V92.361ZM138.864 107.739V115.526C140.275 115.529 141.357 115.22 142.112 114.6C142.866 113.982 143.242 113.108 143.242 111.979C143.242 110.949 142.892 110.095 142.192 109.416C141.49 108.736 140.382 108.177 138.864 107.739Z" fill="url(#paint18_linear_301_9321-660311)"/>
<path opacity="0.3" d="M132.768 109.618C133.718 101.011 142.342 97.3677 141.217 89.4511C140.523 84.5718 136.491 80.4597 131.993 77.249C118.35 78.5614 107.8 88.9228 107.8 102.475C107.8 117.951 121.509 130.919 137.857 131.422C139.444 131.471 140.994 131.396 142.502 131.214C136.009 125.289 131.952 117.012 132.768 109.618Z" fill="url(#paint19_linear_301_9321-225085)"/>
<path d="M262.089 224.847L272.267 333.843C272.53 336.655 271.6 339.296 269.646 341.187C267.974 342.813 265.729 343.916 263.108 344.118L113.181 355.699C106.829 356.19 101.388 352.046 100.937 346.494L91.5162 230.533C91.0727 225.075 95.7927 220.325 102.108 220.136L251.105 215.692C256.758 215.523 261.61 219.714 262.089 224.847Z" fill="#1D191F"/>
<path opacity="0.2" d="M269.811 341.188C268.139 342.814 265.833 343.915 263.212 344.117L113.232 355.699C106.88 356.19 101.388 352.047 100.937 346.494L91.5166 230.533C91.0732 225.075 95.7931 220.325 102.109 220.137L103.844 220.085C104.473 223.078 105.316 226.439 106.123 229.663C106.235 230.111 106.349 230.596 106.459 231.025C107.394 234.747 108.196 237.808 108.339 238.202C113.014 251.043 119.624 265.797 133.588 272.975C154.926 283.952 181.942 281.98 204.382 287.991C219.159 291.949 234.33 297.299 246.087 306.253C254.677 312.796 261.927 320.863 266.167 330.302C267.703 333.719 268.906 337.406 269.811 341.188Z" fill="#1D191F"/>
<g opacity="0.7">
<path d="M251.115 339.375C251.113 339.375 251.111 339.375 251.108 339.375L245.944 339.667C245.356 339.711 244.837 339.264 244.788 338.727C244.739 338.19 245.172 337.79 245.759 337.746L250.913 337.433C250.915 337.433 250.917 337.433 250.919 337.433C251.802 337.433 252.662 337.114 253.487 336.864C254.041 336.693 254.644 336.924 254.829 337.435C255.015 337.944 254.723 338.565 254.167 338.734C253.183 339.033 252.168 339.375 251.115 339.375ZM237.856 340.18L229.727 340.79C229.133 340.834 228.611 340.432 228.562 339.892C228.514 339.352 228.956 338.878 229.55 338.834L237.679 338.229C238.269 338.185 238.787 338.586 238.836 339.124C238.885 339.663 238.446 340.135 237.856 340.18ZM221.549 341.404L213.323 342.021C212.722 342.066 212.195 341.662 212.146 341.119C212.098 340.575 212.546 340.098 213.148 340.053L221.373 339.442C221.971 339.397 222.494 339.8 222.543 340.342C222.592 340.884 222.147 341.359 221.549 341.404ZM205.048 342.643L196.723 343.268C196.115 343.313 195.582 342.907 195.534 342.36C195.486 341.813 195.941 341.333 196.549 341.288L204.873 340.669C205.477 340.624 206.007 341.029 206.055 341.574C206.103 342.119 205.652 342.597 205.048 342.643ZM188.348 343.896L179.922 344.529C179.306 344.575 178.768 344.166 178.721 343.616C178.673 343.066 179.134 342.582 179.749 342.537L188.174 341.91C188.786 341.865 189.321 342.272 189.369 342.821C189.417 343.369 188.96 343.85 188.348 343.896ZM171.446 345.165L162.918 345.806C162.294 345.852 161.75 345.441 161.703 344.888C161.655 344.334 162.123 343.847 162.746 343.801L171.273 343.167C171.893 343.121 172.433 343.531 172.481 344.082C172.528 344.634 172.065 345.119 171.446 345.165ZM154.337 346.45L145.705 347.098C145.074 347.145 144.524 346.732 144.477 346.175C144.43 345.617 144.904 345.128 145.535 345.081L154.166 344.439C154.793 344.392 155.34 344.804 155.387 345.359C155.434 345.914 154.964 346.403 154.337 346.45ZM137.019 347.75L128.281 348.406C127.642 348.454 127.086 348.038 127.039 347.477C126.993 346.917 127.473 346.424 128.112 346.376L136.85 345.726C137.484 345.679 138.037 346.094 138.083 346.652C138.13 347.211 137.654 347.702 137.019 347.75ZM119.489 348.83C119.412 348.836 119.333 348.835 119.253 348.826C116.063 348.5 113.055 347.218 110.787 345.217C110.334 344.817 110.343 344.169 110.806 343.769C111.27 343.368 112.012 343.368 112.464 343.768C114.364 345.446 116.883 346.522 119.555 346.798C120.194 346.863 120.643 347.37 120.56 347.931C120.487 348.421 120.03 348.789 119.489 348.83ZM260.147 334.273C259.919 334.29 259.684 334.239 259.478 334.114C258.991 333.817 258.856 333.215 259.177 332.769C260.537 330.878 261.144 328.68 260.933 326.411C260.884 325.878 261.314 325.413 261.894 325.372C262.473 325.331 262.983 325.73 263.032 326.263C263.283 328.967 262.56 331.588 260.94 333.844C260.755 334.101 260.458 334.25 260.147 334.273ZM107.986 338.628C107.358 338.673 106.784 338.298 106.716 337.748C106.698 337.598 106.664 337.468 106.652 337.315L106.054 330.002C106.008 329.439 106.396 328.941 107.043 328.898C107.689 328.854 108.15 329.269 108.196 329.831L108.794 337.137C108.805 337.265 108.937 337.377 108.952 337.504C109.021 338.065 108.616 338.578 107.969 338.624C107.954 338.625 108 338.627 107.986 338.628ZM261.849 323.618C261.269 323.658 260.956 323.261 260.907 322.729L260.23 315.421C260.18 314.889 260.413 314.424 260.993 314.386C261.572 314.348 261.884 314.746 261.933 315.278L262.611 322.579C262.66 323.111 262.428 323.578 261.849 323.618ZM106.578 323.215C105.931 323.258 105.469 322.841 105.423 322.279L104.793 314.564C104.747 314.002 105.134 313.509 105.781 313.469C106.427 313.429 106.888 313.847 106.934 314.408L107.565 322.115C107.611 322.677 107.224 323.173 106.578 323.215ZM260.495 309.015C259.915 309.052 259.603 308.652 259.553 308.121L258.878 300.828C258.828 300.297 259.061 299.837 259.641 299.802C260.22 299.767 260.531 300.168 260.581 300.698L261.257 307.984C261.306 308.516 261.074 308.978 260.495 309.015ZM105.317 307.799C104.671 307.838 104.209 307.419 104.163 306.857L103.534 299.159C103.489 298.599 103.876 298.111 104.522 298.074C105.168 298.037 105.629 298.458 105.674 299.018L106.304 306.709C106.35 307.27 105.963 307.76 105.317 307.799ZM259.144 294.442C258.565 294.476 258.252 294.073 258.203 293.543L257.528 286.265C257.479 285.735 257.712 285.28 258.291 285.248C258.87 285.216 259.182 285.619 259.231 286.149L259.905 293.42C259.954 293.95 259.722 294.408 259.144 294.442ZM104.059 292.416C103.414 292.452 102.952 292.029 102.906 291.469L102.279 283.788C102.233 283.229 102.62 282.746 103.266 282.713C103.911 282.68 104.372 283.103 104.418 283.662L105.046 291.336C105.091 291.896 104.705 292.381 104.059 292.416ZM257.795 279.898C257.217 279.929 256.904 279.524 256.855 278.995L256.182 271.732C256.133 271.203 256.366 270.752 256.945 270.723C257.523 270.694 257.835 271.101 257.884 271.629L258.557 278.885C258.606 279.414 258.374 279.867 257.795 279.898ZM102.804 277.067C102.159 277.099 101.697 276.674 101.652 276.115L101.026 268.45C100.98 267.892 101.367 267.415 102.013 267.385C102.658 267.355 103.118 267.782 103.164 268.339L103.79 275.997C103.836 276.555 103.449 277.035 102.804 277.067ZM256.45 265.385C255.871 265.413 255.558 265.005 255.51 264.477L254.838 257.229C254.789 256.701 255.023 256.255 255.601 256.229C256.179 256.203 256.491 256.612 256.54 257.139L257.211 264.381C257.26 264.908 257.028 265.357 256.45 265.385ZM101.552 261.751C100.907 261.78 100.446 261.351 100.4 260.794L99.7753 253.146C99.7297 252.589 100.117 252.116 100.762 252.09C101.406 252.063 101.866 252.493 101.912 253.049L102.537 260.69C102.583 261.247 102.197 261.723 101.552 261.751ZM255.107 250.901C254.529 250.926 254.216 250.516 254.167 249.988L253.497 242.756C253.448 242.229 253.682 241.787 254.26 241.764C254.838 241.741 255.149 242.153 255.198 242.679L255.868 249.905C255.917 250.432 255.685 250.877 255.107 250.901ZM100.302 246.468C99.6576 246.493 99.1967 246.062 99.1512 245.506L98.6821 239.764C98.626 239.078 98.6554 238.387 98.7288 237.711C98.7894 237.159 99.3719 236.771 100.013 236.834C100.656 236.903 101.014 237.407 100.954 237.958C100.892 238.524 100.771 239.105 100.818 239.68L101.287 245.417C101.333 245.973 100.947 246.443 100.302 246.468ZM253.767 236.447C253.189 236.469 252.876 236.056 252.828 235.53L252.698 234.132C252.533 232.347 251.686 230.62 250.546 229.133C250.208 228.692 250.239 228.103 250.711 227.816C251.183 227.53 251.761 227.658 252.098 228.099C253.457 229.873 254.201 231.936 254.398 234.063L254.528 235.46C254.577 235.986 254.344 236.426 253.767 236.447ZM103.598 232.128C103.282 232.139 102.959 232.04 102.712 231.83C102.245 231.436 102.226 230.8 102.67 230.41C104.889 228.461 107.858 227.222 111.026 226.918C111.658 226.868 112.247 227.253 112.34 227.803C112.432 228.352 111.993 228.846 111.359 228.908C108.705 229.164 106.219 230.205 104.36 231.839C104.151 232.022 103.878 232.119 103.598 232.128ZM244.947 225.201C244.821 225.205 244.691 225.188 244.563 225.149C243.271 224.753 241.928 224.575 240.572 224.62L236.988 224.738C236.404 224.757 235.891 224.345 235.843 223.816C235.794 223.288 236.229 222.845 236.813 222.826L240.397 222.71C242.013 222.658 243.613 222.872 245.154 223.345C245.713 223.517 246.034 224.059 245.871 224.557C245.745 224.941 245.368 225.187 244.947 225.201ZM228.951 225.003L220.866 225.27C220.275 225.289 219.757 224.874 219.709 224.343C219.661 223.811 220.101 223.365 220.692 223.346L228.776 223.085C229.363 223.066 229.878 223.48 229.926 224.009C229.975 224.539 229.538 224.984 228.951 225.003ZM212.734 225.538L204.553 225.807C203.955 225.827 203.432 225.41 203.384 224.875C203.337 224.341 203.783 223.892 204.381 223.872L212.56 223.608C213.155 223.589 213.675 224.005 213.723 224.538C213.771 225.07 213.328 225.518 212.734 225.538ZM196.325 226.079L188.047 226.352C187.442 226.372 186.913 225.952 186.865 225.414C186.818 224.876 187.27 224.425 187.875 224.405L196.153 224.138C196.754 224.118 197.279 224.537 197.327 225.073C197.374 225.608 196.926 226.059 196.325 226.079ZM179.72 226.626L171.343 226.902C170.731 226.922 170.196 226.5 170.149 225.959C170.102 225.418 170.561 224.964 171.173 224.944L179.549 224.674C180.157 224.654 180.689 225.075 180.736 225.614C180.783 226.153 180.328 226.606 179.72 226.626ZM162.916 227.18L154.438 227.46C153.818 227.48 153.278 227.055 153.231 226.511C153.185 225.967 153.65 225.51 154.269 225.49L162.746 225.216C163.361 225.196 163.899 225.62 163.945 226.162C163.992 226.704 163.531 227.16 162.916 227.18ZM145.909 227.741L137.328 228.024C136.701 228.044 136.155 227.617 136.109 227.07C136.063 226.522 136.534 226.062 137.161 226.042L145.741 225.765C146.364 225.745 146.907 226.17 146.953 226.716C147 227.261 146.532 227.72 145.909 227.741ZM128.696 228.308L120.01 228.595C119.375 228.616 118.823 228.186 118.777 227.635C118.731 227.084 119.209 226.621 119.844 226.601L128.529 226.32C129.159 226.3 129.708 226.728 129.754 227.277C129.8 227.826 129.326 228.288 128.696 228.308Z" fill="white"/>
</g>
<path d="M268.131 254.865C267.217 254.354 266.123 254.274 265.169 254.652L234.682 266.615C230.308 268.349 227.323 272.412 227.719 276.782L228.771 288.396C229.192 293.045 233.291 296.931 238.314 297.946L269.864 304.282C270.862 304.484 271.942 304.243 272.7 303.634C273.457 303.024 273.899 302.117 273.812 301.185L269.692 257.218C269.602 256.256 269.043 255.376 268.131 254.865Z" fill="#546286"/>
<path d="M247.99 281.269C248.285 284.482 245.665 287.248 242.128 287.446C238.583 287.644 235.463 285.187 235.169 281.958C234.875 278.731 237.517 275.968 241.061 275.784C244.596 275.602 247.694 278.057 247.99 281.269Z" fill="#1D191F"/>
<defs>
<linearGradient id="paint0_linear_301_9321-827735" x1="372.806" y1="347.938" x2="364.385" y2="363.023" gradientUnits="userSpaceOnUse">
<stop stop-color="#FFC444"/>
<stop offset="0.9964" stop-color="#F36F56"/>
</linearGradient>
<linearGradient id="paint1_linear_301_9321-732438" x1="389.63" y1="372.037" x2="397.724" y2="353.773" gradientUnits="userSpaceOnUse">
<stop stop-color="#FFC444"/>
<stop offset="0.9964" stop-color="#F36F56"/>
</linearGradient>
<linearGradient id="paint2_linear_301_9321-310104" x1="148.006" y1="234.897" x2="152.341" y2="218.363" gradientUnits="userSpaceOnUse">
<stop stop-color="#FF9085"/>
<stop offset="1" stop-color="#FB6FBB"/>
</linearGradient>
<linearGradient id="paint3_linear_301_9321-524757" x1="144.669" y1="232.768" x2="148.605" y2="217.757" gradientUnits="userSpaceOnUse">
<stop stop-color="#FF9085"/>
<stop offset="1" stop-color="#FB6FBB"/>
</linearGradient>
<linearGradient id="paint4_linear_301_9321-551124" x1="148.401" y1="234.183" x2="152.339" y2="219.164" gradientUnits="userSpaceOnUse">
<stop stop-color="#FF9085"/>
<stop offset="1" stop-color="#FB6FBB"/>
</linearGradient>
<linearGradient id="paint5_linear_301_9321-608319" x1="152.137" y1="235.601" x2="156.077" y2="220.573" gradientUnits="userSpaceOnUse">
<stop stop-color="#FF9085"/>
<stop offset="1" stop-color="#FB6FBB"/>
</linearGradient>
<linearGradient id="paint6_linear_301_9321-972975" x1="149.513" y1="231.496" x2="151.993" y2="222.038" gradientUnits="userSpaceOnUse">
<stop stop-color="#FF9085"/>
<stop offset="1" stop-color="#FB6FBB"/>
</linearGradient>
<linearGradient id="paint7_linear_301_9321-891961" x1="186.249" y1="260.138" x2="256.13" y2="26.7544" gradientUnits="userSpaceOnUse">
<stop stop-color="#FB6FBB"/>
<stop offset="1" stop-color="#FF9085"/>
</linearGradient>
<linearGradient id="paint8_linear_301_9321-790324" x1="194.702" y1="253.528" x2="203.392" y2="220.384" gradientUnits="userSpaceOnUse">
<stop stop-color="#FB6FBB"/>
<stop offset="1" stop-color="#FF9085"/>
</linearGradient>
<linearGradient id="paint9_linear_301_9321-071833" x1="215.743" y1="207.271" x2="227.059" y2="164.113" gradientUnits="userSpaceOnUse">
<stop stop-color="#FB6FBB"/>
<stop offset="1" stop-color="#FF9085"/>
</linearGradient>
<linearGradient id="paint10_linear_301_9321-877136" x1="175.082" y1="144.084" x2="178.577" y2="120.907" gradientUnits="userSpaceOnUse">
<stop stop-color="#FF9085"/>
<stop offset="1" stop-color="#FB6FBB"/>
</linearGradient>
<linearGradient id="paint11_linear_301_9321-962707" x1="124.907" y1="202.081" x2="71.2013" y2="220.873" gradientUnits="userSpaceOnUse">
<stop stop-color="#FCB148"/>
<stop offset="0.0521" stop-color="#FDBA46"/>
<stop offset="0.1424" stop-color="#FFC244"/>
<stop offset="0.3183" stop-color="#FFC444"/>
<stop offset="0.4849" stop-color="#FDB946"/>
<stop offset="0.7754" stop-color="#F99C4D"/>
<stop offset="0.8658" stop-color="#F8924F"/>
<stop offset="1" stop-color="#F8924F"/>
</linearGradient>
<linearGradient id="paint12_linear_301_9321-861389" x1="169.117" y1="152.185" x2="126.93" y2="253.658" gradientUnits="userSpaceOnUse">
<stop stop-color="#FFDB44"/>
<stop offset="1" stop-color="#FEEF06"/>
</linearGradient>
<linearGradient id="paint13_linear_301_9321-592971" x1="160.142" y1="256.43" x2="152.182" y2="209.015" gradientUnits="userSpaceOnUse">
<stop stop-color="#FCB148"/>
<stop offset="0.0521" stop-color="#FDBA46"/>
<stop offset="0.1424" stop-color="#FFC244"/>
<stop offset="0.3183" stop-color="#FFC444"/>
<stop offset="0.4849" stop-color="#FDB946"/>
<stop offset="0.7754" stop-color="#F99C4D"/>
<stop offset="0.8658" stop-color="#F8924F"/>
<stop offset="1" stop-color="#F8924F"/>
</linearGradient>
<linearGradient id="paint14_linear_301_9321-868864" x1="138.637" y1="163.824" x2="155.224" y2="231.599" gradientUnits="userSpaceOnUse">
<stop stop-color="#FFDB44"/>
<stop offset="1" stop-color="#FEEF06"/>
</linearGradient>
<linearGradient id="paint15_linear_301_9321-638294" x1="128.769" y1="184.968" x2="162.308" y2="262.593" gradientUnits="userSpaceOnUse">
<stop stop-color="#FCB148"/>
<stop offset="0.0521" stop-color="#FDBA46"/>
<stop offset="0.1424" stop-color="#FFC244"/>
<stop offset="0.3183" stop-color="#FFC444"/>
<stop offset="0.4849" stop-color="#FDB946"/>
<stop offset="0.7754" stop-color="#F99C4D"/>
<stop offset="0.8658" stop-color="#F8924F"/>
<stop offset="1" stop-color="#F8924F"/>
</linearGradient>
<linearGradient id="paint16_linear_301_9321-574107" x1="121.289" y1="108.79" x2="85.1172" y2="121.446" gradientUnits="userSpaceOnUse">
<stop stop-color="#FCB148"/>
<stop offset="0.0521" stop-color="#FDBA46"/>
<stop offset="0.1424" stop-color="#FFC244"/>
<stop offset="0.3183" stop-color="#FFC444"/>
<stop offset="0.4849" stop-color="#FDB946"/>
<stop offset="0.7754" stop-color="#F99C4D"/>
<stop offset="0.8658" stop-color="#F8924F"/>
<stop offset="1" stop-color="#F8924F"/>
</linearGradient>
<linearGradient id="paint17_linear_301_9321-728213" x1="151.065" y1="75.1843" x2="122.652" y2="143.528" gradientUnits="userSpaceOnUse">
<stop stop-color="#FFDB44"/>
<stop offset="1" stop-color="#FEEF06"/>
</linearGradient>
<linearGradient id="paint18_linear_301_9321-660311" x1="130.536" y1="83.0229" x2="141.708" y2="128.671" gradientUnits="userSpaceOnUse">
<stop stop-color="#FFDB44"/>
<stop offset="1" stop-color="#FEEF06"/>
</linearGradient>
<linearGradient id="paint19_linear_301_9321-225085" x1="123.89" y1="97.2634" x2="146.479" y2="149.545" gradientUnits="userSpaceOnUse">
<stop stop-color="#FCB148"/>
<stop offset="0.0521" stop-color="#FDBA46"/>
<stop offset="0.1424" stop-color="#FFC244"/>
<stop offset="0.3183" stop-color="#FFC444"/>
<stop offset="0.4849" stop-color="#FDB946"/>
<stop offset="0.7754" stop-color="#F99C4D"/>
<stop offset="0.8658" stop-color="#F8924F"/>
<stop offset="1" stop-color="#F8924F"/>
</linearGradient>
</defs>
</svg>
