<svg width="406" height="332" viewBox="0 0 406 332" fill="none" xmlns="http://www.w3.org/2000/svg">
<path d="M358.549 284.681C350.276 291.808 342.449 296.403 336.264 300.034C263.568 342.714 177.548 330.273 159.267 327.235C132.271 322.748 80.0879 314.076 42.3607 277.774C-14.7176 222.851 -5.82967 136.322 38.444 79.2025C46.5423 68.7544 89.3203 10.7653 176.266 1.46567C228.885 -4.16232 290.221 7.18867 334.639 37.6385C427.877 101.555 421.24 230.678 358.549 284.681Z" fill="url(#paint0_linear_301_9243-527432)"/>
<path d="M204.759 318.448C204.759 318.448 284.142 152.347 402.07 134.202C404.163 133.88 406.069 135.265 405.967 137.026C404.775 157.515 389.668 265.948 204.759 318.448Z" fill="#5D80D9"/>
<path opacity="0.62" d="M380.883 161.144C374.862 168.261 368.552 175.192 362.155 182.07C360.558 183.791 358.925 185.489 357.312 187.199C355.686 188.901 354.095 190.626 352.44 192.309L347.495 197.371C345.839 199.053 344.218 200.759 342.522 202.414C339.153 205.739 335.815 209.087 332.419 212.392L322.125 222.237C315.141 228.711 308.162 235.19 300.964 241.504L295.607 246.271C293.842 247.877 291.971 249.399 290.159 250.967L279.225 260.333L268.009 269.469C266.135 270.988 264.279 272.523 262.369 274.011L256.583 278.426C252.719 281.362 248.894 284.336 244.964 287.213L233.015 295.693L230.015 297.799C229.006 298.492 228.026 299.214 226.994 299.885L220.822 303.926C218.77 305.278 216.69 306.601 214.625 307.939C212.559 309.275 210.49 310.607 208.409 311.926C208.249 312.027 208.021 312.002 207.899 311.87C207.782 311.743 207.806 311.563 207.951 311.459L207.961 311.452C209.949 310.039 211.95 308.639 213.953 307.243C215.958 305.848 217.947 304.438 219.965 303.058L226.001 298.902C227.991 297.494 229.919 296.027 231.894 294.605L243.713 286.049L255.29 277.267L261.083 272.88C262.051 272.151 262.972 271.381 263.921 270.635L266.761 268.391L278.118 259.41C285.505 253.267 293.015 247.219 300.148 240.868C303.751 237.721 307.396 234.606 310.876 231.365C314.385 228.146 317.926 224.951 321.41 221.713L331.74 211.911C335.148 208.619 338.498 205.285 341.88 201.973C343.583 200.325 345.21 198.626 346.872 196.951L351.837 191.909C353.498 190.232 355.096 188.514 356.728 186.818C358.348 185.114 359.987 183.423 361.591 181.709C367.982 174.839 374.283 167.902 380.284 160.803L380.288 160.798C380.403 160.662 380.63 160.629 380.794 160.724C380.958 160.82 380.998 161.008 380.883 161.143L380.883 161.144Z" fill="white"/>
<g opacity="0.79">
<path d="M185.522 223.187C185.522 223.187 224.113 76.5113 340.611 0.477543C342.13 -0.513823 344.378 0.113168 344.842 1.66823C352.17 26.2289 390.324 182.885 185.522 223.187Z" fill="#A4B8EA"/>
<path opacity="0.62" d="M328.242 42.7909C326.904 47.046 325.347 51.238 323.705 55.411C322.059 59.5818 320.331 63.7308 318.494 67.8473C314.809 76.0764 310.797 84.2062 306.472 92.2217C305.4 94.2286 304.268 96.2137 303.169 98.2112C302.063 100.206 300.869 102.166 299.722 104.145C298.585 106.128 297.354 108.073 296.161 110.033L294.354 112.966L292.485 115.872C287.505 123.624 282.259 131.264 276.605 138.697C270.934 146.117 265.041 153.429 258.682 160.463C257.895 161.346 257.123 162.239 256.324 163.115L253.884 165.717L251.445 168.319C250.627 169.183 249.834 170.064 248.976 170.902L243.911 175.983L242.639 177.249L241.321 178.483L238.686 180.951C224.704 194.164 209.054 206.159 192.132 216.719C191.993 216.806 191.794 216.783 191.689 216.667C191.587 216.555 191.611 216.395 191.741 216.307L191.748 216.302L197.892 212.152L200.968 210.084L203.946 207.918L209.893 203.582L215.644 199.069C216.595 198.311 217.576 197.578 218.513 196.809L221.298 194.476C223.145 192.913 225.031 191.383 226.846 189.795C230.413 186.571 234.065 183.412 237.461 180.061L240.051 177.581L241.345 176.341L242.594 175.069L247.603 169.99C248.453 169.153 249.239 168.274 250.049 167.411L252.465 164.813L254.881 162.216C255.674 161.342 256.438 160.45 257.218 159.569C263.516 152.549 269.351 145.251 274.964 137.846C280.607 130.454 285.881 122.868 290.872 115.16L292.748 112.27L294.561 109.353C295.76 107.405 296.994 105.471 298.137 103.498C300.481 99.578 302.744 95.6253 304.972 91.658C309.394 83.7108 313.503 75.6424 317.296 67.4729C319.221 63.3965 321.038 59.2859 322.774 55.1513C323.644 53.085 324.482 51.0093 325.293 48.9265C326.116 46.8476 326.903 44.7551 327.629 42.6577L327.631 42.6525C327.679 42.5135 327.855 42.433 328.022 42.473C328.188 42.5125 328.284 42.6539 328.242 42.7909Z" fill="white"/>
</g>
<g opacity="0.76">
<path d="M124.981 215.315C124.981 215.315 109.932 85.201 18.7073 9.48672C17.5179 8.49955 15.496 8.84901 14.9007 10.1537C5.49844 30.7601 -47.0479 162.928 124.981 215.315Z" fill="#A4B8EA"/>
<path opacity="0.62" d="M24.7045 47.0613C26.2617 54.5635 28.2761 62.014 30.5792 69.3889C32.8461 76.7737 35.3975 84.0977 38.2349 91.3438C39.6702 94.962 41.1352 98.572 42.6727 102.161C43.4146 103.963 44.2409 105.74 45.0341 107.527L46.2377 110.203L47.4993 112.861C50.8533 119.95 54.4681 126.956 58.4233 133.828C62.3481 140.709 66.4778 147.518 71.0424 154.125C71.6062 154.954 72.1553 155.79 72.7304 156.613L74.4938 159.066L76.2573 161.518C76.8495 162.333 77.4186 163.16 78.0479 163.956L81.7411 168.776L82.6603 169.983L83.6232 171.166L85.5492 173.533C88.0631 176.721 90.8215 179.766 93.4996 182.86C94.8684 184.389 96.3056 185.874 97.7056 187.384L99.8189 189.64C100.532 190.386 101.288 191.103 102.014 191.841L106.414 196.239L111.006 200.501L113.306 202.631L115.703 204.685L120.487 208.806L120.493 208.811C120.614 208.915 120.61 209.081 120.484 209.181C120.361 209.279 120.168 209.278 120.046 209.182C106.708 198.622 94.6585 186.915 84.2055 174.296L82.2325 171.937L81.2457 170.757L80.303 169.554L76.5541 164.727C75.9171 163.929 75.3406 163.099 74.7411 162.282L72.9556 159.823L71.1702 157.364C70.5877 156.538 70.0314 155.7 69.4606 154.868C64.8379 148.242 60.652 141.414 56.6721 134.512C52.7122 127.599 49.1325 120.541 45.7965 113.41L44.5437 110.736L43.3489 108.044C42.5617 106.247 41.7415 104.459 41.0056 102.647C40.2624 100.837 39.4748 99.0395 38.7679 97.2195C38.0689 95.3974 37.3403 93.5832 36.6655 91.7553C31.2424 77.1419 26.7365 62.2753 24.0775 47.1334C24.0525 46.9905 24.1721 46.8574 24.3452 46.8365C24.5152 46.8162 24.6732 46.9115 24.7024 47.0509L24.7045 47.0613Z" fill="white"/>
</g>
<path d="M44.0859 17.2247C42.7795 68.2843 38.543 244.408 40.5654 306.82C40.7797 313.432 46.2499 318.739 53.0737 318.956C86.8232 320.026 210.547 322.738 265.75 320.494C277.248 320.027 286.391 311.003 286.63 299.854C287.777 246.261 290.308 95.5227 284.293 26.4695C283.572 18.196 276.87 11.6074 268.343 10.7808C231.589 7.21804 107.333 -1.49084 59.6407 1.50809C51.0393 2.04894 44.2995 8.87555 44.0859 17.2247Z" fill="#1E397D"/>
<path d="M59.1451 32.8894C57.3285 74.1022 51.5984 211.207 53.4169 261.905C53.6828 269.316 59.7102 275.307 67.3495 275.741C98.8024 277.524 206.112 281.456 252.246 277.877C260.553 277.232 267.071 270.723 267.52 262.659C269.858 220.614 276.57 92.9502 274.827 42.8199C274.549 34.8227 268.155 28.2916 259.931 27.5761C225.904 24.6158 111.875 17.5721 72.6721 19.6446C65.313 20.0337 59.4596 25.7546 59.1451 32.8894Z" fill="#5D80D9"/>
<path d="M143.515 11.6362C143.515 13.2029 144.775 14.4951 146.389 14.5769C154.361 14.9813 176.816 16.1259 186.852 16.69C188.831 16.8013 190.384 15.0778 190.009 13.1921L189.945 12.8703C189.688 11.5835 188.587 10.615 187.24 10.4954C180.457 9.89302 159.987 8.22291 146.425 8.69207C144.796 8.74861 143.515 10.0567 143.515 11.6362Z" fill="#5D80D9"/>
<path d="M159.2 119.328C185.198 119.328 206.275 101.871 206.275 80.337C206.275 58.8029 185.198 41.3461 159.2 41.3461C133.201 41.3461 112.125 58.8029 112.125 80.337C112.125 101.871 133.201 119.328 159.2 119.328Z" fill="#5D80D9"/>
<path d="M173.612 65.6043C173.612 72.2064 167.151 79.3339 159.18 79.3339C151.209 79.3339 144.747 72.2064 144.747 65.6043C144.747 59.0022 151.209 54.3184 159.18 54.3184C167.151 54.3184 173.612 59.0022 173.612 65.6043Z" fill="white"/>
<path d="M141.269 104.753H176.501C180.21 104.753 183.494 102.767 184.624 99.8414L186.52 94.9334C187.908 91.3398 185.651 87.449 181.373 86.1535C167.034 81.8111 152.208 82.3683 137.02 86.5542C132.765 87.7268 130.404 91.4965 131.578 95.081L133.038 99.5384C134.046 102.616 137.419 104.753 141.269 104.753Z" fill="white"/>
<g opacity="0.71">
<path opacity="0.65" d="M249.488 181.598H77.6823C77.1577 181.598 76.7324 181.246 76.7324 180.811V160.25C76.7324 159.815 77.1577 159.463 77.6823 159.463H249.488C250.013 159.463 250.438 159.815 250.438 160.25V180.811C250.438 181.246 250.013 181.598 249.488 181.598Z" fill="white"/>
<path opacity="0.65" d="M248.55 217.713H76.7439C76.2192 217.713 75.7939 217.36 75.7939 216.926V196.365C75.7939 195.93 76.2192 195.578 76.7439 195.578H248.55C249.074 195.578 249.5 195.93 249.5 196.365V216.926C249.5 217.36 249.074 217.713 248.55 217.713Z" fill="white"/>
<path opacity="0.65" d="M215.006 260.787H105.136C104.489 260.787 103.964 260.352 103.964 259.816V233.538C103.964 233.001 104.489 232.567 105.136 232.567H215.006C215.654 232.567 216.179 233.001 216.179 233.538V259.816C216.179 260.352 215.654 260.787 215.006 260.787Z" fill="white"/>
</g>
<path opacity="0.75" d="M186.202 176.774H86.1163C85.1837 176.774 84.4277 176.148 84.4277 175.375V165.875C84.4277 165.103 85.1837 164.476 86.1163 164.476H186.202C187.134 164.476 187.89 165.103 187.89 165.875V175.375C187.891 176.148 187.135 176.774 186.202 176.774Z" fill="white"/>
<g opacity="0.75">
<path d="M90.3617 210.696C93.4718 209.629 94.9488 206.676 93.6605 204.1C92.3722 201.524 88.8065 200.3 85.6964 201.367C82.5862 202.434 81.1093 205.388 82.3976 207.964C83.6859 210.54 87.2515 211.763 90.3617 210.696Z" fill="white"/>
<path d="M104.745 211.336C108.111 211.336 110.84 209.076 110.84 206.288C110.84 203.499 108.111 201.239 104.745 201.239C101.378 201.239 98.6494 203.499 98.6494 206.288C98.6494 209.076 101.378 211.336 104.745 211.336Z" fill="white"/>
<path d="M126.766 208.115C127.54 205.401 125.511 202.682 122.235 202.041C118.959 201.401 115.676 203.081 114.902 205.794C114.129 208.508 116.157 211.227 119.433 211.868C122.71 212.509 125.992 210.828 126.766 208.115Z" fill="white"/>
<path d="M137.565 212.243C140.931 212.243 143.66 209.983 143.66 207.194C143.66 204.406 140.931 202.146 137.565 202.146C134.198 202.146 131.469 204.406 131.469 207.194C131.469 209.983 134.198 212.243 137.565 212.243Z" fill="white"/>
<path d="M154.286 212.112C157.653 212.112 160.381 209.852 160.381 207.064C160.381 204.275 157.653 202.015 154.286 202.015C150.92 202.015 148.191 204.275 148.191 207.064C148.191 209.852 150.92 212.112 154.286 212.112Z" fill="white"/>
<path d="M171.01 212.372C174.377 212.372 177.106 210.112 177.106 207.324C177.106 204.536 174.377 202.275 171.01 202.275C167.644 202.275 164.915 204.536 164.915 207.324C164.915 210.112 167.644 212.372 171.01 212.372Z" fill="white"/>
</g>
<path d="M240.614 223.804L259.287 227.67L254.619 256.67C254.619 256.67 261.622 262.47 263.956 270.203C266.29 277.937 268.442 310.408 268.442 310.408L272.873 312.626L273.412 314.478L260.521 328.834L262.659 317.408C262.998 315.594 262.41 311.916 262.595 311.839C255.593 296.372 240.614 252.804 240.614 252.804V223.804Z" fill="url(#paint1_linear_301_9243-640486)"/>
<path d="M235.158 314.677C235.36 314.674 235.559 314.687 235.762 314.677C234.86 305.353 230.736 264.317 226.61 248.936C221.941 231.536 233.612 196.737 233.612 196.737L254.62 214.137L242.949 247.003C250.947 256.94 241.644 315.131 241.844 315.106L241.832 315.235L244.877 318.704L244.507 320.584L225.903 329.676L233.223 319.831C234.385 318.268 235.027 316.496 235.158 314.677Z" fill="url(#paint2_linear_301_9243-479426)"/>
<path d="M258.787 119.567C258.787 119.567 299.688 157.749 258.787 177.326L254.619 174.827C254.619 174.827 274.926 158.721 254.619 139.005L258.787 119.567Z" fill="url(#paint3_linear_301_9243-724172)"/>
<path d="M224.678 331.102H230.615C231.726 331.102 232.774 330.68 233.451 329.95C235.302 327.958 239.137 324.072 240.97 323.971C243.438 323.834 243.123 331.102 243.123 331.102H244.506L246.259 322.071C246.699 319.799 245.335 317.548 242.871 316.483C242.871 316.483 242.307 319.939 239.248 321.468C236.189 322.997 226.799 328.471 226.799 328.471C226.799 328.471 225.648 328.335 224.386 328.524C222.513 328.805 222.774 331.102 224.678 331.102Z" fill="#5D80D9"/>
<path d="M260.059 330.542L265.532 328.635C266.556 328.278 267.324 327.552 267.607 326.662C268.381 324.232 270.096 319.418 271.738 318.736C273.949 317.817 277.061 324.618 277.061 324.618L278.336 324.173L275.723 315.286C275.066 313.05 272.754 311.413 269.985 311.223C269.985 311.223 271.083 314.59 268.979 316.982C266.875 319.373 260.782 327.436 260.782 327.436C260.782 327.436 259.659 327.68 258.583 328.26C256.988 329.12 258.305 331.154 260.059 330.542Z" fill="#5D80D9"/>
<path d="M228.262 167.315C228.262 167.315 228.948 170.8 227.943 180.381C226.937 189.961 222.129 212.453 223.108 233.974C223.108 233.974 236.775 236.612 260.521 235.363C260.521 235.363 270.542 201.762 268.1 188.989C265.659 176.215 252.416 167.051 252.416 167.051L228.262 167.315Z" fill="url(#paint4_linear_301_9243-726346)"/>
<path d="M238.361 103.297L236.69 119.567H252.561L248.615 94.7327L238.361 103.297Z" fill="url(#paint5_linear_301_9243-503844)"/>
<path d="M257.263 117.317C251.785 117.067 239.539 116.604 230.864 116.995C226.296 117.202 222.47 119.916 221.535 123.625L219.419 132.024C218.631 135.152 218.749 138.391 219.763 141.474L228.262 167.315C228.262 167.315 235.822 171.078 252.417 167.051C252.417 167.051 266.991 138.265 261.026 119.851C260.562 118.421 259.048 117.399 257.263 117.317Z" fill="url(#paint6_linear_301_9243-307721)"/>
<path d="M221.95 122.119C219.612 127.219 217.501 132.568 215.232 137.577C214.079 140.084 212.909 142.541 211.658 144.798C211.025 145.923 210.329 146.955 209.691 147.892C209.052 148.819 208.332 149.59 207.958 149.945C207.884 149.998 208.13 150.038 208.213 150.041C208.262 150.046 206.632 150.262 206.132 150.332L204.179 150.322C201.378 150.203 198.207 149.794 195.025 149.282C188.609 148.291 181.937 146.9 175.087 145.847L175.034 145.839C173.724 145.638 172.464 146.355 172.221 147.44C172.06 148.156 172.386 148.856 172.999 149.306C175.761 151.32 178.689 152.974 181.726 154.584C183.255 155.358 184.81 156.117 186.391 156.846C188.003 157.526 189.62 158.213 191.299 158.847C194.679 160.067 198.172 161.191 202.195 161.913C203.252 162.059 204.296 162.213 205.384 162.334C206.604 162.369 207.712 162.458 209.044 162.394C209.752 162.336 210.463 162.264 211.173 162.179C211.551 162.124 211.829 162.118 212.287 162.013C212.773 161.892 213.258 161.757 213.736 161.608C214.735 161.311 215.381 160.952 216.192 160.578C216.866 160.21 217.481 159.825 218.076 159.431C220.276 157.879 221.642 156.339 222.846 154.86C224.046 153.383 224.997 151.903 225.851 150.452C227.565 147.555 228.903 144.684 229.988 141.793C232.188 136 233.678 130.306 234.307 124.258C234.609 121.361 232.018 118.811 228.52 118.561C225.626 118.355 223.017 119.789 222.033 121.932L221.95 122.119Z" fill="url(#paint7_linear_301_9243-584618)"/>
<path d="M177.244 148.446L174.411 142.878L159.505 139.802C159.505 139.802 158.313 141.942 164.573 142.878C164.573 142.878 162.337 144.925 163.53 147.333C164.723 149.74 177.393 152.152 177.244 148.446Z" fill="url(#paint8_linear_301_9243-158654)"/>
<path d="M231.641 84.5079C231.074 84.7848 226.609 97.8284 230.351 103.297C234.093 108.766 245.518 102.641 248.615 94.7325C251.711 86.8245 246.736 77.1343 231.641 84.5079Z" fill="url(#paint9_linear_301_9243-456663)"/>
<path d="M261.255 94.7333C263.818 105.134 272.309 102.287 278.324 106.914C288.072 114.414 302.016 106.683 315.573 113.789C325.359 118.92 330.074 132.046 325.378 142.643C318.873 157.32 296.644 163.356 285.124 158.886C274.114 154.614 275.682 141.817 260.868 136.872C254.579 134.773 251.475 136.137 247.708 133.025C241.115 127.578 242.894 117.007 243.579 112.935C245.067 104.098 248.644 102.498 246.934 98.6149C243.609 91.0613 228.099 92.6198 226.807 87.2873C225.63 82.4313 236.871 73.2269 247.45 74.6774C263.818 76.9214 260.113 90.0999 261.255 94.7333Z" fill="#1E397D"/>
<path opacity="0.6" d="M320.489 140.157C320.684 140.157 320.858 140.048 320.906 139.885C323.001 132.68 322.051 126.77 318.079 122.32C311.487 114.936 298.677 114.205 298.548 114.199C298.346 114.171 298.109 114.335 298.094 114.532C298.08 114.727 298.259 114.896 298.496 114.907C298.62 114.913 311.044 115.628 317.393 122.747C321.205 127.019 322.106 132.729 320.072 139.719C320.017 139.909 320.159 140.102 320.389 140.147C320.422 140.154 320.457 140.157 320.489 140.157Z" fill="white"/>
<path opacity="0.72" d="M278.532 146.753C278.549 146.753 278.568 146.751 278.586 146.748C278.7 146.723 278.768 146.626 278.739 146.531C276.698 140.044 273.116 135.539 268.094 133.14C264.441 131.394 261.02 131.232 258.002 131.088C255.092 130.95 252.579 130.83 250.556 129.34C246.375 126.26 246.617 118.855 251.276 107.331C251.313 107.238 251.252 107.138 251.14 107.107C251.027 107.075 250.907 107.126 250.869 107.219C246.15 118.89 245.95 126.422 250.271 129.605C252.406 131.177 254.987 131.301 257.978 131.443C260.948 131.584 264.315 131.744 267.88 133.447C272.799 135.797 276.313 140.229 278.324 146.621C278.349 146.701 278.436 146.753 278.532 146.753Z" fill="white"/>
<path opacity="0.72" d="M255.191 92.1516C255.214 92.1516 255.236 92.1489 255.26 92.1426C255.372 92.1115 255.433 92.0102 255.395 91.9173C253.772 87.9189 249.097 88.5131 244.143 89.1438C241.008 89.5431 237.767 89.9541 235.018 89.2804C232.966 88.7765 231.748 87.996 231.395 86.9595C230.793 85.1954 232.901 83.228 232.922 83.208C233.001 83.1352 232.994 83.0229 232.906 82.9577C232.819 82.892 232.682 82.8981 232.604 82.9709C232.51 83.0569 230.318 85.1012 230.982 87.0553C231.377 88.2164 232.694 89.0795 234.895 89.6202C237.738 90.3176 241.027 89.8995 244.209 89.4948C249.181 88.8625 253.48 88.3142 254.988 92.0312C255.018 92.1052 255.102 92.1516 255.191 92.1516Z" fill="white"/>
<g opacity="0.3">
<path d="M99.6368 295.502C99.9907 296.122 99.7574 296.885 99.0722 297.263C97.574 298.088 96.0117 298.869 94.4297 299.584C93.6599 299.932 92.7104 299.67 92.3089 299C92.3042 298.992 92.2997 298.984 92.2952 298.976C91.9147 298.31 92.2149 297.5 92.9754 297.157C94.4785 296.478 95.9622 295.736 97.3855 294.952C98.1179 294.548 99.0896 294.738 99.5553 295.377C99.5856 295.418 99.6124 295.46 99.6368 295.502ZM87.3336 300.705C87.361 300.753 87.3856 300.803 87.4068 300.855C87.6997 301.566 87.2747 302.349 86.4576 302.602C84.779 303.121 83.0582 303.584 81.3429 303.975C80.5038 304.167 79.6466 303.733 79.4204 303C79.1982 302.27 79.6985 301.522 80.537 301.331C82.1673 300.958 83.802 300.519 85.3972 300.025C86.155 299.79 86.9837 300.093 87.3336 300.705ZM74.0132 303.42C74.0911 303.556 74.1441 303.706 74.1663 303.866C74.2694 304.616 73.655 305.296 72.7932 305.384C71.0268 305.565 69.2288 305.682 67.4494 305.73C66.5817 305.753 65.8556 305.16 65.8255 304.406C65.7964 303.652 66.4761 303.021 67.3436 302.997C69.0333 302.951 70.7401 302.84 72.4179 302.668C73.096 302.599 73.7254 302.916 74.0132 303.42ZM60.3195 303.473C60.4484 303.699 60.5072 303.958 60.4744 304.226C60.3828 304.977 59.6084 305.519 58.7454 305.438C56.9748 305.27 55.1911 305.034 53.4438 304.736C52.5926 304.59 52.0356 303.872 52.1998 303.131C52.3649 302.39 53.1897 301.907 54.042 302.052C55.7012 302.336 57.3953 302.56 59.078 302.719C59.6322 302.772 60.0881 303.069 60.3195 303.473ZM46.9487 300.869C47.1294 301.185 47.1704 301.561 47.0287 301.921C46.7477 302.635 45.854 303.014 45.033 302.768C43.3526 302.264 41.6728 301.691 40.0415 301.063C39.2465 300.758 38.8851 299.951 39.2348 299.26C39.5842 298.569 40.5114 298.257 41.3063 298.562C42.8569 299.159 44.4535 299.704 46.0505 300.183C46.4579 300.305 46.771 300.558 46.9487 300.869ZM34.5671 295.758C34.8011 296.168 34.7946 296.67 34.4985 297.086C34.0426 297.728 33.0746 297.926 32.3357 297.528C30.8216 296.712 29.3283 295.83 27.8985 294.906C27.2007 294.454 27.0545 293.598 27.5715 292.992C28.0879 292.387 29.0724 292.261 29.7699 292.712C31.1288 293.591 32.547 294.429 33.9857 295.204C34.2449 295.343 34.4408 295.537 34.5671 295.758ZM5.5537 252.294C5.65066 252.464 5.70836 252.653 5.71652 252.855C5.77605 254.323 5.91016 255.809 6.11549 257.271C6.22061 258.021 5.60745 258.701 4.74619 258.791C3.8845 258.881 3.10064 258.346 2.99537 257.596C2.77921 256.056 2.63764 254.491 2.57473 252.945C2.54405 252.19 3.22265 251.558 4.09011 251.534C4.72635 251.515 5.28758 251.828 5.5537 252.294ZM23.7958 288.395C24.0864 288.903 23.9918 289.536 23.5091 289.962C22.9003 290.5 21.9054 290.505 21.2863 289.974C20.0175 288.887 18.7876 287.738 17.6307 286.56C17.0695 285.983 17.1426 285.122 17.8025 284.632C18.4618 284.142 19.4541 284.211 20.019 284.786C21.1174 285.905 22.2855 286.996 23.4901 288.029C23.6177 288.139 23.7202 288.263 23.7958 288.395ZM7.57683 264.079C7.62299 264.16 7.66126 264.245 7.68899 264.336C8.12497 265.757 8.63778 267.181 9.21182 268.567C9.50595 269.279 9.08249 270.061 8.26612 270.315C7.4496 270.569 6.54542 270.201 6.25439 269.489C5.65066 268.029 5.1111 266.531 4.65176 265.036C4.42772 264.306 4.9259 263.558 5.76437 263.365C6.49869 263.195 7.25076 263.508 7.57683 264.079ZM15.1793 279.127C15.5328 279.746 15.3006 280.508 14.6173 280.886C13.8855 281.291 12.9139 281.102 12.4462 280.465C11.49 279.16 10.5855 277.801 9.75884 276.427C9.75335 276.418 9.74828 276.409 9.74336 276.401C9.36339 275.736 9.66216 274.927 10.4208 274.583C11.1899 274.234 12.1398 274.493 12.5426 275.163C13.3283 276.469 14.1876 277.759 15.0963 278.999C15.1267 279.041 15.1546 279.084 15.1793 279.127Z" fill="url(#paint10_linear_301_9243-951330)"/>
<path d="M6.16263 242.71C6.30055 242.951 6.35853 243.23 6.31011 243.517C6.19218 244.214 6.08945 244.925 6.00347 245.63C5.91256 246.381 5.13868 246.924 4.27559 246.843C3.41221 246.762 2.78512 246.088 2.87772 245.337C2.96751 244.595 3.07587 243.847 3.19971 243.113C3.3258 242.367 4.12444 241.851 4.98289 241.963C5.5126 242.031 5.94113 242.322 6.16263 242.71Z" fill="url(#paint11_linear_301_9243-097608)"/>
</g>
<g opacity="0.3">
<path d="M31.0863 207.157C31.4243 207.748 31.2293 208.481 30.5926 208.876C29.9334 209.284 29.273 209.712 28.6301 210.146C27.9452 210.609 26.9577 210.5 26.4242 209.904C25.8884 209.304 26.0134 208.448 26.6979 207.985C27.375 207.528 28.0705 207.078 28.7644 206.647C29.4706 206.21 30.4522 206.354 30.9572 206.969C31.0068 207.029 31.0496 207.092 31.0863 207.157Z" fill="url(#paint12_linear_301_9243-700430)"/>
<path d="M121.502 226.863C121.824 227.427 122.136 227.998 122.439 228.576C122.799 229.263 122.451 230.074 121.662 230.386C120.872 230.698 119.935 230.391 119.579 229.705C118.88 228.373 118.121 227.067 117.313 225.812C116.89 225.151 117.158 224.319 117.916 223.952C118.673 223.584 119.631 223.821 120.055 224.48C120.555 225.257 121.042 226.059 121.502 226.863ZM125.361 235.338C125.4 235.407 125.433 235.479 125.459 235.555C125.965 237.017 126.405 238.513 126.767 240.003C126.947 240.742 126.404 241.467 125.556 241.621C124.706 241.776 123.869 241.301 123.692 240.563C123.348 239.148 122.93 237.726 122.45 236.337C122.199 235.614 122.67 234.852 123.501 234.636C124.245 234.443 125.025 234.752 125.361 235.338ZM115.521 218.453C115.851 219.031 115.674 219.748 115.062 220.15C114.369 220.605 113.384 220.484 112.86 219.881C111.858 218.727 110.785 217.594 109.671 216.515C109.092 215.951 109.143 215.088 109.788 214.584C110.434 214.08 111.428 214.128 112.008 214.691C113.181 215.828 114.311 217.02 115.366 218.236C115.427 218.305 115.478 218.378 115.521 218.453ZM127.802 246.874C127.891 247.03 127.947 247.202 127.962 247.386C128.087 248.907 128.138 250.45 128.114 251.973C128.103 252.728 127.39 253.33 126.522 253.318C125.653 253.306 124.959 252.685 124.971 251.93C124.994 250.483 124.945 249.018 124.827 247.574C124.765 246.821 125.417 246.168 126.283 246.116C126.937 246.077 127.527 246.392 127.802 246.874ZM106.255 209.934C106.525 210.408 106.466 210.996 106.049 211.425C105.489 212.001 104.497 212.072 103.833 211.584C102.565 210.65 101.233 209.75 99.8744 208.909C99.1664 208.47 98.9991 207.616 99.5018 207.001C100.004 206.387 100.985 206.244 101.693 206.682C103.123 207.567 104.526 208.515 105.861 209.498C106.03 209.622 106.162 209.772 106.255 209.934ZM95.0682 203.385C95.2848 203.764 95.297 204.224 95.0555 204.627C94.654 205.296 93.7048 205.554 92.935 205.203C91.4588 204.53 89.933 203.904 88.4003 203.341C87.5993 203.048 87.2225 202.246 87.5587 201.55C87.8948 200.854 88.8157 200.528 89.6165 200.822C91.2297 201.414 92.8353 202.073 94.3885 202.781C94.694 202.92 94.9254 203.135 95.0682 203.385ZM82.5127 199.11C82.6774 199.398 82.7268 199.737 82.6236 200.072C82.3997 200.801 81.5381 201.232 80.6994 201.036C79.0896 200.658 77.4446 200.335 75.8091 200.076C74.955 199.941 74.3863 199.23 74.54 198.486C74.6937 197.743 75.5102 197.251 76.365 197.386C78.086 197.658 79.8178 197.998 81.5115 198.395C81.9647 198.502 82.3188 198.77 82.5127 199.11ZM69.1917 197.316C69.3058 197.516 69.3654 197.742 69.3542 197.981C69.3189 198.735 68.5873 199.32 67.7201 199.287C66.0561 199.225 64.3709 199.223 62.7104 199.283C61.8432 199.314 61.109 198.727 61.071 197.974C61.0329 197.219 61.7053 196.582 62.5725 196.551C64.3215 196.488 66.0964 196.489 67.8479 196.555C68.4416 196.578 68.9446 196.884 69.1917 197.316ZM55.745 198.11C55.8092 198.222 55.8563 198.344 55.8836 198.473C56.0404 199.216 55.4751 199.928 54.6215 200.062C52.9877 200.32 51.3452 200.641 49.7388 201.018C48.901 201.215 48.0372 200.781 47.8095 200.054C47.5813 199.325 48.0756 198.575 48.9134 198.378C50.6044 197.981 52.3337 197.642 54.0538 197.371C54.7588 197.261 55.4407 197.578 55.745 198.11ZM42.8429 201.452C42.8573 201.478 42.8706 201.503 42.8836 201.529C43.2223 202.225 42.8489 203.027 42.0499 203.32C40.9217 203.734 39.7953 204.182 38.7004 204.654C38.3041 204.825 37.9107 204.999 37.5208 205.177C36.752 205.526 35.8016 205.267 35.3984 204.597C34.9747 203.927 35.2906 203.102 36.0587 202.753C36.4693 202.566 36.8824 202.383 37.2996 202.203C38.451 201.707 39.6368 201.235 40.8233 200.8C41.5922 200.518 42.4756 200.81 42.8429 201.452Z" fill="url(#paint13_linear_301_9243-643894)"/>
<path d="M127.259 258.622C127.399 258.866 127.456 259.147 127.406 259.436C127.278 260.167 127.13 260.91 126.966 261.644C126.8 262.385 125.975 262.868 125.123 262.722C124.271 262.575 123.714 261.857 123.88 261.116C124.036 260.419 124.177 259.713 124.298 259.018C124.428 258.272 125.23 257.761 126.088 257.876C126.614 257.947 127.039 258.237 127.259 258.622Z" fill="url(#paint14_linear_301_9243-432460)"/>
</g>
<path d="M109.994 264.001C110.123 263.753 110.056 263.46 109.829 263.272L103.327 257.92C104.134 254.358 104.293 250.657 103.733 246.949L110.607 241.998C110.848 241.825 110.936 241.537 110.825 241.281L107.038 232.545C106.928 232.29 106.643 232.123 106.33 232.13L97.3987 232.336C95.0044 229.227 92.0737 226.534 88.7614 224.315L89.5869 216.572C89.6157 216.301 89.4436 216.043 89.1581 215.93L79.3857 212.067C79.0999 211.954 78.7639 212.011 78.5489 212.209L72.4117 217.852C68.3151 217.142 64.0601 216.995 59.7999 217.473L54.0921 211.481C53.8919 211.271 53.5608 211.194 53.2675 211.29L43.2338 214.563C42.9407 214.659 42.7498 214.906 42.759 215.178L43.0164 222.949C39.4482 225.024 36.3596 227.567 33.8176 230.443L24.9147 229.707C24.6029 229.681 24.3068 229.83 24.1777 230.078L19.7606 238.57C19.6315 238.818 19.6979 239.111 19.9257 239.299L26.4274 244.651C25.6205 248.213 25.4612 251.914 26.0217 255.622L19.1472 260.573C18.9061 260.746 18.8186 261.034 18.9291 261.289L22.716 270.026C22.8266 270.281 23.111 270.448 23.4244 270.441L32.3558 270.235C34.7498 273.344 37.6806 276.037 40.9931 278.256L40.1676 285.998C40.1384 286.27 40.3108 286.528 40.5964 286.641L50.3688 290.504C50.6543 290.617 50.9904 290.559 51.2056 290.362L57.3428 284.719C61.4394 285.429 65.6944 285.576 69.9545 285.098L75.6623 291.09C75.8622 291.3 76.1935 291.377 76.4868 291.281L86.5202 288.008C86.8135 287.912 87.0042 287.665 86.9952 287.393L86.7377 279.622C90.3057 277.547 93.3943 275.004 95.9365 272.128L104.839 272.864C105.151 272.89 105.447 272.741 105.576 272.493L109.994 264.001Z" fill="url(#paint15_linear_301_9243-041861)"/>
<path opacity="0.7" d="M74.5319 247.131C76.8733 251.229 75.4749 256.315 71.0367 258.994C66.1579 261.938 59.4266 260.875 56.0303 256.624C54.3843 254.565 53.7583 252.074 54.2661 249.609C54.7736 247.145 56.3545 245.002 58.7179 243.576C63.5968 240.631 70.328 241.695 73.7244 245.945C74.0304 246.328 74.2997 246.725 74.5319 247.131ZM57.469 254.46C57.6498 254.777 57.8579 255.083 58.0941 255.379C60.6979 258.638 65.8597 259.453 69.5996 257.196C73.3399 254.938 74.2664 250.45 71.6607 247.191C69.0571 243.931 63.8952 243.117 60.1552 245.374C58.343 246.468 57.1309 248.11 56.7417 250C56.4254 251.536 56.6837 253.086 57.469 254.46Z" fill="white"/>
<path opacity="0.7" d="M88.3723 240.954C88.7744 241.658 89.1383 242.383 89.4614 243.128C89.5632 243.363 89.6604 243.599 89.7536 243.836C90.2119 245.006 90.5628 246.206 90.8006 247.417C90.8039 247.433 90.8071 247.45 90.8105 247.466C90.8195 247.513 90.8283 247.56 90.8368 247.607C90.8541 247.699 90.87 247.79 90.8859 247.881C90.9274 248.122 90.7823 248.349 90.545 248.451C90.4873 248.476 90.424 248.494 90.357 248.502C90.0137 248.546 89.6946 248.339 89.6426 248.041C89.3783 246.503 88.9213 244.979 88.2849 243.512C85.1271 236.223 77.9703 231.237 69.8021 229.731C65.2589 228.892 60.4027 229.131 55.7471 230.65C54.9306 230.916 54.1358 231.217 53.3653 231.549C48.1792 233.784 44.073 237.474 41.655 242.124C38.877 247.464 38.6586 253.431 41.0399 258.925C45.9592 270.271 60.5529 276.037 73.5777 271.787C74.3808 271.525 75.1657 271.229 75.9289 270.9C79.2369 269.474 82.1477 267.433 84.4441 264.915C84.5035 264.85 84.5763 264.8 84.6566 264.766C84.8677 264.675 85.1299 264.692 85.3271 264.828C85.5988 265.017 85.6461 265.36 85.4294 265.597C83.0184 268.24 79.9625 270.383 76.4895 271.88C75.6884 272.225 74.8647 272.536 74.0218 272.812C60.3469 277.273 45.0225 271.212 39.8631 259.309C37.363 253.542 37.5926 247.278 40.5089 241.671C43.0474 236.79 47.3581 232.916 52.8023 230.569C53.6114 230.221 54.4458 229.906 55.3026 229.626C61.9271 227.465 69.1283 227.679 75.5799 230.229C81.1979 232.45 85.6617 236.211 88.3723 240.954Z" fill="white"/>
<g opacity="0.3">
<path d="M160.616 321.345C160.803 321.673 160.731 322.08 160.406 322.34C159.802 322.826 159.172 323.303 158.535 323.757C158.121 324.052 157.509 323.999 157.169 323.637C156.826 323.277 156.889 322.744 157.303 322.449C157.91 322.017 158.51 321.562 159.087 321.098C159.48 320.782 160.094 320.804 160.459 321.147C160.524 321.208 160.576 321.275 160.616 321.345Z" fill="url(#paint16_linear_301_9243-133484)"/>
<path d="M154.695 325.292C154.915 325.675 154.769 326.148 154.344 326.38C153.145 327.037 151.893 327.648 150.623 328.195C150.356 328.31 150.086 328.423 149.814 328.534C149.328 328.732 148.756 328.52 148.521 328.128C148.293 327.706 148.5 327.203 148.985 327.005C149.245 326.899 149.502 326.791 149.758 326.681C150.969 326.159 152.163 325.577 153.307 324.951C153.761 324.702 154.36 324.821 154.647 325.216C154.664 325.241 154.681 325.266 154.695 325.292ZM145.579 329.013C145.599 329.049 145.618 329.087 145.632 329.125C145.8 329.569 145.524 330.046 145.015 330.191C143.381 330.657 141.7 331.039 140.018 331.326C139.492 331.416 138.981 331.115 138.877 330.659C138.773 330.201 139.114 329.758 139.64 329.668C141.245 329.395 142.848 329.03 144.406 328.586C144.87 328.454 145.367 328.643 145.579 329.013ZM135.692 330.698C135.747 330.794 135.781 330.9 135.791 331.014C135.83 331.479 135.426 331.882 134.892 331.914C133.179 332.017 131.439 332.028 129.721 331.945C129.185 331.92 128.775 331.523 128.803 331.055C128.832 330.59 129.289 330.233 129.824 330.259C131.462 330.337 133.12 330.328 134.754 330.229C135.158 330.205 135.522 330.4 135.692 330.698ZM125.625 330.215C125.715 330.372 125.749 330.554 125.712 330.739C125.618 331.198 125.113 331.503 124.586 331.42C122.891 331.154 121.202 330.794 119.562 330.35C119.05 330.211 118.764 329.736 118.922 329.292C119.08 328.847 119.623 328.599 120.136 328.737C121.698 329.161 123.311 329.504 124.926 329.758C125.241 329.807 125.493 329.984 125.625 330.215ZM115.994 327.609C116.119 327.828 116.134 328.092 116.01 328.332C115.791 328.757 115.216 328.945 114.727 328.754C113.16 328.137 111.621 327.432 110.153 326.656C109.693 326.414 109.547 325.894 109.825 325.495C110.103 325.097 110.7 324.97 111.158 325.213C112.559 325.953 114.027 326.627 115.523 327.214C115.736 327.298 115.897 327.44 115.994 327.609ZM107.377 323.05C107.539 323.334 107.51 323.685 107.27 323.95C106.938 324.315 106.328 324.376 105.907 324.087C104.557 323.159 103.262 322.148 102.057 321.084C101.681 320.749 101.685 320.216 102.066 319.889C102.447 319.562 103.062 319.567 103.439 319.9C104.588 320.915 105.822 321.878 107.109 322.763C107.226 322.843 107.315 322.942 107.377 323.05ZM100.299 316.801C100.502 317.156 100.395 317.597 100.021 317.846C99.5963 318.129 98.9868 318.058 98.6599 317.688C97.6164 316.504 96.6448 315.248 95.7711 313.954C95.5066 313.547 95.6545 313.034 96.1166 312.799C96.5787 312.563 97.1734 312.699 97.4455 313.101C98.278 314.336 99.2048 315.534 100.2 316.662C100.239 316.707 100.272 316.753 100.299 316.801ZM93.4732 305.097C93.4981 305.14 93.5193 305.187 93.5356 305.236C93.935 306.418 94.4159 307.602 94.9649 308.755C95.0469 308.93 95.1298 309.101 95.2151 309.271C95.4283 309.699 95.2034 310.196 94.7116 310.381C94.2192 310.567 93.6319 310.372 93.434 309.94C93.3441 309.759 93.2553 309.578 93.1693 309.394C92.5961 308.189 92.092 306.948 91.6735 305.708C91.5222 305.261 91.8162 304.792 92.3307 304.662C92.7888 304.545 93.2673 304.736 93.4732 305.097Z" fill="url(#paint17_linear_301_9243-753750)"/>
</g>
<g opacity="0.3">
<path d="M169.183 278.9C169.419 279.313 169.23 279.816 168.757 280.026C168.281 280.238 167.695 280.074 167.45 279.659C166.713 278.408 165.881 277.186 164.978 276.027C164.683 275.64 164.792 275.115 165.237 274.854C165.681 274.593 166.284 274.695 166.585 275.082C167.531 276.298 168.404 277.579 169.177 278.89C169.177 278.89 169.181 278.897 169.183 278.9ZM171.184 282.858C171.2 282.886 171.213 282.913 171.226 282.943C171.813 284.322 172.31 285.747 172.703 287.177C172.827 287.631 172.506 288.086 171.985 288.193C171.463 288.301 170.94 288.017 170.814 287.566C170.44 286.201 169.965 284.842 169.405 283.525C169.219 283.088 169.476 282.602 169.978 282.442C170.448 282.291 170.966 282.477 171.184 282.858ZM163.618 271.753C163.81 272.088 163.727 272.506 163.388 272.764C162.985 273.07 162.372 273.033 162.018 272.681C160.954 271.622 159.808 270.611 158.61 269.674C158.211 269.36 158.177 268.828 158.535 268.482C158.893 268.135 159.507 268.107 159.906 268.419C161.162 269.401 162.364 270.462 163.479 271.572C163.535 271.629 163.582 271.689 163.618 271.753ZM173.484 291.256C173.534 291.342 173.567 291.437 173.58 291.538C173.77 293 173.857 294.487 173.839 295.957C173.834 296.424 173.395 296.797 172.858 296.791C172.324 296.785 171.893 296.402 171.898 295.936C171.914 294.534 171.831 293.117 171.651 291.723C171.591 291.259 171.974 290.842 172.507 290.791C172.923 290.751 173.308 290.947 173.484 291.256ZM156.236 265.985C156.389 266.252 156.374 266.583 156.163 266.844C155.856 267.227 155.251 267.319 154.812 267.051C153.491 266.247 152.1 265.504 150.675 264.844C150.201 264.624 150.021 264.112 150.273 263.701C150.524 263.289 151.112 263.134 151.586 263.353C153.078 264.046 154.537 264.824 155.923 265.668C156.061 265.752 156.166 265.862 156.236 265.985ZM147.482 261.922C147.599 262.127 147.621 262.372 147.519 262.601C147.327 263.036 146.765 263.253 146.265 263.084C144.757 262.577 143.202 262.144 141.642 261.799C141.122 261.684 140.807 261.223 140.938 260.772C141.069 260.32 141.596 260.047 142.116 260.162C143.752 260.524 145.382 260.977 146.962 261.509C147.197 261.588 147.378 261.739 147.482 261.922ZM137.866 259.797C137.948 259.942 137.985 260.107 137.959 260.279C137.893 260.742 137.407 261.069 136.875 261.009C135.273 260.829 133.645 260.734 132.036 260.726C131.501 260.723 131.067 260.343 131.069 259.876C131.071 259.41 131.507 259.034 132.043 259.037C133.73 259.046 135.438 259.145 137.119 259.333C137.453 259.371 137.726 259.553 137.866 259.797Z" fill="url(#paint18_linear_301_9243-319671)"/>
<path d="M173.379 299.922C173.463 300.068 173.499 300.236 173.472 300.409C173.362 301.126 173.227 301.842 173.071 302.539C172.968 302.997 172.459 303.295 171.932 303.205C171.408 303.114 171.063 302.671 171.165 302.213C171.314 301.548 171.442 300.865 171.548 300.181C171.619 299.719 172.108 299.395 172.639 299.459C172.97 299.498 173.241 299.679 173.379 299.922Z" fill="url(#paint19_linear_301_9243-941912)"/>
</g>
<path d="M161.794 304.13C161.88 303.964 161.836 303.768 161.683 303.643L157.332 300.061C157.872 297.677 157.979 295.201 157.604 292.72L162.204 289.407C162.365 289.291 162.424 289.098 162.35 288.927L159.816 283.081C159.742 282.91 159.552 282.799 159.342 282.804L153.366 282.941C151.763 280.861 149.802 279.059 147.586 277.574L148.138 272.393C148.158 272.211 148.042 272.039 147.851 271.963L141.312 269.378C141.121 269.303 140.896 269.341 140.752 269.473L136.645 273.25C133.904 272.774 131.057 272.675 128.206 272.996L124.387 268.986C124.253 268.845 124.031 268.794 123.835 268.858L117.121 271.048C116.925 271.112 116.797 271.278 116.803 271.46L116.976 276.66C114.588 278.048 112.521 279.75 110.82 281.675L104.863 281.182C104.654 281.165 104.456 281.264 104.37 281.43L101.414 287.113C101.328 287.279 101.372 287.475 101.524 287.6L105.875 291.182C105.335 293.565 105.229 296.042 105.603 298.523L101.003 301.836C100.842 301.952 100.783 302.145 100.857 302.316L103.391 308.162C103.465 308.333 103.656 308.444 103.865 308.439L109.842 308.302C111.444 310.382 113.405 312.184 115.621 313.668L115.069 318.85C115.049 319.031 115.165 319.204 115.356 319.279L121.895 321.864C122.086 321.94 122.311 321.902 122.455 321.769L126.562 317.993C129.303 318.469 132.15 318.567 135.001 318.247L138.821 322.257C138.954 322.397 139.176 322.449 139.372 322.384L146.086 320.194C146.282 320.13 146.41 319.965 146.404 319.783L146.232 314.583C148.619 313.194 150.686 311.493 152.387 309.568L158.344 310.061C158.553 310.078 158.751 309.978 158.838 309.812L161.794 304.13Z" fill="url(#paint20_linear_301_9243-317129)"/>
<path opacity="0.7" d="M138.185 292.801C138.883 294.022 139.112 295.398 138.831 296.763C138.485 298.442 137.408 299.901 135.798 300.873C132.476 302.878 127.891 302.154 125.577 299.259C123.266 296.356 124.085 292.376 127.408 290.37C129.018 289.399 130.968 289.031 132.898 289.336C134.829 289.641 136.51 290.581 137.63 291.985C137.839 292.247 138.025 292.52 138.185 292.801ZM126.766 297.703C126.882 297.907 127.017 298.105 127.17 298.298C128.873 300.427 132.245 300.959 134.689 299.484C135.873 298.77 136.666 297.696 136.92 296.462C137.174 295.226 136.859 293.979 136.036 292.946C135.212 291.914 133.976 291.222 132.556 290.998C131.135 290.774 129.701 291.044 128.517 291.759C126.294 293.101 125.593 295.65 126.766 297.703Z" fill="white"/>
<path opacity="0.7" d="M147.825 288.512C148.099 288.991 148.347 289.486 148.569 289.996C149.008 291.01 149.33 292.064 149.525 293.131C149.534 293.179 149.542 293.227 149.55 293.275C149.615 293.646 149.391 293.997 149.024 294.155C148.935 294.193 148.837 294.22 148.734 294.234C148.204 294.302 147.712 293.981 147.631 293.521C147.459 292.523 147.163 291.537 146.752 290.59L146.752 290.589C146.729 290.537 146.706 290.485 146.683 290.434C145.686 288.199 144.087 286.263 142.039 284.752C140.927 283.932 139.682 283.237 138.326 282.688C138.315 282.684 138.304 282.679 138.293 282.675C138.259 282.662 138.226 282.648 138.192 282.635C134.213 281.062 129.773 280.93 125.688 282.263C125.159 282.435 124.645 282.629 124.146 282.844C120.789 284.291 118.131 286.68 116.564 289.69C114.766 293.148 114.626 297.01 116.167 300.567C117.709 304.12 120.749 306.948 124.727 308.521C128.706 310.094 133.146 310.226 137.231 308.893C137.751 308.724 138.259 308.532 138.753 308.319C140.895 307.396 142.779 306.075 144.265 304.445C144.357 304.345 144.469 304.267 144.593 304.214C144.919 304.074 145.324 304.1 145.629 304.31C146.048 304.602 146.12 305.132 145.787 305.497C144.123 307.321 142.015 308.799 139.62 309.832C139.066 310.071 138.498 310.285 137.917 310.475C133.346 311.966 128.378 311.818 123.927 310.058C119.476 308.299 116.073 305.142 114.351 301.16C112.626 297.18 112.783 292.859 114.796 288.991C116.547 285.623 119.521 282.951 123.278 281.332C123.835 281.092 124.411 280.874 125.002 280.681C133.85 277.795 143.698 281.291 147.825 288.512Z" fill="white"/>
<defs>
<linearGradient id="paint0_linear_301_9243-527432" x1="455.803" y1="430.353" x2="175.97" y2="10.764" gradientUnits="userSpaceOnUse">
<stop stop-color="#DAE3FE"/>
<stop offset="1" stop-color="#E9EFFD"/>
</linearGradient>
<linearGradient id="paint1_linear_301_9243-640486" x1="282.428" y1="326.278" x2="244.708" y2="209.043" gradientUnits="userSpaceOnUse">
<stop stop-color="#FEBBBA"/>
<stop offset="1" stop-color="#FF928E"/>
</linearGradient>
<linearGradient id="paint2_linear_301_9243-479426" x1="283.229" y1="687.85" x2="163.419" y2="-1002.74" gradientUnits="userSpaceOnUse">
<stop stop-color="#FEBBBA"/>
<stop offset="1" stop-color="#FF928E"/>
</linearGradient>
<linearGradient id="paint3_linear_301_9243-724172" x1="276.965" y1="148.446" x2="254.619" y2="148.446" gradientUnits="userSpaceOnUse">
<stop stop-color="#FEBBBA"/>
<stop offset="1" stop-color="#FF928E"/>
</linearGradient>
<linearGradient id="paint4_linear_301_9243-726346" x1="295.066" y1="144.501" x2="259.109" y2="203.288" gradientUnits="userSpaceOnUse">
<stop stop-color="#4F52FF"/>
<stop offset="1" stop-color="#4042E2"/>
</linearGradient>
<linearGradient id="paint5_linear_301_9243-503844" x1="252.561" y1="107.15" x2="236.69" y2="107.15" gradientUnits="userSpaceOnUse">
<stop stop-color="#FEBBBA"/>
<stop offset="1" stop-color="#FF928E"/>
</linearGradient>
<linearGradient id="paint6_linear_301_9243-307721" x1="436.992" y1="88.7415" x2="374.712" y2="113.432" gradientUnits="userSpaceOnUse">
<stop stop-color="#FF928E"/>
<stop offset="1" stop-color="#FE7062"/>
</linearGradient>
<linearGradient id="paint7_linear_301_9243-584618" x1="159.445" y1="114.645" x2="282.762" y2="199.938" gradientUnits="userSpaceOnUse">
<stop stop-color="#FEBBBA"/>
<stop offset="1" stop-color="#FF928E"/>
</linearGradient>
<linearGradient id="paint8_linear_301_9243-158654" x1="145.807" y1="134.363" x2="269.124" y2="219.656" gradientUnits="userSpaceOnUse">
<stop stop-color="#FEBBBA"/>
<stop offset="1" stop-color="#FF928E"/>
</linearGradient>
<linearGradient id="paint9_linear_301_9243-456663" x1="226.127" y1="107.144" x2="249.637" y2="65.6387" gradientUnits="userSpaceOnUse">
<stop stop-color="#FEBBBA"/>
<stop offset="1" stop-color="#FF928E"/>
</linearGradient>
<linearGradient id="paint10_linear_301_9243-951330" x1="69.0956" y1="309.997" x2="39.1021" y2="237.019" gradientUnits="userSpaceOnUse">
<stop stop-color="#FF928E"/>
<stop offset="1" stop-color="#FE7062"/>
</linearGradient>
<linearGradient id="paint11_linear_301_9243-097608" x1="5.8153" y1="246.432" x2="4.0338" y2="242.098" gradientUnits="userSpaceOnUse">
<stop stop-color="#FF928E"/>
<stop offset="1" stop-color="#FE7062"/>
</linearGradient>
<linearGradient id="paint12_linear_301_9243-700430" x1="29.5133" y1="209.82" x2="28.2812" y2="206.822" gradientUnits="userSpaceOnUse">
<stop stop-color="#FF928E"/>
<stop offset="1" stop-color="#FE7062"/>
</linearGradient>
<linearGradient id="paint13_linear_301_9243-643894" x1="106.097" y1="261.868" x2="75.1731" y2="186.627" gradientUnits="userSpaceOnUse">
<stop stop-color="#FF928E"/>
<stop offset="1" stop-color="#FE7062"/>
</linearGradient>
<linearGradient id="paint14_linear_301_9243-432460" x1="126.84" y1="262.311" x2="125.081" y2="258.03" gradientUnits="userSpaceOnUse">
<stop stop-color="#FF928E"/>
<stop offset="1" stop-color="#FE7062"/>
</linearGradient>
<linearGradient id="paint15_linear_301_9243-041861" x1="76.5848" y1="215.798" x2="52.5819" y2="321.85" gradientUnits="userSpaceOnUse">
<stop stop-color="#FF928E"/>
<stop offset="1" stop-color="#FE7062"/>
</linearGradient>
<linearGradient id="paint16_linear_301_9243-133484" x1="159.434" y1="323.416" x2="158.554" y2="321.275" gradientUnits="userSpaceOnUse">
<stop stop-color="#FF928E"/>
<stop offset="1" stop-color="#FE7062"/>
</linearGradient>
<linearGradient id="paint17_linear_301_9243-753750" x1="134.373" y1="334.88" x2="117.669" y2="294.236" gradientUnits="userSpaceOnUse">
<stop stop-color="#FF928E"/>
<stop offset="1" stop-color="#FE7062"/>
</linearGradient>
<linearGradient id="paint18_linear_301_9243-319671" x1="167.786" y1="298.971" x2="148.548" y2="252.161" gradientUnits="userSpaceOnUse">
<stop stop-color="#FF928E"/>
<stop offset="1" stop-color="#FE7062"/>
</linearGradient>
<linearGradient id="paint19_linear_301_9243-941912" x1="173.225" y1="302.856" x2="171.893" y2="299.614" gradientUnits="userSpaceOnUse">
<stop stop-color="#FF928E"/>
<stop offset="1" stop-color="#FE7062"/>
</linearGradient>
<linearGradient id="paint20_linear_301_9243-317129" x1="146.308" y1="254.678" x2="122.214" y2="352.469" gradientUnits="userSpaceOnUse">
<stop stop-color="#FF928E"/>
<stop offset="1" stop-color="#FE7062"/>
</linearGradient>
</defs>
</svg>
