<svg width="418" height="389" viewBox="0 0 418 389" fill="none" xmlns="http://www.w3.org/2000/svg">
<path d="M250.189 331.752V362.488H239.322L262.747 389L284.721 363.032H273.613V331.752H250.189Z" fill="#C9CEDD"/>
<path d="M291.636 100.221V111.042H287.811L296.058 120.375L303.794 111.233H299.883V100.221H291.636Z" fill="#C9CEDD"/>
<path d="M390.502 200.589V222.804H382.647L399.578 241.966L415.462 223.197H407.433V200.589H390.502Z" fill="#C9CEDD"/>
<path d="M28.3787 290.374V312.59H20.5234L37.4543 331.752L53.3383 312.982H45.3095V290.374H28.3787Z" fill="#C9CEDD"/>
<path d="M168.991 326.691V343.271H163.128L175.765 357.573L187.62 343.564H181.627V326.691H168.991Z" fill="#C9CEDD"/>
<path d="M130.807 55.4898C131.606 49.8501 123.413 45.2098 117.257 44.7282C114.321 44.4985 111.272 44.9347 108.49 43.9927C102.464 41.9523 100.057 34.3889 94.1772 31.9789C89.7815 30.1774 84.7204 31.7807 80.4591 33.8646C76.1978 35.9486 71.986 38.5707 67.2252 38.8671C63.084 39.1246 58.5863 37.6325 54.9627 39.5979C52.263 41.0622 50.8482 44.0854 48.3601 45.8683C45.9253 47.6133 42.7499 47.9829 39.7288 48.1422C36.7078 48.3024 33.5809 48.332 30.8297 49.5556C28.0784 50.7791 25.8038 53.605 26.3739 56.4919L130.807 55.4898Z" fill="#D7DBE6"/>
<path d="M417.02 160.722C417.715 155.815 410.588 151.779 405.232 151.359C402.679 151.159 400.026 151.539 397.606 150.719C392.364 148.944 390.27 142.365 385.155 140.269C381.331 138.702 376.929 140.097 373.221 141.909C369.514 143.722 365.85 146.003 361.709 146.261C358.106 146.485 354.194 145.186 351.042 146.897C348.693 148.171 347.464 150.8 345.299 152.352C343.18 153.87 340.418 154.191 337.79 154.33C335.162 154.469 332.441 154.495 330.05 155.559C327.657 156.623 325.678 159.081 326.173 161.592L417.02 160.722Z" fill="#D7DBE6"/>
<path d="M183.65 11.3276C183.991 8.92868 180.505 6.95399 177.886 6.7493C176.637 6.65112 175.339 6.83729 174.156 6.43624C171.593 5.56839 170.569 2.35073 168.068 1.32541C166.197 0.559438 164.045 1.24113 162.231 2.12751C160.418 3.0139 158.627 4.12998 156.601 4.25595C154.839 4.36524 152.926 3.73078 151.385 4.56715C150.236 5.19049 149.634 6.47607 148.575 7.23464C147.54 7.97653 146.188 8.13399 144.903 8.2016C143.618 8.26921 142.287 8.28218 141.117 8.80271C139.948 9.32324 138.979 10.5255 139.222 11.7536L183.65 11.3276Z" fill="#D7DBE6"/>
<path d="M412.437 366.682C413.062 362.27 406.654 358.642 401.839 358.265C399.542 358.085 397.157 358.426 394.982 357.689C390.268 356.093 388.386 350.177 383.787 348.293C380.348 346.884 376.39 348.138 373.057 349.768C369.724 351.399 366.43 353.449 362.705 353.681C359.466 353.882 355.948 352.715 353.115 354.252C351.003 355.398 349.897 357.762 347.95 359.156C346.046 360.521 343.562 360.81 341.199 360.935C338.836 361.06 336.39 361.083 334.238 362.04C332.087 362.997 330.307 365.207 330.753 367.465L412.437 366.682Z" fill="#D7DBE6"/>
<path d="M173.034 98.5832L165.681 85.9933C168.934 80.863 170.814 74.8241 170.814 68.3564C170.814 49.7571 155.295 34.6794 136.153 34.6794C117.009 34.6794 101.49 49.7571 101.49 68.3564C101.49 86.9556 117.009 102.032 136.153 102.032C144.146 102.032 151.502 99.3965 157.366 94.9803L157.354 94.9951L173.034 98.5832Z" fill="#FAFAFA"/>
<path d="M173.034 98.5835C172.175 98.3936 167.279 97.3118 157.325 95.113L157.139 95.0722L157.255 94.9231L157.267 94.9083L157.44 95.0759C153.52 98.0602 147.877 100.966 140.795 101.9C139.034 102.12 137.193 102.261 135.301 102.172C134.357 102.12 133.394 102.098 132.423 102.019C131.46 101.877 130.481 101.734 129.491 101.589C125.562 100.836 121.544 99.3883 117.797 97.1293C114.051 94.8786 110.583 91.8221 107.802 88.0663C105.026 84.317 102.921 79.8712 101.935 75.0401C100.959 70.2155 101.04 65.0445 102.344 60.0392C103.657 55.0516 106.111 50.1788 109.783 46.1701C113.499 42.0754 118.093 38.7975 123.156 36.8941C128.198 34.95 133.575 34.21 138.714 34.5721C143.855 34.9324 148.774 36.3662 152.993 38.6743C157.226 40.9639 160.795 44.0213 163.548 47.4353C166.311 50.8512 168.256 54.619 169.461 58.3702C170.658 62.1389 170.981 65.8762 170.966 69.3356C170.762 76.3035 168.356 82.0256 165.78 86.0528L165.782 85.9351C170.394 93.9765 172.624 97.8684 173.034 98.5835C172.613 97.8749 170.318 94.0182 165.578 86.05L165.542 85.9916L165.579 85.9324C168.107 81.9126 170.454 76.2275 170.624 69.3273C170.622 65.9012 170.289 62.2047 169.092 58.4823C167.888 54.7774 165.953 51.0596 163.215 47.6919C160.486 44.3261 156.955 41.315 152.774 39.0624C148.605 36.7913 143.752 35.3854 138.68 35.0362C133.609 34.6842 128.309 35.4187 123.34 37.3387C118.35 39.2171 113.823 42.4514 110.159 46.4878C106.537 50.4391 104.119 55.2424 102.821 60.1578C101.532 65.0908 101.447 70.1914 102.404 74.9503C103.37 79.7156 105.441 84.104 108.173 87.8089C110.91 91.5202 114.328 94.5452 118.022 96.7774C121.718 99.0169 125.682 100.46 129.565 101.217C130.544 101.364 131.51 101.508 132.463 101.651C133.423 101.732 134.375 101.757 135.31 101.811C137.181 101.907 139.004 101.773 140.749 101.564C147.763 100.667 153.373 97.8203 157.289 94.886L158.049 94.3155L157.463 95.0537L157.452 95.0685L157.382 94.8786C167.301 97.2266 172.179 98.3816 173.034 98.5835Z" fill="#1D191F"/>
<path d="M146.29 86.9086H123.825C122.742 86.9086 121.864 86.0556 121.864 85.0034V52.7454C121.864 51.6932 122.742 50.8401 123.825 50.8401H146.29C147.373 50.8401 148.251 51.6932 148.251 52.7454V85.0034C148.251 86.0556 147.373 86.9086 146.29 86.9086Z" fill="#1D191F"/>
<path d="M146.908 53.0085H123.092V79.964H146.908V53.0085Z" fill="#FAFAFA"/>
<path d="M135.058 85.3517C136.162 85.3517 137.057 84.4822 137.057 83.4095C137.057 82.3368 136.162 81.4672 135.058 81.4672C133.954 81.4672 133.059 82.3368 133.059 83.4095C133.059 84.4822 133.954 85.3517 135.058 85.3517Z" fill="#1E397D"/>
<path d="M138.397 61.2206L147.182 71.2968L155.417 61.2206H151.147V47.3524L142.606 47.2505L142.708 61.2419L138.397 61.2206Z" fill="#5D80D9"/>
<path d="M138.937 65.0107C139.036 65.1024 137.362 66.9641 135.198 69.1676C133.033 71.3719 131.199 73.0836 131.1 72.9919C131.001 72.9002 132.675 71.0394 134.839 68.835C137.004 66.6316 138.838 64.919 138.937 65.0107Z" fill="#1D191F"/>
<path d="M137.212 63.7982C137.294 63.9047 136.365 64.942 135.136 66.1137C133.908 67.2853 132.832 68.1588 132.735 68.0652C132.638 67.9717 133.566 66.9352 134.81 65.7497C136.054 64.5651 137.13 63.6916 137.212 63.7982Z" fill="#1D191F"/>
<path d="M353.984 60.5914V76.2545H348.446L360.383 89.7661L371.583 76.5315H365.921V60.5914H353.984Z" fill="#5D80D9"/>
<path opacity="0.3" d="M353.984 60.5914V76.2545H348.446L360.383 89.7661L371.583 76.5315H365.921V60.5914H353.984Z" fill="#1D191F"/>
<path d="M392.917 25.6452C389.346 12.2013 376.817 2.25471 361.864 2.25471C351.725 2.25471 342.698 6.83204 336.814 13.9629C335.8 13.849 334.772 13.7758 333.726 13.7758C318.998 13.7758 307.059 25.3757 307.059 39.6847C307.059 53.9937 318.998 65.5936 333.726 65.5936H391.79C403.159 65.5936 412.377 56.639 412.377 45.5921C412.378 34.9147 403.76 26.2167 392.917 25.6452Z" fill="#5D80D9"/>
<path d="M399.055 58.6121C399.003 58.5398 400.157 57.8387 401.687 56.3503C403.215 54.8776 405.063 52.5185 406.183 49.5065C407.305 46.4935 407.435 43.5315 407.231 41.4494C407.033 39.3543 406.607 38.0984 406.696 38.0752C406.725 38.0659 406.861 38.3688 407.043 38.9394C407.226 39.509 407.435 40.3518 407.579 41.4123C407.88 43.5213 407.803 46.5713 406.65 49.6695C405.498 52.7677 403.55 55.1591 401.931 56.5948C401.122 57.3209 400.406 57.8396 399.89 58.1628C399.375 58.4879 399.071 58.6371 399.055 58.6121Z" fill="#1D191F"/>
<path d="M337.549 21.5402C337.532 21.6291 336.078 21.2688 333.69 21.2151C331.318 21.1521 327.973 21.5133 324.642 22.9304C321.308 24.3466 318.764 26.488 317.202 28.2237C315.622 29.9641 314.908 31.245 314.829 31.1968C314.802 31.182 314.954 30.8495 315.291 30.2799C315.625 29.7093 316.167 28.9128 316.935 28.0014C318.454 26.1796 321.023 23.94 324.442 22.4877C327.859 21.0345 331.297 20.7205 333.704 20.8733C334.915 20.9437 335.884 21.0984 336.543 21.2466C337.202 21.3938 337.557 21.5115 337.549 21.5402Z" fill="#1D191F"/>
<path d="M355.56 8.74408C355.567 8.833 354.503 8.89783 352.86 9.31833C351.219 9.73142 349.018 10.5928 346.92 12.0655C344.828 13.5483 343.304 15.3165 342.392 16.7039C341.473 18.0914 341.08 19.0547 340.995 19.0213C340.963 19.0093 341.039 18.761 341.205 18.3202C341.363 17.8756 341.662 17.2569 342.093 16.5261C342.517 15.7907 343.12 14.9691 343.869 14.1217C344.635 13.2899 345.557 12.4406 346.628 11.6755C347.708 10.9235 348.823 10.3335 349.875 9.88425C350.936 9.45448 351.926 9.15161 352.778 8.98767C353.626 8.81632 354.324 8.73019 354.808 8.72278C355.293 8.70425 355.559 8.71074 355.56 8.74408Z" fill="#1D191F"/>
<path d="M380.534 65.3746C380.534 65.508 372.693 65.6154 363.023 65.6154C353.35 65.6154 345.51 65.507 345.51 65.3746C345.51 65.2421 353.349 65.1338 363.023 65.1338C372.693 65.1338 380.534 65.2412 380.534 65.3746Z" fill="#1D191F"/>
<path d="M382.498 112.041C382.361 112.041 382.25 105.801 382.25 98.1057C382.25 90.4079 382.362 84.1699 382.498 84.1699C382.635 84.1699 382.746 90.4079 382.746 98.1057C382.746 105.801 382.635 112.041 382.498 112.041Z" fill="#1D191F"/>
<path d="M388.103 124.214C387.966 124.214 387.855 116.181 387.855 106.275C387.855 96.3653 387.967 88.3342 388.103 88.3342C388.241 88.3342 388.351 96.3653 388.351 106.275C388.351 116.181 388.241 124.214 388.103 124.214Z" fill="#1D191F"/>
<path d="M202.297 301.869V346.76H186.426L220.638 385.482L252.734 347.554H236.51V301.869H202.297Z" fill="#5D80D9"/>
<path opacity="0.3" d="M202.297 301.869V346.76H186.426L220.638 385.482L252.734 347.554H236.51V301.869H202.297Z" fill="#1D191F"/>
<path d="M313.878 201.718C303.643 163.188 267.737 134.684 224.882 134.684C195.825 134.684 169.956 147.802 153.092 168.239C150.183 167.913 147.24 167.701 144.242 167.701C102.034 167.701 67.8164 200.945 67.8164 241.954C67.8164 282.963 102.033 316.206 144.242 316.206H310.651C343.236 316.206 369.651 290.542 369.651 258.884C369.651 228.283 344.953 203.356 313.878 201.718Z" fill="#5D80D9"/>
<path d="M163.084 215.236C163.067 215.236 163.044 215.067 163.016 214.745C162.99 214.369 162.958 213.905 162.92 213.34C162.902 213.029 162.883 212.691 162.862 212.326C162.829 211.957 162.764 211.556 162.713 211.127C162.591 210.268 162.516 209.283 162.267 208.217C162.159 207.681 162.046 207.121 161.929 206.538C161.807 205.956 161.615 205.364 161.453 204.744C161.151 203.496 160.659 202.211 160.184 200.849C159.123 198.162 157.727 195.29 155.919 192.468C154.073 189.667 152.003 187.209 149.961 185.123C148.899 184.119 147.916 183.137 146.885 182.335C146.378 181.926 145.912 181.503 145.422 181.146C144.931 180.793 144.459 180.454 144.006 180.129C143.123 179.452 142.24 178.964 141.494 178.488C141.117 178.257 140.772 178.03 140.443 177.842C140.114 177.667 139.808 177.505 139.525 177.356C139.017 177.079 138.6 176.852 138.261 176.668C137.974 176.506 137.827 176.413 137.834 176.398C137.842 176.383 138.003 176.446 138.305 176.58C138.656 176.743 139.089 176.945 139.616 177.189C139.906 177.328 140.22 177.478 140.56 177.641C140.898 177.818 141.251 178.036 141.638 178.256C142.402 178.713 143.306 179.186 144.209 179.85C144.671 180.17 145.154 180.504 145.656 180.851C146.156 181.203 146.633 181.623 147.151 182.029C148.203 182.825 149.206 183.805 150.288 184.811C152.369 186.9 154.473 189.378 156.339 192.209C158.168 195.061 159.567 197.97 160.614 200.693C161.084 202.074 161.564 203.375 161.852 204.64C162.007 205.268 162.192 205.868 162.305 206.458C162.412 207.047 162.515 207.614 162.614 208.156C162.843 209.234 162.894 210.23 162.99 211.097C163.029 211.531 163.08 211.934 163.099 212.308C163.105 212.675 163.109 213.016 163.113 213.329C163.115 213.897 163.116 214.364 163.117 214.742C163.112 215.067 163.101 215.236 163.084 215.236Z" fill="#1D191F"/>
<path d="M131.818 200.878C131.755 200.941 130.752 199.977 128.938 198.665C127.13 197.35 124.447 195.756 121.223 194.569C117.994 193.392 114.896 192.866 112.644 192.693C110.389 192.514 108.981 192.596 108.978 192.508C108.976 192.475 109.325 192.431 109.961 192.38C110.597 192.32 111.524 192.306 112.667 192.352C114.95 192.44 118.115 192.92 121.397 194.118C124.675 195.326 127.377 196.995 129.152 198.395C130.041 199.092 130.727 199.698 131.164 200.152C131.609 200.598 131.842 200.855 131.818 200.878Z" fill="#1D191F"/>
<path d="M166.828 264.261C166.827 264.294 166.29 264.309 165.317 264.306C164.345 264.306 162.939 264.276 161.203 264.216C157.73 264.098 152.935 263.822 147.655 263.32C142.375 262.816 137.616 262.178 134.185 261.639C132.47 261.37 131.085 261.134 130.132 260.95C129.177 260.769 128.653 260.653 128.659 260.621C128.664 260.587 129.199 260.641 130.162 260.765C131.212 260.903 132.583 261.085 134.236 261.302C137.675 261.755 142.432 262.337 147.703 262.841C152.972 263.342 157.755 263.67 161.219 263.875C162.885 263.973 164.266 264.056 165.323 264.118C166.294 264.178 166.829 264.227 166.828 264.261Z" fill="#1D191F"/>
<path d="M311.381 201.259C311.381 201.276 311.197 201.299 310.846 201.328C310.44 201.355 309.933 201.388 309.312 201.429C308.646 201.46 307.833 201.508 306.892 201.623C305.952 201.73 304.875 201.801 303.702 202.008C303.112 202.098 302.496 202.192 301.855 202.29C301.214 202.391 300.557 202.549 299.871 202.682C298.493 202.931 297.054 203.33 295.533 203.718C292.515 204.58 289.252 205.712 285.953 207.19C282.669 208.699 279.679 210.404 277.062 212.099C275.778 212.983 274.54 213.799 273.459 214.665C272.914 215.091 272.367 215.48 271.876 215.893C271.388 216.307 270.918 216.706 270.468 217.087C269.551 217.828 268.804 218.583 268.117 219.216C267.423 219.843 266.861 220.417 266.41 220.894C265.979 221.33 265.628 221.687 265.346 221.971C265.098 222.214 264.962 222.337 264.949 222.326C264.935 222.315 265.047 222.171 265.27 221.907C265.534 221.606 265.864 221.229 266.267 220.767C266.698 220.269 267.242 219.673 267.919 219.025C268.591 218.372 269.325 217.595 270.232 216.833C270.677 216.441 271.143 216.033 271.628 215.607C272.116 215.184 272.659 214.786 273.204 214.351C274.28 213.465 275.518 212.631 276.804 211.729C279.427 210.001 282.434 208.271 285.743 206.75C289.068 205.261 292.362 204.132 295.409 203.287C296.945 202.907 298.398 202.521 299.788 202.288C300.48 202.162 301.143 202.012 301.791 201.921C302.437 201.833 303.057 201.749 303.652 201.668C304.835 201.482 305.92 201.434 306.867 201.352C307.814 201.262 308.632 201.24 309.303 201.239C309.926 201.234 310.436 201.231 310.843 201.228C311.196 201.234 311.381 201.244 311.381 201.259Z" fill="#1D191F"/>
<path d="M306.666 316.711C306.666 316.844 269.822 316.952 224.385 316.952C178.931 316.952 142.096 316.843 142.096 316.711C142.096 316.577 178.931 316.47 224.385 316.47C269.822 316.47 306.666 316.578 306.666 316.711Z" fill="#1D191F"/>
<path d="M107.948 348.84C107.811 348.84 107.699 342.143 107.699 333.883C107.699 325.621 107.811 318.926 107.948 318.926C108.085 318.926 108.196 325.621 108.196 333.883C108.197 342.142 108.085 348.84 107.948 348.84Z" fill="#1D191F"/>
<path d="M114.202 376.417C114.065 376.417 113.955 366.999 113.955 355.385C113.955 343.766 114.066 334.35 114.202 334.35C114.339 334.35 114.45 343.766 114.45 355.385C114.45 366.999 114.339 376.417 114.202 376.417Z" fill="#1D191F"/>
<path d="M29.6795 140.137V149.733H26.2866L33.6004 158.01L40.4614 149.903H36.9933V140.137H29.6795Z" fill="#5D80D9"/>
<path opacity="0.3" d="M29.6795 140.137V149.733H26.2866L33.6004 158.01L40.4614 149.903H36.9933V140.137H29.6795Z" fill="#1D191F"/>
<path d="M53.5321 118.727C51.3442 110.49 43.6691 104.398 34.5078 104.398C28.296 104.398 22.7658 107.202 19.1614 111.57C18.5398 111.501 17.9106 111.456 17.269 111.456C8.24594 111.456 0.932129 118.562 0.932129 127.328C0.932129 136.095 8.24689 143.2 17.269 143.2H52.8419C59.8077 143.2 65.4542 137.715 65.4542 130.947C65.4542 124.406 60.1747 119.077 53.5321 118.727Z" fill="#5D80D9"/>
<path d="M57.2928 138.924C57.246 138.857 57.9382 138.409 58.8581 137.49C59.7771 136.58 60.8896 135.142 61.5693 133.313C62.25 131.483 62.3415 129.686 62.2338 128.416C62.1318 127.138 61.8944 126.363 61.9735 126.341C62.024 126.322 62.3854 127.069 62.5827 128.379C62.7848 129.676 62.7495 131.561 62.0364 133.477C61.3243 135.391 60.1117 136.863 59.1021 137.735C58.0878 138.62 57.3185 138.97 57.2928 138.924Z" fill="#1D191F"/>
<path d="M19.6111 116.212C19.5939 116.292 18.6997 116.094 17.2449 116.079C15.7978 116.057 13.7673 116.288 11.7424 117.149C9.71663 118.01 8.16369 119.303 7.19798 120.349C6.22179 121.398 5.7642 122.169 5.6927 122.128C5.64504 122.105 5.99681 121.264 6.93106 120.127C7.85291 118.994 9.43254 117.603 11.5432 116.707C13.6529 115.809 15.7768 115.627 17.2583 115.737C18.7521 115.843 19.6273 116.163 19.6111 116.212Z" fill="#1D191F"/>
<path d="M30.6459 108.372C30.6517 108.452 30.0025 108.516 29.0072 108.788C28.0129 109.056 26.6821 109.588 25.4085 110.482C24.1386 111.382 23.2063 112.447 22.6362 113.283C22.0623 114.117 21.7983 114.697 21.722 114.668C21.6705 114.651 21.8192 114.018 22.3369 113.104C22.8479 112.193 23.7859 111.034 25.1167 110.091C26.4514 109.154 27.8747 108.646 28.9252 108.456C29.9796 108.261 30.645 108.32 30.6459 108.372Z" fill="#1D191F"/>
<path d="M45.9454 143.068C45.9454 143.201 41.1417 143.309 35.2168 143.309C29.2901 143.309 24.4873 143.2 24.4873 143.068C24.4873 142.935 29.2901 142.827 35.2168 142.827C41.1417 142.826 45.9454 142.935 45.9454 143.068Z" fill="#1D191F"/>
<path d="M47.1487 171.657C47.0115 171.657 46.9009 167.834 46.9009 163.12C46.9009 158.404 47.0124 154.582 47.1487 154.582C47.2851 154.582 47.3966 158.404 47.3966 163.12C47.3976 167.834 47.286 171.657 47.1487 171.657Z" fill="#1D191F"/>
<path d="M50.5833 179.114C50.446 179.114 50.3354 174.193 50.3354 168.124C50.3354 162.053 50.447 157.133 50.5833 157.133C50.7206 157.133 50.8312 162.053 50.8312 168.124C50.8312 174.193 50.7196 179.114 50.5833 179.114Z" fill="#1D191F"/>
<g opacity="0.3">
<path d="M334.982 231.47C333.113 220.896 318.654 210.172 306.221 212.581C295.391 214.68 283.729 217.124 273.022 219.751C268.605 220.834 264.023 215.619 260.322 213.036C258.378 211.68 257.237 209.521 256.023 207.516C249.133 196.136 237.794 187.593 225.122 182.824C212.451 178.056 198.515 176.915 185.007 178.354C174.533 179.469 163.04 182.978 158.167 192.056C156.206 195.712 155.429 200.108 152.381 202.978C148.324 206.798 141.889 206.493 136.603 208.427C126.028 212.296 120.667 226.995 121.998 237.897C123.33 248.804 133.318 262.848 154.299 265.09C154.299 265.09 230.307 265.735 267.841 267.502C280.852 268.115 284.776 266.374 297.797 266.045C320.76 265.465 338.409 250.854 334.982 231.47Z" fill="#1D191F"/>
</g>
<path d="M195.354 284.582C196.63 284.274 198.053 282.993 199.155 282.303C201.862 280.61 204.54 278.874 207.187 277.094C197.673 274.403 189.596 272.285 180.082 269.658C179.806 273.276 180.067 277.201 181.132 280.678C182.009 283.541 183.689 286.584 186.661 287.344C189.364 288.034 192.109 286.587 194.488 285.162C194.709 285.029 194.93 284.897 195.151 284.763" fill="#D7DBE6"/>
<path d="M196.993 279.477C196.847 279.462 196.907 278.262 196.57 276.847C196.25 275.427 195.665 274.368 195.79 274.294C195.891 274.218 196.709 275.226 197.054 276.74C197.411 278.252 197.117 279.504 196.993 279.477Z" fill="#1D191F"/>
<path d="M199.042 278.994C198.901 278.964 199.017 278.038 198.889 276.918C198.774 275.797 198.462 274.914 198.594 274.857C198.708 274.796 199.256 275.655 199.383 276.868C199.519 278.08 199.167 279.03 199.042 278.994Z" fill="#1D191F"/>
<path d="M186.47 271.408C186.555 271.427 186.282 272.369 186.267 273.917C186.246 275.447 186.551 277.634 187.755 279.666C188.969 281.722 190.365 283.41 191.652 284.308C192.927 285.228 193.937 285.414 193.906 285.505C193.9 285.532 193.646 285.513 193.205 285.394C192.761 285.28 192.141 285.025 191.45 284.588C190.05 283.721 188.556 281.995 187.325 279.909C186.059 277.767 185.804 275.478 185.916 273.906C185.97 273.112 186.095 272.478 186.218 272.052C186.34 271.625 186.441 271.399 186.47 271.408Z" fill="#1E397D"/>
<path d="M193.907 273.549C194.017 273.505 195.028 275.856 195.458 278.954C195.892 282.052 195.562 284.579 195.444 284.565C195.29 284.558 195.393 282.055 194.966 279.018C194.545 275.982 193.76 273.595 193.907 273.549Z" fill="#1E397D"/>
<path d="M191.752 283.398C191.709 283.443 191.111 283.02 190.243 282.218C189.384 281.417 188.235 280.208 187.405 278.587C186.574 276.962 186.37 275.267 186.543 274.097C186.704 272.913 187.125 272.277 187.168 272.303C187.249 272.331 186.956 272.999 186.893 274.127C186.817 275.247 187.062 276.829 187.851 278.374C188.641 279.92 189.711 281.129 190.495 281.981C191.288 282.831 191.802 283.345 191.752 283.398Z" fill="#5D80D9"/>
<path d="M205.083 278.378C205.142 278.499 203.64 279.408 201.729 280.41C199.817 281.413 198.21 282.131 198.139 282.017C198.069 281.904 199.57 280.994 201.494 279.985C203.417 278.978 205.024 278.258 205.083 278.378Z" fill="#5D80D9"/>
<path d="M189.909 283.533C190.004 283.612 188.874 284.755 187.009 285.351C185.15 285.962 183.54 285.707 183.566 285.589C183.571 285.443 185.102 285.472 186.852 284.893C188.608 284.336 189.816 283.42 189.909 283.533Z" fill="#1E397D"/>
<path d="M186.672 278.785C186.686 278.928 185.389 279.1 183.953 279.744C182.509 280.372 181.522 281.207 181.421 281.103C181.322 281.026 182.209 279.977 183.748 279.305C185.28 278.621 186.677 278.661 186.672 278.785Z" fill="#1E397D"/>
<path d="M186.047 274.571C185.971 274.696 184.685 273.952 182.907 273.725C181.133 273.472 179.687 273.849 179.648 273.708C179.588 273.6 181.069 272.98 182.975 273.247C184.883 273.495 186.135 274.483 186.047 274.571Z" fill="#1E397D"/>
<path d="M259.032 261.183C259.087 261.269 223.271 269.658 223.271 269.658L218.004 257.66L220.422 254.037C220.422 254.037 235.558 250.716 247.88 243.945L259.032 261.183Z" fill="#CDD8F3"/>
<path d="M174.981 227.056C174.981 227.056 173.35 224.735 166.394 221.429C160.627 218.69 145.823 216.384 139.831 227.639C133.84 238.893 138.433 256.162 148.419 259.849C158.405 263.536 174.981 268.58 181.771 270.715C188.562 272.85 210.93 278.282 210.93 278.282L220.117 273.043L221.2 256.385C221.2 256.385 208.534 243.744 197.749 240.251C186.964 236.758 174.981 227.056 174.981 227.056Z" fill="#1D191F"/>
<path d="M154.298 219.208C154.395 219.07 164.463 219.344 171.809 222.037C174.576 223.051 177.28 224.13 177.28 224.13L181.343 212.888L211.782 203.036H245.484L256.449 224.13V225.195C256.449 225.195 269.608 225.408 275.309 222.851C281.011 220.295 298.775 212.837 303.381 211.346C307.986 209.855 328.6 206.985 333.206 219.18C337.811 231.374 334.544 244.087 326.846 248.731C323.218 250.92 261.932 266.318 261.932 266.318L247.457 243.946C247.457 243.946 225.392 254.566 218.003 253.411C210.615 252.255 154.298 219.208 154.298 219.208Z" fill="#1D191F"/>
<path d="M216.453 208.472C216.469 208.468 216.521 208.615 216.604 208.901C216.695 209.243 216.808 209.657 216.942 210.157C217.217 211.252 217.574 212.848 217.933 214.833C218.676 218.8 219.416 224.325 219.994 230.446C220.558 236.571 220.87 242.13 220.994 246.156C221.06 248.169 221.079 249.8 221.077 250.926C221.07 251.443 221.063 251.871 221.057 252.224C221.047 252.52 221.034 252.676 221.016 252.677C220.999 252.677 220.979 252.522 220.957 252.226C220.937 251.874 220.913 251.447 220.884 250.931C220.823 249.731 220.742 248.124 220.643 246.171C220.43 242.153 220.062 236.605 219.5 230.489C218.923 224.377 218.24 218.859 217.587 214.889C217.274 212.902 216.97 211.302 216.753 210.197C216.655 209.69 216.573 209.27 216.506 208.924C216.455 208.631 216.436 208.475 216.453 208.472Z" fill="#1E397D"/>
<path d="M256.11 225.717C256.125 225.849 248.483 226.783 239.043 227.801C229.599 228.82 221.935 229.538 221.919 229.406C221.904 229.273 229.545 228.341 238.989 227.322C248.428 226.303 256.095 225.585 256.11 225.717Z" fill="#1E397D"/>
<path d="M251.081 225.765C251.075 225.798 250.687 225.766 249.992 225.68C249.298 225.589 248.291 225.471 247.048 225.341C244.561 225.08 241.111 224.846 237.298 224.908C233.484 224.975 230.044 225.325 227.569 225.671C226.33 225.842 225.329 225.995 224.639 226.109C223.948 226.218 223.561 226.264 223.553 226.231C223.546 226.199 223.918 226.091 224.6 225.925C225.281 225.753 226.276 225.549 227.513 225.334C229.986 224.9 233.448 224.493 237.29 224.425C241.13 224.363 244.603 224.653 247.091 225.002C248.335 225.175 249.337 225.346 250.023 225.494C250.711 225.638 251.088 225.733 251.081 225.765Z" fill="#1E397D"/>
<path d="M255.74 224.486C255.663 224.626 252.989 222.917 249.209 222.13C245.435 221.301 242.27 221.76 242.262 221.602C242.253 221.546 243.026 221.356 244.311 221.272C245.594 221.186 247.39 221.249 249.315 221.658C251.239 222.073 252.897 222.749 254.022 223.351C255.152 223.952 255.772 224.44 255.74 224.486Z" fill="#1E397D"/>
<path d="M227.671 242.8C227.749 242.899 226.464 243.911 224.585 244.636C222.709 245.371 221.06 245.499 221.046 245.375C221.021 245.235 222.586 244.9 224.4 244.188C226.22 243.488 227.59 242.682 227.671 242.8Z" fill="#1E397D"/>
<path d="M226.052 246.947C226.097 247.068 224.999 247.548 223.541 247.747C222.083 247.952 220.891 247.79 220.899 247.662C220.904 247.524 222.065 247.468 223.471 247.269C224.877 247.077 226.007 246.816 226.052 246.947Z" fill="#1E397D"/>
<path d="M277.85 223.668C277.859 223.682 277.704 223.784 277.403 223.965C277.052 224.169 276.612 224.424 276.073 224.736C274.847 225.422 273.176 226.356 271.136 227.496C266.889 229.817 261.124 232.966 254.755 236.446C248.356 239.878 242.566 242.985 238.301 245.272C236.23 246.357 234.533 247.247 233.288 247.898C232.731 248.179 232.276 248.408 231.913 248.591C231.596 248.745 231.426 248.818 231.417 248.803C231.409 248.788 231.563 248.686 231.865 248.505C232.217 248.301 232.657 248.045 233.195 247.732C234.421 247.047 236.093 246.112 238.132 244.972C242.378 242.652 248.143 239.504 254.514 236.023C260.91 232.593 266.698 229.487 270.964 227.199C273.035 226.115 274.733 225.225 275.978 224.572C276.536 224.292 276.99 224.062 277.354 223.88C277.671 223.727 277.842 223.654 277.85 223.668Z" fill="#1E397D"/>
<path d="M303.556 218.95C303.559 218.967 303.346 219.019 302.94 219.102C302.483 219.194 301.894 219.312 301.163 219.458C299.622 219.767 297.4 220.266 294.693 221.007C289.271 222.468 281.963 225.121 274.289 228.87C266.609 232.615 259.957 236.558 255.146 239.405C252.782 240.813 250.849 241.962 249.454 242.793C248.813 243.165 248.296 243.466 247.896 243.699C247.536 243.902 247.344 244.002 247.334 243.987C247.325 243.973 247.5 243.846 247.841 243.616C248.229 243.364 248.729 243.038 249.35 242.634C250.665 241.79 252.579 240.582 254.96 239.115C259.726 236.193 266.361 232.195 274.066 228.438C281.766 224.677 289.132 222.06 294.599 220.679C297.329 219.976 299.569 219.526 301.126 219.274C301.902 219.134 302.511 219.065 302.922 219.007C303.337 218.954 303.554 218.934 303.556 218.95Z" fill="#1E397D"/>
<path d="M318.654 214.743C318.645 214.824 317.541 214.731 315.766 214.781C313.992 214.827 311.542 215.078 308.933 215.776C306.324 216.483 304.091 217.493 302.546 218.34C300.996 219.186 300.1 219.817 300.05 219.752C300.029 219.725 300.234 219.543 300.625 219.235C301.011 218.922 301.606 218.512 302.367 218.047C303.887 217.112 306.143 216.031 308.801 215.312C311.46 214.601 313.967 214.399 315.765 214.441C316.665 214.459 317.392 214.514 317.889 214.589C318.386 214.656 318.658 214.709 318.654 214.743Z" fill="#1E397D"/>
<path d="M313.347 218.656C313.326 218.8 310.795 218.475 307.67 218.588C304.544 218.684 302.043 219.177 302.011 219.034C301.974 218.918 304.468 218.204 307.653 218.107C310.836 217.992 313.375 218.538 313.347 218.656Z" fill="#1E397D"/>
<path d="M302.293 214.875C302.361 215.004 300.165 216.136 297.723 217.906C295.27 219.664 293.519 221.377 293.412 221.277C293.316 221.199 294.931 219.309 297.427 217.519C299.913 215.717 302.244 214.763 302.293 214.875Z" fill="#1E397D"/>
<path d="M334.547 225.445C334.554 225.449 334.522 225.515 334.451 225.641C334.364 225.79 334.258 225.972 334.128 226.193C333.841 226.676 333.393 227.377 332.758 228.24C331.51 229.975 329.446 232.362 326.347 234.694C323.246 237.015 319.218 239.329 314.527 241.425C309.837 243.53 304.486 245.377 298.881 247.289C287.676 251.097 277.535 254.544 270.145 257.055C266.492 258.272 263.521 259.262 261.417 259.963C260.415 260.286 259.62 260.542 259.036 260.73C258.786 260.805 258.581 260.867 258.412 260.918C258.271 260.958 258.197 260.974 258.194 260.966C258.191 260.958 258.26 260.926 258.395 260.87C258.559 260.808 258.759 260.731 259.002 260.637C259.579 260.428 260.363 260.143 261.352 259.784C263.443 259.049 266.396 258.009 270.027 256.732C277.405 254.186 287.529 250.693 298.716 246.833C304.323 244.92 309.661 243.091 314.337 241.019C319.012 238.957 323.036 236.686 326.134 234.422C329.231 232.146 331.313 229.819 332.603 228.127C333.259 227.286 333.731 226.604 334.044 226.139C334.19 225.928 334.31 225.756 334.408 225.613C334.492 225.498 334.539 225.44 334.547 225.445Z" fill="#1E397D"/>
<path d="M219.104 273.635C219.098 273.651 218.857 273.569 218.407 273.398C217.916 273.206 217.262 272.95 216.445 272.631C214.749 271.949 212.302 270.941 209.298 269.656C203.284 267.095 195.038 263.418 186.034 259.149C177.037 254.858 168.994 250.767 163.307 247.571C160.457 245.984 158.193 244.627 156.65 243.661C155.918 243.185 155.332 242.806 154.891 242.518C154.493 242.253 154.288 242.107 154.297 242.093C154.307 242.079 154.53 242.198 154.946 242.437C155.399 242.704 156.001 243.058 156.753 243.501C158.325 244.418 160.612 245.728 163.479 247.275C169.202 250.39 177.262 254.429 186.251 258.716C195.249 262.983 203.466 266.706 209.44 269.346C212.394 270.645 214.801 271.703 216.521 272.459C217.323 272.814 217.962 273.096 218.445 273.309C218.885 273.508 219.111 273.62 219.104 273.635Z" fill="#1E397D"/>
<path d="M156.663 225.048C156.648 225.022 156.942 224.825 157.507 224.525C158.071 224.224 158.92 223.838 160.01 223.468C162.176 222.72 165.406 222.131 168.931 222.571C172.415 222.98 175.538 223.845 177.565 224.952C178.581 225.492 179.341 226.034 179.821 226.453C180.303 226.87 180.536 227.135 180.516 227.155C180.453 227.23 179.443 226.232 177.404 225.256C175.383 224.251 172.322 223.456 168.869 223.05C165.435 222.622 162.279 223.14 160.12 223.793C157.945 224.44 156.704 225.128 156.663 225.048Z" fill="#1E397D"/>
<path d="M221.199 256.385C221.188 256.397 221.034 256.281 220.753 256.051C220.433 255.784 220.03 255.448 219.533 255.035C218.477 254.15 216.916 252.905 214.969 251.391C211.076 248.359 205.583 244.308 199.53 239.813C198.021 238.686 196.549 237.585 195.125 236.522C193.69 235.491 192.229 234.594 190.82 233.768C187.995 232.123 185.383 230.722 183.317 229.343C181.236 227.985 179.688 226.692 178.709 225.718C178.204 225.246 177.86 224.835 177.621 224.562C177.383 224.288 177.265 224.14 177.278 224.129C177.318 224.095 177.821 224.667 178.844 225.583C179.857 226.508 181.421 227.747 183.51 229.058C185.586 230.391 188.203 231.755 191.055 233.386C192.477 234.206 193.956 235.103 195.414 236.142C196.866 237.191 198.31 238.312 199.832 239.432C205.883 243.925 211.348 248.022 215.19 251.127C217.112 252.678 218.641 253.965 219.661 254.895C220.178 255.351 220.56 255.728 220.821 255.98C221.081 256.234 221.212 256.373 221.199 256.385Z" fill="#1E397D"/>
<path d="M196.067 233.294C196.098 233.228 197.378 233.739 199.46 234.524C201.542 235.31 204.436 236.348 207.681 237.348C210.929 238.346 213.91 239.116 216.077 239.638C218.245 240.16 219.594 240.459 219.58 240.53C219.573 240.562 219.228 240.528 218.608 240.437C217.988 240.348 217.096 240.191 215.999 239.97C213.805 239.532 210.794 238.81 207.531 237.807C204.27 236.802 201.381 235.708 199.328 234.839C198.3 234.404 197.477 234.035 196.918 233.761C196.356 233.488 196.053 233.324 196.067 233.294Z" fill="#1E397D"/>
<path d="M206.606 225.083C206.614 225.152 205.303 225.348 203.185 225.656C201.067 225.966 198.144 226.401 194.929 226.959C191.714 227.519 188.816 228.096 186.719 228.52C184.622 228.944 183.323 229.203 183.305 229.135C183.297 229.103 183.611 228.996 184.187 228.83C184.762 228.662 185.601 228.442 186.641 228.188C188.722 227.678 191.616 227.046 194.842 226.484C198.066 225.925 201.007 225.542 203.141 225.318C204.208 225.207 205.072 225.13 205.672 225.093C206.27 225.056 206.602 225.051 206.606 225.083Z" fill="#1E397D"/>
<path d="M202.089 219.647C202.094 219.725 200.777 219.831 198.673 220.137C196.569 220.442 193.681 220.997 190.583 221.927C187.485 222.865 184.782 223.997 182.871 224.902C180.957 225.807 179.81 226.445 179.768 226.378C179.75 226.349 180.019 226.16 180.521 225.843C181.02 225.52 181.768 225.093 182.71 224.599C184.594 223.609 187.305 222.414 190.435 221.466C193.566 220.525 196.496 220.019 198.627 219.799C199.693 219.687 200.557 219.629 201.157 219.619C201.757 219.605 202.087 219.614 202.089 219.647Z" fill="#1E397D"/>
<path d="M240.396 266.411L234.694 279.361C236.798 281.199 244.808 282.396 247.633 282.258C250.46 282.12 254.532 282.152 257.343 281.839C260.913 281.443 264.52 281.701 268.106 281.915C271.693 282.129 275.315 282.298 278.86 281.725C282.404 281.152 285.907 279.778 288.43 277.292C290.954 274.807 292.349 271.1 291.459 267.718C290.689 264.793 288.308 262.418 285.487 261.151C282.666 259.883 279.453 259.628 276.361 259.935C273.27 260.243 270.265 261.086 267.283 261.935C264.113 262.838 260.858 263.763 257.566 263.51C256.895 263.458 256.228 263.48 255.567 263.362C251.26 262.592 246.766 262.549 242.887 264.921C242.088 265.411 241.205 265.835 240.396 266.411Z" fill="#D7DBE6"/>
<path d="M241.223 267.897C241.213 267.885 241.382 267.722 241.726 267.43C242.078 267.151 242.61 266.746 243.364 266.325C244.849 265.499 247.325 264.552 250.468 264.837C252.015 264.984 253.676 265.291 255.463 265.552C257.244 265.805 259.169 266.035 261.167 265.823C263.171 265.627 265.221 265.051 267.345 264.442C269.465 263.838 271.712 263.203 274.091 263.047C276.455 262.861 278.815 263.007 280.979 263.624C282.06 263.926 283.091 264.335 284.045 264.831C285.001 265.313 285.888 265.962 286.58 266.712C287.987 268.205 288.897 269.968 289.316 271.718C289.522 272.589 289.583 273.494 289.402 274.322C289.232 275.149 288.9 275.902 288.487 276.552C287.665 277.863 286.553 278.78 285.521 279.429C284.481 280.083 283.507 280.504 282.711 280.828C281.911 281.147 281.279 281.362 280.849 281.506C280.419 281.649 280.191 281.713 280.185 281.699C280.178 281.683 280.397 281.587 280.814 281.415C281.232 281.243 281.851 280.998 282.634 280.656C283.413 280.307 284.363 279.866 285.366 279.205C286.364 278.548 287.417 277.645 288.186 276.377C288.966 275.128 289.392 273.487 288.914 271.809C288.499 270.139 287.601 268.435 286.245 267.015C284.907 265.579 282.925 264.685 280.846 264.079C278.746 263.487 276.449 263.348 274.131 263.528C269.478 263.861 265.354 265.921 261.213 266.267C259.148 266.472 257.189 266.22 255.4 265.948C253.607 265.668 251.952 265.344 250.433 265.177C247.385 264.856 244.947 265.726 243.457 266.49C241.95 267.281 241.256 267.94 241.223 267.897Z" fill="#1E397D"/>
<path d="M280.185 281.699C280.157 281.719 279.975 281.518 279.667 281.135C279.506 280.947 279.332 280.703 279.149 280.408C278.958 280.116 278.739 279.783 278.544 279.392C278.107 278.629 277.721 277.658 277.35 276.564C277.014 275.459 276.736 274.217 276.587 272.893C276.456 271.568 276.468 270.296 276.564 269.148C276.699 268.003 276.873 266.975 277.143 266.142C277.252 265.72 277.397 265.351 277.523 265.028C277.641 264.702 277.762 264.429 277.88 264.214C278.102 263.778 278.238 263.546 278.27 263.56C278.354 263.596 277.885 264.566 277.483 266.228C277.262 267.054 277.129 268.065 277.021 269.185C276.951 270.309 276.953 271.549 277.081 272.844C277.227 274.137 277.485 275.351 277.788 276.438C278.128 277.513 278.47 278.476 278.859 279.242C279.598 280.789 280.258 281.647 280.185 281.699Z" fill="#1D191F"/>
<path d="M243.909 264.602C244.03 264.668 243.881 265.149 243.638 265.706C243.393 266.261 243.138 266.699 243.006 266.66C242.876 266.622 242.924 266.098 243.181 265.517C243.436 264.933 243.791 264.538 243.909 264.602Z" fill="#1E397D"/>
<path d="M247.981 263.057C248.107 263.113 248.006 263.591 247.819 264.147C247.631 264.704 247.421 265.147 247.285 265.119C247.153 265.092 247.149 264.582 247.347 263.996C247.544 263.412 247.857 263.003 247.981 263.057Z" fill="#1E397D"/>
<path d="M253.21 262.964C253.34 263.006 253.273 263.551 253.06 264.182C252.848 264.814 252.569 265.292 252.439 265.25C252.308 265.208 252.376 264.664 252.588 264.032C252.802 263.4 253.08 262.922 253.21 262.964Z" fill="#1E397D"/>
<path d="M258.121 263.559C258.253 263.596 258.206 264.145 258.016 264.783C257.827 265.422 257.566 265.91 257.434 265.873C257.302 265.836 257.349 265.288 257.54 264.649C257.729 264.01 257.99 263.522 258.121 263.559Z" fill="#1E397D"/>
<path d="M262.263 266.077C262.126 266.076 262.018 265.432 262.023 264.636C262.027 263.841 262.142 263.197 262.279 263.198C262.416 263.199 262.524 263.843 262.519 264.639C262.515 265.434 262.399 266.078 262.263 266.077Z" fill="#1E397D"/>
<path d="M266.873 264.943C266.737 264.961 266.543 264.389 266.44 263.664C266.337 262.94 266.363 262.338 266.499 262.321C266.634 262.302 266.829 262.874 266.932 263.599C267.035 264.323 267.008 264.925 266.873 264.943Z" fill="#1E397D"/>
<path d="M271.108 260.889C271.242 260.864 271.461 261.408 271.597 262.103C271.732 262.799 271.732 263.382 271.598 263.406C271.463 263.431 271.244 262.888 271.108 262.192C270.973 261.497 270.973 260.914 271.108 260.889Z" fill="#1E397D"/>
<path d="M276.598 259.909C276.733 259.937 276.68 260.698 276.481 261.611C276.282 262.523 276.012 263.24 275.879 263.212C275.744 263.184 275.797 262.423 275.996 261.511C276.194 260.598 276.464 259.881 276.598 259.909Z" fill="#1E397D"/>
<path d="M281.305 260.037C281.43 260.092 281.094 260.935 280.555 261.919C280.015 262.904 279.483 263.645 279.366 263.576C279.249 263.505 279.585 262.662 280.116 261.693C280.648 260.724 281.18 259.983 281.305 260.037Z" fill="#1E397D"/>
<path d="M286.104 261.266C286.218 261.339 285.778 262.194 285.118 263.175C284.458 264.156 283.831 264.893 283.717 264.82C283.602 264.747 284.043 263.893 284.703 262.912C285.361 261.93 285.99 261.193 286.104 261.266Z" fill="#1E397D"/>
<path d="M289.188 264.075C289.3 264.151 288.882 264.925 288.254 265.803C287.624 266.682 287.024 267.333 286.911 267.257C286.799 267.181 287.217 266.406 287.846 265.527C288.475 264.65 289.075 263.999 289.188 264.075Z" fill="#1E397D"/>
<path d="M291.35 267.653C291.46 267.729 291.034 268.481 290.31 269.257C289.586 270.035 288.859 270.519 288.769 270.421C288.677 270.32 289.239 269.69 289.942 268.934C290.647 268.179 291.237 267.572 291.35 267.653Z" fill="#1E397D"/>
<path d="M291.035 273.107C291.142 273.186 290.894 273.636 290.332 273.875C289.77 274.116 289.261 273.99 289.274 273.861C289.277 273.725 289.686 273.629 290.132 273.433C290.581 273.247 290.929 273.018 291.035 273.107Z" fill="#1E397D"/>
<path d="M287.984 277.777C288.029 277.902 287.893 278.057 287.687 278.023C287.48 277.987 287.405 277.796 287.492 277.694C287.577 277.588 287.694 277.537 287.772 277.547C287.848 277.564 287.941 277.65 287.984 277.777Z" fill="#1E397D"/>
<path d="M254.739 279.626C254.605 279.549 255.853 277.799 256.298 275.287C256.78 272.781 256.237 270.719 256.391 270.692C256.497 270.633 257.289 272.738 256.787 275.373C256.314 278.011 254.817 279.717 254.739 279.626Z" fill="#1D191F"/>
<path d="M258.669 279.186C258.538 279.108 259.714 277.504 260.097 275.182C260.515 272.866 259.941 270.977 260.093 270.945C260.197 270.879 261.024 272.809 260.587 275.262C260.177 277.72 258.746 279.282 258.669 279.186Z" fill="#1D191F"/>
<path d="M263.615 279.216C263.483 279.134 264.881 277.448 265.341 274.914C265.844 272.386 265.159 270.327 265.313 270.296C265.368 270.277 265.618 270.761 265.806 271.613C265.996 272.461 266.078 273.686 265.83 275.001C265.578 276.315 265.051 277.431 264.561 278.157C264.071 278.887 263.659 279.252 263.615 279.216Z" fill="#1D191F"/>
<path d="M269.2 278.893C269.061 278.825 270.17 276.98 270.485 274.431C270.836 271.887 270.238 269.83 270.391 269.798C270.496 269.739 271.341 271.826 270.978 274.492C270.642 277.161 269.287 278.977 269.2 278.893Z" fill="#1D191F"/>
<path d="M253.739 274.824C253.745 274.85 253.463 274.947 252.93 274.932C252.402 274.916 251.623 274.745 250.808 274.258C249.989 273.776 249.188 272.978 248.438 272.031C248.069 271.563 247.636 271.055 247.409 270.376C247.301 270.04 247.254 269.668 247.323 269.29C247.389 268.913 247.607 268.541 247.919 268.291C248.546 267.784 249.393 267.691 250.09 267.894C250.791 268.095 251.343 268.512 251.792 268.94C252.687 269.808 253.251 270.785 253.583 271.641C253.915 272.503 254.02 273.244 254.049 273.75C254.073 274.26 254.029 274.539 253.999 274.539C253.905 274.55 253.964 273.4 253.257 271.769C252.899 270.965 252.329 270.056 251.473 269.259C251.048 268.868 250.542 268.509 249.957 268.349C249.389 268.186 248.708 268.278 248.24 268.659C247.764 269.029 247.692 269.681 247.874 270.236C248.053 270.8 248.441 271.288 248.802 271.761C249.521 272.706 250.255 273.483 250.999 273.971C252.512 274.978 253.758 274.742 253.739 274.824Z" fill="#1D191F"/>
<path d="M253.472 274.682C253.504 274.694 253.44 274.945 253.287 275.388C253.13 275.829 252.898 276.471 252.475 277.214C252.055 277.947 251.401 278.811 250.352 279.378C249.834 279.66 249.213 279.86 248.545 279.859C247.89 279.855 247.119 279.644 246.687 278.982C246.267 278.291 246.524 277.501 246.892 276.981C247.276 276.45 247.799 276.064 248.328 275.813C249.395 275.306 250.429 275.158 251.263 274.996C252.946 274.688 253.994 274.531 254.008 274.596C254.022 274.66 253.001 274.936 251.338 275.329C250.511 275.532 249.504 275.721 248.54 276.207C248.06 276.448 247.617 276.793 247.296 277.246C246.99 277.685 246.832 278.295 247.114 278.732C247.388 279.175 248.003 279.382 248.549 279.385C249.117 279.392 249.665 279.23 250.136 278.987C251.093 278.496 251.732 277.723 252.175 277.039C253.031 275.636 253.384 274.643 253.472 274.682Z" fill="#1D191F"/>
<path d="M253.117 278.627C253.008 278.535 253.557 277.825 253.718 276.79C253.903 275.759 253.615 274.916 253.748 274.863C253.856 274.788 254.415 275.674 254.208 276.868C254.014 278.063 253.196 278.73 253.117 278.627Z" fill="#1D191F"/>
<path d="M255.241 272.155C255.37 272.193 255.258 272.896 254.837 273.657C254.42 274.42 253.879 274.901 253.776 274.819C253.667 274.734 254.007 274.149 254.4 273.43C254.796 272.713 255.108 272.113 255.241 272.155Z" fill="#1D191F"/>
<path d="M270.513 265.264C270.537 265.317 269.747 265.737 268.389 266.237C267.032 266.738 265.094 267.288 262.898 267.607C260.699 267.923 258.68 267.946 257.233 267.849C255.783 267.755 254.902 267.578 254.91 267.519C254.92 267.363 258.49 267.774 262.824 267.13C267.162 266.521 270.455 265.118 270.513 265.264Z" fill="#5D80D9"/>
<path d="M268.142 280.282C268.152 280.414 265.81 280.678 262.912 280.871C260.013 281.063 257.656 281.112 257.647 280.979C257.637 280.847 259.979 280.583 262.877 280.39C265.775 280.197 268.133 280.149 268.142 280.282Z" fill="#5D80D9"/>
<path d="M280.793 280.642C280.762 280.533 282.28 280.651 284.153 279.435C285.062 278.831 286.023 277.893 286.644 276.613C287.272 275.343 287.475 273.729 287.16 272.125C286.836 270.519 286.049 269.097 285.048 268.066C284.053 267.02 282.906 266.328 281.896 265.875C279.846 264.988 278.396 264.983 278.415 264.883C278.416 264.857 278.771 264.831 279.408 264.9C280.044 264.967 280.964 265.143 282.035 265.562C283.096 265.99 284.315 266.678 285.381 267.762C286.455 268.832 287.305 270.334 287.648 272.034C287.981 273.734 287.751 275.455 287.056 276.805C286.369 278.162 285.323 279.124 284.344 279.721C283.351 280.314 282.428 280.562 281.79 280.639C281.149 280.717 280.792 280.662 280.793 280.642Z" fill="#5D80D9"/>
<path d="M220.49 257.872L245.313 268.568C245.313 268.568 245.81 273.513 243.788 277.533C241.972 281.144 236.469 280.42 236.469 280.42L214.665 275.492L219.524 272.721L220.49 257.872Z" fill="#CDD8F3"/>
<path d="M242.64 279.427C241.689 278.724 240.728 278.013 239.974 277.112C239.22 276.212 238.681 275.09 238.719 273.93C238.752 272.877 239.248 271.892 239.787 270.978C240.385 269.964 241.125 268.927 242.251 268.517C243.622 268.017 245.146 268.588 246.454 269.229L246.718 274.597L242.64 279.427Z" fill="#D7DBE6"/>
<path d="M245.313 268.568C245.258 268.69 239.656 266.394 232.802 263.441C225.946 260.486 220.435 257.994 220.491 257.872C220.546 257.75 226.148 260.046 233.003 263C239.857 265.953 245.369 268.447 245.313 268.568Z" fill="#5D80D9"/>
<path d="M273.499 171.454C274.489 171.485 275.33 170.741 275.366 169.779C275.645 162.172 270.478 144.923 267.999 137.766C266.483 133.388 261.366 130.199 257.784 127.844C253.457 125.001 238.148 121.52 233.114 120.164L231.417 120.166L208.033 118.468L195.159 124.465C195.159 124.465 177.303 131.034 172.127 140.184C166.951 149.335 163.014 176.188 163.014 176.188C163.014 176.188 160.642 183.854 163.014 187.317C164.491 189.472 169.988 191.341 174.938 192.264C172.26 200.932 174.372 207.365 174.277 208.471C174.081 210.751 172.282 216.054 176.502 215.727C180.721 215.4 213.75 206.932 223.554 206.552C233.358 206.172 241.979 209.31 247.336 212.223C252.283 214.912 252.239 215.111 254 210.359C255.761 205.608 250.133 200.28 250.133 200.28C250.133 200.28 255.193 182.544 257.54 170.952L273.499 171.454Z" fill="#1E397D"/>
<path d="M194.886 161.163C194.859 161.184 194.596 160.908 194.145 160.392C193.629 159.795 192.995 159.063 192.247 158.199C190.627 156.371 188.399 153.814 185.544 151.406C184.115 150.206 182.675 149.155 181.278 148.331C179.872 147.529 178.56 146.869 177.396 146.465C175.085 145.607 173.545 145.398 173.565 145.299C173.571 145.266 173.953 145.309 174.646 145.417C174.994 145.461 175.416 145.542 175.894 145.674C176.376 145.795 176.929 145.925 177.516 146.146C178.716 146.514 180.068 147.155 181.513 147.95C182.948 148.768 184.421 149.826 185.869 151.042C188.762 153.483 190.961 156.094 192.518 157.983C193.287 158.938 193.895 159.722 194.297 160.276C194.703 160.828 194.914 161.143 194.886 161.163Z" fill="#1D191F"/>
<path d="M190.617 186.768C190.617 186.801 190.207 186.831 189.464 186.857C188.72 186.885 187.645 186.898 186.315 186.886C183.657 186.859 179.974 186.722 175.947 186.143C171.919 185.56 168.355 184.561 165.88 183.597C164.642 183.118 163.658 182.685 163.001 182.342C162.34 182.006 161.984 181.808 161.999 181.779C162.039 181.7 163.513 182.41 166.003 183.277C168.489 184.153 172.025 185.088 176.02 185.666C180.015 186.24 183.675 186.431 186.325 186.545C187.57 186.594 188.62 186.636 189.465 186.669C190.207 186.701 190.617 186.735 190.617 186.768Z" fill="#1D191F"/>
<path d="M240.123 195.461C240.152 195.478 240.029 195.721 239.781 196.148C239.539 196.578 239.141 197.173 238.61 197.882C237.552 199.301 235.875 201.127 233.699 202.782C231.518 204.432 229.286 205.57 227.614 206.223C226.778 206.552 226.087 206.783 225.599 206.907C225.113 207.036 224.84 207.093 224.831 207.061C224.805 206.985 225.857 206.639 227.474 205.911C229.091 205.187 231.251 204.023 233.394 202.403C235.531 200.776 237.217 199.022 238.332 197.674C239.452 196.326 240.051 195.418 240.123 195.461Z" fill="#1D191F"/>
<path d="M240.548 202.576C240.584 202.623 240.02 203.117 238.994 203.769C237.97 204.421 236.466 205.202 234.699 205.813C232.931 206.419 231.255 206.732 230.037 206.85C228.817 206.971 228.059 206.932 228.056 206.873C228.04 206.72 231.065 206.569 234.532 205.358C238.011 204.179 240.461 202.447 240.548 202.576Z" fill="#1D191F"/>
<path d="M268 137.767C268.033 137.775 267.992 138.053 267.888 138.551C267.79 139.05 267.6 139.763 267.326 140.633C266.78 142.373 265.816 144.725 264.377 147.133C262.933 149.539 261.304 151.516 260.017 152.837C259.374 153.498 258.83 154.01 258.431 154.341C258.036 154.675 257.808 154.848 257.784 154.823C257.729 154.765 258.548 153.977 259.755 152.609C260.964 151.244 262.524 149.263 263.948 146.891C265.367 144.516 266.368 142.22 266.993 140.525C267.62 138.831 267.92 137.748 268 137.767Z" fill="#1D191F"/>
<path d="M274.002 167.386C274.003 167.451 273.122 167.522 271.694 167.561C270.267 167.6 268.295 167.6 266.118 167.519C263.94 167.437 261.973 167.289 260.553 167.143C259.134 166.998 258.26 166.862 258.266 166.797C258.272 166.729 259.156 166.745 260.579 166.803C262.185 166.871 264.063 166.95 266.138 167.038C268.212 167.106 270.09 167.167 271.697 167.22C273.12 167.267 274.002 167.317 274.002 167.386Z" fill="#1D191F"/>
<path d="M255.375 140.829C255.408 140.823 255.524 141.259 255.702 142.052C255.893 142.939 256.137 144.067 256.428 145.416C257.016 148.26 257.863 152.193 258.369 156.611C258.872 161.033 258.73 165.089 258.312 167.973C258.098 169.414 257.88 170.575 257.668 171.362C257.471 172.153 257.347 172.586 257.314 172.578C257.28 172.571 257.341 172.124 257.48 171.325C257.632 170.529 257.796 169.368 257.964 167.932C258.289 165.059 258.375 161.053 257.876 156.663C257.375 152.277 256.585 148.34 256.084 145.48C255.831 144.05 255.63 142.891 255.513 142.086C255.392 141.282 255.341 140.834 255.375 140.829Z" fill="#1D191F"/>
<path d="M194.886 164.369C194.92 164.373 194.896 164.753 194.823 165.437C194.751 166.12 194.628 167.107 194.463 168.324C194.128 170.757 193.623 174.114 192.927 177.802C192.23 181.49 191.44 184.805 190.681 187.156C190.309 188.333 189.932 189.264 189.649 189.896C189.336 190.517 189.15 190.852 189.119 190.837C189.043 190.802 189.712 189.432 190.344 187.06C191.011 184.702 191.743 181.392 192.438 177.714C193.133 174.036 193.693 170.691 194.115 168.273C194.319 167.144 194.491 166.187 194.632 165.41C194.764 164.735 194.853 164.364 194.886 164.369Z" fill="#1D191F"/>
<path d="M191.676 149.607C191.734 149.582 192.123 150.266 192.628 151.428C193.133 152.589 193.734 154.236 194.222 156.103C194.706 157.972 194.982 159.7 195.105 160.955C195.229 162.211 195.223 162.991 195.159 162.996C195.008 163.009 194.712 159.916 193.74 156.222C192.789 152.523 191.537 149.664 191.676 149.607Z" fill="#1D191F"/>
<path d="M218.659 182.457C218.647 182.45 218.738 182.269 218.926 181.927C219.137 181.553 219.417 181.059 219.769 180.438C220.542 179.109 221.629 177.242 222.98 174.92C225.774 170.198 229.654 163.638 234.113 156.102L234.427 156.43C231.613 157.759 228.571 159.074 225.388 160.299C221.552 161.777 217.776 163.025 214.249 164.037L213.504 164.25L213.997 163.669C219.383 157.318 224.033 151.834 227.371 147.897C229.018 145.984 230.339 144.449 231.28 143.354C231.721 142.854 232.073 142.456 232.34 142.153C232.585 141.883 232.716 141.747 232.728 141.755C232.738 141.763 232.628 141.917 232.404 142.203C232.152 142.518 231.82 142.932 231.404 143.452C230.489 144.566 229.204 146.13 227.602 148.08C224.299 152.043 219.695 157.565 214.365 163.96L214.114 163.592C217.624 162.571 221.384 161.322 225.205 159.849C228.377 158.628 231.409 157.323 234.217 156.006L234.929 155.673L234.531 156.335C230.012 163.838 226.079 170.368 223.248 175.069C221.845 177.361 220.717 179.205 219.914 180.518C219.533 181.123 219.23 181.603 219.001 181.967C218.788 182.297 218.671 182.465 218.659 182.457Z" fill="#FAFAFA"/>
<g opacity="0.3">
<path d="M235.758 207.807C236.88 208.091 239.043 204.78 240.286 202.756C236.457 204.813 232.796 207.277 228.521 206.378C233.32 205.234 237.185 201.563 238.818 197.032C235.661 201.535 231.586 204.73 226.292 206.525C226.29 206.524 233.974 207.354 235.758 207.807Z" fill="#1D191F"/>
</g>
<path d="M191.676 109.434C191.695 109.389 192.329 109.698 193.556 109.961C194.755 110.199 196.687 110.416 198.699 109.47C199.68 108.995 200.646 108.21 201.29 107.126C201.945 106.057 202.201 104.644 201.705 103.327C201.239 102.034 200.078 100.812 198.551 100.588C197.059 100.366 195.365 101.29 194.758 102.736C194.448 103.455 194.507 104.271 194.846 104.953C195.192 105.633 195.78 106.188 196.459 106.543C197.132 106.909 197.897 107.101 198.635 107.088C199.379 107.078 200.109 106.891 200.765 106.602C202.088 106.017 203.139 105.069 203.949 104.079C204.763 103.08 205.363 102.033 205.779 101.025C206.627 99.0066 206.778 97.207 206.775 95.9937C206.758 94.7711 206.619 94.0996 206.665 94.0922C206.683 94.0894 206.726 94.2543 206.794 94.5729C206.86 94.8915 206.931 95.3685 206.968 95.9881C207.03 97.2181 206.933 99.0604 206.105 101.15C205.699 102.193 205.1 103.282 204.273 104.325C203.446 105.36 202.364 106.366 200.954 107.004C200.253 107.32 199.466 107.53 198.642 107.547C197.814 107.565 196.971 107.357 196.223 106.955C195.471 106.563 194.804 105.949 194.401 105.16C194.003 104.376 193.932 103.396 194.295 102.556C195.013 100.883 196.881 99.8708 198.623 100.119C200.381 100.391 201.638 101.763 202.136 103.179C202.671 104.63 202.364 106.196 201.644 107.326C200.936 108.482 199.899 109.292 198.852 109.775C196.703 110.731 194.719 110.438 193.512 110.142C192.893 109.982 192.431 109.804 192.125 109.669C191.821 109.535 191.67 109.448 191.676 109.434Z" fill="#1D191F"/>
<path d="M266.419 89.0473C266.789 85.2888 265.532 81.3496 262.824 78.6413C260.116 75.9331 255.95 74.592 252.168 75.458C249.466 76.0757 246.83 77.1085 244.916 79.1322C244.128 79.9908 243.98 80.1538 243.439 81.1773C243.376 81.294 243.315 81.4144 243.256 81.5367C243.181 81.6886 243.11 81.8423 243.041 81.997C243.029 82.0229 243.017 82.0461 243.005 82.072L243.012 82.0618C241.856 84.6793 241.51 87.6339 242.172 90.407C243.178 94.6185 246.531 98.2631 250.776 99.5607C255.021 100.859 259.999 99.6876 263.053 96.5422C265.012 94.5222 266.147 91.8111 266.419 89.0473Z" fill="#1D191F"/>
<path d="M264.708 95.2259C264.622 95.2425 264.449 94.1755 263.782 92.5899C263.126 91.0116 261.875 88.9221 259.873 87.1882C257.871 85.4534 255.59 84.4865 253.901 84.0345C252.202 83.5714 251.092 83.5288 251.099 83.4435C251.1 83.413 251.378 83.3917 251.88 83.4111C252.382 83.4296 253.108 83.5102 253.988 83.7038C255.739 84.0798 258.127 85.0292 260.203 86.8279C262.28 88.6248 263.524 90.8208 264.11 92.4676C264.409 93.2947 264.574 93.9857 264.651 94.4682C264.73 94.9508 264.739 95.2212 264.708 95.2259Z" fill="#1E397D"/>
<path d="M260.987 87.9116C261.039 87.931 260.779 88.7915 260.113 90.0872C259.45 91.3793 258.326 93.0863 256.725 94.6711C255.119 96.2512 253.379 97.37 252.061 98.0341C250.738 98.701 249.857 98.9668 249.836 98.9168C249.743 98.764 253.231 97.4478 256.372 94.333C259.528 91.2339 260.828 87.8236 260.987 87.9116Z" fill="#1E397D"/>
<path d="M250.699 83.9327C250.551 83.8512 251.695 82.0654 252.645 79.7073C253.623 77.3381 253.5 75.2356 253.646 75.2319C253.704 75.2263 253.829 75.7468 253.812 76.6073C253.8 77.4659 253.59 78.6542 253.11 79.8777C252.124 82.3192 250.783 83.9892 250.699 83.9327Z" fill="#5D80D9"/>
<path d="M234.105 129.236C234.105 129.236 234.082 129.383 234.105 129.236V129.236Z" fill="#CDD8F3"/>
<path d="M250.843 80.7049C251.295 69.8822 243.025 60.1347 231.735 59.0381C219.756 57.8739 209.344 66.3839 208.572 77.7124L206.65 123.432C206.613 124.316 206.889 125.184 207.417 125.906C210.252 129.775 215.312 132.75 219.787 133.271C224.123 133.776 228.489 132.604 232.126 130.551C233.357 129.855 234.096 128.556 234.095 127.171L234.09 116.945C234.09 116.906 234.12 116.874 234.161 116.876C234.813 116.911 236.475 116.905 237.109 116.743C239.88 116.033 246.922 113.255 249.106 103.097C249.829 99.7275 250.446 90.1921 250.843 80.7049Z" fill="#CDD8F3"/>
<path d="M235.675 95.9164C235.671 95.8154 236.834 95.682 238.716 95.5459C239.192 95.5227 239.645 95.4551 239.74 95.1495C239.866 94.8281 239.691 94.3298 239.486 93.7916C239.092 92.6737 238.68 91.502 238.246 90.2739C236.529 85.2668 235.309 81.16 235.519 81.097C235.73 81.034 237.293 85.0408 239.01 90.0479C239.422 91.2816 239.817 92.4579 240.191 93.5832C240.347 94.1065 240.628 94.7058 240.354 95.3727C240.211 95.7052 239.85 95.933 239.542 95.996C239.234 96.0692 238.967 96.0609 238.732 96.0627C236.845 96.0673 235.678 96.0183 235.675 95.9164Z" fill="#1D191F"/>
<path d="M246.314 87.5243C246.305 88.3968 245.525 89.1035 244.571 89.1054C243.62 89.1072 242.853 88.4033 242.862 87.5308C242.871 86.6593 243.651 85.9507 244.603 85.9488C245.556 85.947 246.322 86.6528 246.314 87.5243Z" fill="#1D191F"/>
<path d="M248.029 82.491C247.859 82.6717 246.476 82.5855 244.716 83.1644C242.954 83.7294 241.803 84.6389 241.579 84.5852C241.47 84.5648 241.617 84.2907 242.115 83.8859C242.605 83.4858 243.488 82.9634 244.586 82.6068C245.685 82.2512 246.67 82.165 247.264 82.2132C247.871 82.2604 248.114 82.4077 248.029 82.491Z" fill="#1D191F"/>
<path d="M228.43 86.3859C228.421 87.2574 227.64 87.9651 226.687 87.9669C225.735 87.9688 224.969 87.2648 224.978 86.3933C224.986 85.5217 225.767 84.8132 226.718 84.8113C227.673 84.8085 228.438 85.5134 228.43 86.3859Z" fill="#1D191F"/>
<path d="M229.037 83.9739C228.767 83.986 227.754 82.9227 225.943 82.0826C224.14 81.2305 222.55 81.0758 222.416 80.8739C222.347 80.7803 222.668 80.6812 223.367 80.7414C224.055 80.797 225.139 81.0462 226.267 81.5732C227.393 82.1011 228.226 82.7495 228.652 83.2144C229.087 83.6868 229.166 83.9721 229.037 83.9739Z" fill="#1D191F"/>
<path d="M234.089 116.873C234.089 116.873 226.892 117.08 218.164 111.488C218.164 111.488 220.568 120.681 234.095 120.143L234.089 116.873Z" fill="#5D80D9"/>
<path d="M234.689 100.153C234.061 99.2764 232.912 98.7549 231.744 98.817C230.935 98.8596 230.102 99.1912 229.583 99.7932C229.063 100.396 228.919 101.281 229.336 101.9C229.806 102.598 230.845 102.805 231.743 102.609C232.641 102.413 233.429 101.893 234.18 101.372C234.388 101.229 234.599 101.079 234.735 100.874C234.869 100.669 234.909 100.396 234.763 100.214" fill="#5D80D9"/>
<path d="M230.151 96.8736C230.454 96.8718 230.368 98.7974 232.029 100.249C233.687 101.705 235.846 101.595 235.849 101.865C235.872 101.987 235.354 102.215 234.445 102.194C233.554 102.179 232.268 101.842 231.25 100.954C230.237 100.064 229.837 98.9233 229.805 98.1296C229.767 97.321 230.014 96.8551 230.151 96.8736Z" fill="#1D191F"/>
<path d="M230.291 76.8118C230.028 77.2573 228.238 76.7229 226.045 76.6081C223.855 76.4506 222.017 76.759 221.806 76.2839C221.714 76.0579 222.094 75.6615 222.875 75.3188C223.649 74.9761 224.834 74.726 226.148 74.8066C227.462 74.8899 228.61 75.2845 229.34 75.7217C230.076 76.157 230.408 76.5988 230.291 76.8118Z" fill="#1D191F"/>
<path d="M247.993 77.0883C247.647 77.4754 246.388 76.9938 244.85 76.8984C243.316 76.7511 241.996 77.0281 241.716 76.5928C241.595 76.3816 241.819 75.9879 242.405 75.6351C242.984 75.2831 243.937 75.0182 244.992 75.1016C246.048 75.1858 246.947 75.5962 247.462 76.0352C247.988 76.4751 248.147 76.8984 247.993 77.0883Z" fill="#1D191F"/>
<path d="M233.343 56.7226C232.341 55.136 230.52 54.4357 228.498 54.1755C220.243 53.114 211.143 58.098 206.661 64.9167C202.178 71.7355 202.125 81.7877 205.646 89.1205L208.743 89.5891C215.168 89.0982 225.653 71.4901 234.486 61.7083C235.582 60.4941 234.213 58.1008 233.343 56.7226Z" fill="#1D191F"/>
<path d="M249.206 61.6837C245.688 57.9409 240.004 53.3997 232.905 56.1746C231.89 58.1391 234.06 60.6241 235.86 62.0672C238.495 64.1798 240.789 65.5979 242.521 67.1131C246.021 70.1761 250.383 75.2694 250.831 80.998C250.859 81.3573 251.142 81.4046 251.513 81.3416C251.994 81.261 253.057 78.8992 253.564 75.7751C254.646 69.1128 252.724 65.4265 249.206 61.6837Z" fill="#1D191F"/>
<path d="M209.245 79.1239C208.88 77.6049 208.122 76.1684 207.077 74.9689C206.39 74.1789 205.581 73.4888 204.67 72.9535C201.346 70.9983 196.957 71.027 193.522 72.7942C190.087 74.5605 187.643 77.9319 186.804 81.6191C186.187 84.3301 186.408 87.2496 187.633 89.7577C189.54 93.6636 193.905 96.2681 198.355 96.3023C202.805 96.3375 207.15 93.8729 209.442 90.1671C211.059 87.5524 210.636 82.938 209.245 79.1239Z" fill="#1D191F"/>
<path d="M210.718 85.9054C210.525 85.8072 202.863 83.023 202.529 90.8041C202.195 98.5852 210.305 97.3052 210.328 97.0829C210.352 96.8606 210.718 85.9054 210.718 85.9054Z" fill="#CDD8F3"/>
<path d="M208.009 94.0367C207.975 94.0098 207.865 94.1256 207.625 94.221C207.39 94.3136 206.993 94.3682 206.581 94.1997C205.748 93.8635 205.091 92.5297 205.113 91.1256C205.122 90.417 205.304 89.7483 205.586 89.2009C205.855 88.6415 206.252 88.259 206.681 88.2025C207.109 88.1247 207.4 88.384 207.488 88.6072C207.586 88.8295 207.529 88.9823 207.571 88.9972C207.592 89.0175 207.749 88.874 207.698 88.5498C207.671 88.3942 207.586 88.2071 207.404 88.0496C207.219 87.8894 206.939 87.8014 206.642 87.8209C206.022 87.8375 205.443 88.3664 205.133 88.9684C204.789 89.5714 204.567 90.3216 204.556 91.1173C204.54 92.6872 205.303 94.1876 206.447 94.56C207.005 94.7258 207.482 94.5794 207.732 94.4062C207.986 94.2238 208.036 94.0515 208.009 94.0367Z" fill="#5D80D9"/>
<path d="M250.853 63.2414C250.859 63.3006 249.972 63.4553 248.519 63.5396C247.068 63.6248 245.049 63.6119 242.841 63.3544C240.633 63.0932 238.668 62.6393 237.279 62.2207C235.889 61.803 235.065 61.4473 235.085 61.3908C235.109 61.3213 235.971 61.5612 237.371 61.8919C238.772 62.2235 240.72 62.618 242.9 62.8755C245.079 63.1293 247.068 63.196 248.509 63.1988C249.951 63.2025 250.846 63.1691 250.853 63.2414Z" fill="#1E397D"/>
<path d="M253.552 68.8219C253.566 68.8766 252.913 69.0942 251.809 69.223C250.709 69.3536 249.152 69.348 247.487 68.9979C245.824 68.6422 244.406 68.0161 243.461 67.4521C242.513 66.888 242.014 66.4258 242.05 66.3814C242.132 66.2471 244.345 67.8596 247.593 68.5274C250.831 69.2359 253.535 68.6663 253.552 68.8219Z" fill="#1E397D"/>
<path d="M205.643 67.5721C205.656 67.4739 207.379 67.773 210.174 67.698C211.572 67.6915 213.227 67.4887 215.05 67.2127C216.865 66.8802 218.838 66.406 220.861 65.7502C222.88 65.0787 224.744 64.2868 226.405 63.4977C228.045 62.6724 229.502 61.8814 230.662 61.1191C233.006 59.6307 234.313 58.5109 234.375 58.5795C234.397 58.6045 234.084 58.8981 233.497 59.4094C233.208 59.6715 232.837 59.9716 232.391 60.3004C231.949 60.6366 231.449 61.0219 230.86 61.4007C229.715 62.2056 228.261 63.0355 226.614 63.8922C224.946 64.7119 223.065 65.5261 221.022 66.205C218.975 66.8691 216.971 67.3359 215.129 67.6489C213.278 67.9055 211.597 68.0741 210.181 68.037C209.474 68.0555 208.835 68.0074 208.276 67.9648C207.715 67.9351 207.235 67.8823 206.846 67.8101C206.063 67.6878 205.637 67.6045 205.643 67.5721Z" fill="#1E397D"/>
<path d="M233.841 61.3065C233.869 61.3241 233.641 61.7075 233.202 62.3883C232.985 62.731 232.713 63.1459 232.356 63.5998C232.003 64.0555 231.63 64.5982 231.14 65.1382C230.208 66.2561 228.999 67.5112 227.539 68.7828C226.065 70.0369 224.344 71.3105 222.399 72.4404C220.444 73.5537 218.465 74.4105 216.621 75.0561C214.766 75.6757 213.047 76.0906 211.584 76.3213C210.859 76.4695 210.188 76.5111 209.605 76.5815C209.023 76.6566 208.517 76.676 208.103 76.6843C207.276 76.7103 206.821 76.7084 206.82 76.6751C206.813 76.576 208.644 76.5371 211.521 75.986C212.959 75.7155 214.646 75.2719 216.466 74.6383C218.278 73.9789 220.219 73.1231 222.145 72.0264C224.061 70.9131 225.766 69.6692 227.237 68.4494C228.694 67.212 229.915 65.9968 230.871 64.9187C232.79 62.7616 233.758 61.2528 233.841 61.3065Z" fill="#1E397D"/>
<path d="M228.497 54.1757C228.494 54.1248 229.122 54.0414 230.104 54.2822C231.074 54.5267 232.365 55.1677 233.395 56.2967C233.648 56.582 233.879 56.8738 234.064 57.1887C234.259 57.5064 234.364 57.8592 234.459 58.1417C234.663 58.7364 234.836 59.293 234.912 59.7774C235.074 60.7573 234.845 61.3585 234.794 61.3399C234.713 61.3297 234.806 60.7416 234.568 59.845C234.453 59.3967 234.256 58.8771 234.027 58.2881C233.908 57.9787 233.818 57.6953 233.644 57.4258C233.475 57.1488 233.258 56.8793 233.024 56.6153C232.063 55.5632 230.891 54.9194 230 54.6064C229.101 54.2989 228.492 54.2572 228.497 54.1757Z" fill="#1E397D"/>
<path d="M207.36 85.2289C207.279 85.2039 207.523 84.4249 207.69 83.1412C207.86 81.8621 207.899 80.0523 207.394 78.1499C206.883 76.2474 205.876 74.722 204.972 73.7856C204.068 72.8445 203.357 72.4055 203.409 72.3296C203.427 72.3018 203.615 72.3916 203.944 72.5824C204.279 72.7621 204.721 73.0928 205.223 73.5466C206.226 74.4534 207.341 76.039 207.874 78.0276C208.401 80.0143 208.3 81.8964 208.037 83.194C207.774 84.5 207.409 85.2474 207.36 85.2289Z" fill="#5D80D9"/>
<path d="M207.958 83.5142C207.911 83.5827 206.927 82.9659 205.244 82.1573C203.563 81.3469 201.146 80.4012 198.353 79.7918C195.558 79.1906 192.957 79.048 191.08 79.0878C189.202 79.124 188.042 79.2768 188.03 79.1953C188.024 79.1629 188.309 79.0952 188.832 79.0008C189.353 78.8998 190.117 78.809 191.065 78.7479C192.96 78.6201 195.615 78.709 198.461 79.3222C201.303 79.9427 203.745 80.9569 205.405 81.8563C206.236 82.3036 206.889 82.701 207.316 83.0076C207.748 83.3076 207.977 83.4864 207.958 83.5142Z" fill="#1E397D"/>
<path d="M200.667 80.424C200.723 80.4378 200.565 81.3289 200.069 82.7061C199.575 84.0816 198.694 85.9266 197.385 87.7623C196.07 89.5953 194.598 91.042 193.444 91.971C192.289 92.9037 191.484 93.3576 191.452 93.3122C191.342 93.1899 194.414 91.1143 196.978 87.4872C199.58 83.888 200.511 80.3665 200.667 80.424Z" fill="#1E397D"/>
<path d="M205.941 95.5346C205.999 95.3855 206.287 95.3003 206.763 95.4207C207.232 95.5402 207.896 95.8838 208.441 96.635C208.992 97.3676 209.303 98.63 208.845 99.8591C208.624 100.471 208.204 101.094 207.566 101.549C206.936 101.998 206.163 102.242 205.373 102.261C204.587 102.286 203.782 102.062 203.157 101.66C202.53 101.264 202.069 100.733 201.765 100.173C201.462 99.5961 201.309 99.0459 201.31 98.4124C201.324 97.8261 201.473 97.3676 201.656 96.9619C202.026 96.1598 202.616 95.6273 203.124 95.4522C203.632 95.2707 203.937 95.3948 203.974 95.5439C204.032 95.8773 203.431 96.3247 203.333 97.4649C203.305 97.7353 203.303 98.0512 203.365 98.2994C203.415 98.4976 203.555 98.8171 203.738 99.0487C204.125 99.5525 204.671 99.8767 205.313 99.8517C205.984 99.823 206.446 99.5349 206.728 99.0209C207.01 98.4985 207.043 97.9308 206.889 97.4325C206.577 96.3969 205.801 95.8486 205.941 95.5346Z" fill="#1E397D"/>
<path d="M214.056 83.2252C214.045 83.1103 215.98 83.2863 218.879 82.4027C221.758 81.5571 225.501 79.4175 228.399 75.9118C231.295 72.3978 232.836 68.5207 233.744 65.7189C234.198 64.3092 234.509 63.1496 234.718 62.3465C234.927 61.5435 235.047 61.0989 235.082 61.1054C235.113 61.111 235.058 61.5685 234.907 62.3864C234.755 63.2042 234.495 64.3823 234.079 65.8161C233.252 68.6633 231.743 72.6228 228.785 76.2138C225.821 79.8019 221.948 81.9507 218.98 82.7287C217.493 83.1344 216.245 83.2761 215.387 83.2882C214.958 83.315 214.623 83.2761 214.398 83.2706C214.172 83.2576 214.055 83.2418 214.056 83.2252Z" fill="#1D191F"/>
<path d="M233.827 123.736C233.833 123.725 234.006 123.793 234.307 123.975C234.606 124.158 235.022 124.482 235.442 125C235.862 125.515 236.264 126.245 236.494 127.158C236.729 128.066 236.756 129.18 236.407 130.32C235.746 132.619 233.558 134.874 230.564 135.992C229.078 136.571 227.431 136.924 225.721 137.139C224.01 137.353 222.217 137.448 220.384 137.348C216.723 137.157 213.254 136.11 210.611 134.353C207.946 132.628 206.144 130.293 205.255 128.115C204.806 127.026 204.581 125.959 204.611 125.017C204.631 124.073 204.916 123.279 205.26 122.713C205.603 122.14 206.003 121.786 206.29 121.584C206.581 121.384 206.757 121.32 206.763 121.331C206.809 121.376 206.057 121.674 205.429 122.804C205.124 123.362 204.882 124.12 204.888 125.02C204.886 125.918 205.124 126.937 205.581 127.985C206.484 130.084 208.259 132.325 210.865 133.983C213.447 135.669 216.82 136.676 220.412 136.866C222.208 136.963 223.972 136.873 225.658 136.67C227.344 136.465 228.952 136.128 230.394 135.578C233.296 134.518 235.398 132.39 236.069 130.22C236.78 128.034 236.029 126.111 235.286 125.111C234.512 124.076 233.786 123.786 233.827 123.736Z" fill="#1D191F"/>
<path d="M212.85 135.745C212.721 135.745 212.695 134.671 213.316 133.531C213.928 132.385 214.851 131.794 214.925 131.898C215.02 132.004 214.312 132.704 213.755 133.755C213.185 134.797 212.995 135.761 212.85 135.745Z" fill="#1D191F"/>
<path d="M221.798 137.39C221.661 137.385 221.585 136.516 221.629 135.448C221.672 134.38 221.817 133.519 221.955 133.525C222.092 133.531 222.167 134.399 222.124 135.467C222.081 136.534 221.935 137.395 221.798 137.39Z" fill="#1D191F"/>
<path d="M230.777 136.1C230.642 136.127 230.329 135.186 230.079 133.998C229.828 132.811 229.733 131.826 229.867 131.799C230.002 131.772 230.313 132.714 230.565 133.901C230.817 135.088 230.911 136.073 230.777 136.1Z" fill="#1D191F"/>
<path d="M236.022 130.547C235.896 130.612 235.52 130.127 234.904 129.738C234.294 129.336 233.69 129.188 233.702 129.05C233.698 128.921 234.446 128.86 235.178 129.336C235.914 129.807 236.146 130.501 236.022 130.547Z" fill="#1D191F"/>
<path d="M208.111 127.088C208.132 127.224 207.605 127.403 207.098 127.803C206.582 128.193 206.284 128.65 206.152 128.599C206.023 128.566 206.157 127.909 206.789 127.425C207.418 126.938 208.107 126.958 208.111 127.088Z" fill="#1D191F"/>
<path d="M223.792 189.063C222.381 189.02 221.45 187.602 222.023 186.349C224.594 180.72 231.617 169.881 232.083 169.185C232.743 168.196 233.098 166.989 235.231 166.739C236.055 166.642 248.928 166.356 251.945 166.29C252.439 166.279 252.93 166.437 253.286 166.769C253.887 167.329 254.508 168.384 253.561 170.038C252.49 171.906 244.713 183.626 241.553 188.15C240.927 189.045 239.872 189.565 238.759 189.53L223.792 189.063Z" fill="#1D191F"/>
<path d="M243.649 170.335C243.458 169.992 242.837 169.955 242.621 170.062C242.258 170.155 241.993 170.378 241.717 170.625C241.44 170.872 241.308 171.313 241.529 171.609C241.717 171.86 242.079 171.918 242.397 171.89C242.798 171.856 243.202 171.711 243.47 171.42C243.738 171.129 243.84 170.678 243.649 170.335Z" fill="#FAFAFA"/>
<path d="M250.27 172.885C250.239 172.869 250.42 172.485 250.77 171.804C250.963 171.438 251.178 171.028 251.421 170.569C251.551 170.326 251.688 170.07 251.832 169.802C251.977 169.517 252.166 169.262 252.157 168.977C252.165 168.691 252.023 168.385 251.765 168.199C251.499 167.994 251.189 167.998 250.752 168.029C249.923 168.061 249.046 168.097 248.126 168.134C246.264 168.197 244.236 168.268 242.107 168.34C239.977 168.4 237.947 168.457 236.085 168.51C235.859 168.516 235.636 168.522 235.415 168.528C235.234 168.545 235.06 168.612 234.921 168.72C234.667 168.917 234.463 169.362 234.233 169.673C233.795 170.34 233.382 170.966 232.999 171.548C232.274 172.623 231.666 173.526 231.182 174.244C230.743 174.875 230.487 175.215 230.458 175.198C230.43 175.18 230.63 174.806 231.018 174.145C231.466 173.405 232.03 172.475 232.7 171.367C233.067 170.775 233.463 170.139 233.883 169.462C233.99 169.29 234.099 169.116 234.21 168.94C234.312 168.778 234.436 168.547 234.648 168.389C234.849 168.229 235.104 168.124 235.371 168.096C235.601 168.085 235.835 168.076 236.071 168.065C237.933 168.001 239.963 167.931 242.092 167.858C244.222 167.797 246.251 167.741 248.113 167.688C249.033 167.667 249.911 167.647 250.741 167.628C251.113 167.602 251.662 167.604 252.002 167.905C252.354 168.174 252.532 168.597 252.509 168.988C252.498 169.184 252.446 169.374 252.353 169.534C252.271 169.676 252.19 169.814 252.111 169.949C251.955 170.211 251.807 170.46 251.666 170.698C251.397 171.143 251.157 171.539 250.942 171.894C250.537 172.547 250.3 172.901 250.27 172.885Z" fill="#1E397D"/>
<path d="M271.816 171.476C271.816 171.476 270.511 180.298 269.172 185.964C267.978 191.013 266.089 208.069 261.259 210.22C256.43 212.371 250.423 211.029 248.197 206.873C245.971 202.717 243.593 191.639 243.593 191.639L233.493 187.507C233.493 187.507 231.168 179.279 232.489 178.352C233.81 177.425 246.851 178.815 246.851 178.815L250.349 178.042C250.349 178.042 244.787 177.27 243.592 176.961C242.398 176.651 241.612 175.725 241.894 174.643C242.175 173.561 242.398 172.48 245.419 172.48C248.44 172.48 253.156 172.041 254.006 172.325C255.069 172.681 256.273 173.28 256.511 175.879C256.742 178.421 255.483 183.305 255.483 183.305L255.758 183.715L257.538 170.951L271.816 171.476Z" fill="#CDD8F3"/>
<path d="M254.846 186.706C254.855 186.737 254.565 186.849 254.027 187.023C253.492 187.204 252.701 187.414 251.711 187.629C249.736 188.057 246.926 188.41 243.824 188.216C240.721 188.015 237.981 187.294 236.093 186.579C235.148 186.222 234.399 185.894 233.902 185.63C233.4 185.374 233.132 185.218 233.147 185.189C233.184 185.113 234.312 185.635 236.211 186.258C238.108 186.883 240.807 187.537 243.856 187.736C246.904 187.925 249.67 187.633 251.644 187.295C253.62 186.956 254.823 186.627 254.846 186.706Z" fill="#5D80D9"/>
<path d="M252.932 183.166C252.938 183.198 252.648 183.29 252.112 183.421C251.576 183.551 250.794 183.714 249.819 183.869C247.873 184.178 245.124 184.445 242.102 184.145C239.078 183.848 236.433 182.966 234.682 182.058C233.802 181.609 233.129 181.18 232.689 180.853C232.247 180.528 232.025 180.323 232.044 180.299C232.094 180.229 233.069 180.949 234.838 181.752C236.596 182.565 239.191 183.374 242.153 183.665C245.116 183.96 247.828 183.752 249.77 183.531C251.717 183.306 252.916 183.093 252.932 183.166Z" fill="#5D80D9"/>
<path d="M256.08 174.063C256.139 174.048 256.321 174.494 256.279 175.251C256.25 175.624 256.191 176.085 255.903 176.554C255.772 176.788 255.492 177.007 255.255 177.127C255.008 177.266 254.737 177.379 254.456 177.471C253.336 177.818 252.287 177.911 251.546 177.953C250.809 177.993 250.378 178.103 250.35 178.043C250.317 177.982 250.751 177.744 251.5 177.615C252.235 177.488 253.246 177.339 254.297 177.014C254.802 176.835 255.306 176.638 255.519 176.311C255.761 175.965 255.863 175.548 255.93 175.211C256.056 174.522 256.006 174.075 256.08 174.063Z" fill="#5D80D9"/>
<path d="M251.282 188.9C251.324 188.871 251.622 189.509 251.292 190.505C251.125 190.988 250.8 191.536 250.27 191.989C249.742 192.447 249.018 192.773 248.227 192.905C247.435 193.035 246.664 192.976 245.996 192.807C245.329 192.633 244.782 192.371 244.336 192.15C243.451 191.688 242.909 191.425 242.927 191.366C242.948 191.298 243.564 191.46 244.482 191.84C245.389 192.217 246.688 192.687 248.142 192.43C248.854 192.312 249.498 192.033 249.974 191.651C250.453 191.271 250.773 190.804 250.963 190.383C251.343 189.526 251.197 188.906 251.282 188.9Z" fill="#5D80D9"/>
<path d="M255.485 173.174C255.493 173.163 255.554 173.197 255.67 173.277C255.78 173.36 255.925 173.51 256.069 173.733C256.353 174.183 256.567 174.931 256.637 175.871C256.776 177.759 256.45 180.394 255.715 183.364L255.709 183.226C256.162 184.413 256.78 185.652 257.517 186.883C258.551 188.61 259.692 190.169 260.796 191.534C261.889 192.888 263.05 194.047 263.622 195.302C264.218 196.547 264.166 197.731 263.899 198.439C263.769 198.799 263.604 199.051 263.476 199.204C263.345 199.356 263.263 199.423 263.251 199.414C263.209 199.386 263.519 199.08 263.714 198.385C263.909 197.703 263.902 196.596 263.306 195.45C262.73 194.284 261.577 193.177 260.438 191.811C259.303 190.448 258.138 188.88 257.087 187.125C256.339 185.874 255.712 184.607 255.261 183.384L255.236 183.317L255.254 183.247C256.007 180.329 256.392 177.723 256.337 175.887C256.309 174.97 256.149 174.251 255.927 173.807C255.704 173.364 255.459 173.205 255.485 173.174Z" fill="#5D80D9"/>
<path d="M166.273 189.653C166.273 189.653 164.798 209.342 174.221 212.643C187.217 217.196 202.034 204.615 202.091 204.413C202.147 204.211 217.857 191.917 217.857 191.917L212.963 178.832C212.963 178.832 211.006 178.832 207.824 181.033C206.674 181.829 188.463 191.158 188.463 191.158C188.463 191.158 180.516 191.093 166.273 189.653Z" fill="#CDD8F3"/>
<path d="M189.124 190.864C189.188 191.013 185.757 192.365 181.614 194.169C179.545 195.081 177.72 195.996 176.415 196.691C175.112 197.388 174.318 197.846 174.276 197.786C174.242 197.736 174.969 197.176 176.237 196.398C177.505 195.622 179.325 194.648 181.407 193.731C183.487 192.81 185.415 192.087 186.816 191.584C188.219 191.083 189.098 190.803 189.124 190.864Z" fill="#5D80D9"/>
<path d="M230.385 171.701C230.385 171.701 227.926 168.315 226.95 168.326C225.973 168.337 220.119 169.269 220.119 169.269L211.834 177.999C211.834 177.999 211.264 180.846 213.055 181.875C213.055 181.875 212.453 186.348 214.668 187.631C214.668 187.631 216.311 191.839 217.858 191.917C219.405 191.996 219.825 191.917 219.825 191.917C219.825 191.917 219.486 194.448 221.846 194.606C223.566 194.721 227.04 194.213 228.798 193.927C229.484 193.816 230.091 193.446 230.493 192.895L232.521 190.122C233.167 189.238 233.164 188.052 232.513 187.172C232.513 187.172 233.485 186.043 233.729 185.105C233.973 184.168 233.729 182.462 233.729 182.462C233.729 182.462 237.229 179.584 237.311 178.831C237.392 178.078 237.23 177.359 235.682 177.442C235.682 177.442 235.357 175.113 233.403 175.173C231.45 175.232 222.198 175.173 222.198 175.173L223.956 173.505C223.956 173.505 228.562 175.209 229.047 174.077L230.385 171.701Z" fill="#CDD8F3"/>
<path d="M217.099 181.775C217.099 181.74 217.632 181.722 218.599 181.672C219.567 181.623 220.97 181.54 222.703 181.341C224.436 181.144 226.5 180.818 228.771 180.295C229.905 180.03 231.091 179.715 232.31 179.341C233.488 179.022 234.515 178.134 235.512 177.27L235.573 177.217L235.64 177.207C236.042 177.147 236.511 177.085 236.988 177.333C237.223 177.461 237.394 177.701 237.465 177.934C237.541 178.168 237.553 178.397 237.557 178.607C237.551 178.717 237.572 178.753 237.545 178.913C237.518 179.088 237.454 179.148 237.404 179.256C237.293 179.425 237.173 179.575 237.051 179.719C236.805 180.004 236.545 180.262 236.286 180.517C235.764 181.024 235.234 181.497 234.699 181.954L234.692 181.96L234.683 181.967C232.681 183.417 230.832 184.865 228.977 185.91C227.128 186.979 225.257 187.517 223.689 187.74C222.111 187.959 220.821 187.838 219.972 187.651C219.545 187.562 219.223 187.464 219.01 187.383C218.797 187.304 218.689 187.256 218.694 187.242C218.699 187.136 220.541 187.942 223.64 187.435C225.167 187.176 226.973 186.621 228.76 185.554C230.565 184.505 232.382 183.057 234.394 181.586L234.378 181.597C234.901 181.147 235.427 180.674 235.935 180.178C236.188 179.929 236.44 179.675 236.669 179.409C236.783 179.276 236.888 179.141 236.979 179.005C237.007 178.949 237.06 178.86 237.052 178.851C237.071 178.835 237.056 178.685 237.059 178.615C237.06 178.22 236.985 177.878 236.734 177.747C236.478 177.604 236.083 177.616 235.724 177.678L235.852 177.615C235.337 178.08 234.813 178.503 234.259 178.89C233.72 179.268 233.09 179.626 232.451 179.78C231.217 180.149 230.018 180.457 228.87 180.711C226.573 181.213 224.488 181.505 222.737 181.661C220.987 181.819 219.574 181.853 218.602 181.847C218.116 181.848 217.739 181.832 217.485 181.818C217.231 181.804 217.099 181.79 217.099 181.775Z" fill="#5D80D9"/>
<path d="M233.728 182.461C233.775 182.458 233.88 182.97 233.927 183.87C233.939 184.095 233.944 184.345 233.937 184.618C233.933 184.754 233.926 184.896 233.911 185.045C233.904 185.197 233.832 185.395 233.768 185.525C233.634 185.821 233.47 186.109 233.29 186.411C233.198 186.561 233.104 186.714 233.008 186.868L232.856 187.103C232.82 187.153 232.822 187.159 232.752 187.248C232.732 187.269 232.709 187.288 232.684 187.304C232.641 187.3 232.698 187.37 232.456 187.285C232.321 187.18 232.366 187.044 232.374 187.027C232.389 186.991 232.398 186.979 232.398 186.979L232.408 186.963L232.448 186.899L232.835 187.123C232.276 188.113 231.461 189.14 230.406 190.017C228.468 191.656 226.133 192.296 224.495 192.392C223.669 192.45 222.998 192.4 222.544 192.339C222.089 192.263 221.842 192.206 221.848 192.174C221.857 192.081 222.866 192.25 224.461 192.053C226.039 191.873 228.238 191.212 230.084 189.652C231.091 188.815 231.881 187.845 232.444 186.908L232.831 187.132C233.974 184.702 233.582 182.427 233.728 182.461Z" fill="#5D80D9"/>
<path d="M224.175 173.584C224.14 173.688 223.204 173.35 222.761 172.274C222.557 171.748 222.592 171.228 222.683 170.891C222.777 170.551 222.906 170.369 222.967 170.388C223.122 170.421 222.894 171.243 223.227 172.106C223.561 172.967 224.271 173.463 224.175 173.584Z" fill="#5D80D9"/>
<path d="M220.028 192.004C220.035 192.03 219.784 192.136 219.297 192.173C218.815 192.21 218.081 192.166 217.274 191.802C216.47 191.449 215.624 190.71 215.169 189.641C214.933 189.126 214.834 188.47 214.824 187.904C214.796 187.62 214.732 187.443 214.515 187.28C214.301 187.119 213.977 186.905 213.76 186.644C213.149 185.947 212.903 185.077 212.839 184.287C212.774 183.491 212.862 182.756 212.931 182.097L213.036 182.296C211.723 181.489 211.397 180.152 211.434 179.358C211.473 178.521 211.786 178.118 211.807 178.137C211.866 178.156 211.648 178.583 211.686 179.355C211.717 180.093 212.1 181.281 213.253 181.934L213.369 182L213.36 182.134C213.311 182.795 213.245 183.51 213.318 184.245C213.386 184.972 213.622 185.742 214.138 186.329C214.334 186.559 214.548 186.697 214.832 186.91C215.138 187.117 215.31 187.557 215.31 187.863C215.321 188.484 215.393 188.979 215.595 189.475C215.983 190.445 216.714 191.135 217.433 191.497C218.915 192.229 220.039 191.904 220.028 192.004Z" fill="#5D80D9"/>
<g opacity="0.3">
<path d="M194.712 165.531C193.597 175.356 192.023 182.857 189.647 189.643C192.949 186.916 195.216 183.053 195.847 178.887C196.478 174.722 195.476 169.675 194.712 165.531Z" fill="#1D191F"/>
</g>
<g opacity="0.3">
<path d="M259.648 160.134C259.356 156.646 258.31 153.254 256.984 150C258.476 156.927 258.646 164.12 257.483 171.106L257.833 170.352C259.448 167.224 259.94 163.623 259.648 160.134Z" fill="#1D191F"/>
</g>
</svg>
