<svg width="554" height="497" viewBox="0 0 554 497" fill="none" xmlns="http://www.w3.org/2000/svg">
<path d="M512.872 241.47C507.301 288.647 485.76 343.5 442.738 368.698C377.736 406.779 383.177 465.351 256.3 490.813C236.518 494.785 217.745 496.457 200.044 496.127C190.528 495.95 181.316 495.183 172.433 493.876C91.7949 482.096 37.5293 426.044 17.6211 358.385C-8.57916 269.399 43.7355 211.142 78.4101 176.042C113.085 140.942 138.482 31.5756 263.014 5.56352C282.002 1.60582 301.419 -0.413703 320.831 0.070842C365.139 1.15845 413.468 15.7076 446.909 46.0736C449.42 48.3557 451.861 50.7215 454.242 53.1594C500.72 100.867 520.47 177.152 512.872 241.47Z" fill="#FEF989"/>
<path opacity="0.7" d="M512.872 241.47C507.301 288.647 485.76 343.5 442.738 368.698C377.736 406.779 383.177 465.351 256.3 490.813C236.518 494.785 217.745 496.457 200.044 496.127C190.528 495.95 181.316 495.183 172.433 493.876C91.7949 482.096 37.5293 426.044 17.6211 358.385C-8.57916 269.399 43.7355 211.142 78.4101 176.042C113.085 140.942 138.482 31.5756 263.014 5.56352C282.002 1.60582 301.419 -0.413703 320.831 0.070842C365.139 1.15845 413.468 15.7076 446.909 46.0736C449.42 48.3557 451.861 50.7215 454.242 53.1594C500.72 100.867 520.47 177.152 512.872 241.47Z" fill="#F0FAF5"/>
<path d="M476.19 444.992V313.864" stroke="#1D191F" stroke-miterlimit="10" stroke-linecap="round" stroke-linejoin="round"/>
<path d="M465.561 444.991V379.967" stroke="#1D191F" stroke-miterlimit="10" stroke-linecap="round" stroke-linejoin="round"/>
<path d="M479.511 335.367C479.511 335.367 468.792 334.14 464.44 325.656C460.087 317.173 459.625 295.294 476.316 271.099C493.006 246.904 501.747 246.594 504.653 266.378C507.559 286.162 507.144 314.902 500.313 325.791C493.482 336.68 479.511 335.367 479.511 335.367Z" fill="#FAFAFA" stroke="#1D191F" stroke-miterlimit="10" stroke-linecap="round" stroke-linejoin="round"/>
<path d="M483.311 289.683C485.289 282.942 487.642 276.875 490.391 272.772" stroke="#1D191F" stroke-miterlimit="10" stroke-linecap="round" stroke-linejoin="round"/>
<path d="M475.054 333.85C475.054 333.85 477.258 312.695 482.051 294.25" stroke="#1D191F" stroke-miterlimit="10" stroke-linecap="round" stroke-linejoin="round"/>
<path d="M485.892 377.925C485.892 377.925 479.015 372.593 479.566 364.923C480.117 357.253 488.955 341.975 510.589 332.281C532.222 322.586 538.377 326.03 532.1 340.886C525.823 355.742 513.507 375.382 504.241 380.03C494.974 384.678 485.892 377.925 485.892 377.925Z" fill="#FAFAFA" stroke="#1D191F" stroke-miterlimit="10" stroke-linecap="round" stroke-linejoin="round"/>
<path d="M507.633 348.021C511.818 344.201 515.979 341.004 519.592 339.326" stroke="#1D191F" stroke-miterlimit="10" stroke-linecap="round" stroke-linejoin="round"/>
<path d="M504.852 350.643C493.827 361.353 483.453 375.014 483.453 375.014C483.453 375.014 477.911 382.467 476.265 397.289" stroke="#1D191F" stroke-miterlimit="10" stroke-linecap="round" stroke-linejoin="round"/>
<path d="M481.954 422.272C481.954 422.272 477.97 419.183 478.289 414.739C478.607 410.296 483.728 401.444 496.262 395.827C508.797 390.21 512.363 392.206 508.726 400.813C505.089 409.42 497.954 420.799 492.585 423.491C487.215 426.185 481.954 422.272 481.954 422.272Z" fill="#FAFAFA" stroke="#1D191F" stroke-miterlimit="10" stroke-linecap="round" stroke-linejoin="round"/>
<path d="M494.55 404.948C496.975 402.734 499.386 400.882 501.478 399.909" stroke="#1D191F" stroke-miterlimit="10" stroke-linecap="round" stroke-linejoin="round"/>
<path d="M492.939 406.466C486.552 412.671 480.541 420.587 480.541 420.587C480.541 420.587 477.33 424.905 476.376 433.493" stroke="#1D191F" stroke-miterlimit="10" stroke-linecap="round" stroke-linejoin="round"/>
<path d="M466.469 360.196C466.469 360.196 473.346 354.864 472.795 347.194C472.244 339.524 463.406 324.246 441.772 314.552C420.139 304.857 413.984 308.301 420.261 323.157C426.538 338.013 438.854 357.653 448.12 362.301C457.387 366.949 466.469 360.196 466.469 360.196Z" fill="#FAFAFA" stroke="#1D191F" stroke-miterlimit="10" stroke-linecap="round" stroke-linejoin="round"/>
<path d="M444.729 330.292C440.543 326.473 436.382 323.275 432.77 321.597" stroke="#1D191F" stroke-miterlimit="10" stroke-linecap="round" stroke-linejoin="round"/>
<path d="M447.508 332.913C458.533 343.623 468.907 357.284 468.907 357.284C468.907 357.284 474.449 364.737 476.095 379.56" stroke="#1D191F" stroke-miterlimit="10" stroke-linecap="round" stroke-linejoin="round"/>
<path d="M463.092 419.421C463.092 419.421 470.057 419.642 473.54 415.446C477.022 411.25 479.112 399.546 470.406 385.192C461.699 370.838 456.128 369.955 452.645 380.333C449.163 390.712 447.073 406.171 450.556 412.575C454.037 418.98 463.092 419.421 463.092 419.421Z" fill="#FAFAFA" stroke="#1D191F" stroke-miterlimit="10" stroke-linecap="round" stroke-linejoin="round"/>
<path d="M464.183 408.761C464.287 410.187 464.36 411.614 464.395 413.027" stroke="#1D191F" stroke-miterlimit="10" stroke-linecap="round" stroke-linejoin="round"/>
<path d="M458.841 379.701C458.841 379.701 462.488 392.062 463.884 405.416" stroke="#1D191F" stroke-miterlimit="10" stroke-linecap="round" stroke-linejoin="round"/>
<path d="M13.5771 334.724H174.406V6.46826" stroke="#1D191F" stroke-miterlimit="10" stroke-linecap="round" stroke-linejoin="round"/>
<path d="M345.082 334.724H184.252V6.46826" stroke="#1D191F" stroke-miterlimit="10" stroke-linecap="round" stroke-linejoin="round"/>
<path d="M249.897 334.724H410.727V6.46826" stroke="#1D191F" stroke-miterlimit="10" stroke-linecap="round" stroke-linejoin="round"/>
<path d="M377.904 83.5459L321.696 145.659" stroke="#1D191F" stroke-miterlimit="10" stroke-linecap="round" stroke-linejoin="round"/>
<path d="M346.723 131.605L331.132 148.834" stroke="#1D191F" stroke-miterlimit="10" stroke-linecap="round" stroke-linejoin="round"/>
<path d="M222.818 67.2236L192.458 100.775" stroke="#1D191F" stroke-miterlimit="10" stroke-linecap="round" stroke-linejoin="round"/>
<path d="M231.024 59.0616L251.538 36.3926" stroke="#1D191F" stroke-miterlimit="10" stroke-linecap="round" stroke-linejoin="round"/>
<path d="M167.842 266.715L148.148 288.478" stroke="#1D191F" stroke-miterlimit="10" stroke-linecap="round" stroke-linejoin="round"/>
<path d="M161.278 237.699L124.762 278.051" stroke="#1D191F" stroke-miterlimit="10" stroke-linecap="round" stroke-linejoin="round"/>
<path d="M531.755 110.72C543.692 80.8677 529.17 46.99 499.317 35.0522C469.465 23.1144 435.587 37.6372 423.649 67.4897C411.711 97.3422 426.234 131.22 456.086 143.158C485.939 155.096 519.817 140.573 531.755 110.72Z" stroke="#1D191F" stroke-miterlimit="10" stroke-linecap="round" stroke-linejoin="round"/>
<path d="M477.683 139.902C505.75 139.902 528.503 117.149 528.503 89.0823C528.503 61.0157 505.75 38.2632 477.683 38.2632C449.617 38.2632 426.864 61.0157 426.864 89.0823C426.864 117.149 449.617 139.902 477.683 139.902Z" stroke="#1D191F" stroke-miterlimit="10" stroke-linecap="round" stroke-linejoin="round"/>
<path d="M477.683 92.5548C479.601 92.5548 481.155 91.0004 481.155 89.0828C481.155 87.1653 479.601 85.6108 477.683 85.6108C475.766 85.6108 474.211 87.1653 474.211 89.0828C474.211 91.0004 475.766 92.5548 477.683 92.5548Z" stroke="#1D191F" stroke-miterlimit="10" stroke-linecap="round" stroke-linejoin="round"/>
<path d="M477.684 92.5557V109.63" stroke="#1D191F" stroke-miterlimit="10" stroke-linecap="round" stroke-linejoin="round"/>
<path d="M474.21 89.083H432.776" stroke="#1D191F" stroke-miterlimit="10" stroke-linecap="round" stroke-linejoin="round"/>
<path d="M368.9 325.977H431.15C431.15 325.977 397.501 408.837 403.811 445.85H340.72C340.72 445.85 352.496 351.213 368.9 325.977Z" fill="#1D191F" stroke="#1D191F" stroke-miterlimit="10" stroke-linecap="round" stroke-linejoin="round"/>
<path d="M315.042 207.032C315.042 207.032 315.665 218.249 336.543 224.794C357.421 231.338 378.611 224.794 390.451 234.142C402.292 243.49 401.98 257.824 397.93 264.991C393.879 272.158 387.335 279.325 406.655 287.739C425.975 296.153 414.445 320.77 406.344 329.806C398.241 338.843 384.219 343.205 368.638 340.09C353.057 336.973 334.673 299.27 314.731 279.326C294.788 259.383 292.353 222.572 305.071 212.019C317.788 201.465 315.042 207.032 315.042 207.032Z" fill="#1D191F" stroke="#1D191F" stroke-miterlimit="10" stroke-linecap="round" stroke-linejoin="round"/>
<path d="M311.835 166.701C311.835 166.701 320.435 162.953 322.641 170.229C324.846 177.506 325.507 197.352 325.507 197.352L320.877 196.249C320.877 196.249 321.979 173.757 316.907 170.228C311.835 166.7 307.866 174.639 307.866 174.639L311.835 166.701Z" fill="#C9CEDD" stroke="#1D191F" stroke-miterlimit="10" stroke-linecap="round" stroke-linejoin="round"/>
<path d="M215.313 408.72L244.687 393.015C244.687 393.015 242.651 362.186 242.941 361.023C243.232 359.86 250.592 299.543 250.592 299.543L230.436 359.279L215.313 408.72Z" fill="#1D191F" stroke="#1D191F" stroke-miterlimit="10" stroke-linecap="round" stroke-linejoin="round"/>
<path d="M345.172 268.566C345.172 268.566 374.172 284.384 378.127 286.031C382.081 287.679 379.775 307.781 379.775 320.963C379.775 334.144 360.002 445.532 360.002 445.532H213.683C213.683 445.532 238.399 407.634 239.058 397.747C239.717 387.861 235.433 379.952 234.774 370.396C234.115 360.84 248.285 302.509 250.592 299.544C252.898 296.577 262.786 288.998 262.786 288.998L297.717 258.349L313.865 254.724L345.172 268.566Z" fill="#FEF989" stroke="#1D191F" stroke-miterlimit="10" stroke-linecap="round" stroke-linejoin="round"/>
<path d="M248.224 408.459L243.343 418.509" stroke="#1D191F" stroke-miterlimit="10" stroke-linecap="round" stroke-linejoin="round"/>
<path d="M252.9 379.622C252.9 379.622 245.65 384.565 249.274 387.202C252.9 389.838 254.547 395.44 254.547 395.44L249.914 404.49" stroke="#1D191F" stroke-miterlimit="10" stroke-linecap="round" stroke-linejoin="round"/>
<path d="M287.052 403.6C289.019 403.751 291.085 403.86 293.251 403.921" stroke="#1D191F" stroke-miterlimit="10" stroke-linecap="round" stroke-linejoin="round"/>
<path d="M255.857 395.441C255.857 395.441 263.741 400.712 280.934 402.968" stroke="#1D191F" stroke-miterlimit="10" stroke-linecap="round" stroke-linejoin="round"/>
<path d="M236.197 184.783C236.197 184.783 231.786 186.547 231.786 192.28C231.786 198.014 236.417 209.26 236.417 209.26L239.063 208.379C239.063 208.379 234.211 196.691 234.873 192.501C235.534 188.311 239.503 187.208 239.503 187.208L238.621 184.342L236.197 184.783Z" fill="#C9CEDD" stroke="#1D191F" stroke-miterlimit="10" stroke-linecap="round" stroke-linejoin="round"/>
<path d="M247.546 214.31C248.669 220.109 246.719 225.363 243.191 226.046C239.663 226.728 235.895 222.581 234.773 216.781C233.65 210.982 235.6 205.727 239.128 205.045C242.654 204.363 246.424 208.51 247.546 214.31Z" fill="#FAFAFA" stroke="#1D191F" stroke-miterlimit="10" stroke-linecap="round" stroke-linejoin="round"/>
<path d="M258.271 212.44C260.471 219.855 257.9 227.157 252.529 228.75C247.158 230.343 241.021 225.624 238.822 218.21C236.623 210.796 239.194 203.494 244.565 201.901C249.935 200.307 256.072 205.026 258.271 212.44Z" fill="#1D191F" stroke="#1D191F" stroke-miterlimit="10" stroke-linecap="round" stroke-linejoin="round"/>
<path d="M278.175 252.858L283.393 269.818L266.237 291.432L263.385 308.13C263.385 308.13 260.535 355.78 262.164 363.111C263.793 370.442 263.793 372.478 263.793 372.478C263.793 372.478 299.225 331.344 316.739 306.093C334.251 280.842 338.324 265.366 338.324 265.366L321.218 255.999L313.073 218.123L278.175 252.858Z" fill="#FAFAFA" stroke="#1D191F" stroke-miterlimit="10" stroke-linecap="round" stroke-linejoin="round"/>
<path d="M305.22 236.435L283.393 269.818L277.309 250.168L305.22 236.435Z" fill="#1D191F" stroke="#1D191F" stroke-miterlimit="10" stroke-linecap="round" stroke-linejoin="round"/>
<path d="M263.547 307.182L263.385 308.13C263.385 308.13 260.535 355.781 262.164 363.112C263.793 370.442 263.793 372.478 263.793 372.478C263.793 372.478 299.225 331.344 316.739 306.093C318.112 304.113 319.394 302.201 320.606 300.344C298.675 307.848 276.322 307.979 263.547 307.182Z" fill="#FAFAFA" stroke="#1D191F" stroke-miterlimit="10" stroke-linecap="round" stroke-linejoin="round"/>
<path d="M254.941 148.839C254.941 148.839 238.624 158.762 236.859 173.758C235.094 188.753 241.269 204.85 243.694 211.245C246.12 217.64 254.5 242.558 258.909 247.41C263.32 252.261 277.653 259.538 280.08 260.861C282.506 262.184 286.915 261.743 290.664 259.097C294.413 256.451 309.849 237.707 312.275 233.296C314.701 228.885 315.141 219.183 315.141 219.183C315.141 219.183 314.7 199.778 313.818 187.208C312.936 174.638 313.597 162.51 303.233 151.925C292.871 141.342 265.085 141.121 254.941 148.839Z" fill="#FAFAFA" stroke="#1D191F" stroke-miterlimit="10" stroke-linecap="round" stroke-linejoin="round"/>
<path d="M313.819 187.209C312.937 174.639 313.598 162.511 303.234 151.926C292.871 141.342 265.085 141.121 254.941 148.839C254.941 148.839 238.624 158.762 236.859 173.758C235.834 182.469 237.491 191.538 239.532 198.875C243.285 196.595 255.945 188.795 270.156 178.828C287.136 166.92 292.649 148.397 292.649 148.397C292.649 148.397 294.633 147.295 294.192 149.721C293.75 152.146 287.135 166.48 284.71 168.685C282.284 170.891 282.284 170.891 282.284 170.891C282.284 170.891 284.268 170.449 293.31 181.255C302.351 192.06 307.423 196.471 310.069 197.793C310.891 198.203 312.52 198.487 314.449 198.648C314.273 194.682 314.063 190.684 313.819 187.209Z" fill="#1D191F" stroke="#1D191F" stroke-miterlimit="10" stroke-linecap="round" stroke-linejoin="round"/>
<path d="M286.668 210.589C286.952 212.209 286.358 213.666 285.337 213.846C284.318 214.025 283.26 212.858 282.975 211.238C282.69 209.619 283.285 208.161 284.305 207.981C285.325 207.803 286.382 208.97 286.668 210.589Z" fill="#1D191F" stroke="#1D191F" stroke-miterlimit="10" stroke-linecap="round" stroke-linejoin="round"/>
<path d="M261.97 214.117C262.255 215.736 261.66 217.194 260.64 217.374C259.621 217.553 258.563 216.387 258.277 214.767C257.993 213.148 258.588 211.69 259.608 211.51C260.627 211.331 261.684 212.498 261.97 214.117Z" fill="#1D191F" stroke="#1D191F" stroke-miterlimit="10" stroke-linecap="round" stroke-linejoin="round"/>
<path d="M276.552 200.661C276.552 200.661 283.829 194.928 290.445 199.558" stroke="#1D191F" stroke-miterlimit="10" stroke-linecap="round" stroke-linejoin="round"/>
<path d="M261.777 203.747C261.777 203.747 253.177 199.557 247.223 207.055" stroke="#1D191F" stroke-miterlimit="10" stroke-linecap="round" stroke-linejoin="round"/>
<path d="M263.321 203.968C263.321 203.968 269.275 206.834 269.717 212.348" stroke="#1D191F" stroke-miterlimit="10" stroke-linecap="round" stroke-linejoin="round"/>
<path d="M269.937 227.563C269.937 227.563 272.363 229.327 276.552 228.005" stroke="#1D191F" stroke-miterlimit="10" stroke-linecap="round" stroke-linejoin="round"/>
<path d="M268.173 236.825C268.173 236.825 274.788 236.825 282.507 233.517C290.225 230.209 293.312 225.578 293.312 225.578" stroke="#1D191F" stroke-miterlimit="10" stroke-linecap="round" stroke-linejoin="round"/>
<path d="M271.921 236.605C271.921 236.605 274.348 239.031 278.316 239.031C282.285 239.031 285.813 231.974 285.813 231.974C285.813 231.974 275.67 236.384 271.921 236.605Z" stroke="#1D191F" stroke-miterlimit="10" stroke-linecap="round" stroke-linejoin="round"/>
<path d="M317.788 220.287C323.391 220.287 327.932 214.017 327.932 206.284C327.932 198.55 323.391 192.281 317.788 192.281C312.186 192.281 307.644 198.55 307.644 206.284C307.644 214.017 312.186 220.287 317.788 220.287Z" fill="#1D191F" stroke="#1D191F" stroke-miterlimit="10" stroke-linecap="round" stroke-linejoin="round"/>
<path d="M322.088 214.552C325.681 214.552 328.593 209.764 328.593 203.857C328.593 197.951 325.681 193.163 322.088 193.163C318.496 193.163 315.584 197.951 315.584 203.857C315.584 209.764 318.496 214.552 322.088 214.552Z" fill="#FAFAFA" stroke="#1D191F" stroke-miterlimit="10" stroke-linecap="round" stroke-linejoin="round"/>
<path d="M243.191 221.227C243.191 221.227 243.254 244.135 249.208 246.12C255.162 248.105 271.48 244.135 271.48 244.135" stroke="#1D191F" stroke-width="2" stroke-miterlimit="10" stroke-linecap="round" stroke-linejoin="round"/>
<path d="M279.86 244.024C279.86 245.791 277.688 247.222 275.008 247.222C272.329 247.222 270.157 245.791 270.157 244.024C270.157 242.258 272.329 240.827 275.008 240.827C277.688 240.827 279.86 242.258 279.86 244.024Z" fill="#1D191F" stroke="#1D191F" stroke-miterlimit="10" stroke-linecap="round" stroke-linejoin="round"/>
<path d="M281.24 270.872C281.24 270.872 274.32 283.065 269.377 319.315C264.434 355.565 267.729 362.815 267.729 362.815L260.808 367.099C260.808 367.099 246.308 365.451 251.251 331.179C256.194 296.906 258.831 291.304 258.831 291.304L281.24 270.872Z" fill="#FEF989" stroke="#1D191F" stroke-miterlimit="10" stroke-linecap="round" stroke-linejoin="round"/>
<path d="M325.399 258.35C325.399 258.35 309.581 295.918 293.104 319.315C276.627 342.713 254.217 376.327 254.217 376.327C254.217 376.327 266.081 370.725 291.126 351.94C316.172 333.156 341.547 289.986 344.184 285.701C346.82 281.417 350.774 271.531 350.774 271.531L325.399 258.35Z" fill="#FEF989" stroke="#1D191F" stroke-miterlimit="10" stroke-linecap="round" stroke-linejoin="round"/>
<path d="M188.506 425.294C188.506 425.294 183.789 428.326 176.374 431.359C168.959 434.392 168.28 433.848 170.645 436.414C173.01 438.981 185.473 434.392 188.843 433.044C192.213 431.696 198.617 429.674 198.617 429.674C198.617 429.674 206.368 434.055 211.086 435.403C215.803 436.751 221.533 434.729 221.533 434.729C221.533 434.729 221.87 429.337 217.826 426.305C213.783 423.272 205.02 416.194 201.987 416.531C198.954 416.868 188.506 425.294 188.506 425.294Z" fill="#FAFAFA" stroke="#1D191F" stroke-miterlimit="10" stroke-linecap="round" stroke-linejoin="round"/>
<path d="M186.484 417.206C186.484 417.206 182.441 416.195 179.744 418.217C177.048 420.239 174.015 426.643 173.678 428.328C173.341 430.013 174.015 431.023 176.711 428.665C179.407 426.306 184.126 422.936 184.126 422.936L188.169 421.588L186.484 417.206Z" fill="#FAFAFA" stroke="#1D191F" stroke-miterlimit="10" stroke-linecap="round" stroke-linejoin="round"/>
<path d="M196.932 414.172C196.932 414.172 188.843 411.476 187.158 413.835C185.473 416.194 179.744 429.674 181.43 430.685C183.114 431.696 185.473 429.674 188.506 425.293C191.539 420.912 193.224 418.552 193.224 418.552L197.267 417.878L196.932 414.172Z" fill="#FAFAFA" stroke="#1D191F" stroke-miterlimit="10" stroke-linecap="round" stroke-linejoin="round"/>
<path d="M211.376 417.191C211.376 417.191 200.83 408.952 198.195 410.929C195.558 412.906 186.99 425.758 186.002 428.394C185.013 431.031 189.628 429.713 193.252 426.417C196.877 423.121 201.161 419.496 201.161 419.496L209.4 423.78L211.376 417.191Z" fill="#FAFAFA" stroke="#1D191F" stroke-miterlimit="10" stroke-linecap="round" stroke-linejoin="round"/>
<path d="M249.274 423.451C249.274 423.451 235.434 422.792 229.831 420.815C224.229 418.837 213.024 414.553 209.729 414.883C206.433 415.213 193.911 427.405 191.274 430.042C188.638 432.679 188.904 433.388 191.539 433.717C194.176 434.047 200.501 429.712 203.467 427.405C206.432 425.099 209.399 423.78 209.399 423.78C209.399 423.78 214.013 430.371 217.308 433.337C220.604 436.303 228.513 438.61 231.479 438.28C234.444 437.95 237.08 437.292 237.08 437.292L248.285 436.962L249.274 423.451Z" fill="#FAFAFA" stroke="#1D191F" stroke-miterlimit="10" stroke-linecap="round" stroke-linejoin="round"/>
<path d="M345.502 328.202C345.502 328.202 333.31 342.372 333.968 347.315C334.627 352.258 334.957 357.201 334.957 357.201L326.06 410.917C326.06 410.917 318.48 407.292 318.48 410.258C318.48 413.224 318.48 413.224 318.48 413.224L247.299 420.473L246.64 445.518L360.004 445.848C360.004 445.848 365.606 439.587 366.264 437.28C366.923 434.974 379.446 395.098 382.741 353.246C386.037 311.394 384.389 292.609 382.741 289.314C381.094 286.018 361.65 279.756 361.65 279.756" fill="#FEF989"/>
<path d="M345.502 328.202C345.502 328.202 333.31 342.372 333.968 347.315C334.627 352.258 334.957 357.201 334.957 357.201L326.06 410.917C326.06 410.917 318.48 407.292 318.48 410.258C318.48 413.224 318.48 413.224 318.48 413.224L247.299 420.473L246.64 445.518L360.004 445.848C360.004 445.848 365.606 439.587 366.264 437.28C366.923 434.974 379.446 395.098 382.741 353.246C386.037 311.394 384.389 292.609 382.741 289.314C381.094 286.018 361.65 279.756 361.65 279.756" stroke="#1D191F" stroke-miterlimit="10" stroke-linecap="round" stroke-linejoin="round"/>
<path d="M328.694 410.599C328.694 410.599 339.239 417.52 345.501 419.168L328.694 410.599Z" fill="#FAFAFA"/>
<path d="M328.694 410.599C328.694 410.599 339.239 417.52 345.501 419.168" stroke="#1D191F" stroke-miterlimit="10" stroke-linecap="round" stroke-linejoin="round"/>
<path d="M229.851 343.757L237.986 317.691C237.986 317.691 243.139 312.783 246.575 306.893C250.011 301.002 250.011 289.959 249.52 287.995C249.029 286.032 256.638 277.197 258.847 274.006C261.055 270.815 262.283 265.172 259.338 260.999C256.392 256.826 254.92 263.698 252.958 266.889C250.994 270.08 244.122 273.27 244.122 273.27L236.76 279.16C236.76 279.16 224.734 289.713 223.998 291.185C223.261 292.657 221.789 297.32 221.789 297.32L222.771 311.554L216.39 336.342L229.851 343.757Z" fill="#FAFAFA" stroke="#1D191F" stroke-miterlimit="10" stroke-linecap="round" stroke-linejoin="round"/>
<path d="M231.85 270.571C231.85 270.571 237.74 261.245 239.459 258.301C241.176 255.355 243.877 243.575 245.594 244.312C247.313 245.049 249.03 248.975 248.54 254.128C248.049 259.282 241.913 271.062 241.913 271.062L231.85 270.571Z" stroke="#1D191F" stroke-miterlimit="10" stroke-linecap="round" stroke-linejoin="round"/>
<path d="M217.616 328.981L222.769 311.556L220.56 283.578L227.432 270.325L246.33 267.871C246.33 267.871 257.865 274.006 258.845 274.006C259.827 274.006 258.845 276.706 256.636 277.197C254.427 277.687 250.256 276.46 250.256 276.46L257.373 281.123C257.373 281.123 256.883 283.332 255.164 283.823C253.447 284.313 250.011 284.313 250.011 284.313C250.011 284.313 256.146 288.239 254.674 288.976C253.202 289.713 251.483 289.958 250.011 289.958C248.539 289.958 245.348 289.958 245.348 289.958L241.667 289.468L236.022 291.677C236.022 291.677 239.948 301.739 239.703 306.648C239.458 311.556 233.322 314.747 233.322 314.747" fill="#FAFAFA"/>
<path d="M217.616 328.981L222.769 311.556L220.56 283.578L227.432 270.325L246.33 267.871C246.33 267.871 257.865 274.006 258.845 274.006C259.827 274.006 258.845 276.706 256.636 277.197C254.427 277.687 250.256 276.46 250.256 276.46L257.373 281.123C257.373 281.123 256.883 283.332 255.164 283.823C253.447 284.313 250.011 284.313 250.011 284.313C250.011 284.313 256.146 288.239 254.674 288.976C253.202 289.713 251.483 289.958 250.011 289.958C248.539 289.958 245.348 289.958 245.348 289.958L241.667 289.468L236.022 291.677C236.022 291.677 239.948 301.739 239.703 306.648C239.458 311.556 233.322 314.747 233.322 314.747" stroke="#1D191F" stroke-miterlimit="10" stroke-linecap="round" stroke-linejoin="round"/>
<path d="M250.257 276.462C250.257 276.462 246.331 273.271 244.122 273.271C241.913 273.271 228.416 275.725 228.416 275.725" stroke="#1D191F" stroke-miterlimit="10" stroke-linecap="round" stroke-linejoin="round"/>
<path d="M250.012 284.315C250.012 284.315 243.632 280.879 241.668 280.879C239.704 280.879 224.243 284.806 224.243 284.806" stroke="#1D191F" stroke-miterlimit="10" stroke-linecap="round" stroke-linejoin="round"/>
<path d="M217.931 323.507L237.854 336.932C237.854 336.932 228.983 384.582 228.11 388.653C227.237 392.725 220.84 403.486 217.641 406.685C214.442 409.884 210.661 409.303 201.935 406.975C193.21 404.649 185.649 397.669 185.94 388.653C186.23 379.637 217.931 323.507 217.931 323.507Z" fill="#FEF989" stroke="#1D191F" stroke-miterlimit="10" stroke-linecap="round" stroke-linejoin="round"/>
<path d="M114.933 438.98H109.142V440.763H114.933V438.98Z" fill="#FAFAFA" stroke="#1D191F" stroke-miterlimit="10" stroke-linecap="round" stroke-linejoin="round"/>
<path d="M122.953 438.98H117.162V440.763H122.953V438.98Z" fill="#FAFAFA" stroke="#1D191F" stroke-miterlimit="10" stroke-linecap="round" stroke-linejoin="round"/>
<path d="M130.973 438.98H125.182V440.763H130.973V438.98Z" fill="#FAFAFA" stroke="#1D191F" stroke-miterlimit="10" stroke-linecap="round" stroke-linejoin="round"/>
<path d="M138.992 438.98H133.201V440.763H138.992V438.98Z" fill="#FAFAFA" stroke="#1D191F" stroke-miterlimit="10" stroke-linecap="round" stroke-linejoin="round"/>
<path d="M147.012 438.98H141.22V440.763H147.012V438.98Z" fill="#FAFAFA" stroke="#1D191F" stroke-miterlimit="10" stroke-linecap="round" stroke-linejoin="round"/>
<path d="M155.031 438.98H149.24V440.763H155.031V438.98Z" fill="#FAFAFA" stroke="#1D191F" stroke-miterlimit="10" stroke-linecap="round" stroke-linejoin="round"/>
<path d="M163.051 438.98H157.259V440.763H163.051V438.98Z" fill="#FAFAFA" stroke="#1D191F" stroke-miterlimit="10" stroke-linecap="round" stroke-linejoin="round"/>
<path d="M171.071 438.98H165.278V440.763H171.071V438.98Z" fill="#FAFAFA" stroke="#1D191F" stroke-miterlimit="10" stroke-linecap="round" stroke-linejoin="round"/>
<path d="M179.089 438.98H173.298V440.763H179.089V438.98Z" fill="#FAFAFA" stroke="#1D191F" stroke-miterlimit="10" stroke-linecap="round" stroke-linejoin="round"/>
<path d="M187.109 438.98H181.318V440.763H187.109V438.98Z" fill="#FAFAFA" stroke="#1D191F" stroke-miterlimit="10" stroke-linecap="round" stroke-linejoin="round"/>
<path d="M195.128 438.98H189.337V440.763H195.128V438.98Z" fill="#FAFAFA" stroke="#1D191F" stroke-miterlimit="10" stroke-linecap="round" stroke-linejoin="round"/>
<path d="M203.148 438.98H197.357V440.763H203.148V438.98Z" fill="#FAFAFA" stroke="#1D191F" stroke-miterlimit="10" stroke-linecap="round" stroke-linejoin="round"/>
<path d="M211.168 438.98H205.376V440.763H211.168V438.98Z" fill="#FAFAFA" stroke="#1D191F" stroke-miterlimit="10" stroke-linecap="round" stroke-linejoin="round"/>
<path d="M219.187 438.98H213.396V440.763H219.187V438.98Z" fill="#FAFAFA" stroke="#1D191F" stroke-miterlimit="10" stroke-linecap="round" stroke-linejoin="round"/>
<path d="M227.207 438.98H221.416V440.763H227.207V438.98Z" fill="#FAFAFA" stroke="#1D191F" stroke-miterlimit="10" stroke-linecap="round" stroke-linejoin="round"/>
<path d="M235.226 438.98H229.434V440.763H235.226V438.98Z" fill="#FAFAFA" stroke="#1D191F" stroke-miterlimit="10" stroke-linecap="round" stroke-linejoin="round"/>
<path d="M249.188 440.382H105.813V445.429H249.188V440.382Z" fill="#FAFAFA" stroke="#1D191F" stroke-miterlimit="10" stroke-linecap="round" stroke-linejoin="round"/>
<path d="M249.188 440.382H194.224V445.429H249.188V440.382Z" fill="#FAFAFA" stroke="#1D191F" stroke-miterlimit="10" stroke-linecap="round" stroke-linejoin="round"/>
<path d="M150.555 396.218H37.8324L15.1936 276.345H127.916L150.555 396.218Z" fill="#1D191F" stroke="#FAFAFA" stroke-miterlimit="10" stroke-linecap="round" stroke-linejoin="round"/>
<path d="M147.125 393.179H37.7766L16.2847 279.382H125.633L147.125 393.179Z" fill="#1D191F" stroke="#FAFAFA" stroke-miterlimit="10" stroke-linecap="round" stroke-linejoin="round"/>
<path d="M126.07 384.123H44.7693L28.7898 299.515H110.09L126.07 384.123Z" fill="#1D191F" stroke="#FAFAFA" stroke-miterlimit="10" stroke-linecap="round" stroke-linejoin="round"/>
<path d="M28.7899 299.514L16.2847 279.382" stroke="#1D191F" stroke-miterlimit="10" stroke-linecap="round" stroke-linejoin="round"/>
<path d="M110.09 299.514L125.633 279.382" stroke="#FAFAFA" stroke-miterlimit="10" stroke-linecap="round" stroke-linejoin="round"/>
<path d="M126.07 384.123L147.125 393.18" stroke="#FAFAFA" stroke-miterlimit="10" stroke-linecap="round" stroke-linejoin="round"/>
<path d="M44.7696 384.123L37.7769 393.18" stroke="#1D191F" stroke-miterlimit="10" stroke-linecap="round" stroke-linejoin="round"/>
<path d="M77.8269 358.784H59.3201L71.0979 348.268H89.6047L77.8269 358.784Z" fill="#1D191F" stroke="#FAFAFA" stroke-miterlimit="10" stroke-linecap="round" stroke-linejoin="round"/>
<path d="M139.236 439.12H71.5181V445.85H139.236V439.12Z" fill="#1D191F" stroke="#FAFAFA" stroke-miterlimit="10" stroke-linecap="round" stroke-linejoin="round"/>
<path d="M100.54 445.85H82.0333L59.3201 420.041H77.8269L100.54 445.85Z" fill="#1D191F" stroke="#FAFAFA" stroke-miterlimit="10" stroke-linecap="round" stroke-linejoin="round"/>
<path d="M77.8269 359.205H59.3201V419.773H77.8269V359.205Z" fill="#1D191F" stroke="#FAFAFA" stroke-miterlimit="10" stroke-linecap="round" stroke-linejoin="round"/>
<path d="M348.836 434.327C348.836 434.327 352.132 441.247 360.37 445.532L348.836 434.327Z" fill="#FAFAFA"/>
<path d="M348.836 434.327C348.836 434.327 352.132 441.247 360.37 445.532" stroke="#1D191F" stroke-miterlimit="10" stroke-linecap="round" stroke-linejoin="round"/>
<path d="M1 445.85H531.101" stroke="#1D191F" stroke-miterlimit="10" stroke-linecap="round" stroke-linejoin="round"/>
</svg>
