<svg width="19" height="17" viewBox="0 0 19 17" fill="none" xmlns="http://www.w3.org/2000/svg">
<path d="M12.4718 14.0828C12.4718 14.0828 17.4236 10.517 17.0898 4.03002C17.0898 4.03002 18.7589 2.5646 19 1.91982C19 1.91982 17.5719 2.54505 16.8857 2.4669C16.8857 2.4669 18.5178 1.21639 18.4251 0.200384C18.4251 0.200384 16.8301 1.13824 16.0512 1.21638C16.0512 1.21638 13.1209 -1.38229 10.4132 1.06007C10.4132 1.06007 9.07789 2.19333 9.33755 5.00696C9.33755 5.00696 5.26035 5.00696 1.36277 0.747454C1.36277 0.747454 -0.195098 4.14726 2.54969 6.15976C2.54969 6.15976 1.67805 6.37468 0.787831 5.59314C0.787831 5.59314 0.732204 8.87569 3.94064 9.75494C3.94064 9.75494 2.97627 10.048 2.23441 9.85264C2.23441 9.85264 2.88353 12.4904 5.79523 12.6272C5.79523 12.6272 3.95919 14.7374 0.25 14.3466C0.249993 14.3466 5.15542 18.8308 12.4718 14.0828Z" fill="#1D191F"/>
</svg>
