<svg width="22" height="23" viewBox="0 0 22 23" fill="none" xmlns="http://www.w3.org/2000/svg">
<g clip-path="url(#clip0_301_5775-918970)">
<path d="M10.9786 0.521484C7.47884 0.521484 4.6316 3.36877 4.6316 6.86844C4.6316 9.03617 5.72425 10.9533 7.38749 12.0988C5.83464 12.6346 4.41134 13.5198 3.21561 14.7155C1.14198 16.7892 0 19.5461 0 22.4786H1.7154C1.7154 17.3709 5.87082 13.2154 10.9786 13.2154C14.4783 13.2154 17.3255 10.3682 17.3255 6.86844C17.3255 3.36872 14.4783 0.521484 10.9786 0.521484ZM10.9786 11.5C8.42471 11.5 6.347 9.42233 6.347 6.86848C6.347 4.31464 8.42471 2.23688 10.9786 2.23688C13.5324 2.23688 15.6101 4.31459 15.6101 6.86848C15.6101 9.42238 13.5324 11.5 10.9786 11.5Z" fill="#FAFAFA"/>
<path d="M18.3978 17.1608V13.5585H16.6824V17.1608H13.0801V18.8762H16.6824V22.4786H18.3978V18.8762H22.0002V17.1608H18.3978Z" fill="#FAFAFA"/>
</g>
<defs>
<clipPath id="clip0_301_5775-918970">
<rect width="22" height="22" fill="white" transform="translate(0 0.5)"/>
</clipPath>
</defs>
</svg>
