<svg width="22" height="23" viewBox="0 0 22 23" fill="none" xmlns="http://www.w3.org/2000/svg">
<g clip-path="url(#clip0_301_12112-079231)">
<path d="M10.9786 0.876709C7.47884 0.876709 4.6316 3.72399 4.6316 7.22367C4.6316 9.3914 5.72425 11.3085 7.38749 12.454C5.83464 12.9899 4.41134 13.875 3.21561 15.0707C1.14198 17.1444 0 19.9013 0 22.8338H1.7154C1.7154 17.7261 5.87082 13.5707 10.9786 13.5707C14.4783 13.5707 17.3255 10.7234 17.3255 7.22367C17.3255 3.72395 14.4783 0.876709 10.9786 0.876709ZM10.9786 11.8553C8.42471 11.8553 6.347 9.77756 6.347 7.22371C6.347 4.66986 8.42471 2.59211 10.9786 2.59211C13.5324 2.59211 15.6101 4.66982 15.6101 7.22371C15.6101 9.7776 13.5324 11.8553 10.9786 11.8553Z" fill="#1D191F"/>
<path d="M18.3978 17.5159V13.9136H16.6824V17.5159H13.0801V19.2313H16.6824V22.8337H18.3978V19.2313H22.0002V17.5159H18.3978Z" fill="#1D191F"/>
</g>
<defs>
<clipPath id="clip0_301_12112-079231">
<rect width="22" height="22" fill="white" transform="translate(0 0.855225)"/>
</clipPath>
</defs>
</svg>
