<svg width="37" height="37" viewBox="0 0 37 37" fill="none" xmlns="http://www.w3.org/2000/svg">
<g clip-path="url(#clip0_301_12203-072002)">
<path d="M35.375 23.3354C34.754 23.3354 34.25 23.8394 34.25 24.4604V32.3354H2.75V18.8354H15.125C15.746 18.8354 16.25 18.3314 16.25 17.7104C16.25 17.0894 15.746 16.5854 15.125 16.5854H2.75V12.0854H15.125C15.746 12.0854 16.25 11.5814 16.25 10.9604C16.25 10.3394 15.746 9.83545 15.125 9.83545H2.75C1.508 9.83545 0.5 10.8434 0.5 12.0854V32.3354C0.5 33.5774 1.508 34.5854 2.75 34.5854H34.25C35.492 34.5854 36.5 33.5774 36.5 32.3354V24.4604C36.5 23.8394 35.996 23.3354 35.375 23.3354Z" fill="black"/>
<path d="M10.625 23.3354H6.125C5.504 23.3354 5 23.8394 5 24.4604C5 25.0814 5.504 25.5854 6.125 25.5854H10.625C11.246 25.5854 11.75 25.0814 11.75 24.4604C11.75 23.8394 11.246 23.3354 10.625 23.3354Z" fill="black"/>
<path d="M35.8182 6.55086L27.9432 3.17586C27.6575 3.05661 27.3403 3.05661 27.0545 3.17586L19.1795 6.55086C18.7678 6.72861 18.5 7.13586 18.5 7.58586V12.0859C18.5 18.2756 20.7883 21.8936 26.9398 25.4374C27.113 25.5364 27.3065 25.5859 27.5 25.5859C27.6935 25.5859 27.887 25.5364 28.0602 25.4374C34.2117 21.9026 36.5 18.2846 36.5 12.0859V7.58586C36.5 7.13586 36.2322 6.72861 35.8182 6.55086ZM34.25 12.0859C34.25 17.2811 32.531 20.1409 27.5 23.1559C22.469 20.1341 20.75 17.2744 20.75 12.0859V8.32836L27.5 5.43486L34.25 8.32836V12.0859Z" fill="black"/>
<path d="M31.5794 10.0807C31.0957 9.69824 30.3892 9.77249 29.9977 10.2562L26.4607 14.6797L25.0612 12.5872C24.7124 12.0697 24.0127 11.9325 23.5019 12.2745C22.9867 12.6187 22.8449 13.3185 23.1892 13.8337L25.4392 17.2087C25.6394 17.508 25.9679 17.6925 26.3279 17.7105C26.3437 17.7105 26.3617 17.7105 26.3752 17.7105C26.7149 17.7105 27.0389 17.5575 27.2549 17.2875L31.7549 11.6625C32.1419 11.1765 32.0654 10.47 31.5794 10.0807Z" fill="black"/>
</g>
<defs>
<clipPath id="clip0_301_12203-072002">
<rect width="36" height="36" fill="white" transform="translate(0.5 0.835938)"/>
</clipPath>
</defs>
</svg>
